%TF.GenerationSoftware,KiCad,Pcbnew,6.0.4*%
%TF.CreationDate,2022-04-20T20:25:44+02:00*%
%TF.ProjectId,main_pcb,6d61696e-5f70-4636-922e-6b696361645f,rev?*%
%TF.SameCoordinates,Original*%
%TF.FileFunction,Copper,L1,Top*%
%TF.FilePolarity,Positive*%
%FSLAX46Y46*%
G04 Gerber Fmt 4.6, Leading zero omitted, Abs format (unit mm)*
G04 Created by KiCad (PCBNEW 6.0.4) date 2022-04-20 20:25:44*
%MOMM*%
%LPD*%
G01*
G04 APERTURE LIST*
G04 Aperture macros list*
%AMRoundRect*
0 Rectangle with rounded corners*
0 $1 Rounding radius*
0 $2 $3 $4 $5 $6 $7 $8 $9 X,Y pos of 4 corners*
0 Add a 4 corners polygon primitive as box body*
4,1,4,$2,$3,$4,$5,$6,$7,$8,$9,$2,$3,0*
0 Add four circle primitives for the rounded corners*
1,1,$1+$1,$2,$3*
1,1,$1+$1,$4,$5*
1,1,$1+$1,$6,$7*
1,1,$1+$1,$8,$9*
0 Add four rect primitives between the rounded corners*
20,1,$1+$1,$2,$3,$4,$5,0*
20,1,$1+$1,$4,$5,$6,$7,0*
20,1,$1+$1,$6,$7,$8,$9,0*
20,1,$1+$1,$8,$9,$2,$3,0*%
%AMFreePoly0*
4,1,9,3.862500,-0.866500,0.737500,-0.866500,0.737500,-0.450000,-0.737500,-0.450000,-0.737500,0.450000,0.737500,0.450000,0.737500,0.866500,3.862500,0.866500,3.862500,-0.866500,3.862500,-0.866500,$1*%
G04 Aperture macros list end*
%TA.AperFunction,NonConductor*%
%ADD10C,0.200000*%
%TD*%
%TA.AperFunction,ComponentPad*%
%ADD11R,1.700000X1.700000*%
%TD*%
%TA.AperFunction,ComponentPad*%
%ADD12O,1.700000X1.700000*%
%TD*%
%TA.AperFunction,SMDPad,CuDef*%
%ADD13RoundRect,0.062500X-0.350000X-0.062500X0.350000X-0.062500X0.350000X0.062500X-0.350000X0.062500X0*%
%TD*%
%TA.AperFunction,SMDPad,CuDef*%
%ADD14RoundRect,0.062500X-0.062500X-0.350000X0.062500X-0.350000X0.062500X0.350000X-0.062500X0.350000X0*%
%TD*%
%TA.AperFunction,SMDPad,CuDef*%
%ADD15R,2.500000X2.500000*%
%TD*%
%TA.AperFunction,SMDPad,CuDef*%
%ADD16R,2.000000X0.900000*%
%TD*%
%TA.AperFunction,SMDPad,CuDef*%
%ADD17R,0.900000X2.000000*%
%TD*%
%TA.AperFunction,SMDPad,CuDef*%
%ADD18R,5.000000X5.000000*%
%TD*%
%TA.AperFunction,SMDPad,CuDef*%
%ADD19RoundRect,0.075000X-0.350000X-0.075000X0.350000X-0.075000X0.350000X0.075000X-0.350000X0.075000X0*%
%TD*%
%TA.AperFunction,SMDPad,CuDef*%
%ADD20RoundRect,0.075000X0.075000X-0.350000X0.075000X0.350000X-0.075000X0.350000X-0.075000X-0.350000X0*%
%TD*%
%TA.AperFunction,SMDPad,CuDef*%
%ADD21R,1.000000X1.000000*%
%TD*%
%TA.AperFunction,SMDPad,CuDef*%
%ADD22R,1.050000X2.200000*%
%TD*%
%TA.AperFunction,SMDPad,CuDef*%
%ADD23RoundRect,0.100000X-0.175000X-0.100000X0.175000X-0.100000X0.175000X0.100000X-0.175000X0.100000X0*%
%TD*%
%TA.AperFunction,SMDPad,CuDef*%
%ADD24RoundRect,0.100000X-0.100000X-0.175000X0.100000X-0.175000X0.100000X0.175000X-0.100000X0.175000X0*%
%TD*%
%TA.AperFunction,SMDPad,CuDef*%
%ADD25RoundRect,0.075000X-0.662500X-0.075000X0.662500X-0.075000X0.662500X0.075000X-0.662500X0.075000X0*%
%TD*%
%TA.AperFunction,SMDPad,CuDef*%
%ADD26RoundRect,0.075000X-0.075000X-0.662500X0.075000X-0.662500X0.075000X0.662500X-0.075000X0.662500X0*%
%TD*%
%TA.AperFunction,SMDPad,CuDef*%
%ADD27R,1.300000X0.900000*%
%TD*%
%TA.AperFunction,SMDPad,CuDef*%
%ADD28FreePoly0,0.000000*%
%TD*%
%TA.AperFunction,SMDPad,CuDef*%
%ADD29RoundRect,0.200000X0.200000X-0.700000X0.200000X0.700000X-0.200000X0.700000X-0.200000X-0.700000X0*%
%TD*%
%TA.AperFunction,SMDPad,CuDef*%
%ADD30C,0.250000*%
%TD*%
G04 APERTURE END LIST*
D10*
X101600000Y-25400000D02*
X152400000Y-25400000D01*
X152400000Y-25400000D02*
X152400000Y-76200000D01*
X152400000Y-76200000D02*
X101600000Y-76200000D01*
X101600000Y-76200000D02*
X101600000Y-25400000D01*
D11*
%TO.P,bat_power1,1,Pin_1*%
%TO.N,unconnected-(bat_power1-Pad1)*%
X125730000Y-36830000D03*
D12*
%TO.P,bat_power1,2,Pin_2*%
%TO.N,unconnected-(bat_power1-Pad2)*%
X128270000Y-36830000D03*
%TD*%
D13*
%TO.P,U2,1,CE*%
%TO.N,CE*%
X125062500Y-57420000D03*
%TO.P,U2,2,CSN*%
%TO.N,CSN*%
X125062500Y-57920000D03*
%TO.P,U2,3,SCK*%
%TO.N,SCK*%
X125062500Y-58420000D03*
%TO.P,U2,4,MOSI*%
%TO.N,MISO*%
X125062500Y-58920000D03*
%TO.P,U2,5,MISO*%
%TO.N,MOSI*%
X125062500Y-59420000D03*
D14*
%TO.P,U2,6,IRQ*%
%TO.N,IRQ*%
X126000000Y-60357500D03*
%TO.P,U2,7,VDD*%
%TO.N,+3V3*%
X126500000Y-60357500D03*
%TO.P,U2,8,VSS*%
%TO.N,GND*%
X127000000Y-60357500D03*
%TO.P,U2,9,XC2*%
%TO.N,Net-(C1-Pad1)*%
X127500000Y-60357500D03*
%TO.P,U2,10,XC1*%
%TO.N,Net-(C2-Pad1)*%
X128000000Y-60357500D03*
D13*
%TO.P,U2,11,VDD_PA*%
%TO.N,Net-(C3-Pad2)*%
X128937500Y-59420000D03*
%TO.P,U2,12,ANT1*%
%TO.N,Net-(L2-Pad1)*%
X128937500Y-58920000D03*
%TO.P,U2,13,ANT2*%
%TO.N,Net-(L3-Pad1)*%
X128937500Y-58420000D03*
%TO.P,U2,14,VSS*%
%TO.N,GND*%
X128937500Y-57920000D03*
%TO.P,U2,15,VDD*%
%TO.N,+3V3*%
X128937500Y-57420000D03*
D14*
%TO.P,U2,16,IREF*%
%TO.N,Net-(R2-Pad1)*%
X128000000Y-56482500D03*
%TO.P,U2,17,VSS*%
%TO.N,GND*%
X127500000Y-56482500D03*
%TO.P,U2,18,VDD*%
%TO.N,+3V3*%
X127000000Y-56482500D03*
%TO.P,U2,19,DVDD*%
%TO.N,Net-(C7-Pad2)*%
X126500000Y-56482500D03*
%TO.P,U2,20,VSS*%
%TO.N,GND*%
X126000000Y-56482500D03*
D15*
%TO.P,U2,21*%
%TO.N,N/C*%
X127000000Y-58420000D03*
%TD*%
D12*
%TO.P,M4,3,Pin_3*%
%TO.N,unconnected-(M4-Pad3)*%
X113030000Y-68120000D03*
%TO.P,M4,2,Pin_2*%
%TO.N,unconnected-(M4-Pad2)*%
X113030000Y-70660000D03*
D11*
%TO.P,M4,1,Pin_1*%
%TO.N,unconnected-(M4-Pad1)*%
X113030000Y-73200000D03*
%TD*%
%TO.P,M3,1,Pin_1*%
%TO.N,unconnected-(M3-Pad1)*%
X140400000Y-28400000D03*
D12*
%TO.P,M3,2,Pin_2*%
%TO.N,unconnected-(M3-Pad2)*%
X140400000Y-30940000D03*
%TO.P,M3,3,Pin_3*%
%TO.N,unconnected-(M3-Pad3)*%
X140400000Y-33480000D03*
%TD*%
%TO.P,M2,3,Pin_3*%
%TO.N,unconnected-(M2-Pad3)*%
X140970000Y-73660000D03*
%TO.P,M2,2,Pin_2*%
%TO.N,unconnected-(M2-Pad2)*%
X140970000Y-71120000D03*
D11*
%TO.P,M2,1,Pin_1*%
%TO.N,unconnected-(M2-Pad1)*%
X140970000Y-68580000D03*
%TD*%
D12*
%TO.P,M1,3,Pin_3*%
%TO.N,unconnected-(M1-Pad3)*%
X113030000Y-27940000D03*
%TO.P,M1,2,Pin_2*%
%TO.N,unconnected-(M1-Pad2)*%
X113030000Y-30480000D03*
D11*
%TO.P,M1,1,Pin_1*%
%TO.N,unconnected-(M1-Pad1)*%
X113030000Y-33020000D03*
%TD*%
D16*
%TO.P,U8,1,GND*%
%TO.N,Net-(U8-Pad1)*%
X104530000Y-43815000D03*
%TO.P,U8,2,VDD*%
%TO.N,unconnected-(U8-Pad2)*%
X104530000Y-45085000D03*
%TO.P,U8,3,EN*%
%TO.N,unconnected-(U8-Pad3)*%
X104530000Y-46355000D03*
%TO.P,U8,4,SENSOR_VP*%
%TO.N,unconnected-(U8-Pad4)*%
X104530000Y-47625000D03*
%TO.P,U8,5,SENSOR_VN*%
%TO.N,unconnected-(U8-Pad5)*%
X104530000Y-48895000D03*
%TO.P,U8,6,IO34*%
%TO.N,unconnected-(U8-Pad6)*%
X104530000Y-50165000D03*
%TO.P,U8,7,IO35*%
%TO.N,unconnected-(U8-Pad7)*%
X104530000Y-51435000D03*
%TO.P,U8,8,IO32*%
%TO.N,unconnected-(U8-Pad8)*%
X104530000Y-52705000D03*
%TO.P,U8,9,IO33*%
%TO.N,unconnected-(U8-Pad9)*%
X104530000Y-53975000D03*
%TO.P,U8,10,IO25*%
%TO.N,unconnected-(U8-Pad10)*%
X104530000Y-55245000D03*
%TO.P,U8,11,IO26*%
%TO.N,unconnected-(U8-Pad11)*%
X104530000Y-56515000D03*
%TO.P,U8,12,IO27*%
%TO.N,unconnected-(U8-Pad12)*%
X104530000Y-57785000D03*
%TO.P,U8,13,IO14*%
%TO.N,unconnected-(U8-Pad13)*%
X104530000Y-59055000D03*
%TO.P,U8,14,IO12*%
%TO.N,unconnected-(U8-Pad14)*%
X104530000Y-60325000D03*
D17*
%TO.P,U8,15,GND*%
%TO.N,Net-(U8-Pad1)*%
X107315000Y-61325000D03*
%TO.P,U8,16,IO13*%
%TO.N,unconnected-(U8-Pad16)*%
X108585000Y-61325000D03*
%TO.P,U8,17,SHD/SD2*%
%TO.N,unconnected-(U8-Pad17)*%
X109855000Y-61325000D03*
%TO.P,U8,18,SWP/SD3*%
%TO.N,unconnected-(U8-Pad18)*%
X111125000Y-61325000D03*
%TO.P,U8,19,SCS/CMD*%
%TO.N,unconnected-(U8-Pad19)*%
X112395000Y-61325000D03*
%TO.P,U8,20,SCK/CLK*%
%TO.N,unconnected-(U8-Pad20)*%
X113665000Y-61325000D03*
%TO.P,U8,21,SDO/SD0*%
%TO.N,unconnected-(U8-Pad21)*%
X114935000Y-61325000D03*
%TO.P,U8,22,SDI/SD1*%
%TO.N,unconnected-(U8-Pad22)*%
X116205000Y-61325000D03*
%TO.P,U8,23,IO15*%
%TO.N,unconnected-(U8-Pad23)*%
X117475000Y-61325000D03*
%TO.P,U8,24,IO2*%
%TO.N,unconnected-(U8-Pad24)*%
X118745000Y-61325000D03*
D16*
%TO.P,U8,25,IO0*%
%TO.N,unconnected-(U8-Pad25)*%
X121530000Y-60325000D03*
%TO.P,U8,26,IO4*%
%TO.N,unconnected-(U8-Pad26)*%
X121530000Y-59055000D03*
%TO.P,U8,27,IO16*%
%TO.N,unconnected-(U8-Pad27)*%
X121530000Y-57785000D03*
%TO.P,U8,28,IO17*%
%TO.N,unconnected-(U8-Pad28)*%
X121530000Y-56515000D03*
%TO.P,U8,29,IO5*%
%TO.N,unconnected-(U8-Pad29)*%
X121530000Y-55245000D03*
%TO.P,U8,30,IO18*%
%TO.N,unconnected-(U8-Pad30)*%
X121530000Y-53975000D03*
%TO.P,U8,31,IO19*%
%TO.N,unconnected-(U8-Pad31)*%
X121530000Y-52705000D03*
%TO.P,U8,32,NC*%
%TO.N,unconnected-(U8-Pad32)*%
X121530000Y-51435000D03*
%TO.P,U8,33,IO21*%
%TO.N,unconnected-(U8-Pad33)*%
X121530000Y-50165000D03*
%TO.P,U8,34,RXD0/IO3*%
%TO.N,unconnected-(U8-Pad34)*%
X121530000Y-48895000D03*
%TO.P,U8,35,TXD0/IO1*%
%TO.N,unconnected-(U8-Pad35)*%
X121530000Y-47625000D03*
%TO.P,U8,36,IO22*%
%TO.N,unconnected-(U8-Pad36)*%
X121530000Y-46355000D03*
%TO.P,U8,37,IO23*%
%TO.N,unconnected-(U8-Pad37)*%
X121530000Y-45085000D03*
%TO.P,U8,38,GND*%
%TO.N,Net-(U8-Pad1)*%
X121530000Y-43815000D03*
D18*
%TO.P,U8,39,GND*%
X112030000Y-51315000D03*
%TD*%
D19*
%TO.P,U4,1,CLKIN*%
%TO.N,unconnected-(U4-Pad1)*%
X125000000Y-49800000D03*
%TO.P,U4,2*%
%TO.N,N/C*%
X125000000Y-50300000D03*
%TO.P,U4,3*%
X125000000Y-50800000D03*
%TO.P,U4,4*%
X125000000Y-51300000D03*
%TO.P,U4,5*%
X125000000Y-51800000D03*
%TO.P,U4,6,AUX_SDA*%
%TO.N,unconnected-(U4-Pad6)*%
X125000000Y-52300000D03*
D20*
%TO.P,U4,7,AUX_SCL*%
%TO.N,unconnected-(U4-Pad7)*%
X125700000Y-53000000D03*
%TO.P,U4,8,VDDIO*%
%TO.N,unconnected-(U4-Pad8)*%
X126200000Y-53000000D03*
%TO.P,U4,9,AD0*%
%TO.N,unconnected-(U4-Pad9)*%
X126700000Y-53000000D03*
%TO.P,U4,10,REGOUT*%
%TO.N,unconnected-(U4-Pad10)*%
X127200000Y-53000000D03*
%TO.P,U4,11,FSYNC*%
%TO.N,unconnected-(U4-Pad11)*%
X127700000Y-53000000D03*
%TO.P,U4,12,INT*%
%TO.N,unconnected-(U4-Pad12)*%
X128200000Y-53000000D03*
D19*
%TO.P,U4,13,VDD*%
%TO.N,unconnected-(U4-Pad13)*%
X128900000Y-52300000D03*
%TO.P,U4,14*%
%TO.N,N/C*%
X128900000Y-51800000D03*
%TO.P,U4,15*%
X128900000Y-51300000D03*
%TO.P,U4,16*%
X128900000Y-50800000D03*
%TO.P,U4,17*%
X128900000Y-50300000D03*
%TO.P,U4,18,GND*%
%TO.N,unconnected-(U4-Pad18)*%
X128900000Y-49800000D03*
D20*
%TO.P,U4,19*%
%TO.N,N/C*%
X128200000Y-49100000D03*
%TO.P,U4,20,CPOUT*%
%TO.N,unconnected-(U4-Pad20)*%
X127700000Y-49100000D03*
%TO.P,U4,21*%
%TO.N,N/C*%
X127200000Y-49100000D03*
%TO.P,U4,22*%
X126700000Y-49100000D03*
%TO.P,U4,23,SCL*%
%TO.N,unconnected-(U4-Pad23)*%
X126200000Y-49100000D03*
%TO.P,U4,24,SDA*%
%TO.N,unconnected-(U4-Pad24)*%
X125700000Y-49100000D03*
%TD*%
D21*
%TO.P,REF\u002A\u002A,1*%
%TO.N,N/C*%
X147320000Y-63730000D03*
D22*
%TO.P,REF\u002A\u002A,2*%
X148795000Y-62230000D03*
X145845000Y-62230000D03*
D21*
X147320000Y-60730000D03*
%TD*%
D23*
%TO.P,U6,1,VDDio*%
%TO.N,unconnected-(U6-Pad1)*%
X126145000Y-44520000D03*
%TO.P,U6,2,SCL/SCLK*%
%TO.N,unconnected-(U6-Pad2)*%
X126145000Y-45120000D03*
D24*
%TO.P,U6,3,GND*%
%TO.N,Net-(U6-Pad3)*%
X126470000Y-45745000D03*
%TO.P,U6,4,SDA/MOSI*%
%TO.N,unconnected-(U6-Pad4)*%
X127070000Y-45745000D03*
%TO.P,U6,5,SA0/MISO*%
%TO.N,unconnected-(U6-Pad5)*%
X127670000Y-45745000D03*
D23*
%TO.P,U6,6,~{CS}*%
%TO.N,unconnected-(U6-Pad6)*%
X127995000Y-45120000D03*
%TO.P,U6,7,INT_DRDY*%
%TO.N,unconnected-(U6-Pad7)*%
X127995000Y-44520000D03*
D24*
%TO.P,U6,8,GND*%
%TO.N,Net-(U6-Pad3)*%
X127670000Y-43895000D03*
%TO.P,U6,9,GND*%
X127070000Y-43895000D03*
%TO.P,U6,10,VDD*%
%TO.N,unconnected-(U6-Pad10)*%
X126470000Y-43895000D03*
%TD*%
D25*
%TO.P,U1,1,VLCD*%
%TO.N,unconnected-(U1-Pad1)*%
X122837500Y-65830000D03*
%TO.P,U1,2,PC13*%
%TO.N,unconnected-(U1-Pad2)*%
X122837500Y-66330000D03*
%TO.P,U1,3,PC14*%
%TO.N,unconnected-(U1-Pad3)*%
X122837500Y-66830000D03*
%TO.P,U1,4,PC15*%
%TO.N,unconnected-(U1-Pad4)*%
X122837500Y-67330000D03*
%TO.P,U1,5,PH0*%
%TO.N,unconnected-(U1-Pad5)*%
X122837500Y-67830000D03*
%TO.P,U1,6,PH1*%
%TO.N,unconnected-(U1-Pad6)*%
X122837500Y-68330000D03*
%TO.P,U1,7,NRST*%
%TO.N,unconnected-(U1-Pad7)*%
X122837500Y-68830000D03*
%TO.P,U1,8,VSSA*%
%TO.N,unconnected-(U1-Pad8)*%
X122837500Y-69330000D03*
%TO.P,U1,9,VDDA*%
%TO.N,unconnected-(U1-Pad9)*%
X122837500Y-69830000D03*
%TO.P,U1,10,PA0*%
%TO.N,unconnected-(U1-Pad10)*%
X122837500Y-70330000D03*
%TO.P,U1,11,PA1*%
%TO.N,unconnected-(U1-Pad11)*%
X122837500Y-70830000D03*
%TO.P,U1,12,PA2*%
%TO.N,unconnected-(U1-Pad12)*%
X122837500Y-71330000D03*
D26*
%TO.P,U1,13,PA3*%
%TO.N,unconnected-(U1-Pad13)*%
X124250000Y-72742500D03*
%TO.P,U1,14,PA4*%
%TO.N,unconnected-(U1-Pad14)*%
X124750000Y-72742500D03*
%TO.P,U1,15,PA5*%
%TO.N,unconnected-(U1-Pad15)*%
X125250000Y-72742500D03*
%TO.P,U1,16,PA6*%
%TO.N,unconnected-(U1-Pad16)*%
X125750000Y-72742500D03*
%TO.P,U1,17,PA7*%
%TO.N,unconnected-(U1-Pad17)*%
X126250000Y-72742500D03*
%TO.P,U1,18,PB0*%
%TO.N,unconnected-(U1-Pad18)*%
X126750000Y-72742500D03*
%TO.P,U1,19,PB1*%
%TO.N,unconnected-(U1-Pad19)*%
X127250000Y-72742500D03*
%TO.P,U1,20,PB2*%
%TO.N,unconnected-(U1-Pad20)*%
X127750000Y-72742500D03*
%TO.P,U1,21,PB10*%
%TO.N,unconnected-(U1-Pad21)*%
X128250000Y-72742500D03*
%TO.P,U1,22,PB11*%
%TO.N,unconnected-(U1-Pad22)*%
X128750000Y-72742500D03*
%TO.P,U1,23,VSS*%
%TO.N,unconnected-(U1-Pad23)*%
X129250000Y-72742500D03*
%TO.P,U1,24,VDD*%
%TO.N,unconnected-(U1-Pad24)*%
X129750000Y-72742500D03*
D25*
%TO.P,U1,25,PB12*%
%TO.N,unconnected-(U1-Pad25)*%
X131162500Y-71330000D03*
%TO.P,U1,26,PB13*%
%TO.N,unconnected-(U1-Pad26)*%
X131162500Y-70830000D03*
%TO.P,U1,27,PB14*%
%TO.N,unconnected-(U1-Pad27)*%
X131162500Y-70330000D03*
%TO.P,U1,28,PB15*%
%TO.N,unconnected-(U1-Pad28)*%
X131162500Y-69830000D03*
%TO.P,U1,29,PA8*%
%TO.N,unconnected-(U1-Pad29)*%
X131162500Y-69330000D03*
%TO.P,U1,30,PA9*%
%TO.N,unconnected-(U1-Pad30)*%
X131162500Y-68830000D03*
%TO.P,U1,31,PA10*%
%TO.N,unconnected-(U1-Pad31)*%
X131162500Y-68330000D03*
%TO.P,U1,32,PA11*%
%TO.N,unconnected-(U1-Pad32)*%
X131162500Y-67830000D03*
%TO.P,U1,33,PA12*%
%TO.N,unconnected-(U1-Pad33)*%
X131162500Y-67330000D03*
%TO.P,U1,34,PA13*%
%TO.N,unconnected-(U1-Pad34)*%
X131162500Y-66830000D03*
%TO.P,U1,35,VSS*%
%TO.N,unconnected-(U1-Pad35)*%
X131162500Y-66330000D03*
%TO.P,U1,36,VDDIO2*%
%TO.N,unconnected-(U1-Pad36)*%
X131162500Y-65830000D03*
D26*
%TO.P,U1,37,PA14*%
%TO.N,unconnected-(U1-Pad37)*%
X129750000Y-64417500D03*
%TO.P,U1,38,PA15*%
%TO.N,unconnected-(U1-Pad38)*%
X129250000Y-64417500D03*
%TO.P,U1,39,PB3*%
%TO.N,unconnected-(U1-Pad39)*%
X128750000Y-64417500D03*
%TO.P,U1,40,PB4*%
%TO.N,unconnected-(U1-Pad40)*%
X128250000Y-64417500D03*
%TO.P,U1,41,PB5*%
%TO.N,unconnected-(U1-Pad41)*%
X127750000Y-64417500D03*
%TO.P,U1,42,PB6*%
%TO.N,unconnected-(U1-Pad42)*%
X127250000Y-64417500D03*
%TO.P,U1,43,PB7*%
%TO.N,unconnected-(U1-Pad43)*%
X126750000Y-64417500D03*
%TO.P,U1,44,BOOT0*%
%TO.N,unconnected-(U1-Pad44)*%
X126250000Y-64417500D03*
%TO.P,U1,45,PB8*%
%TO.N,unconnected-(U1-Pad45)*%
X125750000Y-64417500D03*
%TO.P,U1,46,PB9*%
%TO.N,unconnected-(U1-Pad46)*%
X125250000Y-64417500D03*
%TO.P,U1,47,VSS*%
%TO.N,unconnected-(U1-Pad47)*%
X124750000Y-64417500D03*
%TO.P,U1,48,VDD*%
%TO.N,unconnected-(U1-Pad48)*%
X124250000Y-64417500D03*
%TD*%
D27*
%TO.P,U5,1,OUT*%
%TO.N,unconnected-(U5-Pad1)*%
X142980000Y-39240000D03*
D28*
%TO.P,U5,2,GND*%
%TO.N,unconnected-(U5-Pad2)*%
X143067500Y-40740000D03*
D27*
%TO.P,U5,3,IN*%
%TO.N,unconnected-(U5-Pad3)*%
X142980000Y-42240000D03*
%TD*%
D29*
%TO.P,U7,24,GND*%
%TO.N,Net-(U7-Pad10)*%
X134740000Y-45540000D03*
%TO.P,U7,23,VCC*%
%TO.N,unconnected-(U7-Pad23)*%
X135840000Y-45540000D03*
%TO.P,U7,22,V_BCKP*%
%TO.N,unconnected-(U7-Pad22)*%
X136940000Y-45540000D03*
%TO.P,U7,21,RXD/SPI_MOSI*%
%TO.N,unconnected-(U7-Pad21)*%
X138040000Y-45540000D03*
%TO.P,U7,20,TXD/SPI_MISO*%
%TO.N,unconnected-(U7-Pad20)*%
X139140000Y-45540000D03*
%TO.P,U7,19,SCL/SPI_CLK*%
%TO.N,unconnected-(U7-Pad19)*%
X140240000Y-45540000D03*
%TO.P,U7,18,SDA/~{SPI_CS}*%
%TO.N,unconnected-(U7-Pad18)*%
X141340000Y-45540000D03*
%TO.P,U7,17,RESERVED*%
%TO.N,unconnected-(U7-Pad17)*%
X144340000Y-45540000D03*
%TO.P,U7,16,RESERVED*%
%TO.N,unconnected-(U7-Pad16)*%
X145440000Y-45540000D03*
%TO.P,U7,15,RESERVED*%
%TO.N,unconnected-(U7-Pad15)*%
X146540000Y-45540000D03*
%TO.P,U7,14,LNA_EN*%
%TO.N,unconnected-(U7-Pad14)*%
X147640000Y-45540000D03*
%TO.P,U7,13,GND*%
%TO.N,Net-(U7-Pad10)*%
X148740000Y-45540000D03*
%TO.P,U7,12,GND*%
X148740000Y-57540000D03*
%TO.P,U7,11,RF_IN*%
%TO.N,unconnected-(U7-Pad11)*%
X147640000Y-57540000D03*
%TO.P,U7,10,GND*%
%TO.N,Net-(U7-Pad10)*%
X146540000Y-57540000D03*
%TO.P,U7,9,VCC_RF*%
%TO.N,unconnected-(U7-Pad9)*%
X145440000Y-57540000D03*
%TO.P,U7,8,~{RESET}*%
%TO.N,unconnected-(U7-Pad8)*%
X144340000Y-57540000D03*
%TO.P,U7,7,VDD_USB*%
%TO.N,unconnected-(U7-Pad7)*%
X141340000Y-57540000D03*
%TO.P,U7,6,USB_DP*%
%TO.N,unconnected-(U7-Pad6)*%
X140240000Y-57540000D03*
%TO.P,U7,5,USB_DM*%
%TO.N,unconnected-(U7-Pad5)*%
X139140000Y-57540000D03*
%TO.P,U7,4,EXTINT*%
%TO.N,unconnected-(U7-Pad4)*%
X138040000Y-57540000D03*
%TO.P,U7,3,TIMEPULSE*%
%TO.N,unconnected-(U7-Pad3)*%
X136940000Y-57540000D03*
%TO.P,U7,2,D_SEL*%
%TO.N,unconnected-(U7-Pad2)*%
X135840000Y-57540000D03*
%TO.P,U7,1,~{SAFEBOOT}*%
%TO.N,unconnected-(U7-Pad1)*%
X134740000Y-57540000D03*
%TD*%
D30*
%TO.P,U3,A1,VSA*%
%TO.N,unconnected-(U3-PadA1)*%
X135690000Y-39170000D03*
%TO.P,U3,A2,SCL*%
%TO.N,unconnected-(U3-PadA2)*%
X136090000Y-39170000D03*
%TO.P,U3,B1,VDD*%
%TO.N,unconnected-(U3-PadB1)*%
X135690000Y-39570000D03*
%TO.P,U3,B2,SDA*%
%TO.N,unconnected-(U3-PadB2)*%
X136090000Y-39570000D03*
%TD*%
M02*
