<svg xmlns="http://www.w3.org/2000/svg" xmlns:xlink="http://www.w3.org/1999/xlink" width="800" height="500" viewBox="0 0 3200 2000">
<defs>
  <clipPath id="clip670">
    <rect x="0" y="0" width="3200" height="2000"></rect>
  </clipPath>
</defs>
<path clip-path="url(#clip670)" d="M0 2000 L3200 2000 L3200 0 L0 0  Z" fill="#ffffff" fill-rule="evenodd" fill-opacity="1"></path>
<defs>
  <clipPath id="clip671">
    <rect x="640" y="0" width="2241" height="2000"></rect>
  </clipPath>
</defs>
<path clip-path="url(#clip670)" d="M179.179 1824.31 L3152.76 1824.31 L3152.76 47.2441 L179.179 47.2441  Z" fill="#ffffff" fill-rule="evenodd" fill-opacity="1"></path>
<defs>
  <clipPath id="clip672">
    <rect x="179" y="47" width="2975" height="1778"></rect>
  </clipPath>
</defs>
<polyline clip-path="url(#clip672)" style="stroke:#000000; stroke-linecap:round; stroke-linejoin:round; stroke-width:2; stroke-opacity:0.1; fill:none" points="730.413,1824.31 730.413,47.2441 "></polyline>
<polyline clip-path="url(#clip672)" style="stroke:#000000; stroke-linecap:round; stroke-linejoin:round; stroke-width:2; stroke-opacity:0.1; fill:none" points="1290.91,1824.31 1290.91,47.2441 "></polyline>
<polyline clip-path="url(#clip672)" style="stroke:#000000; stroke-linecap:round; stroke-linejoin:round; stroke-width:2; stroke-opacity:0.1; fill:none" points="1851.4,1824.31 1851.4,47.2441 "></polyline>
<polyline clip-path="url(#clip672)" style="stroke:#000000; stroke-linecap:round; stroke-linejoin:round; stroke-width:2; stroke-opacity:0.1; fill:none" points="2411.89,1824.31 2411.89,47.2441 "></polyline>
<polyline clip-path="url(#clip672)" style="stroke:#000000; stroke-linecap:round; stroke-linejoin:round; stroke-width:2; stroke-opacity:0.1; fill:none" points="2972.38,1824.31 2972.38,47.2441 "></polyline>
<polyline clip-path="url(#clip670)" style="stroke:#000000; stroke-linecap:round; stroke-linejoin:round; stroke-width:4; stroke-opacity:1; fill:none" points="179.179,1824.31 3152.76,1824.31 "></polyline>
<polyline clip-path="url(#clip670)" style="stroke:#000000; stroke-linecap:round; stroke-linejoin:round; stroke-width:4; stroke-opacity:1; fill:none" points="730.413,1824.31 730.413,1805.41 "></polyline>
<polyline clip-path="url(#clip670)" style="stroke:#000000; stroke-linecap:round; stroke-linejoin:round; stroke-width:4; stroke-opacity:1; fill:none" points="1290.91,1824.31 1290.91,1805.41 "></polyline>
<polyline clip-path="url(#clip670)" style="stroke:#000000; stroke-linecap:round; stroke-linejoin:round; stroke-width:4; stroke-opacity:1; fill:none" points="1851.4,1824.31 1851.4,1805.41 "></polyline>
<polyline clip-path="url(#clip670)" style="stroke:#000000; stroke-linecap:round; stroke-linejoin:round; stroke-width:4; stroke-opacity:1; fill:none" points="2411.89,1824.31 2411.89,1805.41 "></polyline>
<polyline clip-path="url(#clip670)" style="stroke:#000000; stroke-linecap:round; stroke-linejoin:round; stroke-width:4; stroke-opacity:1; fill:none" points="2972.38,1824.31 2972.38,1805.41 "></polyline>
<path clip-path="url(#clip670)" d="M707.798 1861.63 Q704.187 1861.63 702.358 1865.19 Q700.552 1868.73 700.552 1875.86 Q700.552 1882.97 702.358 1886.54 Q704.187 1890.08 707.798 1890.08 Q711.432 1890.08 713.237 1886.54 Q715.066 1882.97 715.066 1875.86 Q715.066 1868.73 713.237 1865.19 Q711.432 1861.63 707.798 1861.63 M707.798 1857.92 Q713.608 1857.92 716.663 1862.53 Q719.742 1867.11 719.742 1875.86 Q719.742 1884.59 716.663 1889.2 Q713.608 1893.78 707.798 1893.78 Q701.987 1893.78 698.909 1889.2 Q695.853 1884.59 695.853 1875.86 Q695.853 1867.11 698.909 1862.53 Q701.987 1857.92 707.798 1857.92 Z" fill="#000000" fill-rule="nonzero" fill-opacity="1"></path><path clip-path="url(#clip670)" d="M727.96 1887.23 L732.844 1887.23 L732.844 1893.11 L727.96 1893.11 L727.96 1887.23 Z" fill="#000000" fill-rule="nonzero" fill-opacity="1"></path><path clip-path="url(#clip670)" d="M753.029 1861.63 Q749.418 1861.63 747.589 1865.19 Q745.784 1868.73 745.784 1875.86 Q745.784 1882.97 747.589 1886.54 Q749.418 1890.08 753.029 1890.08 Q756.663 1890.08 758.469 1886.54 Q760.297 1882.97 760.297 1875.86 Q760.297 1868.73 758.469 1865.19 Q756.663 1861.63 753.029 1861.63 M753.029 1857.92 Q758.839 1857.92 761.895 1862.53 Q764.973 1867.11 764.973 1875.86 Q764.973 1884.59 761.895 1889.2 Q758.839 1893.78 753.029 1893.78 Q747.219 1893.78 744.14 1889.2 Q741.084 1884.59 741.084 1875.86 Q741.084 1867.11 744.14 1862.53 Q747.219 1857.92 753.029 1857.92 Z" fill="#000000" fill-rule="nonzero" fill-opacity="1"></path><path clip-path="url(#clip670)" d="M1268.61 1861.63 Q1265 1861.63 1263.17 1865.19 Q1261.37 1868.73 1261.37 1875.86 Q1261.37 1882.97 1263.17 1886.54 Q1265 1890.08 1268.61 1890.08 Q1272.25 1890.08 1274.05 1886.54 Q1275.88 1882.97 1275.88 1875.86 Q1275.88 1868.73 1274.05 1865.19 Q1272.25 1861.63 1268.61 1861.63 M1268.61 1857.92 Q1274.42 1857.92 1277.48 1862.53 Q1280.56 1867.11 1280.56 1875.86 Q1280.56 1884.59 1277.48 1889.2 Q1274.42 1893.78 1268.61 1893.78 Q1262.8 1893.78 1259.72 1889.2 Q1256.67 1884.59 1256.67 1875.86 Q1256.67 1867.11 1259.72 1862.53 Q1262.8 1857.92 1268.61 1857.92 Z" fill="#000000" fill-rule="nonzero" fill-opacity="1"></path><path clip-path="url(#clip670)" d="M1288.78 1887.23 L1293.66 1887.23 L1293.66 1893.11 L1288.78 1893.11 L1288.78 1887.23 Z" fill="#000000" fill-rule="nonzero" fill-opacity="1"></path><path clip-path="url(#clip670)" d="M1318.01 1874.48 Q1321.37 1875.19 1323.24 1877.46 Q1325.14 1879.73 1325.14 1883.06 Q1325.14 1888.18 1321.62 1890.98 Q1318.1 1893.78 1311.62 1893.78 Q1309.45 1893.78 1307.13 1893.34 Q1304.84 1892.92 1302.39 1892.07 L1302.39 1887.55 Q1304.33 1888.69 1306.65 1889.27 Q1308.96 1889.85 1311.48 1889.85 Q1315.88 1889.85 1318.17 1888.11 Q1320.49 1886.37 1320.49 1883.06 Q1320.49 1880.01 1318.34 1878.3 Q1316.21 1876.56 1312.39 1876.56 L1308.36 1876.56 L1308.36 1872.72 L1312.57 1872.72 Q1316.02 1872.72 1317.85 1871.35 Q1319.68 1869.96 1319.68 1867.37 Q1319.68 1864.71 1317.78 1863.3 Q1315.9 1861.86 1312.39 1861.86 Q1310.47 1861.86 1308.27 1862.28 Q1306.07 1862.69 1303.43 1863.57 L1303.43 1859.41 Q1306.09 1858.67 1308.4 1858.3 Q1310.74 1857.92 1312.8 1857.92 Q1318.13 1857.92 1321.23 1860.36 Q1324.33 1862.76 1324.33 1866.88 Q1324.33 1869.75 1322.69 1871.74 Q1321.04 1873.71 1318.01 1874.48 Z" fill="#000000" fill-rule="nonzero" fill-opacity="1"></path><path clip-path="url(#clip670)" d="M1828.7 1861.63 Q1825.09 1861.63 1823.26 1865.19 Q1821.45 1868.73 1821.45 1875.86 Q1821.45 1882.97 1823.26 1886.54 Q1825.09 1890.08 1828.7 1890.08 Q1832.33 1890.08 1834.14 1886.54 Q1835.97 1882.97 1835.97 1875.86 Q1835.97 1868.73 1834.14 1865.19 Q1832.33 1861.63 1828.7 1861.63 M1828.7 1857.92 Q1834.51 1857.92 1837.57 1862.53 Q1840.64 1867.11 1840.64 1875.86 Q1840.64 1884.59 1837.57 1889.2 Q1834.51 1893.78 1828.7 1893.78 Q1822.89 1893.78 1819.81 1889.2 Q1816.76 1884.59 1816.76 1875.86 Q1816.76 1867.11 1819.81 1862.53 Q1822.89 1857.92 1828.7 1857.92 Z" fill="#000000" fill-rule="nonzero" fill-opacity="1"></path><path clip-path="url(#clip670)" d="M1848.86 1887.23 L1853.75 1887.23 L1853.75 1893.11 L1848.86 1893.11 L1848.86 1887.23 Z" fill="#000000" fill-rule="nonzero" fill-opacity="1"></path><path clip-path="url(#clip670)" d="M1874.51 1873.97 Q1871.36 1873.97 1869.51 1876.12 Q1867.68 1878.27 1867.68 1882.02 Q1867.68 1885.75 1869.51 1887.92 Q1871.36 1890.08 1874.51 1890.08 Q1877.66 1890.08 1879.49 1887.92 Q1881.34 1885.75 1881.34 1882.02 Q1881.34 1878.27 1879.49 1876.12 Q1877.66 1873.97 1874.51 1873.97 M1883.79 1859.31 L1883.79 1863.57 Q1882.03 1862.74 1880.23 1862.3 Q1878.45 1861.86 1876.69 1861.86 Q1872.06 1861.86 1869.6 1864.98 Q1867.17 1868.11 1866.82 1874.43 Q1868.19 1872.42 1870.25 1871.35 Q1872.31 1870.26 1874.79 1870.26 Q1880 1870.26 1883.01 1873.43 Q1886.04 1876.58 1886.04 1882.02 Q1886.04 1887.35 1882.89 1890.56 Q1879.74 1893.78 1874.51 1893.78 Q1868.51 1893.78 1865.34 1889.2 Q1862.17 1884.59 1862.17 1875.86 Q1862.17 1867.67 1866.06 1862.81 Q1869.95 1857.92 1876.5 1857.92 Q1878.26 1857.92 1880.04 1858.27 Q1881.85 1858.62 1883.79 1859.31 Z" fill="#000000" fill-rule="nonzero" fill-opacity="1"></path><path clip-path="url(#clip670)" d="M2389.37 1861.63 Q2385.75 1861.63 2383.93 1865.19 Q2382.12 1868.73 2382.12 1875.86 Q2382.12 1882.97 2383.93 1886.54 Q2385.75 1890.08 2389.37 1890.08 Q2393 1890.08 2394.81 1886.54 Q2396.63 1882.97 2396.63 1875.86 Q2396.63 1868.73 2394.81 1865.19 Q2393 1861.63 2389.37 1861.63 M2389.37 1857.92 Q2395.18 1857.92 2398.23 1862.53 Q2401.31 1867.11 2401.31 1875.86 Q2401.31 1884.59 2398.23 1889.2 Q2395.18 1893.78 2389.37 1893.78 Q2383.56 1893.78 2380.48 1889.2 Q2377.42 1884.59 2377.42 1875.86 Q2377.42 1867.11 2380.48 1862.53 Q2383.56 1857.92 2389.37 1857.92 Z" fill="#000000" fill-rule="nonzero" fill-opacity="1"></path><path clip-path="url(#clip670)" d="M2409.53 1887.23 L2414.41 1887.23 L2414.41 1893.11 L2409.53 1893.11 L2409.53 1887.23 Z" fill="#000000" fill-rule="nonzero" fill-opacity="1"></path><path clip-path="url(#clip670)" d="M2424.74 1892.39 L2424.74 1888.13 Q2426.49 1888.97 2428.3 1889.41 Q2430.11 1889.85 2431.84 1889.85 Q2436.47 1889.85 2438.9 1886.74 Q2441.36 1883.62 2441.7 1877.28 Q2440.36 1879.27 2438.3 1880.33 Q2436.24 1881.4 2433.74 1881.4 Q2428.56 1881.4 2425.52 1878.27 Q2422.51 1875.12 2422.51 1869.68 Q2422.51 1864.36 2425.66 1861.14 Q2428.81 1857.92 2434.04 1857.92 Q2440.04 1857.92 2443.18 1862.53 Q2446.36 1867.11 2446.36 1875.86 Q2446.36 1884.04 2442.47 1888.92 Q2438.6 1893.78 2432.05 1893.78 Q2430.29 1893.78 2428.49 1893.43 Q2426.68 1893.09 2424.74 1892.39 M2434.04 1877.74 Q2437.19 1877.74 2439.02 1875.59 Q2440.87 1873.43 2440.87 1869.68 Q2440.87 1865.96 2439.02 1863.8 Q2437.19 1861.63 2434.04 1861.63 Q2430.89 1861.63 2429.04 1863.8 Q2427.21 1865.96 2427.21 1869.68 Q2427.21 1873.43 2429.04 1875.59 Q2430.89 1877.74 2434.04 1877.74 Z" fill="#000000" fill-rule="nonzero" fill-opacity="1"></path><path clip-path="url(#clip670)" d="M2940.33 1889.17 L2947.97 1889.17 L2947.97 1862.81 L2939.66 1864.48 L2939.66 1860.22 L2947.92 1858.55 L2952.6 1858.55 L2952.6 1889.17 L2960.24 1889.17 L2960.24 1893.11 L2940.33 1893.11 L2940.33 1889.17 Z" fill="#000000" fill-rule="nonzero" fill-opacity="1"></path><path clip-path="url(#clip670)" d="M2969.68 1887.23 L2974.57 1887.23 L2974.57 1893.11 L2969.68 1893.11 L2969.68 1887.23 Z" fill="#000000" fill-rule="nonzero" fill-opacity="1"></path><path clip-path="url(#clip670)" d="M2988.78 1889.17 L3005.1 1889.17 L3005.1 1893.11 L2983.16 1893.11 L2983.16 1889.17 Q2985.82 1886.42 2990.4 1881.79 Q2995.01 1877.14 2996.19 1875.8 Q2998.43 1873.27 2999.31 1871.54 Q3000.22 1869.78 3000.22 1868.09 Q3000.22 1865.33 2998.27 1863.6 Q2996.35 1861.86 2993.25 1861.86 Q2991.05 1861.86 2988.6 1862.62 Q2986.16 1863.39 2983.39 1864.94 L2983.39 1860.22 Q2986.21 1859.08 2988.66 1858.5 Q2991.12 1857.92 2993.16 1857.92 Q2998.53 1857.92 3001.72 1860.61 Q3004.91 1863.3 3004.91 1867.79 Q3004.91 1869.92 3004.1 1871.84 Q3003.32 1873.73 3001.21 1876.33 Q3000.63 1877 2997.53 1880.22 Q2994.43 1883.41 2988.78 1889.17 Z" fill="#000000" fill-rule="nonzero" fill-opacity="1"></path><path clip-path="url(#clip670)" d="M1536.14 1933.65 L1576.34 1933.65 L1576.34 1939.06 L1559.47 1939.06 L1559.47 1981.17 L1553.01 1981.17 L1553.01 1939.06 L1536.14 1939.06 L1536.14 1933.65 Z" fill="#000000" fill-rule="nonzero" fill-opacity="1"></path><path clip-path="url(#clip670)" d="M1580.29 1945.53 L1586.14 1945.53 L1586.14 1981.17 L1580.29 1981.17 L1580.29 1945.53 M1580.29 1931.65 L1586.14 1931.65 L1586.14 1939.06 L1580.29 1939.06 L1580.29 1931.65 Z" fill="#000000" fill-rule="nonzero" fill-opacity="1"></path><path clip-path="url(#clip670)" d="M1626.15 1952.37 Q1628.35 1948.42 1631.4 1946.54 Q1634.46 1944.67 1638.59 1944.67 Q1644.16 1944.67 1647.19 1948.58 Q1650.21 1952.46 1650.21 1959.66 L1650.21 1981.17 L1644.32 1981.17 L1644.32 1959.85 Q1644.32 1954.72 1642.51 1952.24 Q1640.7 1949.76 1636.97 1949.76 Q1632.42 1949.76 1629.78 1952.78 Q1627.14 1955.81 1627.14 1961.03 L1627.14 1981.17 L1621.25 1981.17 L1621.25 1959.85 Q1621.25 1954.69 1619.43 1952.24 Q1617.62 1949.76 1613.83 1949.76 Q1609.34 1949.76 1606.7 1952.81 Q1604.06 1955.84 1604.06 1961.03 L1604.06 1981.17 L1598.17 1981.17 L1598.17 1945.53 L1604.06 1945.53 L1604.06 1951.06 Q1606.07 1947.79 1608.87 1946.23 Q1611.67 1944.67 1615.52 1944.67 Q1619.4 1944.67 1622.11 1946.64 Q1624.84 1948.61 1626.15 1952.37 Z" fill="#000000" fill-rule="nonzero" fill-opacity="1"></path><path clip-path="url(#clip670)" d="M1692.39 1961.89 L1692.39 1964.75 L1665.46 1964.75 Q1665.84 1970.8 1669.09 1973.98 Q1672.36 1977.13 1678.19 1977.13 Q1681.56 1977.13 1684.71 1976.3 Q1687.9 1975.48 1691.02 1973.82 L1691.02 1979.36 Q1687.87 1980.7 1684.56 1981.4 Q1681.25 1982.1 1677.84 1982.1 Q1669.31 1982.1 1664.31 1977.13 Q1659.35 1972.17 1659.35 1963.7 Q1659.35 1954.95 1664.06 1949.82 Q1668.8 1944.67 1676.82 1944.67 Q1684.01 1944.67 1688.18 1949.31 Q1692.39 1953.93 1692.39 1961.89 M1686.53 1960.17 Q1686.46 1955.36 1683.82 1952.5 Q1681.21 1949.63 1676.88 1949.63 Q1671.98 1949.63 1669.02 1952.4 Q1666.09 1955.17 1665.65 1960.2 L1686.53 1960.17 Z" fill="#000000" fill-rule="nonzero" fill-opacity="1"></path><path clip-path="url(#clip670)" d="M1736.79 1931.71 Q1732.52 1939.03 1730.45 1946.19 Q1728.38 1953.36 1728.38 1960.71 Q1728.38 1968.06 1730.45 1975.29 Q1732.55 1982.48 1736.79 1989.77 L1731.69 1989.77 Q1726.92 1982.29 1724.53 1975.06 Q1722.18 1967.84 1722.18 1960.71 Q1722.18 1953.61 1724.53 1946.42 Q1726.89 1939.22 1731.69 1931.71 L1736.79 1931.71 Z" fill="#000000" fill-rule="nonzero" fill-opacity="1"></path><path clip-path="url(#clip670)" d="M1770.87 1946.58 L1770.87 1952.11 Q1768.39 1950.84 1765.72 1950.2 Q1763.04 1949.57 1760.18 1949.57 Q1755.82 1949.57 1753.62 1950.9 Q1751.46 1952.24 1751.46 1954.92 Q1751.46 1956.95 1753.02 1958.13 Q1754.58 1959.28 1759.29 1960.33 L1761.29 1960.77 Q1767.53 1962.11 1770.14 1964.56 Q1772.78 1966.98 1772.78 1971.34 Q1772.78 1976.3 1768.84 1979.2 Q1764.92 1982.1 1758.05 1982.1 Q1755.18 1982.1 1752.06 1981.52 Q1748.98 1980.98 1745.54 1979.87 L1745.54 1973.82 Q1748.79 1975.51 1751.94 1976.37 Q1755.09 1977.2 1758.17 1977.2 Q1762.31 1977.2 1764.54 1975.79 Q1766.77 1974.36 1766.77 1971.78 Q1766.77 1969.4 1765.15 1968.12 Q1763.55 1966.85 1758.11 1965.67 L1756.07 1965.2 Q1750.63 1964.05 1748.21 1961.69 Q1745.79 1959.31 1745.79 1955.17 Q1745.79 1950.14 1749.36 1947.4 Q1752.92 1944.67 1759.48 1944.67 Q1762.73 1944.67 1765.59 1945.14 Q1768.46 1945.62 1770.87 1946.58 Z" fill="#000000" fill-rule="nonzero" fill-opacity="1"></path><path clip-path="url(#clip670)" d="M1781.19 1931.71 L1786.28 1931.71 Q1791.05 1939.22 1793.41 1946.42 Q1795.8 1953.61 1795.8 1960.71 Q1795.8 1967.84 1793.41 1975.06 Q1791.05 1982.29 1786.28 1989.77 L1781.19 1989.77 Q1785.42 1982.48 1787.49 1975.29 Q1789.59 1968.06 1789.59 1960.71 Q1789.59 1953.36 1787.49 1946.19 Q1785.42 1939.03 1781.19 1931.71 Z" fill="#000000" fill-rule="nonzero" fill-opacity="1"></path><polyline clip-path="url(#clip672)" style="stroke:#000000; stroke-linecap:round; stroke-linejoin:round; stroke-width:2; stroke-opacity:0.1; fill:none" points="179.179,1757.43 3152.76,1757.43 "></polyline>
<polyline clip-path="url(#clip672)" style="stroke:#000000; stroke-linecap:round; stroke-linejoin:round; stroke-width:2; stroke-opacity:0.1; fill:none" points="179.179,1327.42 3152.76,1327.42 "></polyline>
<polyline clip-path="url(#clip672)" style="stroke:#000000; stroke-linecap:round; stroke-linejoin:round; stroke-width:2; stroke-opacity:0.1; fill:none" points="179.179,897.418 3152.76,897.418 "></polyline>
<polyline clip-path="url(#clip672)" style="stroke:#000000; stroke-linecap:round; stroke-linejoin:round; stroke-width:2; stroke-opacity:0.1; fill:none" points="179.179,467.414 3152.76,467.414 "></polyline>
<polyline clip-path="url(#clip670)" style="stroke:#000000; stroke-linecap:round; stroke-linejoin:round; stroke-width:4; stroke-opacity:1; fill:none" points="179.179,1824.31 179.179,47.2441 "></polyline>
<polyline clip-path="url(#clip670)" style="stroke:#000000; stroke-linecap:round; stroke-linejoin:round; stroke-width:4; stroke-opacity:1; fill:none" points="179.179,1757.43 198.077,1757.43 "></polyline>
<polyline clip-path="url(#clip670)" style="stroke:#000000; stroke-linecap:round; stroke-linejoin:round; stroke-width:4; stroke-opacity:1; fill:none" points="179.179,1327.42 198.077,1327.42 "></polyline>
<polyline clip-path="url(#clip670)" style="stroke:#000000; stroke-linecap:round; stroke-linejoin:round; stroke-width:4; stroke-opacity:1; fill:none" points="179.179,897.418 198.077,897.418 "></polyline>
<polyline clip-path="url(#clip670)" style="stroke:#000000; stroke-linecap:round; stroke-linejoin:round; stroke-width:4; stroke-opacity:1; fill:none" points="179.179,467.414 198.077,467.414 "></polyline>
<path clip-path="url(#clip670)" d="M119.235 1743.23 Q115.623 1743.23 113.795 1746.79 Q111.989 1750.33 111.989 1757.46 Q111.989 1764.57 113.795 1768.13 Q115.623 1771.67 119.235 1771.67 Q122.869 1771.67 124.674 1768.13 Q126.503 1764.57 126.503 1757.46 Q126.503 1750.33 124.674 1746.79 Q122.869 1743.23 119.235 1743.23 M119.235 1739.52 Q125.045 1739.52 128.1 1744.13 Q131.179 1748.71 131.179 1757.46 Q131.179 1766.19 128.1 1770.79 Q125.045 1775.38 119.235 1775.38 Q113.424 1775.38 110.346 1770.79 Q107.29 1766.19 107.29 1757.46 Q107.29 1748.71 110.346 1744.13 Q113.424 1739.52 119.235 1739.52 Z" fill="#000000" fill-rule="nonzero" fill-opacity="1"></path><path clip-path="url(#clip670)" d="M111.272 1340.77 L118.91 1340.77 L118.91 1314.4 L110.6 1316.07 L110.6 1311.81 L118.864 1310.14 L123.54 1310.14 L123.54 1340.77 L131.179 1340.77 L131.179 1344.7 L111.272 1344.7 L111.272 1340.77 Z" fill="#000000" fill-rule="nonzero" fill-opacity="1"></path><path clip-path="url(#clip670)" d="M114.86 910.763 L131.179 910.763 L131.179 914.698 L109.235 914.698 L109.235 910.763 Q111.897 908.008 116.48 903.379 Q121.086 898.726 122.267 897.383 Q124.512 894.86 125.392 893.124 Q126.295 891.365 126.295 889.675 Q126.295 886.921 124.35 885.184 Q122.429 883.448 119.327 883.448 Q117.128 883.448 114.674 884.212 Q112.244 884.976 109.466 886.527 L109.466 881.805 Q112.29 880.671 114.744 880.092 Q117.198 879.513 119.235 879.513 Q124.605 879.513 127.799 882.198 Q130.994 884.884 130.994 889.374 Q130.994 891.504 130.184 893.425 Q129.397 895.323 127.29 897.916 Q126.711 898.587 123.61 901.805 Q120.508 904.999 114.86 910.763 Z" fill="#000000" fill-rule="nonzero" fill-opacity="1"></path><path clip-path="url(#clip670)" d="M124.049 466.06 Q127.406 466.777 129.281 469.046 Q131.179 471.314 131.179 474.648 Q131.179 479.763 127.66 482.564 Q124.142 485.365 117.66 485.365 Q115.485 485.365 113.17 484.925 Q110.878 484.509 108.424 483.652 L108.424 479.138 Q110.369 480.273 112.684 480.851 Q114.998 481.43 117.522 481.43 Q121.92 481.43 124.211 479.694 Q126.526 477.958 126.526 474.648 Q126.526 471.592 124.373 469.879 Q122.244 468.143 118.424 468.143 L114.397 468.143 L114.397 464.3 L118.61 464.3 Q122.059 464.3 123.887 462.935 Q125.716 461.546 125.716 458.953 Q125.716 456.291 123.818 454.879 Q121.943 453.444 118.424 453.444 Q116.503 453.444 114.304 453.861 Q112.105 454.277 109.466 455.157 L109.466 450.99 Q112.128 450.25 114.443 449.879 Q116.781 449.509 118.841 449.509 Q124.165 449.509 127.267 451.939 Q130.369 454.347 130.369 458.467 Q130.369 461.338 128.725 463.328 Q127.082 465.296 124.049 466.06 Z" fill="#000000" fill-rule="nonzero" fill-opacity="1"></path><path clip-path="url(#clip670)" d="M3.84804 1213.64 L27.4966 1222.36 L27.4966 1204.89 L3.84804 1213.64 M-2.48584 1217.27 L-2.48584 1209.98 L45.0342 1191.87 L45.0342 1198.55 L32.8438 1202.88 L32.8438 1224.3 L45.0342 1228.63 L45.0342 1235.41 L-2.48584 1217.27 Z" fill="#000000" fill-rule="nonzero" fill-opacity="1"></path><path clip-path="url(#clip670)" d="M23.5181 1155.55 L45.0342 1155.55 L45.0342 1161.41 L23.709 1161.41 Q18.6483 1161.41 16.1338 1163.38 Q13.6194 1165.36 13.6194 1169.3 Q13.6194 1174.05 16.6431 1176.78 Q19.6668 1179.52 24.8867 1179.52 L45.0342 1179.52 L45.0342 1185.41 L9.3862 1185.41 L9.3862 1179.52 L14.9244 1179.52 Q11.7097 1177.42 10.1183 1174.59 Q8.52683 1171.72 8.52683 1168 Q8.52683 1161.86 12.3463 1158.7 Q16.1338 1155.55 23.5181 1155.55 Z" fill="#000000" fill-rule="nonzero" fill-opacity="1"></path><path clip-path="url(#clip670)" d="M26.7964 1120.41 Q20.4307 1120.41 16.9296 1123.06 Q13.4284 1125.67 13.4284 1130.41 Q13.4284 1135.12 16.9296 1137.76 Q20.4307 1140.37 26.7964 1140.37 Q33.1303 1140.37 36.6314 1137.76 Q40.1326 1135.12 40.1326 1130.41 Q40.1326 1125.67 36.6314 1123.06 Q33.1303 1120.41 26.7964 1120.41 M40.61 1114.56 Q49.713 1114.56 54.1371 1118.6 Q58.5931 1122.64 58.5931 1130.98 Q58.5931 1134.07 58.1157 1136.81 Q57.6701 1139.54 56.7152 1142.12 L51.0179 1142.12 Q52.4184 1139.54 53.0868 1137.03 Q53.7552 1134.51 53.7552 1131.9 Q53.7552 1126.14 50.7315 1123.28 Q47.7396 1120.41 41.6603 1120.41 L38.7639 1120.41 Q41.915 1122.23 43.4746 1125.06 Q45.0342 1127.89 45.0342 1131.84 Q45.0342 1138.4 40.0371 1142.41 Q35.04 1146.42 26.7964 1146.42 Q18.521 1146.42 13.5239 1142.41 Q8.52683 1138.4 8.52683 1131.84 Q8.52683 1127.89 10.0864 1125.06 Q11.646 1122.23 14.7971 1120.41 L9.3862 1120.41 L9.3862 1114.56 L40.61 1114.56 Z" fill="#000000" fill-rule="nonzero" fill-opacity="1"></path><path clip-path="url(#clip670)" d="M30.9659 1103.1 L9.3862 1103.1 L9.3862 1097.24 L30.7431 1097.24 Q35.8039 1097.24 38.3502 1095.27 Q40.8646 1093.3 40.8646 1089.35 Q40.8646 1084.61 37.8409 1081.87 Q34.8172 1079.1 29.5973 1079.1 L9.3862 1079.1 L9.3862 1073.24 L45.0342 1073.24 L45.0342 1079.1 L39.5596 1079.1 Q42.8062 1081.23 44.3976 1084.07 Q45.9572 1086.87 45.9572 1090.59 Q45.9572 1096.73 42.1378 1099.92 Q38.3183 1103.1 30.9659 1103.1 M8.52683 1088.36 L8.52683 1088.36 Z" fill="#000000" fill-rule="nonzero" fill-opacity="1"></path><path clip-path="url(#clip670)" d="M-4.49104 1061.18 L-4.49104 1055.32 L45.0342 1055.32 L45.0342 1061.18 L-4.49104 1061.18 Z" fill="#000000" fill-rule="nonzero" fill-opacity="1"></path><path clip-path="url(#clip670)" d="M27.1147 1026.87 Q27.1147 1033.97 28.7379 1036.71 Q30.3612 1039.44 34.2761 1039.44 Q37.3953 1039.44 39.2414 1037.41 Q41.0556 1035.34 41.0556 1031.8 Q41.0556 1026.93 37.6181 1024.01 Q34.1488 1021.05 28.4197 1021.05 L27.1147 1021.05 L27.1147 1026.87 M24.6957 1015.19 L45.0342 1015.19 L45.0342 1021.05 L39.6233 1021.05 Q42.8698 1023.05 44.4294 1026.04 Q45.9572 1029.03 45.9572 1033.36 Q45.9572 1038.84 42.9016 1042.08 Q39.8143 1045.3 34.6581 1045.3 Q28.6425 1045.3 25.5869 1041.29 Q22.5314 1037.25 22.5314 1029.26 L22.5314 1021.05 L21.9585 1021.05 Q17.9162 1021.05 15.7201 1023.72 Q13.4921 1026.36 13.4921 1031.17 Q13.4921 1034.22 14.2241 1037.12 Q14.9562 1040.02 16.4203 1042.69 L11.0095 1042.69 Q9.76814 1039.47 9.1634 1036.45 Q8.52683 1033.43 8.52683 1030.56 Q8.52683 1022.83 12.5372 1019.01 Q16.5476 1015.19 24.6957 1015.19 Z" fill="#000000" fill-rule="nonzero" fill-opacity="1"></path><path clip-path="url(#clip670)" d="M14.8607 982.469 Q14.2878 983.456 14.0332 984.634 Q13.7467 985.78 13.7467 987.18 Q13.7467 992.145 16.9932 994.819 Q20.2079 997.461 26.2553 997.461 L45.0342 997.461 L45.0342 1003.35 L9.3862 1003.35 L9.3862 997.461 L14.9244 997.461 Q11.6779 995.615 10.1183 992.655 Q8.52683 989.695 8.52683 985.461 Q8.52683 984.857 8.62232 984.125 Q8.68597 983.392 8.84512 982.501 L14.8607 982.469 Z" fill="#000000" fill-rule="nonzero" fill-opacity="1"></path><path clip-path="url(#clip670)" d="M9.3862 959.808 L9.3862 953.601 L39.305 942.461 L9.3862 931.321 L9.3862 925.114 L45.0342 938.482 L45.0342 946.44 L9.3862 959.808 Z" fill="#000000" fill-rule="nonzero" fill-opacity="1"></path><path clip-path="url(#clip670)" d="M25.7461 886.538 L28.6106 886.538 L28.6106 913.465 Q34.6581 913.083 37.8409 909.837 Q40.9919 906.558 40.9919 900.734 Q40.9919 897.36 40.1644 894.209 Q39.3369 891.026 37.6818 887.907 L43.2199 887.907 Q44.5567 891.058 45.257 894.368 Q45.9572 897.678 45.9572 901.084 Q45.9572 909.614 40.9919 914.611 Q36.0267 919.576 27.5603 919.576 Q18.8074 919.576 13.6831 914.866 Q8.52683 910.123 8.52683 902.102 Q8.52683 894.909 13.1738 890.74 Q17.7889 886.538 25.7461 886.538 M24.0273 892.395 Q19.2212 892.458 16.3566 895.1 Q13.4921 897.71 13.4921 902.039 Q13.4921 906.94 16.2612 909.9 Q19.0302 912.829 24.0592 913.274 L24.0273 892.395 Z" fill="#000000" fill-rule="nonzero" fill-opacity="1"></path><path clip-path="url(#clip670)" d="M-4.49104 876.926 L-4.49104 871.07 L45.0342 871.07 L45.0342 876.926 L-4.49104 876.926 Z" fill="#000000" fill-rule="nonzero" fill-opacity="1"></path><path clip-path="url(#clip670)" d="M13.4921 845.002 Q13.4921 849.713 17.1842 852.45 Q20.8445 855.187 27.242 855.187 Q33.6395 855.187 37.3317 852.482 Q40.9919 849.744 40.9919 845.002 Q40.9919 840.323 37.2998 837.586 Q33.6077 834.849 27.242 834.849 Q20.9081 834.849 17.216 837.586 Q13.4921 840.323 13.4921 845.002 M8.52683 845.002 Q8.52683 837.363 13.4921 833.003 Q18.4573 828.642 27.242 828.642 Q35.9949 828.642 40.9919 833.003 Q45.9572 837.363 45.9572 845.002 Q45.9572 852.673 40.9919 857.033 Q35.9949 861.362 27.242 861.362 Q18.4573 861.362 13.4921 857.033 Q8.52683 852.673 8.52683 845.002 Z" fill="#000000" fill-rule="nonzero" fill-opacity="1"></path><path clip-path="url(#clip670)" d="M10.7548 793.281 L16.2293 793.281 Q14.8607 795.763 14.1923 798.278 Q13.4921 800.76 13.4921 803.307 Q13.4921 809.004 17.1205 812.155 Q20.7172 815.306 27.242 815.306 Q33.7669 815.306 37.3953 812.155 Q40.9919 809.004 40.9919 803.307 Q40.9919 800.76 40.3235 798.278 Q39.6233 795.763 38.2547 793.281 L43.6655 793.281 Q44.8114 795.731 45.3843 798.373 Q45.9572 800.983 45.9572 803.943 Q45.9572 811.996 40.8964 816.738 Q35.8357 821.481 27.242 821.481 Q18.521 821.481 13.5239 816.706 Q8.52683 811.9 8.52683 803.561 Q8.52683 800.856 9.09974 798.278 Q9.64083 795.7 10.7548 793.281 Z" fill="#000000" fill-rule="nonzero" fill-opacity="1"></path><path clip-path="url(#clip670)" d="M9.3862 783.095 L9.3862 777.239 L45.0342 777.239 L45.0342 783.095 L9.3862 783.095 M-4.49104 783.095 L-4.49104 777.239 L2.92501 777.239 L2.92501 783.095 L-4.49104 783.095 Z" fill="#000000" fill-rule="nonzero" fill-opacity="1"></path><path clip-path="url(#clip670)" d="M-0.735273 759.192 L9.3862 759.192 L9.3862 747.129 L13.9377 747.129 L13.9377 759.192 L33.2894 759.192 Q37.6499 759.192 38.8913 758.015 Q40.1326 756.805 40.1326 753.145 L40.1326 747.129 L45.0342 747.129 L45.0342 753.145 Q45.0342 759.924 42.5197 762.502 Q39.9734 765.081 33.2894 765.081 L13.9377 765.081 L13.9377 769.377 L9.3862 769.377 L9.3862 765.081 L-0.735273 765.081 L-0.735273 759.192 Z" fill="#000000" fill-rule="nonzero" fill-opacity="1"></path><path clip-path="url(#clip670)" d="M48.3443 724.595 Q54.71 727.077 56.6516 729.433 Q58.5931 731.788 58.5931 735.735 L58.5931 740.413 L53.6915 740.413 L53.6915 736.976 Q53.6915 734.557 52.5457 733.22 Q51.3999 731.883 47.1348 730.26 L44.4612 729.21 L9.3862 743.628 L9.3862 737.422 L37.268 726.282 L9.3862 715.142 L9.3862 708.935 L48.3443 724.595 Z" fill="#000000" fill-rule="nonzero" fill-opacity="1"></path><path clip-path="url(#clip670)" d="M45.9572 668.767 Q45.9572 681.976 27.051 681.976 Q19.5713 681.976 9.3862 677.043 L9.3862 670.741 Q19.5713 675.292 27.2102 675.292 Q40.9919 675.292 40.9919 668.226 Q40.9919 661.765 23.8682 661.765 L23.8682 656.354 Q40.9919 656.354 40.9919 649.893 Q40.9919 642.827 27.2102 642.827 Q19.5713 642.827 9.3862 647.379 L9.3862 641.077 Q19.5713 636.143 27.051 636.143 Q45.9572 636.143 45.9572 649.352 Q45.9572 658.009 36.4405 659.06 Q45.9572 660.365 45.9572 668.767 Z" fill="#000000" fill-rule="nonzero" fill-opacity="1"></path><circle clip-path="url(#clip672)" cx="263.337" cy="1740.58" r="14.4" fill="#009af9" fill-rule="evenodd" fill-opacity="1" stroke="#000000" stroke-opacity="1" stroke-width="4"></circle>
<circle clip-path="url(#clip672)" cx="325.676" cy="1762.45" r="14.4" fill="#009af9" fill-rule="evenodd" fill-opacity="1" stroke="#000000" stroke-opacity="1" stroke-width="4"></circle>
<circle clip-path="url(#clip672)" cx="388.015" cy="1774.02" r="14.4" fill="#009af9" fill-rule="evenodd" fill-opacity="1" stroke="#000000" stroke-opacity="1" stroke-width="4"></circle>
<circle clip-path="url(#clip672)" cx="450.354" cy="1757.25" r="14.4" fill="#009af9" fill-rule="evenodd" fill-opacity="1" stroke="#000000" stroke-opacity="1" stroke-width="4"></circle>
<circle clip-path="url(#clip672)" cx="512.693" cy="1755.24" r="14.4" fill="#009af9" fill-rule="evenodd" fill-opacity="1" stroke="#000000" stroke-opacity="1" stroke-width="4"></circle>
<circle clip-path="url(#clip672)" cx="575.032" cy="1758.83" r="14.4" fill="#009af9" fill-rule="evenodd" fill-opacity="1" stroke="#000000" stroke-opacity="1" stroke-width="4"></circle>
<circle clip-path="url(#clip672)" cx="637.372" cy="1766.08" r="14.4" fill="#009af9" fill-rule="evenodd" fill-opacity="1" stroke="#000000" stroke-opacity="1" stroke-width="4"></circle>
<circle clip-path="url(#clip672)" cx="699.711" cy="1741.98" r="14.4" fill="#009af9" fill-rule="evenodd" fill-opacity="1" stroke="#000000" stroke-opacity="1" stroke-width="4"></circle>
<circle clip-path="url(#clip672)" cx="762.05" cy="1733.92" r="14.4" fill="#009af9" fill-rule="evenodd" fill-opacity="1" stroke="#000000" stroke-opacity="1" stroke-width="4"></circle>
<circle clip-path="url(#clip672)" cx="824.389" cy="1689.95" r="14.4" fill="#009af9" fill-rule="evenodd" fill-opacity="1" stroke="#000000" stroke-opacity="1" stroke-width="4"></circle>
<circle clip-path="url(#clip672)" cx="886.728" cy="1647.78" r="14.4" fill="#009af9" fill-rule="evenodd" fill-opacity="1" stroke="#000000" stroke-opacity="1" stroke-width="4"></circle>
<circle clip-path="url(#clip672)" cx="949.067" cy="1598.47" r="14.4" fill="#009af9" fill-rule="evenodd" fill-opacity="1" stroke="#000000" stroke-opacity="1" stroke-width="4"></circle>
<circle clip-path="url(#clip672)" cx="1011.41" cy="1538.29" r="14.4" fill="#009af9" fill-rule="evenodd" fill-opacity="1" stroke="#000000" stroke-opacity="1" stroke-width="4"></circle>
<circle clip-path="url(#clip672)" cx="1073.75" cy="1490.82" r="14.4" fill="#009af9" fill-rule="evenodd" fill-opacity="1" stroke="#000000" stroke-opacity="1" stroke-width="4"></circle>
<circle clip-path="url(#clip672)" cx="1136.08" cy="1433.38" r="14.4" fill="#009af9" fill-rule="evenodd" fill-opacity="1" stroke="#000000" stroke-opacity="1" stroke-width="4"></circle>
<circle clip-path="url(#clip672)" cx="1198.42" cy="1381.54" r="14.4" fill="#009af9" fill-rule="evenodd" fill-opacity="1" stroke="#000000" stroke-opacity="1" stroke-width="4"></circle>
<circle clip-path="url(#clip672)" cx="1260.76" cy="1348.25" r="14.4" fill="#009af9" fill-rule="evenodd" fill-opacity="1" stroke="#000000" stroke-opacity="1" stroke-width="4"></circle>
<circle clip-path="url(#clip672)" cx="1323.1" cy="1255.59" r="14.4" fill="#009af9" fill-rule="evenodd" fill-opacity="1" stroke="#000000" stroke-opacity="1" stroke-width="4"></circle>
<circle clip-path="url(#clip672)" cx="1385.44" cy="1231.22" r="14.4" fill="#009af9" fill-rule="evenodd" fill-opacity="1" stroke="#000000" stroke-opacity="1" stroke-width="4"></circle>
<circle clip-path="url(#clip672)" cx="1447.78" cy="1160.44" r="14.4" fill="#009af9" fill-rule="evenodd" fill-opacity="1" stroke="#000000" stroke-opacity="1" stroke-width="4"></circle>
<circle clip-path="url(#clip672)" cx="1510.12" cy="1120.49" r="14.4" fill="#009af9" fill-rule="evenodd" fill-opacity="1" stroke="#000000" stroke-opacity="1" stroke-width="4"></circle>
<circle clip-path="url(#clip672)" cx="1572.46" cy="1069.99" r="14.4" fill="#009af9" fill-rule="evenodd" fill-opacity="1" stroke="#000000" stroke-opacity="1" stroke-width="4"></circle>
<circle clip-path="url(#clip672)" cx="1634.8" cy="1022.82" r="14.4" fill="#009af9" fill-rule="evenodd" fill-opacity="1" stroke="#000000" stroke-opacity="1" stroke-width="4"></circle>
<circle clip-path="url(#clip672)" cx="1697.14" cy="973.529" r="14.4" fill="#009af9" fill-rule="evenodd" fill-opacity="1" stroke="#000000" stroke-opacity="1" stroke-width="4"></circle>
<circle clip-path="url(#clip672)" cx="1759.48" cy="932.008" r="14.4" fill="#009af9" fill-rule="evenodd" fill-opacity="1" stroke="#000000" stroke-opacity="1" stroke-width="4"></circle>
<circle clip-path="url(#clip672)" cx="1821.82" cy="936.784" r="14.4" fill="#009af9" fill-rule="evenodd" fill-opacity="1" stroke="#000000" stroke-opacity="1" stroke-width="4"></circle>
<circle clip-path="url(#clip672)" cx="1884.15" cy="843.62" r="14.4" fill="#009af9" fill-rule="evenodd" fill-opacity="1" stroke="#000000" stroke-opacity="1" stroke-width="4"></circle>
<circle clip-path="url(#clip672)" cx="1946.49" cy="794.842" r="14.4" fill="#009af9" fill-rule="evenodd" fill-opacity="1" stroke="#000000" stroke-opacity="1" stroke-width="4"></circle>
<circle clip-path="url(#clip672)" cx="2008.83" cy="740.497" r="14.4" fill="#009af9" fill-rule="evenodd" fill-opacity="1" stroke="#000000" stroke-opacity="1" stroke-width="4"></circle>
<circle clip-path="url(#clip672)" cx="2071.17" cy="709.496" r="14.4" fill="#009af9" fill-rule="evenodd" fill-opacity="1" stroke="#000000" stroke-opacity="1" stroke-width="4"></circle>
<circle clip-path="url(#clip672)" cx="2133.51" cy="690.557" r="14.4" fill="#009af9" fill-rule="evenodd" fill-opacity="1" stroke="#000000" stroke-opacity="1" stroke-width="4"></circle>
<circle clip-path="url(#clip672)" cx="2195.85" cy="645.469" r="14.4" fill="#009af9" fill-rule="evenodd" fill-opacity="1" stroke="#000000" stroke-opacity="1" stroke-width="4"></circle>
<circle clip-path="url(#clip672)" cx="2258.19" cy="604.878" r="14.4" fill="#009af9" fill-rule="evenodd" fill-opacity="1" stroke="#000000" stroke-opacity="1" stroke-width="4"></circle>
<circle clip-path="url(#clip672)" cx="2320.53" cy="563.746" r="14.4" fill="#009af9" fill-rule="evenodd" fill-opacity="1" stroke="#000000" stroke-opacity="1" stroke-width="4"></circle>
<circle clip-path="url(#clip672)" cx="2382.87" cy="533.227" r="14.4" fill="#009af9" fill-rule="evenodd" fill-opacity="1" stroke="#000000" stroke-opacity="1" stroke-width="4"></circle>
<circle clip-path="url(#clip672)" cx="2445.21" cy="469.025" r="14.4" fill="#009af9" fill-rule="evenodd" fill-opacity="1" stroke="#000000" stroke-opacity="1" stroke-width="4"></circle>
<circle clip-path="url(#clip672)" cx="2507.55" cy="457.543" r="14.4" fill="#009af9" fill-rule="evenodd" fill-opacity="1" stroke="#000000" stroke-opacity="1" stroke-width="4"></circle>
<circle clip-path="url(#clip672)" cx="2569.88" cy="435.098" r="14.4" fill="#009af9" fill-rule="evenodd" fill-opacity="1" stroke="#000000" stroke-opacity="1" stroke-width="4"></circle>
<circle clip-path="url(#clip672)" cx="2632.22" cy="400.757" r="14.4" fill="#009af9" fill-rule="evenodd" fill-opacity="1" stroke="#000000" stroke-opacity="1" stroke-width="4"></circle>
<circle clip-path="url(#clip672)" cx="2694.56" cy="362.617" r="14.4" fill="#009af9" fill-rule="evenodd" fill-opacity="1" stroke="#000000" stroke-opacity="1" stroke-width="4"></circle>
<circle clip-path="url(#clip672)" cx="2756.9" cy="334.595" r="14.4" fill="#009af9" fill-rule="evenodd" fill-opacity="1" stroke="#000000" stroke-opacity="1" stroke-width="4"></circle>
<circle clip-path="url(#clip672)" cx="2819.24" cy="314.201" r="14.4" fill="#009af9" fill-rule="evenodd" fill-opacity="1" stroke="#000000" stroke-opacity="1" stroke-width="4"></circle>
<circle clip-path="url(#clip672)" cx="2881.58" cy="285.696" r="14.4" fill="#009af9" fill-rule="evenodd" fill-opacity="1" stroke="#000000" stroke-opacity="1" stroke-width="4"></circle>
<circle clip-path="url(#clip672)" cx="2943.92" cy="424.681" r="14.4" fill="#009af9" fill-rule="evenodd" fill-opacity="1" stroke="#000000" stroke-opacity="1" stroke-width="4"></circle>
<circle clip-path="url(#clip672)" cx="3006.26" cy="603.423" r="14.4" fill="#009af9" fill-rule="evenodd" fill-opacity="1" stroke="#000000" stroke-opacity="1" stroke-width="4"></circle>
<circle clip-path="url(#clip672)" cx="3068.6" cy="641.229" r="14.4" fill="#009af9" fill-rule="evenodd" fill-opacity="1" stroke="#000000" stroke-opacity="1" stroke-width="4"></circle>
<polyline clip-path="url(#clip672)" style="stroke:#e26f46; stroke-linecap:round; stroke-linejoin:round; stroke-width:4; stroke-opacity:1; fill:none" points="730.413,1757.43 741.623,1747.83 752.833,1738.24 764.043,1728.67 775.253,1719.12 786.462,1709.57 797.672,1700.05 808.882,1690.53 820.092,1681.03 831.302,1671.55 842.512,1662.08 853.721,1652.62 864.931,1643.18 876.141,1633.75 887.351,1624.34 898.561,1614.94 909.771,1605.55 920.98,1596.18 932.19,1586.82 943.4,1577.48 954.61,1568.15 965.82,1558.83 977.03,1549.53 988.239,1540.24 999.449,1530.97 1010.66,1521.71 1021.87,1512.47 1033.08,1503.23 1044.29,1494.01 1055.5,1484.81 1066.71,1475.62 1077.92,1466.44 1089.13,1457.28 1100.34,1448.13 1111.55,1438.99 1122.76,1429.87 1133.97,1420.76 1145.18,1411.67 1156.39,1402.59 1167.6,1393.52 1178.81,1384.47 1190.02,1375.43 1201.23,1366.4 1212.44,1357.39 1223.65,1348.39 1234.86,1339.4 1246.07,1330.43 1257.28,1321.47 1268.49,1312.52 1279.7,1303.59 1290.91,1294.67 1302.11,1285.77 1313.32,1276.87 1324.53,1267.99 1335.74,1259.13 1346.95,1250.28 1358.16,1241.44 1369.37,1232.61 1380.58,1223.8 1391.79,1215 1403,1206.21 1414.21,1197.44 1425.42,1188.68 1436.63,1179.93 1447.84,1171.2 1459.05,1162.48 1470.26,1153.77 1481.47,1145.08 1492.68,1136.39 1503.89,1127.73 1515.1,1119.07 1526.31,1110.43 1537.52,1101.8 1548.73,1093.18 1559.94,1084.58 1571.15,1075.99 1582.36,1067.41 1593.57,1058.84 1604.78,1050.29 1615.99,1041.75 1627.2,1033.23 1638.41,1024.71 1649.62,1016.21 1660.83,1007.72 1672.04,999.248 1683.25,990.785 1694.46,982.335 1705.67,973.897 1716.88,965.472 1728.09,957.06 1739.3,948.66 1750.51,940.273 1761.72,931.899 1772.93,923.537 1784.14,915.188 1795.35,906.851 1806.56,898.526 1817.77,890.214 1828.98,881.915 1840.19,873.628 1851.4,865.353 1862.61,857.091 1873.82,848.841 1885.03,840.604 1896.24,832.379 1907.45,824.166 1918.66,815.965 1929.87,807.777 1941.08,799.601 1952.29,791.438 1963.5,783.286 1974.7,775.147 1985.91,767.02 1997.12,758.905 2008.33,750.803 2019.54,742.712 2030.75,734.634 2041.96,726.567 2053.17,718.513 2064.38,710.471 2075.59,702.441 2086.8,694.423 2098.01,686.417 2109.22,678.423 2120.43,670.441 2131.64,662.471 2142.85,654.513 2154.06,646.567 2165.27,638.632 2176.48,630.71 2187.69,622.8 2198.9,614.901 2210.11,607.014 2221.32,599.139 2232.53,591.276 2243.74,583.425 2254.95,575.585 2266.16,567.757 2277.37,559.941 2288.58,552.136 2299.79,544.344 2311,536.563 2322.21,528.793 2333.42,521.036 2344.63,513.289 2355.84,505.555 2367.05,497.832 2378.26,490.121 2389.47,482.421 2400.68,474.733 2411.89,467.056 2423.1,459.391 2434.31,451.737 2445.52,444.095 2456.73,436.464 2467.94,428.845 2479.15,421.237 2490.36,413.64 2501.57,406.055 2512.78,398.481 2523.99,390.919 2535.2,383.368 2546.41,375.828 2557.62,368.3 2568.83,360.782 2580.04,353.277 2591.25,345.782 2602.46,338.298 2613.67,330.826 2624.88,323.365 2636.09,315.915 2647.3,308.477 2658.5,301.049 2669.71,293.633 2680.92,286.228 2692.13,278.833 2703.34,271.45 2714.55,264.078 2725.76,256.717 2736.97,249.367 2748.18,242.028 2759.39,234.701 2770.6,227.384 2781.81,220.078 2793.02,212.783 2804.23,205.499 2815.44,198.225 2826.65,190.963 2837.86,183.712 2849.07,176.471 2860.28,169.242 2871.49,162.023 2882.7,154.815 2893.91,147.618 2905.12,140.431 2916.33,133.256 2927.54,126.091 2938.75,118.937 2949.96,111.793 2961.17,104.66 2972.38,97.5384 "></polyline>
<path clip-path="url(#clip670)" d="M278.298 262 L1030.45 262 L1030.45 106.48 L278.298 106.48  Z" fill="#ffffff" fill-rule="evenodd" fill-opacity="1"></path>
<polyline clip-path="url(#clip670)" style="stroke:#000000; stroke-linecap:round; stroke-linejoin:round; stroke-width:4; stroke-opacity:1; fill:none" points="278.298,262 1030.45,262 1030.45,106.48 278.298,106.48 278.298,262 "></polyline>
<circle clip-path="url(#clip670)" cx="410.457" cy="158.32" r="23.04" fill="#009af9" fill-rule="evenodd" fill-opacity="1" stroke="#000000" stroke-opacity="1" stroke-width="6.4"></circle>
<path clip-path="url(#clip670)" d="M542.616 141.04 L549.584 141.04 L558.403 164.558 L567.269 141.04 L574.236 141.04 L574.236 175.6 L569.676 175.6 L569.676 145.253 L560.764 168.956 L556.065 168.956 L547.153 145.253 L547.153 175.6 L542.616 175.6 L542.616 141.04 Z" fill="#000000" fill-rule="nonzero" fill-opacity="1"></path><path clip-path="url(#clip670)" d="M605.509 161.572 L605.509 163.655 L585.926 163.655 Q586.204 168.053 588.565 170.368 Q590.949 172.66 595.185 172.66 Q597.639 172.66 599.931 172.058 Q602.245 171.456 604.514 170.252 L604.514 174.28 Q602.222 175.252 599.815 175.762 Q597.407 176.271 594.931 176.271 Q588.727 176.271 585.093 172.66 Q581.482 169.049 581.482 162.891 Q581.482 156.526 584.908 152.799 Q588.357 149.049 594.19 149.049 Q599.421 149.049 602.454 152.428 Q605.509 155.785 605.509 161.572 M601.25 160.322 Q601.204 156.827 599.282 154.743 Q597.384 152.66 594.236 152.66 Q590.671 152.66 588.519 154.674 Q586.389 156.688 586.065 160.345 L601.25 160.322 Z" fill="#000000" fill-rule="nonzero" fill-opacity="1"></path><path clip-path="url(#clip670)" d="M624.282 162.567 Q619.12 162.567 617.13 163.748 Q615.139 164.928 615.139 167.776 Q615.139 170.044 616.62 171.387 Q618.125 172.706 620.694 172.706 Q624.236 172.706 626.366 170.206 Q628.518 167.683 628.518 163.516 L628.518 162.567 L624.282 162.567 M632.778 160.808 L632.778 175.6 L628.518 175.6 L628.518 171.664 Q627.06 174.026 624.884 175.16 Q622.708 176.271 619.56 176.271 Q615.579 176.271 613.218 174.049 Q610.88 171.803 610.88 168.053 Q610.88 163.678 613.796 161.456 Q616.736 159.234 622.546 159.234 L628.518 159.234 L628.518 158.817 Q628.518 155.878 626.574 154.28 Q624.653 152.66 621.157 152.66 Q618.935 152.66 616.829 153.192 Q614.722 153.725 612.778 154.79 L612.778 150.854 Q615.116 149.952 617.315 149.512 Q619.514 149.049 621.597 149.049 Q627.222 149.049 630 151.965 Q632.778 154.882 632.778 160.808 Z" fill="#000000" fill-rule="nonzero" fill-opacity="1"></path><path clip-path="url(#clip670)" d="M658.078 150.438 L658.078 154.465 Q656.273 153.54 654.328 153.077 Q652.384 152.614 650.301 152.614 Q647.129 152.614 645.532 153.586 Q643.958 154.558 643.958 156.502 Q643.958 157.984 645.092 158.84 Q646.227 159.674 649.653 160.438 L651.111 160.762 Q655.648 161.734 657.546 163.516 Q659.467 165.276 659.467 168.447 Q659.467 172.058 656.597 174.164 Q653.75 176.271 648.75 176.271 Q646.666 176.271 644.398 175.854 Q642.153 175.461 639.653 174.651 L639.653 170.252 Q642.014 171.479 644.305 172.104 Q646.597 172.706 648.842 172.706 Q651.852 172.706 653.472 171.688 Q655.092 170.646 655.092 168.771 Q655.092 167.035 653.912 166.109 Q652.754 165.183 648.796 164.327 L647.315 163.979 Q643.356 163.146 641.597 161.433 Q639.838 159.697 639.838 156.688 Q639.838 153.03 642.43 151.04 Q645.023 149.049 649.791 149.049 Q652.153 149.049 654.236 149.396 Q656.319 149.743 658.078 150.438 Z" fill="#000000" fill-rule="nonzero" fill-opacity="1"></path><path clip-path="url(#clip670)" d="M665.81 165.368 L665.81 149.674 L670.069 149.674 L670.069 165.206 Q670.069 168.887 671.504 170.739 Q672.939 172.567 675.81 172.567 Q679.259 172.567 681.25 170.368 Q683.264 168.169 683.264 164.373 L683.264 149.674 L687.523 149.674 L687.523 175.6 L683.264 175.6 L683.264 171.618 Q681.713 173.979 679.652 175.137 Q677.615 176.271 674.907 176.271 Q670.439 176.271 668.125 173.493 Q665.81 170.715 665.81 165.368 M676.527 149.049 L676.527 149.049 Z" fill="#000000" fill-rule="nonzero" fill-opacity="1"></path><path clip-path="url(#clip670)" d="M711.319 153.655 Q710.601 153.239 709.745 153.053 Q708.912 152.845 707.893 152.845 Q704.282 152.845 702.337 155.206 Q700.416 157.544 700.416 161.942 L700.416 175.6 L696.134 175.6 L696.134 149.674 L700.416 149.674 L700.416 153.702 Q701.759 151.34 703.912 150.206 Q706.064 149.049 709.143 149.049 Q709.583 149.049 710.115 149.118 Q710.648 149.165 711.296 149.28 L711.319 153.655 Z" fill="#000000" fill-rule="nonzero" fill-opacity="1"></path><path clip-path="url(#clip670)" d="M736.921 161.572 L736.921 163.655 L717.337 163.655 Q717.615 168.053 719.976 170.368 Q722.361 172.66 726.597 172.66 Q729.05 172.66 731.342 172.058 Q733.657 171.456 735.925 170.252 L735.925 174.28 Q733.634 175.252 731.226 175.762 Q728.819 176.271 726.342 176.271 Q720.138 176.271 716.504 172.66 Q712.893 169.049 712.893 162.891 Q712.893 156.526 716.319 152.799 Q719.768 149.049 725.601 149.049 Q730.833 149.049 733.865 152.428 Q736.921 155.785 736.921 161.572 M732.661 160.322 Q732.615 156.827 730.694 154.743 Q728.796 152.66 725.648 152.66 Q722.083 152.66 719.93 154.674 Q717.8 156.688 717.476 160.345 L732.661 160.322 Z" fill="#000000" fill-rule="nonzero" fill-opacity="1"></path><path clip-path="url(#clip670)" d="M760.971 153.609 L760.971 139.581 L765.231 139.581 L765.231 175.6 L760.971 175.6 L760.971 171.711 Q759.629 174.026 757.569 175.16 Q755.532 176.271 752.661 176.271 Q747.962 176.271 744.999 172.521 Q742.059 168.771 742.059 162.66 Q742.059 156.549 744.999 152.799 Q747.962 149.049 752.661 149.049 Q755.532 149.049 757.569 150.183 Q759.629 151.294 760.971 153.609 M746.458 162.66 Q746.458 167.359 748.379 170.044 Q750.323 172.706 753.703 172.706 Q757.083 172.706 759.027 170.044 Q760.971 167.359 760.971 162.66 Q760.971 157.961 759.027 155.299 Q757.083 152.614 753.703 152.614 Q750.323 152.614 748.379 155.299 Q746.458 157.961 746.458 162.66 Z" fill="#000000" fill-rule="nonzero" fill-opacity="1"></path><path clip-path="url(#clip670)" d="M804.096 153.655 Q803.379 153.239 802.522 153.053 Q801.689 152.845 800.67 152.845 Q797.059 152.845 795.115 155.206 Q793.193 157.544 793.193 161.942 L793.193 175.6 L788.911 175.6 L788.911 149.674 L793.193 149.674 L793.193 153.702 Q794.536 151.34 796.689 150.206 Q798.842 149.049 801.92 149.049 Q802.36 149.049 802.892 149.118 Q803.425 149.165 804.073 149.28 L804.096 153.655 Z" fill="#000000" fill-rule="nonzero" fill-opacity="1"></path><path clip-path="url(#clip670)" d="M829.698 161.572 L829.698 163.655 L810.115 163.655 Q810.392 168.053 812.754 170.368 Q815.138 172.66 819.374 172.66 Q821.828 172.66 824.119 172.058 Q826.434 171.456 828.703 170.252 L828.703 174.28 Q826.411 175.252 824.003 175.762 Q821.596 176.271 819.119 176.271 Q812.916 176.271 809.281 172.66 Q805.67 169.049 805.67 162.891 Q805.67 156.526 809.096 152.799 Q812.545 149.049 818.379 149.049 Q823.61 149.049 826.642 152.428 Q829.698 155.785 829.698 161.572 M825.439 160.322 Q825.392 156.827 823.471 154.743 Q821.573 152.66 818.425 152.66 Q814.86 152.66 812.707 154.674 Q810.578 156.688 810.254 160.345 L825.439 160.322 Z" fill="#000000" fill-rule="nonzero" fill-opacity="1"></path><path clip-path="url(#clip670)" d="M853.216 150.438 L853.216 154.465 Q851.411 153.54 849.466 153.077 Q847.522 152.614 845.439 152.614 Q842.267 152.614 840.67 153.586 Q839.096 154.558 839.096 156.502 Q839.096 157.984 840.23 158.84 Q841.365 159.674 844.79 160.438 L846.249 160.762 Q850.786 161.734 852.684 163.516 Q854.605 165.276 854.605 168.447 Q854.605 172.058 851.735 174.164 Q848.888 176.271 843.888 176.271 Q841.804 176.271 839.536 175.854 Q837.29 175.461 834.79 174.651 L834.79 170.252 Q837.152 171.479 839.443 172.104 Q841.735 172.706 843.98 172.706 Q846.989 172.706 848.61 171.688 Q850.23 170.646 850.23 168.771 Q850.23 167.035 849.05 166.109 Q847.892 165.183 843.934 164.327 L842.452 163.979 Q838.494 163.146 836.735 161.433 Q834.976 159.697 834.976 156.688 Q834.976 153.03 837.568 151.04 Q840.161 149.049 844.929 149.049 Q847.29 149.049 849.374 149.396 Q851.457 149.743 853.216 150.438 Z" fill="#000000" fill-rule="nonzero" fill-opacity="1"></path><path clip-path="url(#clip670)" d="M865.508 171.711 L865.508 185.461 L861.226 185.461 L861.226 149.674 L865.508 149.674 L865.508 153.609 Q866.85 151.294 868.888 150.183 Q870.948 149.049 873.795 149.049 Q878.517 149.049 881.457 152.799 Q884.42 156.549 884.42 162.66 Q884.42 168.771 881.457 172.521 Q878.517 176.271 873.795 176.271 Q870.948 176.271 868.888 175.16 Q866.85 174.026 865.508 171.711 M879.999 162.66 Q879.999 157.961 878.054 155.299 Q876.133 152.614 872.753 152.614 Q869.374 152.614 867.429 155.299 Q865.508 157.961 865.508 162.66 Q865.508 167.359 867.429 170.044 Q869.374 172.706 872.753 172.706 Q876.133 172.706 878.054 170.044 Q879.999 167.359 879.999 162.66 Z" fill="#000000" fill-rule="nonzero" fill-opacity="1"></path><path clip-path="url(#clip670)" d="M901.526 152.66 Q898.1 152.66 896.11 155.345 Q894.119 158.007 894.119 162.66 Q894.119 167.313 896.086 169.998 Q898.077 172.66 901.526 172.66 Q904.929 172.66 906.92 169.975 Q908.91 167.289 908.91 162.66 Q908.91 158.053 906.92 155.368 Q904.929 152.66 901.526 152.66 M901.526 149.049 Q907.082 149.049 910.253 152.66 Q913.424 156.271 913.424 162.66 Q913.424 169.026 910.253 172.66 Q907.082 176.271 901.526 176.271 Q895.948 176.271 892.776 172.66 Q889.628 169.026 889.628 162.66 Q889.628 156.271 892.776 152.66 Q895.948 149.049 901.526 149.049 Z" fill="#000000" fill-rule="nonzero" fill-opacity="1"></path><path clip-path="url(#clip670)" d="M942.035 159.952 L942.035 175.6 L937.776 175.6 L937.776 160.09 Q937.776 156.41 936.341 154.581 Q934.906 152.753 932.035 152.753 Q928.586 152.753 926.596 154.952 Q924.605 157.151 924.605 160.947 L924.605 175.6 L920.322 175.6 L920.322 149.674 L924.605 149.674 L924.605 153.702 Q926.133 151.364 928.193 150.206 Q930.276 149.049 932.984 149.049 Q937.452 149.049 939.744 151.827 Q942.035 154.581 942.035 159.952 Z" fill="#000000" fill-rule="nonzero" fill-opacity="1"></path><path clip-path="url(#clip670)" d="M967.058 150.438 L967.058 154.465 Q965.253 153.54 963.308 153.077 Q961.364 152.614 959.281 152.614 Q956.109 152.614 954.512 153.586 Q952.938 154.558 952.938 156.502 Q952.938 157.984 954.072 158.84 Q955.206 159.674 958.632 160.438 L960.091 160.762 Q964.628 161.734 966.526 163.516 Q968.447 165.276 968.447 168.447 Q968.447 172.058 965.577 174.164 Q962.73 176.271 957.73 176.271 Q955.646 176.271 953.378 175.854 Q951.132 175.461 948.632 174.651 L948.632 170.252 Q950.994 171.479 953.285 172.104 Q955.577 172.706 957.822 172.706 Q960.831 172.706 962.452 171.688 Q964.072 170.646 964.072 168.771 Q964.072 167.035 962.892 166.109 Q961.734 165.183 957.776 164.327 L956.294 163.979 Q952.336 163.146 950.577 161.433 Q948.818 159.697 948.818 156.688 Q948.818 153.03 951.41 151.04 Q954.003 149.049 958.771 149.049 Q961.132 149.049 963.216 149.396 Q965.299 149.743 967.058 150.438 Z" fill="#000000" fill-rule="nonzero" fill-opacity="1"></path><path clip-path="url(#clip670)" d="M997.405 161.572 L997.405 163.655 L977.822 163.655 Q978.1 168.053 980.461 170.368 Q982.845 172.66 987.081 172.66 Q989.535 172.66 991.827 172.058 Q994.141 171.456 996.41 170.252 L996.41 174.28 Q994.118 175.252 991.711 175.762 Q989.304 176.271 986.827 176.271 Q980.623 176.271 976.989 172.66 Q973.378 169.049 973.378 162.891 Q973.378 156.526 976.804 152.799 Q980.253 149.049 986.086 149.049 Q991.317 149.049 994.35 152.428 Q997.405 155.785 997.405 161.572 M993.146 160.322 Q993.1 156.827 991.179 154.743 Q989.28 152.66 986.132 152.66 Q982.567 152.66 980.415 154.674 Q978.285 156.688 977.961 160.345 L993.146 160.322 Z" fill="#000000" fill-rule="nonzero" fill-opacity="1"></path><polyline clip-path="url(#clip670)" style="stroke:#e26f46; stroke-linecap:round; stroke-linejoin:round; stroke-width:4; stroke-opacity:1; fill:none" points="311.338,210.16 509.576,210.16 "></polyline>
<path clip-path="url(#clip670)" d="M542.616 192.88 L549.584 192.88 L558.403 216.398 L567.269 192.88 L574.236 192.88 L574.236 227.44 L569.676 227.44 L569.676 197.093 L560.764 220.796 L556.065 220.796 L547.153 197.093 L547.153 227.44 L542.616 227.44 L542.616 192.88 Z" fill="#000000" fill-rule="nonzero" fill-opacity="1"></path><path clip-path="url(#clip670)" d="M593.38 204.5 Q589.954 204.5 587.963 207.185 Q585.972 209.847 585.972 214.5 Q585.972 219.153 587.94 221.838 Q589.931 224.5 593.38 224.5 Q596.782 224.5 598.773 221.815 Q600.764 219.129 600.764 214.5 Q600.764 209.893 598.773 207.208 Q596.782 204.5 593.38 204.5 M593.38 200.889 Q598.935 200.889 602.107 204.5 Q605.278 208.111 605.278 214.5 Q605.278 220.866 602.107 224.5 Q598.935 228.111 593.38 228.111 Q587.801 228.111 584.63 224.5 Q581.482 220.866 581.482 214.5 Q581.482 208.111 584.63 204.5 Q587.801 200.889 593.38 200.889 Z" fill="#000000" fill-rule="nonzero" fill-opacity="1"></path><path clip-path="url(#clip670)" d="M629.398 205.449 L629.398 191.421 L633.657 191.421 L633.657 227.44 L629.398 227.44 L629.398 223.551 Q628.055 225.866 625.995 227 Q623.958 228.111 621.088 228.111 Q616.389 228.111 613.426 224.361 Q610.486 220.611 610.486 214.5 Q610.486 208.389 613.426 204.639 Q616.389 200.889 621.088 200.889 Q623.958 200.889 625.995 202.023 Q628.055 203.134 629.398 205.449 M614.884 214.5 Q614.884 219.199 616.806 221.884 Q618.75 224.546 622.13 224.546 Q625.509 224.546 627.454 221.884 Q629.398 219.199 629.398 214.5 Q629.398 209.801 627.454 207.139 Q625.509 204.454 622.13 204.454 Q618.75 204.454 616.806 207.139 Q614.884 209.801 614.884 214.5 Z" fill="#000000" fill-rule="nonzero" fill-opacity="1"></path><path clip-path="url(#clip670)" d="M664.606 213.412 L664.606 215.495 L645.023 215.495 Q645.301 219.893 647.662 222.208 Q650.046 224.5 654.282 224.5 Q656.736 224.5 659.028 223.898 Q661.342 223.296 663.611 222.092 L663.611 226.12 Q661.319 227.092 658.912 227.602 Q656.504 228.111 654.028 228.111 Q647.824 228.111 644.19 224.5 Q640.579 220.889 640.579 214.731 Q640.579 208.366 644.004 204.639 Q647.454 200.889 653.287 200.889 Q658.518 200.889 661.551 204.268 Q664.606 207.625 664.606 213.412 M660.347 212.162 Q660.301 208.667 658.379 206.583 Q656.481 204.5 653.333 204.5 Q649.768 204.5 647.616 206.514 Q645.486 208.528 645.162 212.185 L660.347 212.162 Z" fill="#000000" fill-rule="nonzero" fill-opacity="1"></path><path clip-path="url(#clip670)" d="M671.597 191.421 L675.856 191.421 L675.856 227.44 L671.597 227.44 L671.597 191.421 Z" fill="#000000" fill-rule="nonzero" fill-opacity="1"></path><path clip-path="url(#clip670)" d="M706.944 213.412 L706.944 215.495 L687.361 215.495 Q687.638 219.893 690 222.208 Q692.384 224.5 696.62 224.5 Q699.074 224.5 701.365 223.898 Q703.68 223.296 705.949 222.092 L705.949 226.12 Q703.657 227.092 701.25 227.602 Q698.842 228.111 696.365 228.111 Q690.162 228.111 686.527 224.5 Q682.916 220.889 682.916 214.731 Q682.916 208.366 686.342 204.639 Q689.791 200.889 695.625 200.889 Q700.856 200.889 703.888 204.268 Q706.944 207.625 706.944 213.412 M702.685 212.162 Q702.638 208.667 700.717 206.583 Q698.819 204.5 695.671 204.5 Q692.106 204.5 689.953 206.514 Q687.824 208.528 687.5 212.185 L702.685 212.162 Z" fill="#000000" fill-rule="nonzero" fill-opacity="1"></path><path clip-path="url(#clip670)" d="M730.995 205.449 L730.995 191.421 L735.254 191.421 L735.254 227.44 L730.995 227.44 L730.995 223.551 Q729.652 225.866 727.592 227 Q725.555 228.111 722.685 228.111 Q717.986 228.111 715.023 224.361 Q712.083 220.611 712.083 214.5 Q712.083 208.389 715.023 204.639 Q717.986 200.889 722.685 200.889 Q725.555 200.889 727.592 202.023 Q729.652 203.134 730.995 205.449 M716.481 214.5 Q716.481 219.199 718.402 221.884 Q720.347 224.546 723.726 224.546 Q727.106 224.546 729.05 221.884 Q730.995 219.199 730.995 214.5 Q730.995 209.801 729.05 207.139 Q727.106 204.454 723.726 204.454 Q720.347 204.454 718.402 207.139 Q716.481 209.801 716.481 214.5 Z" fill="#000000" fill-rule="nonzero" fill-opacity="1"></path><path clip-path="url(#clip670)" d="M774.119 205.495 Q773.402 205.079 772.545 204.893 Q771.712 204.685 770.694 204.685 Q767.082 204.685 765.138 207.046 Q763.217 209.384 763.217 213.782 L763.217 227.44 L758.934 227.44 L758.934 201.514 L763.217 201.514 L763.217 205.542 Q764.559 203.18 766.712 202.046 Q768.865 200.889 771.944 200.889 Q772.383 200.889 772.916 200.958 Q773.448 201.005 774.096 201.12 L774.119 205.495 Z" fill="#000000" fill-rule="nonzero" fill-opacity="1"></path><path clip-path="url(#clip670)" d="M799.721 213.412 L799.721 215.495 L780.138 215.495 Q780.416 219.893 782.777 222.208 Q785.161 224.5 789.397 224.5 Q791.851 224.5 794.143 223.898 Q796.457 223.296 798.726 222.092 L798.726 226.12 Q796.434 227.092 794.027 227.602 Q791.619 228.111 789.143 228.111 Q782.939 228.111 779.305 224.5 Q775.694 220.889 775.694 214.731 Q775.694 208.366 779.119 204.639 Q782.569 200.889 788.402 200.889 Q793.633 200.889 796.666 204.268 Q799.721 207.625 799.721 213.412 M795.462 212.162 Q795.416 208.667 793.494 206.583 Q791.596 204.5 788.448 204.5 Q784.883 204.5 782.731 206.514 Q780.601 208.528 780.277 212.185 L795.462 212.162 Z" fill="#000000" fill-rule="nonzero" fill-opacity="1"></path><path clip-path="url(#clip670)" d="M823.24 202.278 L823.24 206.305 Q821.434 205.38 819.49 204.917 Q817.545 204.454 815.462 204.454 Q812.291 204.454 810.693 205.426 Q809.119 206.398 809.119 208.342 Q809.119 209.824 810.254 210.68 Q811.388 211.514 814.814 212.278 L816.272 212.602 Q820.809 213.574 822.707 215.356 Q824.628 217.116 824.628 220.287 Q824.628 223.898 821.758 226.004 Q818.911 228.111 813.911 228.111 Q811.828 228.111 809.559 227.694 Q807.314 227.301 804.814 226.491 L804.814 222.092 Q807.175 223.319 809.467 223.944 Q811.758 224.546 814.004 224.546 Q817.013 224.546 818.633 223.528 Q820.254 222.486 820.254 220.611 Q820.254 218.875 819.073 217.949 Q817.916 217.023 813.957 216.167 L812.476 215.819 Q808.517 214.986 806.758 213.273 Q804.999 211.537 804.999 208.528 Q804.999 204.87 807.592 202.88 Q810.184 200.889 814.953 200.889 Q817.314 200.889 819.397 201.236 Q821.48 201.583 823.24 202.278 Z" fill="#000000" fill-rule="nonzero" fill-opacity="1"></path><path clip-path="url(#clip670)" d="M835.531 223.551 L835.531 237.301 L831.249 237.301 L831.249 201.514 L835.531 201.514 L835.531 205.449 Q836.874 203.134 838.911 202.023 Q840.971 200.889 843.818 200.889 Q848.54 200.889 851.48 204.639 Q854.443 208.389 854.443 214.5 Q854.443 220.611 851.48 224.361 Q848.54 228.111 843.818 228.111 Q840.971 228.111 838.911 227 Q836.874 225.866 835.531 223.551 M850.022 214.5 Q850.022 209.801 848.077 207.139 Q846.156 204.454 842.777 204.454 Q839.397 204.454 837.452 207.139 Q835.531 209.801 835.531 214.5 Q835.531 219.199 837.452 221.884 Q839.397 224.546 842.777 224.546 Q846.156 224.546 848.077 221.884 Q850.022 219.199 850.022 214.5 Z" fill="#000000" fill-rule="nonzero" fill-opacity="1"></path><path clip-path="url(#clip670)" d="M871.55 204.5 Q868.124 204.5 866.133 207.185 Q864.142 209.847 864.142 214.5 Q864.142 219.153 866.11 221.838 Q868.1 224.5 871.55 224.5 Q874.952 224.5 876.943 221.815 Q878.934 219.129 878.934 214.5 Q878.934 209.893 876.943 207.208 Q874.952 204.5 871.55 204.5 M871.55 200.889 Q877.105 200.889 880.276 204.5 Q883.448 208.111 883.448 214.5 Q883.448 220.866 880.276 224.5 Q877.105 228.111 871.55 228.111 Q865.971 228.111 862.8 224.5 Q859.651 220.866 859.651 214.5 Q859.651 208.111 862.8 204.5 Q865.971 200.889 871.55 200.889 Z" fill="#000000" fill-rule="nonzero" fill-opacity="1"></path><path clip-path="url(#clip670)" d="M912.059 211.792 L912.059 227.44 L907.799 227.44 L907.799 211.93 Q907.799 208.25 906.364 206.421 Q904.929 204.593 902.059 204.593 Q898.61 204.593 896.619 206.792 Q894.628 208.991 894.628 212.787 L894.628 227.44 L890.346 227.44 L890.346 201.514 L894.628 201.514 L894.628 205.542 Q896.156 203.204 898.216 202.046 Q900.299 200.889 903.008 200.889 Q907.475 200.889 909.767 203.667 Q912.059 206.421 912.059 211.792 Z" fill="#000000" fill-rule="nonzero" fill-opacity="1"></path><path clip-path="url(#clip670)" d="M937.082 202.278 L937.082 206.305 Q935.276 205.38 933.332 204.917 Q931.387 204.454 929.304 204.454 Q926.133 204.454 924.535 205.426 Q922.961 206.398 922.961 208.342 Q922.961 209.824 924.096 210.68 Q925.23 211.514 928.656 212.278 L930.114 212.602 Q934.651 213.574 936.549 215.356 Q938.47 217.116 938.47 220.287 Q938.47 223.898 935.6 226.004 Q932.753 228.111 927.753 228.111 Q925.67 228.111 923.401 227.694 Q921.156 227.301 918.656 226.491 L918.656 222.092 Q921.017 223.319 923.309 223.944 Q925.6 224.546 927.846 224.546 Q930.855 224.546 932.475 223.528 Q934.095 222.486 934.095 220.611 Q934.095 218.875 932.915 217.949 Q931.758 217.023 927.799 216.167 L926.318 215.819 Q922.359 214.986 920.6 213.273 Q918.841 211.537 918.841 208.528 Q918.841 204.87 921.434 202.88 Q924.026 200.889 928.795 200.889 Q931.156 200.889 933.239 201.236 Q935.322 201.583 937.082 202.278 Z" fill="#000000" fill-rule="nonzero" fill-opacity="1"></path><path clip-path="url(#clip670)" d="M967.429 213.412 L967.429 215.495 L947.845 215.495 Q948.123 219.893 950.484 222.208 Q952.869 224.5 957.105 224.5 Q959.558 224.5 961.85 223.898 Q964.165 223.296 966.433 222.092 L966.433 226.12 Q964.142 227.092 961.734 227.602 Q959.327 228.111 956.85 228.111 Q950.646 228.111 947.012 224.5 Q943.401 220.889 943.401 214.731 Q943.401 208.366 946.827 204.639 Q950.276 200.889 956.109 200.889 Q961.341 200.889 964.373 204.268 Q967.429 207.625 967.429 213.412 M963.169 212.162 Q963.123 208.667 961.202 206.583 Q959.304 204.5 956.156 204.5 Q952.591 204.5 950.438 206.514 Q948.308 208.528 947.984 212.185 L963.169 212.162 Z" fill="#000000" fill-rule="nonzero" fill-opacity="1"></path></svg>