<?xml version="1.0" encoding="utf-8"?>
<svg xmlns="http://www.w3.org/2000/svg" xmlns:xlink="http://www.w3.org/1999/xlink" width="800" height="500" viewBox="0 0 3200 2000">
<defs>
  <clipPath id="clip460">
    <rect x="0" y="0" width="3200" height="2000"/>
  </clipPath>
</defs>
<path clip-path="url(#clip460)" d="M0 2000 L3200 2000 L3200 0 L0 0  Z" fill="#ffffff" fill-rule="evenodd" fill-opacity="1"/>
<defs>
  <clipPath id="clip461">
    <rect x="640" y="0" width="2241" height="2000"/>
  </clipPath>
</defs>
<path clip-path="url(#clip460)" d="M180.475 1824.31 L3152.76 1824.31 L3152.76 119.692 L180.475 119.692  Z" fill="#ffffff" fill-rule="evenodd" fill-opacity="1"/>
<defs>
  <clipPath id="clip462">
    <rect x="180" y="119" width="2973" height="1706"/>
  </clipPath>
</defs>
<polyline clip-path="url(#clip462)" style="stroke:#000000; stroke-linecap:round; stroke-linejoin:round; stroke-width:2; stroke-opacity:0.1; fill:none" points="854.601,1824.31 854.601,119.692 "/>
<polyline clip-path="url(#clip462)" style="stroke:#000000; stroke-linecap:round; stroke-linejoin:round; stroke-width:2; stroke-opacity:0.1; fill:none" points="1620.65,1824.31 1620.65,119.692 "/>
<polyline clip-path="url(#clip462)" style="stroke:#000000; stroke-linecap:round; stroke-linejoin:round; stroke-width:2; stroke-opacity:0.1; fill:none" points="2386.7,1824.31 2386.7,119.692 "/>
<polyline clip-path="url(#clip462)" style="stroke:#000000; stroke-linecap:round; stroke-linejoin:round; stroke-width:2; stroke-opacity:0.1; fill:none" points="3152.76,1824.31 3152.76,119.692 "/>
<polyline clip-path="url(#clip460)" style="stroke:#000000; stroke-linecap:round; stroke-linejoin:round; stroke-width:4; stroke-opacity:1; fill:none" points="180.475,1824.31 3152.76,1824.31 "/>
<polyline clip-path="url(#clip460)" style="stroke:#000000; stroke-linecap:round; stroke-linejoin:round; stroke-width:4; stroke-opacity:1; fill:none" points="854.601,1824.31 854.601,1805.41 "/>
<polyline clip-path="url(#clip460)" style="stroke:#000000; stroke-linecap:round; stroke-linejoin:round; stroke-width:4; stroke-opacity:1; fill:none" points="1620.65,1824.31 1620.65,1805.41 "/>
<polyline clip-path="url(#clip460)" style="stroke:#000000; stroke-linecap:round; stroke-linejoin:round; stroke-width:4; stroke-opacity:1; fill:none" points="2386.7,1824.31 2386.7,1805.41 "/>
<polyline clip-path="url(#clip460)" style="stroke:#000000; stroke-linecap:round; stroke-linejoin:round; stroke-width:4; stroke-opacity:1; fill:none" points="3152.76,1824.31 3152.76,1805.41 "/>
<path clip-path="url(#clip460)" d="M814.219 1858.55 L832.575 1858.55 L832.575 1862.49 L818.501 1862.49 L818.501 1870.96 Q819.52 1870.61 820.538 1870.45 Q821.557 1870.26 822.575 1870.26 Q828.362 1870.26 831.742 1873.43 Q835.122 1876.61 835.122 1882.02 Q835.122 1887.6 831.649 1890.7 Q828.177 1893.78 821.858 1893.78 Q819.682 1893.78 817.413 1893.41 Q815.168 1893.04 812.761 1892.3 L812.761 1887.6 Q814.844 1888.73 817.066 1889.29 Q819.288 1889.85 821.765 1889.85 Q825.77 1889.85 828.108 1887.74 Q830.446 1885.63 830.446 1882.02 Q830.446 1878.41 828.108 1876.3 Q825.77 1874.2 821.765 1874.2 Q819.89 1874.2 818.015 1874.61 Q816.163 1875.03 814.219 1875.91 L814.219 1858.55 Z" fill="#000000" fill-rule="nonzero" fill-opacity="1" /><path clip-path="url(#clip460)" d="M854.335 1861.63 Q850.723 1861.63 848.895 1865.19 Q847.089 1868.73 847.089 1875.86 Q847.089 1882.97 848.895 1886.54 Q850.723 1890.08 854.335 1890.08 Q857.969 1890.08 859.774 1886.54 Q861.603 1882.97 861.603 1875.86 Q861.603 1868.73 859.774 1865.19 Q857.969 1861.63 854.335 1861.63 M854.335 1857.92 Q860.145 1857.92 863.2 1862.53 Q866.279 1867.11 866.279 1875.86 Q866.279 1884.59 863.2 1889.2 Q860.145 1893.78 854.335 1893.78 Q848.524 1893.78 845.446 1889.2 Q842.39 1884.59 842.39 1875.86 Q842.39 1867.11 845.446 1862.53 Q848.524 1857.92 854.335 1857.92 Z" fill="#000000" fill-rule="nonzero" fill-opacity="1" /><path clip-path="url(#clip460)" d="M884.496 1861.63 Q880.885 1861.63 879.057 1865.19 Q877.251 1868.73 877.251 1875.86 Q877.251 1882.97 879.057 1886.54 Q880.885 1890.08 884.496 1890.08 Q888.131 1890.08 889.936 1886.54 Q891.765 1882.97 891.765 1875.86 Q891.765 1868.73 889.936 1865.19 Q888.131 1861.63 884.496 1861.63 M884.496 1857.92 Q890.307 1857.92 893.362 1862.53 Q896.441 1867.11 896.441 1875.86 Q896.441 1884.59 893.362 1889.2 Q890.307 1893.78 884.496 1893.78 Q878.686 1893.78 875.608 1889.2 Q872.552 1884.59 872.552 1875.86 Q872.552 1867.11 875.608 1862.53 Q878.686 1857.92 884.496 1857.92 Z" fill="#000000" fill-rule="nonzero" fill-opacity="1" /><path clip-path="url(#clip460)" d="M1565.18 1889.17 L1572.82 1889.17 L1572.82 1862.81 L1564.51 1864.48 L1564.51 1860.22 L1572.77 1858.55 L1577.45 1858.55 L1577.45 1889.17 L1585.09 1889.17 L1585.09 1893.11 L1565.18 1893.11 L1565.18 1889.17 Z" fill="#000000" fill-rule="nonzero" fill-opacity="1" /><path clip-path="url(#clip460)" d="M1604.53 1861.63 Q1600.92 1861.63 1599.09 1865.19 Q1597.28 1868.73 1597.28 1875.86 Q1597.28 1882.97 1599.09 1886.54 Q1600.92 1890.08 1604.53 1890.08 Q1608.16 1890.08 1609.97 1886.54 Q1611.8 1882.97 1611.8 1875.86 Q1611.8 1868.73 1609.97 1865.19 Q1608.16 1861.63 1604.53 1861.63 M1604.53 1857.92 Q1610.34 1857.92 1613.4 1862.53 Q1616.47 1867.11 1616.47 1875.86 Q1616.47 1884.59 1613.4 1889.2 Q1610.34 1893.78 1604.53 1893.78 Q1598.72 1893.78 1595.64 1889.2 Q1592.59 1884.59 1592.59 1875.86 Q1592.59 1867.11 1595.64 1862.53 Q1598.72 1857.92 1604.53 1857.92 Z" fill="#000000" fill-rule="nonzero" fill-opacity="1" /><path clip-path="url(#clip460)" d="M1634.69 1861.63 Q1631.08 1861.63 1629.25 1865.19 Q1627.45 1868.73 1627.45 1875.86 Q1627.45 1882.97 1629.25 1886.54 Q1631.08 1890.08 1634.69 1890.08 Q1638.33 1890.08 1640.13 1886.54 Q1641.96 1882.97 1641.96 1875.86 Q1641.96 1868.73 1640.13 1865.19 Q1638.33 1861.63 1634.69 1861.63 M1634.69 1857.92 Q1640.5 1857.92 1643.56 1862.53 Q1646.64 1867.11 1646.64 1875.86 Q1646.64 1884.59 1643.56 1889.2 Q1640.5 1893.78 1634.69 1893.78 Q1628.88 1893.78 1625.8 1889.2 Q1622.75 1884.59 1622.75 1875.86 Q1622.75 1867.11 1625.8 1862.53 Q1628.88 1857.92 1634.69 1857.92 Z" fill="#000000" fill-rule="nonzero" fill-opacity="1" /><path clip-path="url(#clip460)" d="M1664.85 1861.63 Q1661.24 1861.63 1659.41 1865.19 Q1657.61 1868.73 1657.61 1875.86 Q1657.61 1882.97 1659.41 1886.54 Q1661.24 1890.08 1664.85 1890.08 Q1668.49 1890.08 1670.29 1886.54 Q1672.12 1882.97 1672.12 1875.86 Q1672.12 1868.73 1670.29 1865.19 Q1668.49 1861.63 1664.85 1861.63 M1664.85 1857.92 Q1670.66 1857.92 1673.72 1862.53 Q1676.8 1867.11 1676.8 1875.86 Q1676.8 1884.59 1673.72 1889.2 Q1670.66 1893.78 1664.85 1893.78 Q1659.04 1893.78 1655.96 1889.2 Q1652.91 1884.59 1652.91 1875.86 Q1652.91 1867.11 1655.96 1862.53 Q1659.04 1857.92 1664.85 1857.92 Z" fill="#000000" fill-rule="nonzero" fill-opacity="1" /><path clip-path="url(#clip460)" d="M2331.23 1889.17 L2338.87 1889.17 L2338.87 1862.81 L2330.56 1864.48 L2330.56 1860.22 L2338.82 1858.55 L2343.5 1858.55 L2343.5 1889.17 L2351.14 1889.17 L2351.14 1893.11 L2331.23 1893.11 L2331.23 1889.17 Z" fill="#000000" fill-rule="nonzero" fill-opacity="1" /><path clip-path="url(#clip460)" d="M2360.63 1858.55 L2378.98 1858.55 L2378.98 1862.49 L2364.91 1862.49 L2364.91 1870.96 Q2365.93 1870.61 2366.95 1870.45 Q2367.97 1870.26 2368.98 1870.26 Q2374.77 1870.26 2378.15 1873.43 Q2381.53 1876.61 2381.53 1882.02 Q2381.53 1887.6 2378.06 1890.7 Q2374.59 1893.78 2368.27 1893.78 Q2366.09 1893.78 2363.82 1893.41 Q2361.58 1893.04 2359.17 1892.3 L2359.17 1887.6 Q2361.25 1888.73 2363.48 1889.29 Q2365.7 1889.85 2368.17 1889.85 Q2372.18 1889.85 2374.52 1887.74 Q2376.85 1885.63 2376.85 1882.02 Q2376.85 1878.41 2374.52 1876.3 Q2372.18 1874.2 2368.17 1874.2 Q2366.3 1874.2 2364.42 1874.61 Q2362.57 1875.03 2360.63 1875.91 L2360.63 1858.55 Z" fill="#000000" fill-rule="nonzero" fill-opacity="1" /><path clip-path="url(#clip460)" d="M2400.74 1861.63 Q2397.13 1861.63 2395.3 1865.19 Q2393.5 1868.73 2393.5 1875.86 Q2393.5 1882.97 2395.3 1886.54 Q2397.13 1890.08 2400.74 1890.08 Q2404.38 1890.08 2406.18 1886.54 Q2408.01 1882.97 2408.01 1875.86 Q2408.01 1868.73 2406.18 1865.19 Q2404.38 1861.63 2400.74 1861.63 M2400.74 1857.92 Q2406.55 1857.92 2409.61 1862.53 Q2412.69 1867.11 2412.69 1875.86 Q2412.69 1884.59 2409.61 1889.2 Q2406.55 1893.78 2400.74 1893.78 Q2394.93 1893.78 2391.85 1889.2 Q2388.8 1884.59 2388.8 1875.86 Q2388.8 1867.11 2391.85 1862.53 Q2394.93 1857.92 2400.74 1857.92 Z" fill="#000000" fill-rule="nonzero" fill-opacity="1" /><path clip-path="url(#clip460)" d="M2430.91 1861.63 Q2427.29 1861.63 2425.47 1865.19 Q2423.66 1868.73 2423.66 1875.86 Q2423.66 1882.97 2425.47 1886.54 Q2427.29 1890.08 2430.91 1890.08 Q2434.54 1890.08 2436.35 1886.54 Q2438.17 1882.97 2438.17 1875.86 Q2438.17 1868.73 2436.35 1865.19 Q2434.54 1861.63 2430.91 1861.63 M2430.91 1857.92 Q2436.72 1857.92 2439.77 1862.53 Q2442.85 1867.11 2442.85 1875.86 Q2442.85 1884.59 2439.77 1889.2 Q2436.72 1893.78 2430.91 1893.78 Q2425.1 1893.78 2422.02 1889.2 Q2418.96 1884.59 2418.96 1875.86 Q2418.96 1867.11 2422.02 1862.53 Q2425.1 1857.92 2430.91 1857.92 Z" fill="#000000" fill-rule="nonzero" fill-opacity="1" /><path clip-path="url(#clip460)" d="M3101.37 1889.17 L3117.69 1889.17 L3117.69 1893.11 L3095.74 1893.11 L3095.74 1889.17 Q3098.4 1886.42 3102.99 1881.79 Q3107.59 1877.14 3108.77 1875.8 Q3111.02 1873.27 3111.9 1871.54 Q3112.8 1869.78 3112.8 1868.09 Q3112.8 1865.33 3110.86 1863.6 Q3108.94 1861.86 3105.83 1861.86 Q3103.64 1861.86 3101.18 1862.62 Q3098.75 1863.39 3095.97 1864.94 L3095.97 1860.22 Q3098.8 1859.08 3101.25 1858.5 Q3103.71 1857.92 3105.74 1857.92 Q3111.11 1857.92 3114.31 1860.61 Q3117.5 1863.3 3117.5 1867.79 Q3117.5 1869.92 3116.69 1871.84 Q3115.9 1873.73 3113.8 1876.33 Q3113.22 1877 3110.12 1880.22 Q3107.02 1883.41 3101.37 1889.17 Z" fill="#000000" fill-rule="nonzero" fill-opacity="1" /><path clip-path="url(#clip460)" d="M3137.5 1861.63 Q3133.89 1861.63 3132.06 1865.19 Q3130.26 1868.73 3130.26 1875.86 Q3130.26 1882.97 3132.06 1886.54 Q3133.89 1890.08 3137.5 1890.08 Q3141.14 1890.08 3142.94 1886.54 Q3144.77 1882.97 3144.77 1875.86 Q3144.77 1868.73 3142.94 1865.19 Q3141.14 1861.63 3137.5 1861.63 M3137.5 1857.92 Q3143.31 1857.92 3146.37 1862.53 Q3149.45 1867.11 3149.45 1875.86 Q3149.45 1884.59 3146.37 1889.2 Q3143.31 1893.78 3137.5 1893.78 Q3131.69 1893.78 3128.61 1889.2 Q3125.56 1884.59 3125.56 1875.86 Q3125.56 1867.11 3128.61 1862.53 Q3131.69 1857.92 3137.5 1857.92 Z" fill="#000000" fill-rule="nonzero" fill-opacity="1" /><path clip-path="url(#clip460)" d="M3167.66 1861.63 Q3164.05 1861.63 3162.22 1865.19 Q3160.42 1868.73 3160.42 1875.86 Q3160.42 1882.97 3162.22 1886.54 Q3164.05 1890.08 3167.66 1890.08 Q3171.3 1890.08 3173.1 1886.54 Q3174.93 1882.97 3174.93 1875.86 Q3174.93 1868.73 3173.1 1865.19 Q3171.3 1861.63 3167.66 1861.63 M3167.66 1857.92 Q3173.47 1857.92 3176.53 1862.53 Q3179.61 1867.11 3179.61 1875.86 Q3179.61 1884.59 3176.53 1889.2 Q3173.47 1893.78 3167.66 1893.78 Q3161.85 1893.78 3158.77 1889.2 Q3155.72 1884.59 3155.72 1875.86 Q3155.72 1867.11 3158.77 1862.53 Q3161.85 1857.92 3167.66 1857.92 Z" fill="#000000" fill-rule="nonzero" fill-opacity="1" /><path clip-path="url(#clip460)" d="M3197.83 1861.63 Q3194.21 1861.63 3192.39 1865.19 Q3190.58 1868.73 3190.58 1875.86 Q3190.58 1882.97 3192.39 1886.54 Q3194.21 1890.08 3197.83 1890.08 Q3201.46 1890.08 3203.26 1886.54 Q3205.09 1882.97 3205.09 1875.86 Q3205.09 1868.73 3203.26 1865.19 Q3201.46 1861.63 3197.83 1861.63 M3197.83 1857.92 Q3203.64 1857.92 3206.69 1862.53 Q3209.77 1867.11 3209.77 1875.86 Q3209.77 1884.59 3206.69 1889.2 Q3203.64 1893.78 3197.83 1893.78 Q3192.01 1893.78 3188.94 1889.2 Q3185.88 1884.59 3185.88 1875.86 Q3185.88 1867.11 3188.94 1862.53 Q3192.01 1857.92 3197.83 1857.92 Z" fill="#000000" fill-rule="nonzero" fill-opacity="1" /><path clip-path="url(#clip460)" d="M1413.63 1933.65 L1420.06 1933.65 L1420.06 1981.17 L1413.63 1981.17 L1413.63 1933.65 Z" fill="#000000" fill-rule="nonzero" fill-opacity="1" /><path clip-path="url(#clip460)" d="M1462.23 1959.66 L1462.23 1981.17 L1456.37 1981.17 L1456.37 1959.85 Q1456.37 1954.79 1454.4 1952.27 Q1452.43 1949.76 1448.48 1949.76 Q1443.74 1949.76 1441 1952.78 Q1438.26 1955.81 1438.26 1961.03 L1438.26 1981.17 L1432.37 1981.17 L1432.37 1945.53 L1438.26 1945.53 L1438.26 1951.06 Q1440.36 1947.85 1443.2 1946.26 Q1446.06 1944.67 1449.78 1944.67 Q1455.93 1944.67 1459.08 1948.49 Q1462.23 1952.27 1462.23 1959.66 Z" fill="#000000" fill-rule="nonzero" fill-opacity="1" /><path clip-path="url(#clip460)" d="M1479.58 1975.83 L1479.58 1994.73 L1473.69 1994.73 L1473.69 1945.53 L1479.58 1945.53 L1479.58 1950.94 Q1481.42 1947.75 1484.22 1946.23 Q1487.05 1944.67 1490.97 1944.67 Q1497.46 1944.67 1501.51 1949.82 Q1505.58 1954.98 1505.58 1963.38 Q1505.58 1971.78 1501.51 1976.94 Q1497.46 1982.1 1490.97 1982.1 Q1487.05 1982.1 1484.22 1980.57 Q1481.42 1979.01 1479.58 1975.83 M1499.5 1963.38 Q1499.5 1956.92 1496.83 1953.26 Q1494.18 1949.57 1489.54 1949.57 Q1484.89 1949.57 1482.22 1953.26 Q1479.58 1956.92 1479.58 1963.38 Q1479.58 1969.84 1482.22 1973.53 Q1484.89 1977.2 1489.54 1977.2 Q1494.18 1977.2 1496.83 1973.53 Q1499.5 1969.84 1499.5 1963.38 Z" fill="#000000" fill-rule="nonzero" fill-opacity="1" /><path clip-path="url(#clip460)" d="M1514.68 1967.11 L1514.68 1945.53 L1520.54 1945.53 L1520.54 1966.88 Q1520.54 1971.94 1522.51 1974.49 Q1524.49 1977 1528.43 1977 Q1533.17 1977 1535.91 1973.98 Q1538.68 1970.96 1538.68 1965.74 L1538.68 1945.53 L1544.54 1945.53 L1544.54 1981.17 L1538.68 1981.17 L1538.68 1975.7 Q1536.55 1978.95 1533.72 1980.54 Q1530.91 1982.1 1527.19 1982.1 Q1521.05 1982.1 1517.86 1978.28 Q1514.68 1974.46 1514.68 1967.11 M1529.42 1944.67 L1529.42 1944.67 Z" fill="#000000" fill-rule="nonzero" fill-opacity="1" /><path clip-path="url(#clip460)" d="M1562.39 1935.4 L1562.39 1945.53 L1574.46 1945.53 L1574.46 1950.08 L1562.39 1950.08 L1562.39 1969.43 Q1562.39 1973.79 1563.57 1975.03 Q1564.78 1976.27 1568.44 1976.27 L1574.46 1976.27 L1574.46 1981.17 L1568.44 1981.17 Q1561.66 1981.17 1559.08 1978.66 Q1556.5 1976.11 1556.5 1969.43 L1556.5 1950.08 L1552.21 1950.08 L1552.21 1945.53 L1556.5 1945.53 L1556.5 1935.4 L1562.39 1935.4 Z" fill="#000000" fill-rule="nonzero" fill-opacity="1" /><path clip-path="url(#clip460)" d="M1602.88 1945.53 L1608.74 1945.53 L1608.74 1981.17 L1602.88 1981.17 L1602.88 1945.53 M1602.88 1931.65 L1608.74 1931.65 L1608.74 1939.06 L1602.88 1939.06 L1602.88 1931.65 Z" fill="#000000" fill-rule="nonzero" fill-opacity="1" /><path clip-path="url(#clip460)" d="M1650.62 1959.66 L1650.62 1981.17 L1644.77 1981.17 L1644.77 1959.85 Q1644.77 1954.79 1642.79 1952.27 Q1640.82 1949.76 1636.87 1949.76 Q1632.13 1949.76 1629.39 1952.78 Q1626.65 1955.81 1626.65 1961.03 L1626.65 1981.17 L1620.77 1981.17 L1620.77 1945.53 L1626.65 1945.53 L1626.65 1951.06 Q1628.76 1947.85 1631.59 1946.26 Q1634.45 1944.67 1638.18 1944.67 Q1644.32 1944.67 1647.47 1948.49 Q1650.62 1952.27 1650.62 1959.66 Z" fill="#000000" fill-rule="nonzero" fill-opacity="1" /><path clip-path="url(#clip460)" d="M1668.1 1935.4 L1668.1 1945.53 L1680.16 1945.53 L1680.16 1950.08 L1668.1 1950.08 L1668.1 1969.43 Q1668.1 1973.79 1669.27 1975.03 Q1670.48 1976.27 1674.14 1976.27 L1680.16 1976.27 L1680.16 1981.17 L1674.14 1981.17 Q1667.36 1981.17 1664.79 1978.66 Q1662.21 1976.11 1662.21 1969.43 L1662.21 1950.08 L1657.91 1950.08 L1657.91 1945.53 L1662.21 1945.53 L1662.21 1935.4 L1668.1 1935.4 Z" fill="#000000" fill-rule="nonzero" fill-opacity="1" /><path clip-path="url(#clip460)" d="M1718.35 1961.89 L1718.35 1964.75 L1691.43 1964.75 Q1691.81 1970.8 1695.05 1973.98 Q1698.33 1977.13 1704.16 1977.13 Q1707.53 1977.13 1710.68 1976.3 Q1713.87 1975.48 1716.98 1973.82 L1716.98 1979.36 Q1713.83 1980.7 1710.52 1981.4 Q1707.21 1982.1 1703.81 1982.1 Q1695.28 1982.1 1690.28 1977.13 Q1685.31 1972.17 1685.31 1963.7 Q1685.31 1954.95 1690.03 1949.82 Q1694.77 1944.67 1702.79 1944.67 Q1709.98 1944.67 1714.15 1949.31 Q1718.35 1953.93 1718.35 1961.89 M1712.5 1960.17 Q1712.43 1955.36 1709.79 1952.5 Q1707.18 1949.63 1702.85 1949.63 Q1697.95 1949.63 1694.99 1952.4 Q1692.06 1955.17 1691.62 1960.2 L1712.5 1960.17 Z" fill="#000000" fill-rule="nonzero" fill-opacity="1" /><path clip-path="url(#clip460)" d="M1751.42 1962.94 Q1751.42 1956.57 1748.78 1953.07 Q1746.17 1949.57 1741.43 1949.57 Q1736.72 1949.57 1734.08 1953.07 Q1731.47 1956.57 1731.47 1962.94 Q1731.47 1969.27 1734.08 1972.77 Q1736.72 1976.27 1741.43 1976.27 Q1746.17 1976.27 1748.78 1972.77 Q1751.42 1969.27 1751.42 1962.94 M1757.28 1976.75 Q1757.28 1985.85 1753.24 1990.28 Q1749.19 1994.73 1740.86 1994.73 Q1737.77 1994.73 1735.03 1994.26 Q1732.29 1993.81 1729.72 1992.85 L1729.72 1987.16 Q1732.29 1988.56 1734.81 1989.23 Q1737.32 1989.89 1739.93 1989.89 Q1745.69 1989.89 1748.56 1986.87 Q1751.42 1983.88 1751.42 1977.8 L1751.42 1974.9 Q1749.61 1978.05 1746.78 1979.61 Q1743.94 1981.17 1740 1981.17 Q1733.44 1981.17 1729.43 1976.18 Q1725.42 1971.18 1725.42 1962.94 Q1725.42 1954.66 1729.43 1949.66 Q1733.44 1944.67 1740 1944.67 Q1743.94 1944.67 1746.78 1946.23 Q1749.61 1947.79 1751.42 1950.94 L1751.42 1945.53 L1757.28 1945.53 L1757.28 1976.75 Z" fill="#000000" fill-rule="nonzero" fill-opacity="1" /><path clip-path="url(#clip460)" d="M1799.83 1961.89 L1799.83 1964.75 L1772.91 1964.75 Q1773.29 1970.8 1776.54 1973.98 Q1779.81 1977.13 1785.64 1977.13 Q1789.01 1977.13 1792.16 1976.3 Q1795.35 1975.48 1798.47 1973.82 L1798.47 1979.36 Q1795.31 1980.7 1792 1981.4 Q1788.69 1982.1 1785.29 1982.1 Q1776.76 1982.1 1771.76 1977.13 Q1766.8 1972.17 1766.8 1963.7 Q1766.8 1954.95 1771.51 1949.82 Q1776.25 1944.67 1784.27 1944.67 Q1791.46 1944.67 1795.63 1949.31 Q1799.83 1953.93 1799.83 1961.89 M1793.98 1960.17 Q1793.91 1955.36 1791.27 1952.5 Q1788.66 1949.63 1784.33 1949.63 Q1779.43 1949.63 1776.47 1952.4 Q1773.54 1955.17 1773.1 1960.2 L1793.98 1960.17 Z" fill="#000000" fill-rule="nonzero" fill-opacity="1" /><path clip-path="url(#clip460)" d="M1830.1 1951 Q1829.12 1950.43 1827.94 1950.17 Q1826.79 1949.89 1825.39 1949.89 Q1820.43 1949.89 1817.75 1953.13 Q1815.11 1956.35 1815.11 1962.4 L1815.11 1981.17 L1809.22 1981.17 L1809.22 1945.53 L1815.11 1945.53 L1815.11 1951.06 Q1816.96 1947.82 1819.92 1946.26 Q1822.88 1944.67 1827.11 1944.67 Q1827.72 1944.67 1828.45 1944.76 Q1829.18 1944.83 1830.07 1944.98 L1830.1 1951 Z" fill="#000000" fill-rule="nonzero" fill-opacity="1" /><path clip-path="url(#clip460)" d="M1856.43 1931.65 L1869.92 1931.65 L1869.92 1936.2 L1862.28 1936.2 L1862.28 1985.22 L1869.92 1985.22 L1869.92 1989.77 L1856.43 1989.77 L1856.43 1931.65 Z" fill="#000000" fill-rule="nonzero" fill-opacity="1" /><path clip-path="url(#clip460)" d="M1879.44 1960.71 L1896.59 1960.71 L1896.59 1965.93 L1879.44 1965.93 L1879.44 1960.71 Z" fill="#000000" fill-rule="nonzero" fill-opacity="1" /><path clip-path="url(#clip460)" d="M1919.6 1931.65 L1919.6 1989.77 L1906.11 1989.77 L1906.11 1985.22 L1913.72 1985.22 L1913.72 1936.2 L1906.11 1936.2 L1906.11 1931.65 L1919.6 1931.65 Z" fill="#000000" fill-rule="nonzero" fill-opacity="1" /><polyline clip-path="url(#clip462)" style="stroke:#000000; stroke-linecap:round; stroke-linejoin:round; stroke-width:2; stroke-opacity:0.1; fill:none" points="180.475,1761.45 3152.76,1761.45 "/>
<polyline clip-path="url(#clip462)" style="stroke:#000000; stroke-linecap:round; stroke-linejoin:round; stroke-width:2; stroke-opacity:0.1; fill:none" points="180.475,1336.09 3152.76,1336.09 "/>
<polyline clip-path="url(#clip462)" style="stroke:#000000; stroke-linecap:round; stroke-linejoin:round; stroke-width:2; stroke-opacity:0.1; fill:none" points="180.475,910.742 3152.76,910.742 "/>
<polyline clip-path="url(#clip462)" style="stroke:#000000; stroke-linecap:round; stroke-linejoin:round; stroke-width:2; stroke-opacity:0.1; fill:none" points="180.475,485.389 3152.76,485.389 "/>
<polyline clip-path="url(#clip460)" style="stroke:#000000; stroke-linecap:round; stroke-linejoin:round; stroke-width:4; stroke-opacity:1; fill:none" points="180.475,1824.31 180.475,119.692 "/>
<polyline clip-path="url(#clip460)" style="stroke:#000000; stroke-linecap:round; stroke-linejoin:round; stroke-width:4; stroke-opacity:1; fill:none" points="180.475,1761.45 199.373,1761.45 "/>
<polyline clip-path="url(#clip460)" style="stroke:#000000; stroke-linecap:round; stroke-linejoin:round; stroke-width:4; stroke-opacity:1; fill:none" points="180.475,1336.09 199.373,1336.09 "/>
<polyline clip-path="url(#clip460)" style="stroke:#000000; stroke-linecap:round; stroke-linejoin:round; stroke-width:4; stroke-opacity:1; fill:none" points="180.475,910.742 199.373,910.742 "/>
<polyline clip-path="url(#clip460)" style="stroke:#000000; stroke-linecap:round; stroke-linejoin:round; stroke-width:4; stroke-opacity:1; fill:none" points="180.475,485.389 199.373,485.389 "/>
<path clip-path="url(#clip460)" d="M120.531 1747.25 Q116.92 1747.25 115.091 1750.81 Q113.285 1754.35 113.285 1761.48 Q113.285 1768.59 115.091 1772.15 Q116.92 1775.69 120.531 1775.69 Q124.165 1775.69 125.971 1772.15 Q127.799 1768.59 127.799 1761.48 Q127.799 1754.35 125.971 1750.81 Q124.165 1747.25 120.531 1747.25 M120.531 1743.54 Q126.341 1743.54 129.397 1748.15 Q132.475 1752.73 132.475 1761.48 Q132.475 1770.21 129.397 1774.81 Q126.341 1779.4 120.531 1779.4 Q114.721 1779.4 111.642 1774.81 Q108.586 1770.21 108.586 1761.48 Q108.586 1752.73 111.642 1748.15 Q114.721 1743.54 120.531 1743.54 Z" fill="#000000" fill-rule="nonzero" fill-opacity="1" /><path clip-path="url(#clip460)" d="M116.156 1349.44 L132.475 1349.44 L132.475 1353.37 L110.531 1353.37 L110.531 1349.44 Q113.193 1346.68 117.776 1342.05 Q122.383 1337.4 123.563 1336.06 Q125.809 1333.54 126.688 1331.8 Q127.591 1330.04 127.591 1328.35 Q127.591 1325.6 125.647 1323.86 Q123.725 1322.12 120.623 1322.12 Q118.424 1322.12 115.971 1322.89 Q113.54 1323.65 110.762 1325.2 L110.762 1320.48 Q113.586 1319.35 116.04 1318.77 Q118.494 1318.19 120.531 1318.19 Q125.901 1318.19 129.096 1320.87 Q132.29 1323.56 132.29 1328.05 Q132.29 1330.18 131.48 1332.1 Q130.693 1334 128.586 1336.59 Q128.008 1337.26 124.906 1340.48 Q121.804 1343.68 116.156 1349.44 Z" fill="#000000" fill-rule="nonzero" fill-opacity="1" /><path clip-path="url(#clip460)" d="M122.892 897.536 L111.086 915.985 L122.892 915.985 L122.892 897.536 M121.665 893.462 L127.545 893.462 L127.545 915.985 L132.475 915.985 L132.475 919.874 L127.545 919.874 L127.545 928.022 L122.892 928.022 L122.892 919.874 L107.29 919.874 L107.29 915.36 L121.665 893.462 Z" fill="#000000" fill-rule="nonzero" fill-opacity="1" /><path clip-path="url(#clip460)" d="M120.947 483.526 Q117.799 483.526 115.948 485.679 Q114.119 487.831 114.119 491.581 Q114.119 495.308 115.948 497.484 Q117.799 499.637 120.947 499.637 Q124.096 499.637 125.924 497.484 Q127.776 495.308 127.776 491.581 Q127.776 487.831 125.924 485.679 Q124.096 483.526 120.947 483.526 M130.23 468.873 L130.23 473.132 Q128.471 472.299 126.665 471.859 Q124.883 471.419 123.123 471.419 Q118.494 471.419 116.04 474.544 Q113.61 477.669 113.262 483.989 Q114.628 481.975 116.688 480.91 Q118.748 479.822 121.225 479.822 Q126.434 479.822 129.443 482.993 Q132.475 486.142 132.475 491.581 Q132.475 496.905 129.327 500.123 Q126.179 503.341 120.947 503.341 Q114.952 503.341 111.781 498.757 Q108.61 494.151 108.61 485.424 Q108.61 477.23 112.498 472.369 Q116.387 467.484 122.938 467.484 Q124.697 467.484 126.48 467.832 Q128.285 468.179 130.23 468.873 Z" fill="#000000" fill-rule="nonzero" fill-opacity="1" /><path clip-path="url(#clip460)" d="M-2.48584 1133.85 L-2.48584 1093.65 L2.92501 1093.65 L2.92501 1110.52 L45.0342 1110.52 L45.0342 1116.98 L2.92501 1116.98 L2.92501 1133.85 L-2.48584 1133.85 Z" fill="#000000" fill-rule="nonzero" fill-opacity="1" /><path clip-path="url(#clip460)" d="M23.5181 1058.07 L45.0342 1058.07 L45.0342 1063.92 L23.709 1063.92 Q18.6483 1063.92 16.1338 1065.9 Q13.6194 1067.87 13.6194 1071.82 Q13.6194 1076.56 16.6431 1079.29 Q19.6668 1082.03 24.8867 1082.03 L45.0342 1082.03 L45.0342 1087.92 L-4.49104 1087.92 L-4.49104 1082.03 L14.9244 1082.03 Q11.7097 1079.93 10.1183 1077.1 Q8.52683 1074.23 8.52683 1070.51 Q8.52683 1064.37 12.3463 1061.22 Q16.1338 1058.07 23.5181 1058.07 Z" fill="#000000" fill-rule="nonzero" fill-opacity="1" /><path clip-path="url(#clip460)" d="M14.8607 1025.73 Q14.2878 1026.71 14.0332 1027.89 Q13.7467 1029.04 13.7467 1030.44 Q13.7467 1035.4 16.9932 1038.08 Q20.2079 1040.72 26.2553 1040.72 L45.0342 1040.72 L45.0342 1046.61 L9.3862 1046.61 L9.3862 1040.72 L14.9244 1040.72 Q11.6779 1038.87 10.1183 1035.91 Q8.52683 1032.95 8.52683 1028.72 Q8.52683 1028.11 8.62232 1027.38 Q8.68597 1026.65 8.84512 1025.76 L14.8607 1025.73 Z" fill="#000000" fill-rule="nonzero" fill-opacity="1" /><path clip-path="url(#clip460)" d="M30.9659 1020.19 L9.3862 1020.19 L9.3862 1014.33 L30.7431 1014.33 Q35.8039 1014.33 38.3502 1012.36 Q40.8646 1010.39 40.8646 1006.44 Q40.8646 1001.7 37.8409 998.96 Q34.8172 996.191 29.5973 996.191 L9.3862 996.191 L9.3862 990.334 L45.0342 990.334 L45.0342 996.191 L39.5596 996.191 Q42.8062 998.323 44.3976 1001.16 Q45.9572 1003.96 45.9572 1007.68 Q45.9572 1013.82 42.1378 1017.01 Q38.3183 1020.19 30.9659 1020.19 M8.52683 1005.45 L8.52683 1005.45 Z" fill="#000000" fill-rule="nonzero" fill-opacity="1" /><path clip-path="url(#clip460)" d="M10.4365 955.546 L15.9747 955.546 Q14.7016 958.028 14.065 960.702 Q13.4284 963.375 13.4284 966.24 Q13.4284 970.601 14.7652 972.797 Q16.102 974.961 18.7756 974.961 Q20.8126 974.961 21.9903 973.401 Q23.1361 971.842 24.1865 967.131 L24.6321 965.126 Q25.9689 958.888 28.4197 956.278 Q30.8386 953.636 35.1991 953.636 Q40.1644 953.636 43.0608 957.583 Q45.9572 961.498 45.9572 968.373 Q45.9572 971.237 45.3843 974.356 Q44.8432 977.444 43.7292 980.881 L37.6818 980.881 Q39.3687 977.635 40.228 974.484 Q41.0556 971.333 41.0556 968.245 Q41.0556 964.108 39.6551 961.88 Q38.2229 959.652 35.6447 959.652 Q33.2576 959.652 31.9845 961.275 Q30.7113 962.866 29.5337 968.309 L29.0562 970.346 Q27.9104 975.789 25.5551 978.208 Q23.168 980.627 19.0302 980.627 Q14.0013 980.627 11.2641 977.062 Q8.52683 973.497 8.52683 966.94 Q8.52683 963.694 9.00426 960.829 Q9.48169 957.965 10.4365 955.546 Z" fill="#000000" fill-rule="nonzero" fill-opacity="1" /><path clip-path="url(#clip460)" d="M-0.735273 938.517 L9.3862 938.517 L9.3862 926.454 L13.9377 926.454 L13.9377 938.517 L33.2894 938.517 Q37.6499 938.517 38.8913 937.34 Q40.1326 936.13 40.1326 932.47 L40.1326 926.454 L45.0342 926.454 L45.0342 932.47 Q45.0342 939.249 42.5197 941.828 Q39.9734 944.406 33.2894 944.406 L13.9377 944.406 L13.9377 948.702 L9.3862 948.702 L9.3862 944.406 L-0.735273 944.406 L-0.735273 938.517 Z" fill="#000000" fill-rule="nonzero" fill-opacity="1" /><path clip-path="url(#clip460)" d="M-4.49104 898.573 L-4.49104 885.077 L0.0604401 885.077 L0.0604401 892.716 L49.0764 892.716 L49.0764 885.077 L53.6279 885.077 L53.6279 898.573 L-4.49104 898.573 Z" fill="#000000" fill-rule="nonzero" fill-opacity="1" /><path clip-path="url(#clip460)" d="M-2.48584 872.346 L-2.48584 863.688 L37.268 842.618 L-2.48584 842.618 L-2.48584 836.38 L45.0342 836.38 L45.0342 845.037 L5.28032 866.107 L45.0342 866.107 L45.0342 872.346 L-2.48584 872.346 Z" fill="#000000" fill-rule="nonzero" fill-opacity="1" /><path clip-path="url(#clip460)" d="M-4.49104 810.153 L53.6279 810.153 L53.6279 823.648 L49.0764 823.648 L49.0764 816.041 L0.0604401 816.041 L0.0604401 823.648 L-4.49104 823.648 L-4.49104 810.153 Z" fill="#000000" fill-rule="nonzero" fill-opacity="1" /><path clip-path="url(#clip460)" d="M1311.9 76.7889 Q1308.74 84.8907 1305.74 87.3618 Q1302.74 89.8329 1297.72 89.8329 L1291.77 89.8329 L1291.77 83.5945 L1296.14 83.5945 Q1299.22 83.5945 1300.92 82.1361 Q1302.62 80.6778 1304.69 75.2496 L1306.02 71.8468 L1287.67 27.2059 L1295.57 27.2059 L1309.75 62.6918 L1323.93 27.2059 L1331.83 27.2059 L1311.9 76.7889 Z" fill="#000000" fill-rule="nonzero" fill-opacity="1" /><path clip-path="url(#clip460)" d="M1343.09 34.9026 L1395.02 34.9026 L1395.02 41.7081 L1343.09 41.7081 L1343.09 34.9026 M1343.09 51.4303 L1395.02 51.4303 L1395.02 58.3168 L1343.09 58.3168 L1343.09 51.4303 Z" fill="#000000" fill-rule="nonzero" fill-opacity="1" /><path clip-path="url(#clip460)" d="M1429.54 9.62495 Q1424.11 18.942 1421.48 28.0566 Q1418.84 37.1711 1418.84 46.5287 Q1418.84 55.8863 1421.48 65.0818 Q1424.15 74.2369 1429.54 83.5134 L1423.05 83.5134 Q1416.98 73.9938 1413.94 64.7983 Q1410.94 55.6027 1410.94 46.5287 Q1410.94 37.4952 1413.94 28.3401 Q1416.94 19.1851 1423.05 9.62495 L1429.54 9.62495 Z" fill="#000000" fill-rule="nonzero" fill-opacity="1" /><path clip-path="url(#clip460)" d="M1467.53 19.2256 L1446.87 51.5113 L1467.53 51.5113 L1467.53 19.2256 M1465.39 12.096 L1475.68 12.096 L1475.68 51.5113 L1484.3 51.5113 L1484.3 58.3168 L1475.68 58.3168 L1475.68 72.576 L1467.53 72.576 L1467.53 58.3168 L1440.23 58.3168 L1440.23 50.4176 L1465.39 12.096 Z" fill="#000000" fill-rule="nonzero" fill-opacity="1" /><path clip-path="url(#clip460)" d="M1497.83 62.2867 L1506.38 62.2867 L1506.38 72.576 L1497.83 72.576 L1497.83 62.2867 Z" fill="#000000" fill-rule="nonzero" fill-opacity="1" /><path clip-path="url(#clip460)" d="M1546.69 19.2256 L1526.03 51.5113 L1546.69 51.5113 L1546.69 19.2256 M1544.54 12.096 L1554.83 12.096 L1554.83 51.5113 L1563.46 51.5113 L1563.46 58.3168 L1554.83 58.3168 L1554.83 72.576 L1546.69 72.576 L1546.69 58.3168 L1519.39 58.3168 L1519.39 50.4176 L1544.54 12.096 Z" fill="#000000" fill-rule="nonzero" fill-opacity="1" /><path clip-path="url(#clip460)" d="M1601.78 39.9662 Q1607.65 41.222 1610.94 45.1919 Q1614.26 49.1618 1614.26 54.9951 Q1614.26 63.9476 1608.1 68.8492 Q1601.94 73.7508 1590.6 73.7508 Q1586.79 73.7508 1582.74 72.9811 Q1578.73 72.2519 1574.44 70.7531 L1574.44 62.8538 Q1577.84 64.8388 1581.89 65.8515 Q1585.94 66.8642 1590.36 66.8642 Q1598.05 66.8642 1602.06 63.826 Q1606.12 60.7879 1606.12 54.9951 Q1606.12 49.6479 1602.35 46.6502 Q1598.62 43.612 1591.94 43.612 L1584.89 43.612 L1584.89 36.8875 L1592.26 36.8875 Q1598.3 36.8875 1601.5 34.4975 Q1604.7 32.067 1604.7 27.5299 Q1604.7 22.8714 1601.38 20.4004 Q1598.09 17.8888 1591.94 17.8888 Q1588.57 17.8888 1584.73 18.618 Q1580.88 19.3471 1576.26 20.8865 L1576.26 13.5948 Q1580.92 12.2985 1584.97 11.6504 Q1589.06 11.0023 1592.67 11.0023 Q1601.98 11.0023 1607.41 15.2557 Q1612.84 19.4686 1612.84 26.6793 Q1612.84 31.7024 1609.96 35.1862 Q1607.09 38.6294 1601.78 39.9662 Z" fill="#000000" fill-rule="nonzero" fill-opacity="1" /><path clip-path="url(#clip460)" d="M1627.71 12.096 L1666.6 12.096 L1666.6 15.5798 L1644.64 72.576 L1636.09 72.576 L1656.75 18.9825 L1627.71 18.9825 L1627.71 12.096 Z" fill="#000000" fill-rule="nonzero" fill-opacity="1" /><path clip-path="url(#clip460)" d="M1720.31 48.0275 L1720.31 51.6733 L1686.04 51.6733 Q1686.53 59.3701 1690.66 63.421 Q1694.83 67.4314 1702.24 67.4314 Q1706.54 67.4314 1710.55 66.3781 Q1714.6 65.3249 1718.57 63.2184 L1718.57 70.267 Q1714.56 71.9684 1710.35 72.8596 Q1706.13 73.7508 1701.8 73.7508 Q1690.94 73.7508 1684.58 67.4314 Q1678.26 61.1119 1678.26 50.3365 Q1678.26 39.1965 1684.26 32.6746 Q1690.29 26.1121 1700.5 26.1121 Q1709.66 26.1121 1714.96 32.0264 Q1720.31 37.9003 1720.31 48.0275 M1712.86 45.84 Q1712.78 39.7232 1709.41 36.0774 Q1706.09 32.4315 1700.58 32.4315 Q1694.34 32.4315 1690.58 35.9558 Q1686.85 39.4801 1686.28 45.8805 L1712.86 45.84 Z" fill="#000000" fill-rule="nonzero" fill-opacity="1" /><path clip-path="url(#clip460)" d="M1728.78 46.5287 L1750.61 46.5287 L1750.61 53.1722 L1728.78 53.1722 L1728.78 46.5287 Z" fill="#000000" fill-rule="nonzero" fill-opacity="1" /><path clip-path="url(#clip460)" d="M1788.32 39.9662 Q1794.2 41.222 1797.48 45.1919 Q1800.8 49.1618 1800.8 54.9951 Q1800.8 63.9476 1794.64 68.8492 Q1788.49 73.7508 1777.14 73.7508 Q1773.34 73.7508 1769.29 72.9811 Q1765.28 72.2519 1760.98 70.7531 L1760.98 62.8538 Q1764.38 64.8388 1768.44 65.8515 Q1772.49 66.8642 1776.9 66.8642 Q1784.6 66.8642 1788.61 63.826 Q1792.66 60.7879 1792.66 54.9951 Q1792.66 49.6479 1788.89 46.6502 Q1785.17 43.612 1778.48 43.612 L1771.43 43.612 L1771.43 36.8875 L1778.81 36.8875 Q1784.84 36.8875 1788.04 34.4975 Q1791.24 32.067 1791.24 27.5299 Q1791.24 22.8714 1787.92 20.4004 Q1784.64 17.8888 1778.48 17.8888 Q1775.12 17.8888 1771.27 18.618 Q1767.42 19.3471 1762.8 20.8865 L1762.8 13.5948 Q1767.46 12.2985 1771.51 11.6504 Q1775.61 11.0023 1779.21 11.0023 Q1788.53 11.0023 1793.96 15.2557 Q1799.38 19.4686 1799.38 26.6793 Q1799.38 31.7024 1796.51 35.1862 Q1793.63 38.6294 1788.32 39.9662 Z" fill="#000000" fill-rule="nonzero" fill-opacity="1" /><path clip-path="url(#clip460)" d="M1814.09 9.62495 L1820.57 9.62495 Q1826.65 19.1851 1829.64 28.3401 Q1832.68 37.4952 1832.68 46.5287 Q1832.68 55.6027 1829.64 64.7983 Q1826.65 73.9938 1820.57 83.5134 L1814.09 83.5134 Q1819.48 74.2369 1822.11 65.0818 Q1824.78 55.8863 1824.78 46.5287 Q1824.78 37.1711 1822.11 28.0566 Q1819.48 18.942 1814.09 9.62495 Z" fill="#000000" fill-rule="nonzero" fill-opacity="1" /><path clip-path="url(#clip460)" d="M1885.34 27.2059 L1868.94 49.2833 L1886.19 72.576 L1877.4 72.576 L1864.2 54.752 L1850.99 72.576 L1842.2 72.576 L1859.82 48.8377 L1843.7 27.2059 L1852.49 27.2059 L1864.52 43.369 L1876.55 27.2059 L1885.34 27.2059 Z" fill="#000000" fill-rule="nonzero" fill-opacity="1" /><path clip-path="url(#clip460)" d="M1892.96 46.5287 L1914.79 46.5287 L1914.79 53.1722 L1892.96 53.1722 L1892.96 46.5287 Z" fill="#000000" fill-rule="nonzero" fill-opacity="1" /><path clip-path="url(#clip460)" d="M1929.13 65.6895 L1942.5 65.6895 L1942.5 19.5497 L1927.96 22.4663 L1927.96 15.0127 L1942.42 12.096 L1950.6 12.096 L1950.6 65.6895 L1963.97 65.6895 L1963.97 72.576 L1929.13 72.576 L1929.13 65.6895 Z" fill="#000000" fill-rule="nonzero" fill-opacity="1" /><path clip-path="url(#clip460)" d="M1980.5 62.2867 L1989.05 62.2867 L1989.05 72.576 L1980.5 72.576 L1980.5 62.2867 Z" fill="#000000" fill-rule="nonzero" fill-opacity="1" /><path clip-path="url(#clip460)" d="M2025.38 39.075 Q2019.87 39.075 2016.63 42.8424 Q2013.43 46.6097 2013.43 53.1722 Q2013.43 59.6941 2016.63 63.502 Q2019.87 67.2693 2025.38 67.2693 Q2030.89 67.2693 2034.09 63.502 Q2037.33 59.6941 2037.33 53.1722 Q2037.33 46.6097 2034.09 42.8424 Q2030.89 39.075 2025.38 39.075 M2041.63 13.4328 L2041.63 20.8865 Q2038.55 19.4281 2035.39 18.6585 Q2032.27 17.8888 2029.19 17.8888 Q2021.09 17.8888 2016.8 23.3575 Q2012.54 28.8262 2011.93 39.8852 Q2014.32 36.3609 2017.93 34.4975 Q2021.54 32.5936 2025.87 32.5936 Q2034.98 32.5936 2040.25 38.1433 Q2045.56 43.6525 2045.56 53.1722 Q2045.56 62.4892 2040.05 68.12 Q2034.54 73.7508 2025.38 73.7508 Q2014.89 73.7508 2009.34 65.73 Q2003.79 57.6687 2003.79 42.3968 Q2003.79 28.0566 2010.6 19.5497 Q2017.4 11.0023 2028.87 11.0023 Q2031.95 11.0023 2035.07 11.6099 Q2038.23 12.2175 2041.63 13.4328 Z" fill="#000000" fill-rule="nonzero" fill-opacity="1" /><polyline clip-path="url(#clip462)" style="stroke:#009af9; stroke-linecap:round; stroke-linejoin:round; stroke-width:4; stroke-opacity:1; fill:none" points="-677.502,1761.45 -674.438,1761.45 -671.374,1761.45 -669.66,1761.45 -666.596,1761.45 -663.531,1763.54 -660.459,1763.54 -657.395,1761.45 -654.331,1763.54 -651.217,1761.45 -648.153,1763.54 -645.089,1761.45 -642.257,1761.45 -639.193,1763.54 -636.128,1761.45 -632.968,1761.45 -629.904,1763.54 -626.84,1761.45 -623.853,1763.54 -620.789,1763.54 -617.725,1761.45 -614.835,1761.45 -611.771,1763.54 -608.707,1761.45 -605.555,1761.45 -602.491,1763.54 -599.427,1761.45 -596.412,1763.54 -593.348,1763.54 -590.284,1761.45 -587.169,1763.54 -584.105,1761.45 -581.041,1761.45 -578.184,1763.54 -575.119,1761.45 -572.055,1761.45 -569.01,1763.54 -565.945,1761.45 -562.881,1763.54 -559.747,1761.45 -556.683,1761.45 -553.618,1763.54 -550.726,1761.45 -547.662,1761.45 -544.598,1763.54 -541.496,1761.45 -538.432,1763.54 -535.368,1763.54 -532.36,1763.54 -529.296,1763.54 -526.232,1763.54 -523.157,1761.45 -520.093,1763.54 -517.028,1763.54 -514.153,1761.45 -511.089,1761.45 -508.025,1763.54 -504.945,1763.54 -501.881,1761.45 -498.817,1763.54 -495.7,1763.54 -492.636,1761.45 -489.571,1761.45 -486.721,1763.54 -483.657,1763.54 -480.592,1763.54 -477.445,1761.45 -474.381,1761.45 -471.317,1763.54 -468.321,1761.45 -465.257,1761.45 -462.193,1763.54 -459.103,1761.45 -456.039,1763.54 -452.975,1763.54 -450.031,1759.36 -446.967,1763.54 -443.903,1761.45 -440.875,1761.45 -437.811,1761.45 -434.747,1763.54 -431.637,1761.45 -428.573,1763.54 -425.509,1761.45 -422.544,1761.45 -419.48,1763.54 -416.415,1759.36 -413.431,1763.54 -410.367,1761.45 -407.303,1763.54 -404.265,1761.45 -401.201,1761.45 -398.136,1761.45 -395.082,1763.54 -392.018,1763.54 -388.954,1759.36 -385.985,1763.54 -382.921,1761.45 -379.857,1763.54 -376.862,1761.45 -373.798,1763.54 -370.734,1761.45 -367.615,1765.62 -364.551,1759.36 -361.486,1761.45 -358.472,1761.45 -355.408,1763.54 -352.344,1757.27 -349.46,1763.54 -346.395,1761.45 -343.331,1759.36 -340.183,1763.54 -337.119,1761.45 -334.054,1761.45 -331.069,1763.54 -328.005,1759.36 -324.941,1761.45 -321.947,1761.45 -318.883,1759.36 -315.819,1761.45 -312.809,1761.45 -309.745,1759.36 -306.68,1761.45 -303.546,1761.45 -300.482,1761.45 -297.418,1761.45 -294.421,1759.36 -291.356,1761.45 -288.292,1761.45 -285.381,1759.36 -282.317,1761.45 -279.252,1761.45 -276.105,1759.36 -273.041,1761.45 -269.977,1753.09 -266.967,1776.07 -263.903,1765.62 -260.839,1759.36 -257.899,1767.71 -254.835,1765.62 -251.771,1759.36 -248.77,1769.8 -245.706,1763.54 -242.642,1761.45 -239.549,1765.62 -236.484,1763.54 -233.42,1763.54 -230.328,1767.71 -227.263,1761.45 -224.199,1767.71 -221.315,1767.71 -218.251,1763.54 -215.187,1765.62 -212.07,1765.62 -209.006,1765.62 -205.942,1769.8 -202.939,1765.62 -199.875,1767.71 -196.81,1769.8 -193.829,1767.71 -190.765,1767.71 -187.7,1769.8 -184.739,1767.71 -181.675,1767.71 -178.611,1767.71 -175.554,1767.71 -172.489,1769.8 -169.425,1767.71 -166.268,1765.62 -163.204,1769.8 -160.139,1767.71 -157.269,1767.71 -154.205,1769.8 -151.141,1767.71 -148.018,1769.8 -144.954,1769.8 -141.89,1767.71 -138.877,1769.8 -135.813,1767.71 -132.749,1763.54 -129.847,1771.89 -126.783,1765.62 -123.719,1767.71 -120.595,1769.8 -117.53,1767.71 -114.466,1765.62 -111.458,1769.8 -108.394,1767.71 -105.33,1767.71 -102.28,1767.71 -99.2153,1765.62 -96.1511,1771.89 -93.2316,1765.62 -90.1674,1767.71 -87.1032,1767.71 -83.9783,1765.62 -80.9141,1767.71 -77.8499,1769.8 -74.8521,1765.62 -71.7878,1765.62 -68.7236,1769.8 -65.7875,1765.62 -62.7233,1769.8 -59.6591,1767.71 -56.5463,1767.71 -53.4821,1767.71 -50.4179,1765.62 -47.4158,1765.62 -44.3516,1769.8 -41.2874,1765.62 -38.187,1767.71 -35.1227,1769.8 -32.0585,1767.71 -29.2072,1769.8 -26.143,1767.71 -23.0788,1763.54 -20.0027,1769.8 -16.9385,1765.62 -13.8743,1765.62 -10.7426,1769.8 -7.67835,1765.62 -4.61414,1763.54 -1.60525,1767.71 1.45896,1765.62 4.52317,1765.62 7.48604,1767.71 10.5502,1763.54 13.6145,1765.62 16.6342,1765.62 19.6984,1763.54 22.7626,1767.71 25.8736,1763.54 28.9378,1765.62 32.002,1763.54 34.8496,1763.54 37.9138,1765.62 40.978,1751 44.048,1763.54 47.1122,1711.32 50.1764,1640.31 53.263,1594.37 56.3272,1554.69 59.3914,1563.04 62.398,1542.16 65.4622,1517.09 68.5264,1525.45 71.5263,1531.71 74.5905,1531.71 77.6547,1537.98 80.6572,1535.89 83.7214,1533.8 86.7856,1523.36 89.8507,1512.92 92.9149,1510.83 95.9791,1515.01 98.9725,1519.18 102.037,1525.45 105.101,1525.45 108.079,1527.54 111.143,1529.63 114.207,1523.36 117.358,1515.01 120.422,1510.83 123.486,1504.56 126.452,1510.83 129.517,1517.09 132.581,1517.09 135.541,1523.36 138.605,1525.45 141.669,1527.54 144.686,1519.18 147.75,1512.92 150.814,1506.65 153.903,1504.56 156.967,1510.83 160.031,1519.18 163,1517.09 166.064,1527.54 169.128,1529.63 172.131,1581.84 175.195,1692.53 178.259,1736.38 181.401,1738.47 184.465,1744.74 187.53,1744.74 190.497,1748.92 193.561,1751 196.625,1748.92 199.553,1742.65 202.617,1763.54 205.682,1742.65 208.8,1755.18 211.864,1755.18 214.928,1751 217.913,1753.09 220.977,1761.45 224.041,1748.92 227.019,1753.09 230.083,1753.09 233.147,1746.83 236.152,1753.09 239.216,1753.09 242.28,1748.92 245.337,1753.09 248.401,1753.09 251.465,1751 254.547,1753.09 257.611,1748.92 260.675,1753.09 263.613,1753.09 266.677,1751 269.742,1755.18 272.87,1753.09 275.935,1751 278.999,1753.09 281.988,1751 285.052,1753.09 288.117,1755.18 291.071,1751 294.135,1751 297.199,1755.18 300.212,1751 303.276,1753.09 306.341,1751 309.414,1753.09 312.478,1753.09 315.542,1751 318.69,1753.09 321.755,1751 324.819,1748.92 327.651,1744.74 330.715,1738.47 333.779,1732.21 336.903,1736.38 339.967,1732.21 343.032,1730.12 346.036,1730.12 349.1,1728.03 352.164,1728.03 355.075,1728.03 358.139,1725.94 361.203,1725.94 364.32,1728.03 367.385,1728.03 370.449,1728.03 373.454,1728.03 376.518,1725.94 379.582,1728.03 382.727,1725.94 385.791,1725.94 388.855,1728.03 391.702,1725.94 394.767,1725.94 397.831,1725.94 400.96,1728.03 404.024,1725.94 407.088,1728.03 410.057,1725.94 413.122,1725.94 416.186,1725.94 419.263,1725.94 422.327,1728.03 425.391,1725.94 428.374,1725.94 431.438,1725.94 434.502,1725.94 437.514,1725.94 440.578,1725.94 443.642,1725.94 446.727,1725.94 449.791,1725.94 452.855,1725.94 455.722,1725.94 458.786,1725.94 461.85,1725.94 464.931,1725.94 467.996,1728.03 471.06,1725.94 474.198,1725.94 477.263,1721.77 480.327,1713.41 483.315,1705.06 486.38,1700.88 489.444,1702.97 492.417,1688.35 495.481,1698.79 498.545,1682.08 501.551,1696.7 504.615,1680 507.679,1696.7 510.816,1680 513.88,1696.7 516.944,1677.91 519.78,1698.79 522.845,1680 525.909,1694.62 528.934,1682.08 531.998,1692.53 535.063,1684.17 538.228,1692.53 541.293,1684.17 544.357,1688.35 547.353,1688.35 550.417,1684.17 553.482,1690.44 556.458,1682.08 559.523,1694.62 562.587,1680 565.586,1694.62 568.65,1680 571.714,1698.79 574.796,1680 577.86,1694.62 580.924,1680 583.887,1696.7 586.951,1682.08 590.015,1692.53 593.026,1684.17 596.09,1688.35 599.154,1688.35 602.28,1684.17 605.344,1690.44 608.408,1684.17 611.412,1692.53 614.476,1680 617.54,1694.62 620.523,1680 623.587,1696.7 626.652,1677.91 629.649,1694.62 632.714,1667.46 635.778,1657.02 638.855,1652.85 641.919,1654.93 644.983,1650.76 647.929,1644.49 650.994,1644.49 654.058,1638.23 657.035,1638.23 660.099,1631.96 663.163,1634.05 666.328,1634.05 669.392,1634.05 672.456,1631.96 675.419,1634.05 678.483,1631.96 681.547,1631.96 684.467,1631.96 687.531,1631.96 690.595,1634.05 693.73,1634.05 696.795,1636.14 699.859,1634.05 702.884,1638.23 705.948,1634.05 709.013,1636.14 711.999,1638.23 715.063,1634.05 718.128,1638.23 721.112,1638.23 724.177,1638.23 727.241,1636.14 730.373,1638.23 733.438,1636.14 736.502,1636.14 739.5,1634.05 742.564,1636.14 745.629,1634.05 748.546,1631.96 751.61,1631.96 754.675,1629.87 757.787,1631.96 760.851,1629.87 763.915,1629.87 766.909,1631.96 769.973,1631.96 773.037,1631.96 776.193,1634.05 779.257,1631.96 782.322,1636.14 785.16,1623.61 788.225,1615.25 791.289,1590.19 794.325,1579.75 797.389,1606.9 800.454,1563.04 803.562,1598.55 806.627,1567.22 809.691,1586.01 812.784,1575.57 815.848,1575.57 818.912,1577.66 821.845,1571.39 824.909,1577.66 827.973,1571.39 830.972,1581.84 834.036,1567.22 837.1,1583.93 840.211,1567.22 843.275,1583.93 846.339,1563.04 849.175,1583.93 852.239,1565.13 855.303,1586.01 858.378,1560.95 861.442,1586.01 864.506,1563.04 867.656,1581.84 870.72,1560.95 873.785,1588.1 876.625,1558.86 879.689,1588.1 882.754,1558.86 885.879,1588.1 888.943,1558.86 892.008,1586.01 895.004,1558.86 898.068,1583.93 901.132,1560.95 904.195,1588.1 907.26,1558.86 910.324,1586.01 913.285,1558.86 916.35,1586.01 919.414,1558.86 922.426,1588.1 925.49,1558.86 928.554,1583.93 931.686,1558.86 934.75,1588.1 937.814,1546.33 940.668,1546.33 943.733,1531.71 946.797,1527.54 949.893,1506.65 952.957,1504.56 956.021,1510.83 959.054,1510.83 962.118,1515.01 965.182,1519.18 968.252,1515.01 971.316,1510.83 974.38,1504.56 977.371,1500.39 980.436,1500.39 983.5,1504.56 986.482,1508.74 989.546,1510.83 992.61,1515.01 995.727,1515.01 998.791,1515.01 1001.86,1508.74 1004.7,1502.48 1007.76,1500.39 1010.83,1500.39 1013.91,1506.65 1016.97,1510.83 1020.03,1512.92 1023.17,1517.09 1026.24,1517.09 1029.3,1515.01 1032.28,1506.65 1035.34,1500.39 1038.41,1502.48 1041.4,1504.56 1044.47,1510.83 1047.53,1506.65 1050.52,1515.01 1053.59,1517.09 1056.65,1517.09 1059.81,1508.74 1062.88,1502.48 1065.94,1498.3 1068.74,1502.48 1071.8,1506.65 1074.87,1510.83 1077.92,1510.83 1080.99,1517.09 1084.05,1515.01 1087.2,1512.92 1090.27,1504.56 1093.33,1477.41 1096.35,1437.73 1099.42,1410.58 1102.48,1458.62 1105.46,1456.53 1108.52,1383.43 1111.59,1448.17 1114.58,1456.53 1117.64,1379.25 1120.7,1448.17 1123.76,1450.26 1126.83,1377.17 1129.89,1450.26 1132.87,1446.09 1135.94,1377.17 1139,1462.79 1142.03,1441.91 1145.09,1379.25 1148.16,1456.53 1151.23,1437.73 1154.3,1375.08 1157.36,1462.79 1160.36,1435.64 1163.42,1381.34 1166.49,1466.97 1169.42,1429.38 1172.49,1381.34 1175.55,1469.06 1178.62,1425.2 1181.68,1383.43 1184.74,1471.15 1187.8,1418.94 1190.86,1393.87 1193.93,1471.15 1197.05,1416.85 1200.12,1393.87 1203.18,1473.24 1206.03,1418.94 1209.09,1393.87 1212.16,1473.24 1215.3,1416.85 1218.37,1393.87 1221.43,1475.32 1224.42,1412.67 1227.49,1395.96 1230.55,1473.24 1233.44,1414.76 1236.51,1393.87 1239.57,1471.15 1242.72,1404.32 1245.78,1368.81 1248.84,1383.43 1251.87,1418.94 1254.93,1247.68 1258,1364.64 1261.12,1439.82 1264.18,1297.8 1267.24,1237.24 1270.1,1370.9 1273.16,1435.64 1276.23,1322.87 1279.27,1237.24 1282.33,1324.95 1285.39,1416.85 1288.55,1389.7 1291.61,1276.92 1294.68,1256.03 1297.53,1354.19 1300.59,1418.94 1303.65,1347.93 1306.74,1249.77 1309.8,1295.72 1312.86,1402.23 1315.86,1412.67 1318.92,1289.45 1321.99,1256.03 1325.16,1362.55 1328.23,1431.47 1331.29,1331.22 1334.16,1247.68 1337.22,1320.78 1340.28,1431.47 1343.33,1377.17 1346.4,1262.3 1349.46,1266.48 1352.63,1398.05 1355.7,1416.85 1358.76,1299.89 1361.58,1245.59 1364.64,1352.1 1367.7,1433.56 1370.84,1347.93 1373.91,1233.06 1376.97,1301.98 1379.96,1416.85 1383.03,1395.96 1386.09,1268.57 1389.1,1256.03 1392.16,1379.25 1395.23,1427.29 1398.25,1310.33 1401.32,1270.65 1404.38,1276.92 1407.35,1260.21 1410.41,1208 1413.48,1189.2 1416.61,1216.35 1419.68,1274.83 1422.74,1304.07 1425.59,1304.07 1428.65,1253.95 1431.72,1216.35 1434.87,1187.11 1437.94,1212.18 1441,1268.57 1443.99,1314.51 1447.05,1310.33 1450.11,1256.03 1453.2,1218.44 1456.26,1180.85 1459.33,1222.62 1462.27,1274.83 1465.33,1314.51 1468.4,1301.98 1471.4,1253.95 1474.46,1208 1477.53,1191.29 1480.69,1214.26 1483.75,1270.65 1486.82,1304.07 1489.67,1297.8 1492.74,1253.95 1495.8,1201.73 1498.84,1176.67 1501.9,1216.35 1504.97,1270.65 1508.12,1299.89 1511.19,1301.98 1514.25,1256.03 1517.23,1205.91 1520.3,1193.38 1523.36,1214.26 1526.35,1281.1 1529.42,1308.25 1532.48,1304.07 1535.47,1264.39 1538.54,1214.26 1541.6,1180.85 1544.7,1222.62 1547.77,1264.39 1550.83,1291.54 1553.81,1245.59 1556.88,1024.21 1559.94,1333.31 1562.89,1017.95 1565.96,1289.45 1569.02,1024.21 1572.19,1293.63 1575.25,1013.77 1578.32,1299.89 1581.28,1020.04 1584.34,1314.51 1587.4,1011.68 1590.41,1299.89 1593.47,1013.77 1596.54,1310.33 1599.51,1015.86 1602.57,1295.72 1605.64,1011.68 1608.7,1299.89 1611.76,1034.66 1614.83,1291.54 1617.94,1032.57 1621.01,1279.01 1624.07,1049.27 1626.92,1270.65 1629.98,1049.27 1633.05,1258.12 1636.19,1059.72 1639.25,1258.12 1642.32,1080.6 1645.29,1249.77 1648.35,1080.6 1651.42,1233.06 1654.41,1084.78 1657.47,1220.53 1660.54,1091.04 1663.54,1226.8 1666.6,1097.31 1669.67,1230.97 1672.73,1095.22 1675.8,1222.62 1678.86,1103.58 1681.99,1210.09 1685.06,1101.49 1688.12,1210.09 1690.99,1120.28 1694.05,1199.65 1697.11,1130.73 1700.22,1193.38 1703.28,1126.55 1706.35,1061.81 1709.34,1182.94 1712.41,1101.49 1715.47,1024.21 1718.44,994.974 1721.51,1061.81 1724.57,1122.37 1727.67,1147.43 1730.73,1080.6 1733.79,1032.57 1736.78,1003.33 1739.85,1013.77 1742.91,1078.51 1746.03,1124.46 1749.1,1139.08 1752.16,1076.43 1755.02,1030.48 1758.09,999.151 1761.15,1020.04 1764.29,1099.4 1767.35,1136.99 1770.42,1122.37 1773.37,1057.63 1776.44,1013.77 1779.5,1015.86 1782.56,1059.72 1785.62,1124.46 1788.69,1122.37 1791.69,1111.93 1794.76,1028.39 1797.82,1005.42 1800.83,1024.21 1803.9,1084.78 1806.96,1139.08 1810.08,1116.11 1813.15,1065.98 1816.21,1003.33 1819.07,1022.12 1822.14,1051.36 1825.2,1120.28 1828.26,1130.73 1831.33,1091.04 1834.39,1024.21 1837.53,999.151 1840.59,1026.3 1843.66,1097.31 1846.63,1149.52 1849.7,1116.11 1852.76,1049.27 1855.71,997.063 1858.78,1005.42 1861.84,1020.04 1864.88,1024.21 1867.94,1015.86 1871.01,961.559 1874.16,898.904 1877.22,946.939 1880.29,994.974 1883.1,1026.3 1886.17,1017.95 1889.23,930.231 1892.28,921.877 1895.35,946.939 1898.41,1011.68 1901.55,1020.04 1904.62,984.532 1907.68,917.7 1910.69,907.258 1913.75,963.647 1916.82,1003.33 1919.82,1026.3 1922.88,969.913 1925.95,940.674 1928.9,917.7 1931.97,972.001 1935.03,1015.86 1938.13,1015.86 1941.19,953.205 1944.25,911.435 1947.2,926.054 1950.26,999.151 1953.33,1028.39 1956.37,1017.95 1959.43,951.116 1962.49,896.816 1965.61,944.851 1968.67,997.063 1971.74,1011.68 1974.72,1011.68 1977.78,932.32 1980.85,938.585 1983.87,938.585 1986.94,1011.68 1990,1026.3 1992.98,1005.42 1996.05,932.32 1999.11,905.17 2002.18,942.762 2005.24,1003.33 2008.31,1022.12 2011.24,972.001 2014.3,819.542 2017.37,957.382 2020.39,840.427 2023.46,894.727 2026.52,890.55 2029.68,857.135 2032.74,917.7 2035.81,813.276 2038.76,944.851 2041.83,794.48 2044.89,957.382 2047.82,794.48 2050.88,942.762 2053.95,819.542 2057.09,919.789 2060.16,834.161 2063.22,919.789 2066.22,857.135 2069.29,880.108 2072.35,886.373 2075.33,842.515 2078.39,928.143 2081.45,815.365 2084.44,955.293 2087.51,788.215 2090.57,961.559 2093.6,815.365 2096.67,938.585 2099.73,850.869 2102.8,900.993 2105.86,873.842 2108.93,880.108 2111.87,900.993 2114.94,836.25 2118,953.205 2121.14,798.657 2124.21,961.559 2127.27,796.569 2130.25,949.028 2133.31,829.984 2136.38,921.877 2139.37,863.4 2142.44,880.108 2145.5,909.347 2148.48,834.161 2151.54,944.851 2154.61,804.923 2157.68,957.382 2160.74,796.569 2163.8,919.789 2166.93,758.976 2169.99,838.338 2173.06,809.1 2175.89,725.56 2178.96,763.153 2182.02,813.276 2185.15,786.126 2188.21,727.649 2191.28,761.064 2194.29,813.276 2197.35,775.684 2200.42,736.003 2203.47,758.976 2206.53,829.984 2209.59,786.126 2212.6,746.445 2215.67,758.976 2218.73,832.073 2221.76,794.48 2224.82,756.888 2227.89,771.507 2230.98,855.046 2234.04,779.861 2237.11,763.153 2239.98,773.595 2243.04,842.515 2246.1,769.418 2249.21,736.003 2252.27,784.038 2255.34,836.25 2258.35,746.445 2261.42,727.649 2264.48,807.011 2267.54,823.719 2270.61,769.418 2273.67,744.357 2276.65,819.542 2279.72,838.338 2282.78,746.445 2285.78,746.445 2288.85,836.25 2291.91,807.011 2295.03,744.357 2298.1,771.507 2301.16,848.781 2304.01,794.48 2307.08,744.357 2310.14,781.949 2313.21,842.515 2316.27,754.799 2319.34,698.41 2322.42,700.499 2325.48,702.587 2328.55,706.764 2331.54,679.614 2334.6,685.879 2337.66,685.879 2340.69,696.322 2343.75,677.525 2346.81,677.525 2349.85,687.968 2352.92,696.322 2355.98,679.614 2359.1,690.056 2362.16,685.879 2365.23,687.968 2368.04,673.348 2371.11,677.525 2374.17,671.26 2377.23,675.437 2380.29,669.171 2383.36,667.083 2386.52,679.614 2389.58,679.614 2392.65,683.791 2395.62,681.702 2398.68,683.791 2401.74,687.968 2404.71,690.056 2407.77,683.791 2410.83,692.145 2413.85,694.233 2416.92,692.145 2419.98,690.056 2423.06,692.145 2426.12,694.233 2429.19,694.233 2432.16,679.614 2435.22,692.145 2438.29,696.322 2441.28,683.791 2444.35,690.056 2447.41,685.879 2450.55,694.233 2453.61,694.233 2456.68,692.145 2459.68,685.879 2462.75,694.233 2465.81,694.233 2468.8,690.056 2471.87,621.136 2474.93,579.367 2477.91,608.605 2480.97,614.871 2484.03,552.216 2487.08,585.632 2490.15,602.34 2493.21,566.836 2496.18,575.19 2499.25,604.428 2502.31,566.836 2505.34,571.013 2508.41,612.782 2511.47,577.278 2514.61,564.747 2517.68,606.517 2520.74,589.809 2523.69,545.951 2526.76,612.782 2532.89,579.367 2535.95,554.305 2539.01,600.251 2539.75,600.251 2542.81,541.774 2545.88,602.34 2548.08,589.809 2551.15,556.393 2554.21,600.251 2557.34,612.782 2560.4,564.747 2563.47,589.809 2566.3,612.782 2569.37,581.455 2572.43,573.101 2575.53,596.075 2578.59,589.809 2581.65,575.19 2584.77,604.428 2587.83,593.986 2590.9,558.482 2593.73,604.428 2596.79,604.428 2599.86,554.305 2603,591.898 2606.06,608.605 2609.13,581.455 2612.14,581.455 2615.21,610.694 2618.27,587.721 2621.32,556.393 2624.39,564.747 2627.45,497.916 2630.44,514.624 2633.5,472.854 2636.56,504.181 2639.5,474.943 2642.57,489.562 2645.63,491.65 2648.78,470.766 2651.84,497.916 2654.9,458.235 2657.79,493.739 2660.85,479.12 2663.92,468.677 2667.06,502.093 2670.13,458.235 2673.19,504.181 2676.19,468.677 2679.25,491.65 2682.32,485.385 2685.36,474.943 2688.42,514.624 2691.49,464.5 2694.48,514.624 2697.55,466.589 2700.61,485.385 2703.59,506.27 2706.65,454.058 2709.72,522.978 2712.84,458.235 2715.91,506.27 2718.97,474.943 2721.94,493.739 2725.01,491.65 2728.07,466.589 2731.06,512.535 2734.13,445.704 2737.19,510.447 2740.28,464.5 2743.34,495.827 2746.41,483.297 2749.41,479.12 2752.47,504.181 2755.54,470.766 2758.53,518.801 2761.59,472.854 2764.66,516.712 2767.63,472.854 2770.7,506.27 2773.76,489.562 2776.88,447.792 2779.95,426.908 2783.01,401.846 2786,376.784 2789.07,368.43 2792.13,376.784 2795.05,387.226 2798.11,380.961 2801.18,387.226 2804.28,378.873 2807.34,374.696 2810.41,374.696 2813.44,368.43 2816.5,383.05 2819.56,393.492 2822.55,374.696 2825.62,383.05 2828.68,378.873 2831.71,383.05 2834.77,395.58 2837.84,389.315 2840.9,380.961 2843.97,383.05 2847.03,366.342 2850.14,383.05 2853.21,393.492 2856.27,406.023 2859.13,385.138 2862.2,393.492 2865.26,364.253 2868.37,393.492 2871.43,395.58 2874.5,401.846 2877.47,389.315 2880.53,383.05 2883.6,385.138 2886.58,378.873 2889.64,406.023 2892.7,397.669 2895.74,387.226 2898.8,387.226 2901.87,385.138 2904.94,399.757 2908,418.554 2911.07,391.403 2914.19,391.403 2917.25,378.873 2920.32,397.669 2923.16,408.111 2926.23,412.288 2929.29,389.315 2932.43,345.457 2935.49,324.572 2938.56,307.864 2941.55,309.953 2944.62,291.156 2947.68,301.599 2950.59,280.714 2953.65,297.422 2956.71,280.714 2959.82,295.333 2962.89,291.156 2965.95,293.245 2968.98,289.068 2972.04,307.864 2975.11,297.422 2978.25,312.041 2981.31,293.245 2984.37,301.599 2987.22,305.776 2990.28,295.333 2993.35,293.245 2996.47,303.687 2999.54,297.422 3002.6,299.51 3005.61,303.687 3008.67,291.156 3011.74,293.245 3014.61,301.599 3017.68,303.687 3020.74,305.776 3023.85,303.687 3026.91,293.245 3029.98,299.51 3032.98,303.687 3036.04,305.776 3039.11,312.041 3042.23,301.599 3045.3,286.979 3048.36,295.333 3051.22,305.776 3054.29,297.422 3057.35,295.333 3060.42,305.776 3063.48,316.218 3066.55,297.422 3069.66,303.687 3072.72,301.599 3075.79,303.687 3078.8,307.864 3081.86,297.422 3084.93,264.006 3087.92,228.502 3090.99,195.086 3094.05,184.644 3097.06,211.794 3100.12,199.263 3103.19,172.113 3106.29,192.998 3109.35,195.086 3112.41,190.909 3115.26,205.529 3118.32,215.971 3121.38,199.263 3124.48,167.936 3127.55,211.794 3130.61,195.086 3133.74,184.644 3136.8,186.732 3139.87,220.148 3142.85,186.732 3145.91,195.086 3148.98,199.263 3151.95,207.617 3155.02,197.175 3158.08,195.086 3161.08,207.617 3164.14,213.883 3167.21,190.909 3170.29,224.325 3173.35,213.883 3176.42,190.909 3179.41,195.086 3182.48,224.325 3185.54,211.794 3188.5,201.352 3191.56,207.617 3194.63,224.325 3197.76,226.413 3200.82,195.086 3203.89,211.794 3206.92,224.325 3209.99,222.237 3213.05,201.352 3216.01,230.59 3219.07,228.502 3222.14,218.06 3225.16,222.237 3228.22,232.679 3231.28,238.944 3234.34,245.21 3237.41,807.011 3240.47,1220.53 3243.45,1540.07 3246.51,1650.76 3249.58,1709.23 3252.59,1721.77 3255.65,1736.38 3258.72,1744.74 3261.84,1736.38 3264.9,1742.65 3267.97,1740.56 3270.93,1736.38 3273.99,1748.92 3277.06,1742.65 3280.01,1736.38 3283.07,1746.83 3286.14,1742.65 3289.25,1742.65 3292.31,1746.83 3295.38,1738.47 3298.4,1746.83 3301.46,1744.74 3304.52,1740.56 3307.49,1744.74 3310.55,1742.65 3313.62,1740.56 3316.62,1744.74 3319.69,1740.56 3322.75,1744.74 3325.81,1744.74 3328.88,1740.56 3331.94,1742.65 3335.01,1744.74 3338.08,1740.56 3341.14,1744.74 3344.03,1742.65 3347.09,1742.65 3350.16,1742.65 3353.3,1744.74 3356.36,1740.56 3359.43,1746.83 3362.44,1742.65 3365.5,1744.74 3368.57,1742.65 3371.69,1746.83 3374.75,1742.65 3377.82,1742.65 3380.66,1742.65 3383.73,1746.83 3386.79,1740.56 3389.87,1746.83 3392.93,1742.65 3396,1744.74 3399.1,1744.74 3402.17,1746.83 3405.23,1738.47 3408.1,1748.92 3411.16,1744.74 3414.23,1740.56 3417.33,1742.65 3420.39,1746.83 3423.46,1744.74 3426.48,1744.74 3429.55,1744.74 3432.61,1740.56 3435.66,1744.74 3438.72,1744.74 3441.78,1742.65 3444.78,1742.65 3447.85,1740.56 3450.91,1738.47 3453.91,1738.47 3456.97,1740.56 3460.04,1742.65 3463.16,1740.56 3466.22,1740.56 3469.29,1742.65 3472.14,1742.65 3475.21,1744.74 3478.27,1742.65 3481.41,1742.65 3484.48,1744.74 3487.54,1744.74 3490.53,1740.56 3493.59,1744.74 3496.66,1744.74 3499.71,1742.65 3502.77,1744.74 3505.84,1742.65 3508.8,1696.7 3511.86,1648.67 3514.93,1629.87 3517.96,1592.28 3521.03,1581.84 3524.09,1638.23 3527.2,1734.3 3530.27,1673.73 3533.33,1627.78 3536.2,1721.77 3539.26,1744.74 3542.32,1744.74 3545.38,1744.74 3548.45,1744.74 3551.51,1744.74 3554.64,1744.74 3557.7,1736.38 3560.76,1744.74 3563.76,1742.65 3566.82,1740.56 3569.89,1742.65 3572.85,1740.56 3575.92,1738.47 3578.98,1744.74 3581.98,1738.47 3585.05,1736.38 3588.11,1746.83 3591.26,1742.65 3594.32,1740.56 3597.39,1740.56 3600.24,1740.56 3603.3,1740.56 3606.37,1744.74 3609.43,1736.38 3612.49,1742.65 3615.56,1742.65 3618.69,1734.3 3621.75,1740.56 3624.81,1748.92 3627.81,1732.21 3630.88,1598.55 3633.94,1640.31 3636.93,1736.38 3639.99,1746.83 3643.06,1736.38 3646.05,1740.56 3649.11,1738.47 3652.18,1748.92 3655.23,1730.12 3658.3,1751 3661.36,1734.3 3664.47,1742.65 3667.53,1740.56 3670.6,1742.65 3673.47,1738.47 3676.54,1744.74 3679.6,1736.38 3682.73,1742.65 3685.79,1742.65 3688.86,1736.38 3691.85,1744.74 3694.92,1738.47 3697.98,1740.56 3700.97,1742.65 3704.03,1740.56 3707.1,1738.47 3710.09,1744.74 3713.15,1736.38 3716.22,1742.65 3719.29,1742.65 3722.35,1738.47 3725.41,1742.65 3728.55,1740.56 3731.61,1738.47 3734.68,1742.65 3737.49,1740.56 3740.55,1738.47 3743.62,1742.65 3746.72,1738.47 3749.79,1740.56 3752.85,1742.65 3755.88,1738.47 3758.94,1740.56 3762.01,1740.56 3764.94,1740.56 3768,1742.65 3771.06,1740.56 3774.19,1738.47 3777.25,1742.65 3780.31,1738.47 3783.32,1740.56 3786.38,1740.56 3789.45,1738.47 3792.58,1740.56 3795.64,1740.56 3798.71,1740.56 3801.57,1740.56 3804.63,1740.56 3807.69,1740.56 3810.81,1740.56 3813.88,1740.56 3816.94,1740.56 3819.93,1742.65 3822.99,1738.47 3826.06,1740.56 3828.95,1740.56 3832.02,1740.56 3835.08,1740.56 3838.25,1740.56 3841.32,1740.56 3844.38,1740.56 3847.38,1740.56 3850.44,1740.56 3853.5,1740.56 3856.62,1740.56 3859.69,1740.56 3862.75,1740.56 3865.58,1740.56 3868.64,1740.56 3871.71,1740.56 3874.79,1740.56 3877.86,1740.56 3880.92,1740.56 3884.06,1740.56 3887.12,1740.56 3890.19,1740.56 3893,1740.56 3896.07,1740.56 3899.13,1740.56 3902.29,1740.56 3905.36,1740.56 3908.42,1740.56 3911.38,1740.56 3914.45,1740.56 3917.51,1740.56 3920.69,1740.56 3923.76,1740.56 3926.82,1742.65 3929.65,1740.56 3932.72,1740.56 3935.78,1740.56 3938.84,1740.56 3941.9,1740.56 3944.97,1740.56 3948.12,1740.56 3951.18,1740.56 3954.24,1740.56 3957.2,1740.56 3960.26,1740.56 3963.32,1740.56 3966.35,1740.56 3969.41,1740.56 3972.48,1740.56 3975.44,1740.56 3978.5,1740.56 3981.57,1740.56 3984.62,1740.56 3987.69,1740.56 3990.75,1740.56 3993.76,1740.56 3996.82,1740.56 3999.89,1740.56 4002.87,1740.56 4005.93,1740.56 4009,1740.56 4012.12,1740.56 4015.18,1742.65 4018.24,1740.56 4021.24,1740.56 4024.31,1740.56 4027.37,1740.56 4030.39,1740.56 4033.45,1742.65 4036.52,1740.56 4039.5,1740.56 4042.56,1742.65 4045.63,1740.56 4048.66,1740.56 4051.73,1742.65 4054.79,1738.47 4057.8,1744.74 4060.86,1742.65 4063.92,1736.38 4066.93,1744.74 4069.99,1738.47 4073.06,1740.56 4076.2,1740.56 4079.26,1740.56 4082.33,1738.47 4085.32,1742.65 4088.38,1738.47 4091.44,1742.65 4094.33,1742.65 4097.39,1736.38 4100.46,1740.56 4103.62,1742.65 4106.68,1738.47 4109.74,1740.56 4112.74,1746.83 4115.8,1734.3 4118.87,1740.56 4121.84,1740.56 4124.9,1740.56 4127.97,1740.56 4130.94,1740.56 4134,1740.56 4137.07,1744.74 4140.24,1736.38 4143.3,1736.38 4146.37,1748.92 4149.35,1740.56 4152.42,1742.65 4155.48,1734.3 4158.4,1744.74 4161.47,1736.38 4164.53,1746.83 4167.65,1734.3 4170.72,1746.83 4173.78,1738.47 4176.8,1738.47 4179.87,1742.65 4182.93,1738.47 4185.91,1738.47 4188.98,1738.47 4192.04,1746.83 4195.03,1742.65 4198.09,1740.56 4201.16,1738.47 4204.19,1740.56 4207.26,1744.74 4210.32,1734.3 4213.44,1748.92 4216.51,1734.3 4219.57,1742.65 4222.44,1740.56 4225.5,1742.65 4228.57,1738.47 4231.71,1744.74 4234.78,1738.47 4237.84,1742.65 4240.83,1740.56 4243.89,1740.56 4246.95,1742.65 4249.88,1738.47 4252.95,1738.47 4256.01,1744.74 4259.07,1740.56 4262.13,1740.56 4265.2,1742.65 4268.24,1738.47 4271.3,1742.65 4274.37,1742.65 4277.49,1740.56 4280.55,1740.56 4283.62,1740.56 4286.46,1740.56 4289.53,1742.65 4292.59,1740.56 4295.72,1740.56 4298.79,1740.56 4301.85,1740.56 4304.87,1740.56 4307.93,1740.56 4311,1740.56 4314.04,1740.56 4317.1,1742.65 4320.17,1740.56 4323.17,1742.65 4326.23,1740.56 4329.3,1740.56 4332.31,1742.65 4335.37,1740.56 4338.43,1740.56 4341.54,1742.65 4344.61,1742.65 4347.67,1740.56 4350.56,1740.56 4353.62,1740.56 4356.69,1740.56 4359.78,1740.56 4362.84,1740.56 4365.9,1742.65 4368.97,1738.47 4372.03,1742.65 4375.1,1740.56 4378.11,1738.47 4381.18,1744.74 4384.24,1740.56 4387.2,1740.56 4390.26,1742.65 4393.33,1740.56 4396.34,1740.56 4399.4,1740.56 4402.46,1738.47 4405.59,1742.65 4408.65,1744.74 4411.72,1740.56 4414.57,1742.65 4417.64,1742.65 4420.7,1738.47 4423.79,1742.65 4426.85,1742.65 4429.92,1740.56 4433.05,1742.65 4436.11,1740.56 4439.18,1740.56 4442.13,1742.65 4445.2,1742.65 4448.26,1740.56 4451.24,1742.65 4454.3,1740.56 4457.37,1740.56 4460.4,1740.56 4463.47,1744.74 4466.53,1740.56 4469.58,1742.65 4472.64,1740.56 4475.71,1744.74 4478.71,1738.47 4481.77,1744.74 4484.83,1740.56 4487.83,1740.56 4490.9,1742.65 4493.96,1740.56 4497.07,1740.56 4500.13,1742.65 4503.2,1740.56 4506.2,1742.65 4509.27,1742.65 4512.33,1742.65 4515.3,1742.65 4518.36,1740.56 4521.43,1738.47 4524.42,1746.83 4527.48,1736.38 4530.55,1744.74 4533.59,1740.56 4536.65,1742.65 4539.72,1740.56 4542.71,1742.65 4545.77,1736.38 4548.84,1746.83 4551.84,1740.56 4554.9,1740.56 4557.97,1744.74 4561.15,1738.47 4564.21,1740.56 4567.27,1748.92 4570.26,1736.38 4573.32,1740.56 4576.39,1746.83 4579.31,1740.56 4582.37,1742.65 4585.44,1742.65 4588.57,1738.47 4591.63,1744.74 4594.7,1740.56 4597.66,1740.56 4600.73,1742.65 4603.79,1740.56 4606.78,1740.56 4609.84,1744.74 4612.9,1740.56 4615.91,1742.65 4618.97,1744.74 4622.04,1738.47 4625.18,1742.65 4628.24,1740.56 4631.31,1740.56 4634.28,1742.65 4637.34,1740.56 4640.4,1740.56 4643.34,1742.65 4646.4,1740.56 4649.47,1742.65 4652.62,1740.56 4655.69,1742.65 4658.75,1742.65 4661.72,1742.65 4664.78,1738.47 4667.85,1742.65 4670.98,1742.65 4674.05,1740.56 4677.11,1740.56 4679.92,1742.65 4682.98,1740.56 4686.04,1744.74 4689.13,1740.56 4692.2,1740.56 4695.26,1742.65 4698.41,1744.74 4701.47,1740.56 4704.54,1742.65 "/>
<polyline clip-path="url(#clip462)" style="stroke:#e26f46; stroke-linecap:round; stroke-linejoin:round; stroke-width:20; stroke-opacity:1; fill:none" points="995.727,1543.83 997.259,1542.88 998.791,1541.94 1000.32,1540.99 1001.86,1540.05 1003.39,1539.11 1004.92,1538.16 1006.45,1537.22 1007.98,1536.28 1009.52,1535.33 1011.05,1534.39 1012.58,1533.45 1014.11,1532.5 1015.64,1531.56 1017.18,1530.62 1018.71,1529.67 1020.24,1528.73 1021.77,1527.78 1023.3,1526.84 1024.84,1525.9 1026.37,1524.95 1027.9,1524.01 1029.43,1523.07 1030.97,1522.12 1032.5,1521.18 1034.03,1520.24 1035.56,1519.29 1037.09,1518.35 1038.63,1517.4 1040.16,1516.46 1041.69,1515.52 1043.22,1514.57 1044.75,1513.63 1046.29,1512.69 1047.82,1511.74 1049.35,1510.8 1050.88,1509.86 1052.41,1508.91 1053.95,1507.97 1055.48,1507.02 1057.01,1506.08 1058.54,1505.14 1060.08,1504.19 1061.61,1503.25 1063.14,1502.31 1064.67,1501.36 1066.2,1500.42 1067.74,1499.48 1069.27,1498.53 1070.8,1497.59 1072.33,1496.64 1073.86,1495.7 1075.4,1494.76 1076.93,1493.81 1078.46,1492.87 1079.99,1491.93 1081.52,1490.98 1083.06,1490.04 1084.59,1489.1 1086.12,1488.15 1087.65,1487.21 1089.19,1486.27 1090.72,1485.32 1092.25,1484.38 1093.78,1483.43 1095.31,1482.49 1096.85,1481.55 1098.38,1480.6 1099.91,1479.66 1101.44,1478.72 1102.97,1477.77 1104.51,1476.83 1106.04,1475.89 1107.57,1474.94 1109.1,1474 1110.63,1473.05 1112.17,1472.11 1113.7,1471.17 1115.23,1470.22 1116.76,1469.28 1118.3,1468.34 1119.83,1467.39 1121.36,1466.45 1122.89,1465.51 1124.42,1464.56 1125.96,1463.62 1127.49,1462.67 1129.02,1461.73 1130.55,1460.79 1132.08,1459.84 1133.62,1458.9 1135.15,1457.96 1136.68,1457.01 1138.21,1456.07 1139.74,1455.13 1141.28,1454.18 1142.81,1453.24 1144.34,1452.29 1145.87,1451.35 1147.41,1450.41 1148.94,1449.46 1150.47,1448.52 1152,1447.58 1153.53,1446.63 1155.07,1445.69 1156.6,1444.75 1158.13,1443.8 1159.66,1442.86 1161.19,1441.91 1162.73,1440.97 1164.26,1440.03 1165.79,1439.08 1167.32,1438.14 1168.85,1437.2 1170.39,1436.25 1171.92,1435.31 1173.45,1434.37 1174.98,1433.42 1176.51,1432.48 1178.05,1431.54 1179.58,1430.59 1181.11,1429.65 1182.64,1428.7 1184.18,1427.76 1185.71,1426.82 1187.24,1425.87 1188.77,1424.93 1190.3,1423.99 1191.84,1423.04 1193.37,1422.1 1194.9,1421.16 1196.43,1420.21 1197.96,1419.27 1199.5,1418.32 1201.03,1417.38 1202.56,1416.44 1204.09,1415.49 1205.62,1414.55 1207.16,1413.61 1208.69,1412.66 1210.22,1411.72 1211.75,1410.78 1213.29,1409.83 1214.82,1408.89 1216.35,1407.94 1217.88,1407 1219.41,1406.06 1220.95,1405.11 1222.48,1404.17 1224.01,1403.23 1225.54,1402.28 1227.07,1401.34 1228.61,1400.4 1230.14,1399.45 1231.67,1398.51 1233.2,1397.56 1234.73,1396.62 1236.27,1395.68 1237.8,1394.73 1239.33,1393.79 1240.86,1392.85 1242.4,1391.9 1243.93,1390.96 1245.46,1390.02 1246.99,1389.07 1248.52,1388.13 1250.06,1387.18 1251.59,1386.24 1253.12,1385.3 1254.65,1384.35 1256.18,1383.41 1257.72,1382.47 1259.25,1381.52 1260.78,1380.58 1262.31,1379.64 1263.84,1378.69 1265.38,1377.75 1266.91,1376.81 1268.44,1375.86 1269.97,1374.92 1271.51,1373.97 1273.04,1373.03 1274.57,1372.09 1276.1,1371.14 1277.63,1370.2 1279.17,1369.26 1280.7,1368.31 1282.23,1367.37 1283.76,1366.43 1285.29,1365.48 1286.83,1364.54 1288.36,1363.59 1289.89,1362.65 1291.42,1361.71 1292.95,1360.76 1294.49,1359.82 1296.02,1358.88 1297.55,1357.93 1299.08,1356.99 1300.62,1356.05 1302.15,1355.1 1303.68,1354.16 1305.21,1353.21 1306.74,1352.27 1308.28,1351.33 1309.81,1350.38 1311.34,1349.44 1312.87,1348.5 1314.4,1347.55 1315.94,1346.61 1317.47,1345.67 1319,1344.72 1320.53,1343.78 1322.06,1342.83 1323.6,1341.89 1325.13,1340.95 1326.66,1340 1328.19,1339.06 1329.73,1338.12 1331.26,1337.17 1332.79,1336.23 1334.32,1335.29 1335.85,1334.34 1337.39,1333.4 1338.92,1332.46 1340.45,1331.51 1341.98,1330.57 1343.51,1329.62 1345.05,1328.68 1346.58,1327.74 1348.11,1326.79 1349.64,1325.85 1351.17,1324.91 1352.71,1323.96 1354.24,1323.02 1355.77,1322.08 1357.3,1321.13 1358.84,1320.19 1360.37,1319.24 1361.9,1318.3 1363.43,1317.36 1364.96,1316.41 1366.5,1315.47 1368.03,1314.53 1369.56,1313.58 1371.09,1312.64 1372.62,1311.7 1374.16,1310.75 1375.69,1309.81 1377.22,1308.86 1378.75,1307.92 1380.28,1306.98 1381.82,1306.03 1383.35,1305.09 1384.88,1304.15 1386.41,1303.2 1387.95,1302.26 1389.48,1301.32 1391.01,1300.37 1392.54,1299.43 1394.07,1298.48 1395.61,1297.54 1397.14,1296.6 1398.67,1295.65 1400.2,1294.71 1401.73,1293.77 1403.27,1292.82 1404.8,1291.88 1406.33,1290.94 1407.86,1289.99 1409.39,1289.05 1410.93,1288.1 1412.46,1287.16 1413.99,1286.22 1415.52,1285.27 1417.06,1284.33 1418.59,1283.39 1420.12,1282.44 1421.65,1281.5 1423.18,1280.56 1424.72,1279.61 1426.25,1278.67 1427.78,1277.73 1429.31,1276.78 1430.84,1275.84 1432.38,1274.89 1433.91,1273.95 1435.44,1273.01 1436.97,1272.06 1438.5,1271.12 1440.04,1270.18 1441.57,1269.23 1443.1,1268.29 1444.63,1267.35 1446.17,1266.4 1447.7,1265.46 1449.23,1264.51 1450.76,1263.57 1452.29,1262.63 1453.83,1261.68 1455.36,1260.74 1456.89,1259.8 1458.42,1258.85 1459.95,1257.91 1461.49,1256.97 1463.02,1256.02 1464.55,1255.08 1466.08,1254.13 1467.61,1253.19 1469.15,1252.25 1470.68,1251.3 1472.21,1250.36 1473.74,1249.42 1475.28,1248.47 1476.81,1247.53 1478.34,1246.59 1479.87,1245.64 1481.4,1244.7 1482.94,1243.75 1484.47,1242.81 1486,1241.87 1487.53,1240.92 1489.06,1239.98 1490.6,1239.04 1492.13,1238.09 1493.66,1237.15 1495.19,1236.21 1496.72,1235.26 1498.26,1234.32 1499.79,1233.38 1501.32,1232.43 1502.85,1231.49 1504.39,1230.54 1505.92,1229.6 1507.45,1228.66 1508.98,1227.71 1510.51,1226.77 1512.05,1225.83 1513.58,1224.88 1515.11,1223.94 1516.64,1223 1518.17,1222.05 1519.71,1221.11 1521.24,1220.16 1522.77,1219.22 1524.3,1218.28 1525.83,1217.33 1527.37,1216.39 1528.9,1215.45 1530.43,1214.5 1531.96,1213.56 1533.5,1212.62 1535.03,1211.67 1536.56,1210.73 1538.09,1209.78 1539.62,1208.84 1541.16,1207.9 1542.69,1206.95 1544.22,1206.01 1545.75,1205.07 1547.28,1204.12 1548.82,1203.18 1550.35,1202.24 1551.88,1201.29 1553.41,1200.35 1554.94,1199.4 1556.48,1198.46 1558.01,1197.52 1559.54,1196.57 1561.07,1195.63 1562.61,1194.69 1564.14,1193.74 1565.67,1192.8 1567.2,1191.86 1568.73,1190.91 1570.27,1189.97 1571.8,1189.02 1573.33,1188.08 1574.86,1187.14 1576.39,1186.19 1577.93,1185.25 1579.46,1184.31 1580.99,1183.36 1582.52,1182.42 1584.05,1181.48 1585.59,1180.53 1587.12,1179.59 1588.65,1178.65 1590.18,1177.7 1591.72,1176.76 1593.25,1175.81 1594.78,1174.87 1596.31,1173.93 1597.84,1172.98 1599.38,1172.04 1600.91,1171.1 1602.44,1170.15 1603.97,1169.21 1605.5,1168.27 1607.04,1167.32 1608.57,1166.38 1610.1,1165.43 1611.63,1164.49 1613.16,1163.55 1614.7,1162.6 1616.23,1161.66 1617.76,1160.72 1619.29,1159.77 1620.82,1158.83 1622.36,1157.89 1623.89,1156.94 1625.42,1156 1626.95,1155.05 1628.49,1154.11 1630.02,1153.17 1631.55,1152.22 1633.08,1151.28 1634.61,1150.34 1636.15,1149.39 1637.68,1148.45 1639.21,1147.51 1640.74,1146.56 1642.27,1145.62 1643.81,1144.67 1645.34,1143.73 1646.87,1142.79 1648.4,1141.84 1649.93,1140.9 1651.47,1139.96 1653,1139.01 1654.53,1138.07 1656.06,1137.13 1657.6,1136.18 1659.13,1135.24 1660.66,1134.29 1662.19,1133.35 1663.72,1132.41 1665.26,1131.46 1666.79,1130.52 1668.32,1129.58 1669.85,1128.63 1671.38,1127.69 1672.92,1126.75 1674.45,1125.8 1675.98,1124.86 1677.51,1123.92 1679.04,1122.97 1680.58,1122.03 1682.11,1121.08 1683.64,1120.14 1685.17,1119.2 1686.71,1118.25 1688.24,1117.31 1689.77,1116.37 1691.3,1115.42 1692.83,1114.48 1694.37,1113.54 1695.9,1112.59 1697.43,1111.65 1698.96,1110.7 1700.49,1109.76 1702.03,1108.82 1703.56,1107.87 1705.09,1106.93 1706.62,1105.99 1708.15,1105.04 1709.69,1104.1 1711.22,1103.16 1712.75,1102.21 1714.28,1101.27 1715.82,1100.32 1717.35,1099.38 1718.88,1098.44 1720.41,1097.49 1721.94,1096.55 1723.48,1095.61 1725.01,1094.66 1726.54,1093.72 1728.07,1092.78 1729.6,1091.83 1731.14,1090.89 1732.67,1089.94 1734.2,1089 1735.73,1088.06 1737.26,1087.11 1738.8,1086.17 1740.33,1085.23 1741.86,1084.28 1743.39,1083.34 1744.93,1082.4 1746.46,1081.45 1747.99,1080.51 1749.52,1079.57 1751.05,1078.62 1752.59,1077.68 1754.12,1076.73 1755.65,1075.79 1757.18,1074.85 1758.71,1073.9 1760.25,1072.96 1761.78,1072.02 1763.31,1071.07 1764.84,1070.13 1766.37,1069.19 1767.91,1068.24 1769.44,1067.3 1770.97,1066.35 1772.5,1065.41 1774.04,1064.47 1775.57,1063.52 1777.1,1062.58 1778.63,1061.64 1780.16,1060.69 1781.7,1059.75 1783.23,1058.81 1784.76,1057.86 1786.29,1056.92 1787.82,1055.97 1789.36,1055.03 1790.89,1054.09 1792.42,1053.14 1793.95,1052.2 1795.48,1051.26 1797.02,1050.31 1798.55,1049.37 1800.08,1048.43 1801.61,1047.48 1803.15,1046.54 1804.68,1045.59 1806.21,1044.65 1807.74,1043.71 1809.27,1042.76 1810.81,1041.82 1812.34,1040.88 1813.87,1039.93 1815.4,1038.99 1816.93,1038.05 1818.47,1037.1 1820,1036.16 1821.53,1035.21 1823.06,1034.27 1824.59,1033.33 1826.13,1032.38 1827.66,1031.44 1829.19,1030.5 1830.72,1029.55 1832.26,1028.61 1833.79,1027.67 1835.32,1026.72 1836.85,1025.78 1838.38,1024.84 1839.92,1023.89 1841.45,1022.95 1842.98,1022 1844.51,1021.06 1846.04,1020.12 1847.58,1019.17 1849.11,1018.23 1850.64,1017.29 1852.17,1016.34 1853.7,1015.4 1855.24,1014.46 1856.77,1013.51 1858.3,1012.57 1859.83,1011.62 1861.37,1010.68 1862.9,1009.74 1864.43,1008.79 1865.96,1007.85 1867.49,1006.91 1869.03,1005.96 1870.56,1005.02 1872.09,1004.08 1873.62,1003.13 1875.15,1002.19 1876.69,1001.24 1878.22,1000.3 1879.75,999.357 1881.28,998.414 1882.81,997.47 1884.35,996.527 1885.88,995.583 1887.41,994.639 1888.94,993.696 1890.48,992.752 1892.01,991.808 1893.54,990.865 1895.07,989.921 1896.6,988.978 1898.14,988.034 1899.67,987.09 1901.2,986.147 1902.73,985.203 1904.26,984.259 1905.8,983.316 1907.33,982.372 1908.86,981.429 1910.39,980.485 1911.92,979.541 1913.46,978.598 1914.99,977.654 1916.52,976.711 1918.05,975.767 1919.59,974.823 1921.12,973.88 1922.65,972.936 1924.18,971.992 1925.71,971.049 1927.25,970.105 1928.78,969.162 1930.31,968.218 1931.84,967.274 1933.37,966.331 1934.91,965.387 1936.44,964.443 1937.97,963.5 1939.5,962.556 1941.03,961.613 1942.57,960.669 1944.1,959.725 1945.63,958.782 1947.16,957.838 1948.7,956.895 1950.23,955.951 1951.76,955.007 1953.29,954.064 1954.82,953.12 1956.36,952.176 1957.89,951.233 1959.42,950.289 1960.95,949.346 1962.48,948.402 1964.02,947.458 1965.55,946.515 1967.08,945.571 1968.61,944.627 1970.14,943.684 1971.68,942.74 1973.21,941.797 1974.74,940.853 1976.27,939.909 1977.81,938.966 1979.34,938.022 1980.87,937.079 1982.4,936.135 1983.93,935.191 1985.47,934.248 1987,933.304 1988.53,932.36 1990.06,931.417 1991.59,930.473 1993.13,929.53 1994.66,928.586 1996.19,927.642 1997.72,926.699 1999.25,925.755 2000.79,924.811 2002.32,923.868 2003.85,922.924 2005.38,921.981 2006.92,921.037 2008.45,920.093 2009.98,919.15 2011.51,918.206 2013.04,917.263 2014.58,916.319 2016.11,915.375 2017.64,914.432 2019.17,913.488 2020.7,912.544 2022.24,911.601 2023.77,910.657 2025.3,909.714 2026.83,908.77 2028.36,907.826 2029.9,906.883 2031.43,905.939 2032.96,904.995 2034.49,904.052 2036.03,903.108 2037.56,902.165 2039.09,901.221 2040.62,900.277 2042.15,899.334 2043.69,898.39 2045.22,897.447 2046.75,896.503 2048.28,895.559 2049.81,894.616 2051.35,893.672 2052.88,892.728 2054.41,891.785 2055.94,890.841 2057.47,889.898 2059.01,888.954 2060.54,888.01 2062.07,887.067 2063.6,886.123 2065.13,885.179 2066.67,884.236 2068.2,883.292 2069.73,882.349 2071.26,881.405 2072.8,880.461 2074.33,879.518 2075.86,878.574 2077.39,877.63 2078.92,876.687 2080.46,875.743 2081.99,874.8 2083.52,873.856 2085.05,872.912 2086.58,871.969 2088.12,871.025 2089.65,870.082 2091.18,869.138 2092.71,868.194 2094.24,867.251 2095.78,866.307 2097.31,865.363 2098.84,864.42 2100.37,863.476 2101.91,862.533 2103.44,861.589 2104.97,860.645 2106.5,859.702 2108.03,858.758 2109.57,857.814 2111.1,856.871 2112.63,855.927 2114.16,854.984 2115.69,854.04 2117.23,853.096 2118.76,852.153 2120.29,851.209 2121.82,850.266 2123.35,849.322 2124.89,848.378 2126.42,847.435 2127.95,846.491 2129.48,845.547 2131.02,844.604 2132.55,843.66 2134.08,842.717 2135.61,841.773 2137.14,840.829 2138.68,839.886 2140.21,838.942 2141.74,837.998 2143.27,837.055 2144.8,836.111 2146.34,835.168 2147.87,834.224 2149.4,833.28 2150.93,832.337 2152.46,831.393 2154,830.45 2155.53,829.506 2157.06,828.562 2158.59,827.619 2160.13,826.675 2161.66,825.731 2163.19,824.788 2164.72,823.844 2166.25,822.901 2167.79,821.957 2169.32,821.013 2170.85,820.07 2172.38,819.126 2173.91,818.182 2175.45,817.239 2176.98,816.295 2178.51,815.352 2180.04,814.408 2181.57,813.464 2183.11,812.521 2184.64,811.577 2186.17,810.634 2187.7,809.69 2189.24,808.746 2190.77,807.803 2192.3,806.859 2193.83,805.915 2195.36,804.972 2196.9,804.028 2198.43,803.085 2199.96,802.141 2201.49,801.197 2203.02,800.254 2204.56,799.31 2206.09,798.366 2207.62,797.423 2209.15,796.479 2210.68,795.536 2212.22,794.592 2213.75,793.648 2215.28,792.705 2216.81,791.761 2218.35,790.818 2219.88,789.874 2221.41,788.93 2222.94,787.987 2224.47,787.043 2226.01,786.099 2227.54,785.156 2229.07,784.212 2230.6,783.269 2232.13,782.325 2233.67,781.381 2235.2,780.438 2236.73,779.494 2238.26,778.55 2239.79,777.607 2241.33,776.663 2242.86,775.72 2244.39,774.776 2245.92,773.832 2247.46,772.889 2248.99,771.945 2250.52,771.001 2252.05,770.058 2253.58,769.114 2255.12,768.171 2256.65,767.227 2258.18,766.283 2259.71,765.34 2261.24,764.396 2262.78,763.453 2264.31,762.509 2265.84,761.565 2267.37,760.622 2268.9,759.678 2270.44,758.734 2271.97,757.791 2273.5,756.847 2275.03,755.904 2276.57,754.96 2278.1,754.016 2279.63,753.073 2281.16,752.129 2282.69,751.185 2284.23,750.242 2285.76,749.298 2287.29,748.355 2288.82,747.411 2290.35,746.467 2291.89,745.524 2293.42,744.58 2294.95,743.637 2296.48,742.693 2298.01,741.749 2299.55,740.806 2301.08,739.862 2302.61,738.918 2304.14,737.975 2305.68,737.031 2307.21,736.088 2308.74,735.144 2310.27,734.2 2311.8,733.257 2313.34,732.313 2314.87,731.369 2316.4,730.426 2317.93,729.482 2319.46,728.539 2321,727.595 2322.53,726.651 2324.06,725.708 2325.59,724.764 2327.12,723.821 2328.66,722.877 2330.19,721.933 2331.72,720.99 2333.25,720.046 2334.79,719.102 2336.32,718.159 2337.85,717.215 2339.38,716.272 2340.91,715.328 2342.45,714.384 2343.98,713.441 2345.51,712.497 2347.04,711.553 2348.57,710.61 2350.11,709.666 2351.64,708.723 2353.17,707.779 2354.7,706.835 2356.23,705.892 2357.77,704.948 2359.3,704.005 2360.83,703.061 2362.36,702.117 2363.9,701.174 2365.43,700.23 2366.96,699.286 2368.49,698.343 2370.02,697.399 2371.56,696.456 2373.09,695.512 2374.62,694.568 2376.15,693.625 2377.68,692.681 2379.22,691.737 2380.75,690.794 2382.28,689.85 2383.81,688.907 2385.34,687.963 2386.88,687.019 2388.41,686.076 2389.94,685.132 2391.47,684.189 2393.01,683.245 2394.54,682.301 2396.07,681.358 2397.6,680.414 2399.13,679.47 2400.67,678.527 2402.2,677.583 2403.73,676.64 2405.26,675.696 2406.79,674.752 2408.33,673.809 2409.86,672.865 2411.39,671.921 2412.92,670.978 2414.45,670.034 2415.99,669.091 2417.52,668.147 2419.05,667.203 2420.58,666.26 2422.12,665.316 2423.65,664.372 2425.18,663.429 2426.71,662.485 2428.24,661.542 2429.78,660.598 2431.31,659.654 2432.84,658.711 2434.37,657.767 2435.9,656.824 2437.44,655.88 2438.97,654.936 2440.5,653.993 2442.03,653.049 2443.56,652.105 2445.1,651.162 2446.63,650.218 2448.16,649.275 2449.69,648.331 2451.23,647.387 2452.76,646.444 2454.29,645.5 2455.82,644.556 2457.35,643.613 2458.89,642.669 2460.42,641.726 2461.95,640.782 2463.48,639.838 2465.01,638.895 2466.55,637.951 2468.08,637.008 2469.61,636.064 2471.14,635.12 2472.67,634.177 2474.21,633.233 2475.74,632.289 2477.27,631.346 2478.8,630.402 2480.34,629.459 2481.87,628.515 2483.4,627.571 2484.93,626.628 2486.46,625.684 2488,624.74 2489.53,623.797 2491.06,622.853 2492.59,621.91 2494.12,620.966 2495.66,620.022 2497.19,619.079 2498.72,618.135 2500.25,617.192 2501.78,616.248 2503.32,615.304 2504.85,614.361 2506.38,613.417 2507.91,612.473 2509.44,611.53 2510.98,610.586 2512.51,609.643 2514.04,608.699 2515.57,607.755 2517.11,606.812 2518.64,605.868 2520.17,604.924 2521.7,603.981 2523.23,603.037 2524.77,602.094 2526.3,601.15 2527.83,600.206 2529.36,599.263 2530.89,598.319 2532.43,597.376 2533.96,596.432 2535.49,595.488 2537.02,594.545 2538.55,593.601 2540.09,592.657 2541.62,591.714 2543.15,590.77 2544.68,589.827 2546.22,588.883 2547.75,587.939 2549.28,586.996 2550.81,586.052 2552.34,585.108 2553.88,584.165 2555.41,583.221 2556.94,582.278 2558.47,581.334 2560,580.39 2561.54,579.447 2563.07,578.503 2564.6,577.56 2566.13,576.616 2567.66,575.672 2569.2,574.729 2570.73,573.785 2572.26,572.841 2573.79,571.898 2575.33,570.954 2576.86,570.011 2578.39,569.067 2579.92,568.123 2581.45,567.18 2582.99,566.236 2584.52,565.292 2586.05,564.349 2587.58,563.405 2589.11,562.462 2590.65,561.518 2592.18,560.574 2593.71,559.631 2595.24,558.687 2596.77,557.744 2598.31,556.8 2599.84,555.856 2601.37,554.913 2602.9,553.969 2604.44,553.025 2605.97,552.082 2607.5,551.138 2609.03,550.195 2610.56,549.251 2612.1,548.307 2613.63,547.364 2615.16,546.42 2616.69,545.476 2618.22,544.533 2619.76,543.589 2621.29,542.646 2622.82,541.702 2624.35,540.758 2625.88,539.815 2627.42,538.871 2628.95,537.927 2630.48,536.984 2632.01,536.04 2633.55,535.097 2635.08,534.153 2636.61,533.209 2638.14,532.266 2639.67,531.322 2641.21,530.379 2642.74,529.435 2644.27,528.491 2645.8,527.548 2647.33,526.604 2648.87,525.66 2650.4,524.717 2651.93,523.773 2653.46,522.83 2654.99,521.886 2656.53,520.942 2658.06,519.999 2659.59,519.055 2661.12,518.111 2662.66,517.168 2664.19,516.224 2665.72,515.281 2667.25,514.337 2668.78,513.393 2670.32,512.45 2671.85,511.506 2673.38,510.563 2674.91,509.619 2676.44,508.675 2677.98,507.732 2679.51,506.788 2681.04,505.844 2682.57,504.901 2684.1,503.957 2685.64,503.014 2687.17,502.07 2688.7,501.126 2690.23,500.183 2691.77,499.239 2693.3,498.295 2694.83,497.352 2696.36,496.408 2697.89,495.465 2699.43,494.521 2700.96,493.577 2702.49,492.634 2704.02,491.69 2705.55,490.747 2707.09,489.803 2708.62,488.859 2710.15,487.916 2711.68,486.972 2713.21,486.028 2714.75,485.085 2716.28,484.141 2717.81,483.198 2719.34,482.254 2720.88,481.31 2722.41,480.367 2723.94,479.423 2725.47,478.479 2727,477.536 2728.54,476.592 2730.07,475.649 2731.6,474.705 2733.13,473.761 2734.66,472.818 2736.2,471.874 2737.73,470.931 2739.26,469.987 2740.79,469.043 2742.32,468.1 2743.86,467.156 2745.39,466.212 2746.92,465.269 2748.45,464.325 2749.99,463.382 2751.52,462.438 2753.05,461.494 2754.58,460.551 2756.11,459.607 2757.65,458.663 2759.18,457.72 2760.71,456.776 2762.24,455.833 2763.77,454.889 2765.31,453.945 2766.84,453.002 2768.37,452.058 2769.9,451.115 2771.43,450.171 2772.97,449.227 2774.5,448.284 2776.03,447.34 2777.56,446.396 2779.1,445.453 2780.63,444.509 2782.16,443.566 2783.69,442.622 2785.22,441.678 2786.76,440.735 2788.29,439.791 2789.82,438.847 2791.35,437.904 2792.88,436.96 2794.42,436.017 2795.95,435.073 2797.48,434.129 2799.01,433.186 2800.54,432.242 2802.08,431.298 2803.61,430.355 2805.14,429.411 2806.67,428.468 2808.21,427.524 2809.74,426.58 2811.27,425.637 2812.8,424.693 2814.33,423.75 2815.87,422.806 2817.4,421.862 2818.93,420.919 2820.46,419.975 2821.99,419.031 2823.53,418.088 2825.06,417.144 2826.59,416.201 2828.12,415.257 2829.65,414.313 2831.19,413.37 2832.72,412.426 2834.25,411.482 2835.78,410.539 2837.32,409.595 2838.85,408.652 2840.38,407.708 2841.91,406.764 2843.44,405.821 2844.98,404.877 2846.51,403.934 2848.04,402.99 2849.57,402.046 2851.1,401.103 2852.64,400.159 2854.17,399.215 2855.7,398.272 2857.23,397.328 2858.76,396.385 2860.3,395.441 2861.83,394.497 2863.36,393.554 2864.89,392.61 2866.43,391.666 2867.96,390.723 2869.49,389.779 2871.02,388.836 2872.55,387.892 2874.09,386.948 2875.62,386.005 2877.15,385.061 2878.68,384.118 2880.21,383.174 2881.75,382.23 2883.28,381.287 2884.81,380.343 2886.34,379.399 2887.87,378.456 2889.41,377.512 2890.94,376.569 2892.47,375.625 2894,374.681 2895.54,373.738 2897.07,372.794 2898.6,371.85 2900.13,370.907 2901.66,369.963 2903.2,369.02 2904.73,368.076 2906.26,367.132 2907.79,366.189 2909.32,365.245 2910.86,364.302 2912.39,363.358 2913.92,362.414 2915.45,361.471 2916.98,360.527 2918.52,359.583 2920.05,358.64 2921.58,357.696 2923.11,356.753 2924.65,355.809 2926.18,354.865 2927.71,353.922 2929.24,352.978 2930.77,352.034 2932.31,351.091 2933.84,350.147 2935.37,349.204 2936.9,348.26 2938.43,347.316 2939.97,346.373 2941.5,345.429 2943.03,344.486 2944.56,343.542 2946.09,342.598 2947.63,341.655 2949.16,340.711 2950.69,339.767 2952.22,338.824 2953.75,337.88 2955.29,336.937 2956.82,335.993 2958.35,335.049 2959.88,334.106 2961.42,333.162 2962.95,332.218 2964.48,331.275 2966.01,330.331 2967.54,329.388 2969.08,328.444 2970.61,327.5 2972.14,326.557 2973.67,325.613 2975.2,324.669 2976.74,323.726 2978.27,322.782 2979.8,321.839 2981.33,320.895 2982.86,319.951 2984.4,319.008 2985.93,318.064 2987.46,317.121 2988.99,316.177 2990.53,315.233 2992.06,314.29 2993.59,313.346 2995.12,312.402 2996.65,311.459 2998.19,310.515 2999.72,309.572 3001.25,308.628 3002.78,307.684 3004.31,306.741 3005.85,305.797 3007.38,304.853 3008.91,303.91 3010.44,302.966 3011.97,302.023 3013.51,301.079 3015.04,300.135 3016.57,299.192 3018.1,298.248 3019.64,297.305 3021.17,296.361 3022.7,295.417 3024.23,294.474 3025.76,293.53 3027.3,292.586 3028.83,291.643 3030.36,290.699 3031.89,289.756 3033.42,288.812 3034.96,287.868 3036.49,286.925 3038.02,285.981 3039.55,285.037 3041.08,284.094 3042.62,283.15 3044.15,282.207 3045.68,281.263 3047.21,280.319 3048.75,279.376 3050.28,278.432 3051.81,277.489 3053.34,276.545 3054.87,275.601 3056.41,274.658 3057.94,273.714 3059.47,272.77 3061,271.827 3062.53,270.883 3064.07,269.94 3065.6,268.996 3067.13,268.052 3068.66,267.109 3070.19,266.165 3071.73,265.221 3073.26,264.278 3074.79,263.334 3076.32,262.391 3077.86,261.447 3079.39,260.503 3080.92,259.56 3082.45,258.616 3083.98,257.673 3085.52,256.729 3087.05,255.785 3088.58,254.842 3090.11,253.898 3091.64,252.954 3093.18,252.011 3094.71,251.067 3096.24,250.124 3097.77,249.18 3099.3,248.236 3100.84,247.293 3102.37,246.349 3103.9,245.405 3105.43,244.462 3106.97,243.518 3108.5,242.575 3110.03,241.631 3111.56,240.687 3113.09,239.744 3114.63,238.8 3116.16,237.857 3117.69,236.913 3119.22,235.969 3120.75,235.026 3122.29,234.082 3123.82,233.138 3125.35,232.195 3126.88,231.251 3128.41,230.308 3129.95,229.364 3131.48,228.42 3133.01,227.477 3134.54,226.533 3136.08,225.589 3137.61,224.646 3139.14,223.702 3140.67,222.759 3142.2,221.815 3143.74,220.871 3145.27,219.928 3146.8,218.984 3148.33,218.041 3149.86,217.097 3151.4,216.153 3152.93,215.21 3154.46,214.266 3155.99,213.322 3157.52,212.379 3159.06,211.435 3160.59,210.492 3162.12,209.548 3163.65,208.604 3165.19,207.661 3166.72,206.717 3168.25,205.773 3169.78,204.83 3171.31,203.886 3172.85,202.943 3174.38,201.999 3175.91,201.055 3177.44,200.112 3178.97,199.168 3180.51,198.224 3182.04,197.281 3183.57,196.337 3185.1,195.394 3186.63,194.45 3188.17,193.506 3189.7,192.563 3191.23,191.619 3192.76,190.676 3194.3,189.732 3195.83,188.788 3197.36,187.845 3198.89,186.901 3200.42,185.957 3201.96,185.014 3203.49,184.07 3205.02,183.127 3206.55,182.183 3208.08,181.239 3209.62,180.296 3211.15,179.352 3212.68,178.408 3214.21,177.465 3215.74,176.521 3217.28,175.578 3218.81,174.634 3220.34,173.69 3221.87,172.747 "/>
<path clip-path="url(#clip460)" d="M279.551 332.033 L959.092 332.033 L959.092 176.513 L279.551 176.513  Z" fill="#ffffff" fill-rule="evenodd" fill-opacity="1"/>
<polyline clip-path="url(#clip460)" style="stroke:#000000; stroke-linecap:round; stroke-linejoin:round; stroke-width:4; stroke-opacity:1; fill:none" points="279.551,332.033 959.092,332.033 959.092,176.513 279.551,176.513 279.551,332.033 "/>
<polyline clip-path="url(#clip460)" style="stroke:#009af9; stroke-linecap:round; stroke-linejoin:round; stroke-width:4; stroke-opacity:1; fill:none" points="312.577,228.353 510.729,228.353 "/>
<path clip-path="url(#clip460)" d="M543.754 211.073 L550.722 211.073 L559.541 234.591 L568.407 211.073 L575.374 211.073 L575.374 245.633 L570.814 245.633 L570.814 215.286 L561.902 238.989 L557.203 238.989 L548.291 215.286 L548.291 245.633 L543.754 245.633 L543.754 211.073 Z" fill="#000000" fill-rule="nonzero" fill-opacity="1" /><path clip-path="url(#clip460)" d="M606.647 231.605 L606.647 233.688 L587.064 233.688 Q587.342 238.086 589.703 240.401 Q592.087 242.693 596.323 242.693 Q598.777 242.693 601.068 242.091 Q603.383 241.489 605.652 240.286 L605.652 244.313 Q603.36 245.285 600.953 245.795 Q598.545 246.304 596.068 246.304 Q589.865 246.304 586.231 242.693 Q582.619 239.082 582.619 232.924 Q582.619 226.559 586.045 222.832 Q589.494 219.082 595.328 219.082 Q600.559 219.082 603.592 222.462 Q606.647 225.818 606.647 231.605 M602.388 230.355 Q602.342 226.86 600.42 224.776 Q598.522 222.693 595.374 222.693 Q591.809 222.693 589.656 224.707 Q587.527 226.721 587.203 230.378 L602.388 230.355 Z" fill="#000000" fill-rule="nonzero" fill-opacity="1" /><path clip-path="url(#clip460)" d="M625.42 232.6 Q620.258 232.6 618.267 233.781 Q616.277 234.961 616.277 237.809 Q616.277 240.077 617.758 241.42 Q619.263 242.739 621.832 242.739 Q625.374 242.739 627.504 240.239 Q629.656 237.716 629.656 233.549 L629.656 232.6 L625.42 232.6 M633.916 230.841 L633.916 245.633 L629.656 245.633 L629.656 241.698 Q628.198 244.059 626.022 245.193 Q623.846 246.304 620.698 246.304 Q616.717 246.304 614.355 244.082 Q612.017 241.836 612.017 238.086 Q612.017 233.711 614.934 231.489 Q617.874 229.267 623.684 229.267 L629.656 229.267 L629.656 228.85 Q629.656 225.911 627.712 224.313 Q625.791 222.693 622.295 222.693 Q620.073 222.693 617.967 223.225 Q615.86 223.758 613.916 224.823 L613.916 220.887 Q616.254 219.985 618.453 219.545 Q620.652 219.082 622.735 219.082 Q628.36 219.082 631.138 221.999 Q633.916 224.915 633.916 230.841 Z" fill="#000000" fill-rule="nonzero" fill-opacity="1" /><path clip-path="url(#clip460)" d="M659.216 220.471 L659.216 224.499 Q657.411 223.573 655.466 223.11 Q653.522 222.647 651.439 222.647 Q648.267 222.647 646.67 223.619 Q645.096 224.591 645.096 226.536 Q645.096 228.017 646.23 228.874 Q647.365 229.707 650.79 230.471 L652.249 230.795 Q656.786 231.767 658.684 233.549 Q660.605 235.309 660.605 238.48 Q660.605 242.091 657.735 244.198 Q654.888 246.304 649.888 246.304 Q647.804 246.304 645.536 245.887 Q643.29 245.494 640.79 244.684 L640.79 240.286 Q643.152 241.512 645.443 242.137 Q647.735 242.739 649.98 242.739 Q652.989 242.739 654.61 241.721 Q656.23 240.679 656.23 238.804 Q656.23 237.068 655.05 236.142 Q653.892 235.216 649.934 234.36 L648.452 234.012 Q644.494 233.179 642.735 231.466 Q640.976 229.73 640.976 226.721 Q640.976 223.063 643.568 221.073 Q646.161 219.082 650.929 219.082 Q653.29 219.082 655.374 219.429 Q657.457 219.776 659.216 220.471 Z" fill="#000000" fill-rule="nonzero" fill-opacity="1" /><path clip-path="url(#clip460)" d="M666.948 235.401 L666.948 219.707 L671.207 219.707 L671.207 235.239 Q671.207 238.92 672.642 240.772 Q674.077 242.6 676.948 242.6 Q680.397 242.6 682.387 240.401 Q684.401 238.202 684.401 234.406 L684.401 219.707 L688.661 219.707 L688.661 245.633 L684.401 245.633 L684.401 241.651 Q682.85 244.012 680.79 245.17 Q678.753 246.304 676.045 246.304 Q671.577 246.304 669.263 243.526 Q666.948 240.748 666.948 235.401 M677.665 219.082 L677.665 219.082 Z" fill="#000000" fill-rule="nonzero" fill-opacity="1" /><path clip-path="url(#clip460)" d="M712.457 223.688 Q711.739 223.272 710.883 223.087 Q710.049 222.878 709.031 222.878 Q705.42 222.878 703.475 225.239 Q701.554 227.577 701.554 231.975 L701.554 245.633 L697.272 245.633 L697.272 219.707 L701.554 219.707 L701.554 223.735 Q702.897 221.374 705.049 220.239 Q707.202 219.082 710.281 219.082 Q710.721 219.082 711.253 219.151 Q711.785 219.198 712.434 219.313 L712.457 223.688 Z" fill="#000000" fill-rule="nonzero" fill-opacity="1" /><path clip-path="url(#clip460)" d="M738.058 231.605 L738.058 233.688 L718.475 233.688 Q718.753 238.086 721.114 240.401 Q723.498 242.693 727.734 242.693 Q730.188 242.693 732.48 242.091 Q734.795 241.489 737.063 240.286 L737.063 244.313 Q734.771 245.285 732.364 245.795 Q729.957 246.304 727.48 246.304 Q721.276 246.304 717.642 242.693 Q714.031 239.082 714.031 232.924 Q714.031 226.559 717.457 222.832 Q720.906 219.082 726.739 219.082 Q731.971 219.082 735.003 222.462 Q738.058 225.818 738.058 231.605 M733.799 230.355 Q733.753 226.86 731.832 224.776 Q729.934 222.693 726.785 222.693 Q723.221 222.693 721.068 224.707 Q718.938 226.721 718.614 230.378 L733.799 230.355 Z" fill="#000000" fill-rule="nonzero" fill-opacity="1" /><path clip-path="url(#clip460)" d="M762.109 223.642 L762.109 209.614 L766.369 209.614 L766.369 245.633 L762.109 245.633 L762.109 241.744 Q760.767 244.059 758.707 245.193 Q756.669 246.304 753.799 246.304 Q749.1 246.304 746.137 242.554 Q743.197 238.804 743.197 232.693 Q743.197 226.582 746.137 222.832 Q749.1 219.082 753.799 219.082 Q756.669 219.082 758.707 220.216 Q760.767 221.327 762.109 223.642 M747.595 232.693 Q747.595 237.392 749.517 240.077 Q751.461 242.739 754.841 242.739 Q758.22 242.739 760.165 240.077 Q762.109 237.392 762.109 232.693 Q762.109 227.994 760.165 225.332 Q758.22 222.647 754.841 222.647 Q751.461 222.647 749.517 225.332 Q747.595 227.994 747.595 232.693 Z" fill="#000000" fill-rule="nonzero" fill-opacity="1" /><path clip-path="url(#clip460)" d="M794.424 212.346 L794.424 219.707 L803.197 219.707 L803.197 223.017 L794.424 223.017 L794.424 237.091 Q794.424 240.262 795.28 241.165 Q796.16 242.068 798.822 242.068 L803.197 242.068 L803.197 245.633 L798.822 245.633 Q793.892 245.633 792.017 243.804 Q790.142 241.952 790.142 237.091 L790.142 223.017 L787.017 223.017 L787.017 219.707 L790.142 219.707 L790.142 212.346 L794.424 212.346 Z" fill="#000000" fill-rule="nonzero" fill-opacity="1" /><path clip-path="url(#clip460)" d="M830.35 229.985 L830.35 245.633 L826.09 245.633 L826.09 230.124 Q826.09 226.443 824.655 224.614 Q823.22 222.786 820.35 222.786 Q816.901 222.786 814.91 224.985 Q812.919 227.184 812.919 230.98 L812.919 245.633 L808.637 245.633 L808.637 209.614 L812.919 209.614 L812.919 223.735 Q814.447 221.397 816.507 220.239 Q818.59 219.082 821.299 219.082 Q825.766 219.082 828.058 221.86 Q830.35 224.614 830.35 229.985 Z" fill="#000000" fill-rule="nonzero" fill-opacity="1" /><path clip-path="url(#clip460)" d="M853.868 223.688 Q853.15 223.272 852.294 223.087 Q851.461 222.878 850.442 222.878 Q846.831 222.878 844.887 225.239 Q842.965 227.577 842.965 231.975 L842.965 245.633 L838.683 245.633 L838.683 219.707 L842.965 219.707 L842.965 223.735 Q844.308 221.374 846.461 220.239 Q848.613 219.082 851.692 219.082 Q852.132 219.082 852.664 219.151 Q853.197 219.198 853.845 219.313 L853.868 223.688 Z" fill="#000000" fill-rule="nonzero" fill-opacity="1" /><path clip-path="url(#clip460)" d="M857.896 235.401 L857.896 219.707 L862.155 219.707 L862.155 235.239 Q862.155 238.92 863.59 240.772 Q865.025 242.6 867.896 242.6 Q871.345 242.6 873.336 240.401 Q875.349 238.202 875.349 234.406 L875.349 219.707 L879.609 219.707 L879.609 245.633 L875.349 245.633 L875.349 241.651 Q873.798 244.012 871.738 245.17 Q869.701 246.304 866.993 246.304 Q862.525 246.304 860.211 243.526 Q857.896 240.748 857.896 235.401 M868.613 219.082 L868.613 219.082 Z" fill="#000000" fill-rule="nonzero" fill-opacity="1" /><path clip-path="url(#clip460)" d="M904.909 220.471 L904.909 224.499 Q903.104 223.573 901.159 223.11 Q899.215 222.647 897.132 222.647 Q893.96 222.647 892.363 223.619 Q890.789 224.591 890.789 226.536 Q890.789 228.017 891.923 228.874 Q893.058 229.707 896.484 230.471 L897.942 230.795 Q902.479 231.767 904.377 233.549 Q906.298 235.309 906.298 238.48 Q906.298 242.091 903.428 244.198 Q900.581 246.304 895.581 246.304 Q893.497 246.304 891.229 245.887 Q888.984 245.494 886.484 244.684 L886.484 240.286 Q888.845 241.512 891.136 242.137 Q893.428 242.739 895.673 242.739 Q898.683 242.739 900.303 241.721 Q901.923 240.679 901.923 238.804 Q901.923 237.068 900.743 236.142 Q899.585 235.216 895.627 234.36 L894.146 234.012 Q890.187 233.179 888.428 231.466 Q886.669 229.73 886.669 226.721 Q886.669 223.063 889.261 221.073 Q891.854 219.082 896.622 219.082 Q898.984 219.082 901.067 219.429 Q903.15 219.776 904.909 220.471 Z" fill="#000000" fill-rule="nonzero" fill-opacity="1" /><path clip-path="url(#clip460)" d="M917.294 212.346 L917.294 219.707 L926.067 219.707 L926.067 223.017 L917.294 223.017 L917.294 237.091 Q917.294 240.262 918.15 241.165 Q919.03 242.068 921.692 242.068 L926.067 242.068 L926.067 245.633 L921.692 245.633 Q916.761 245.633 914.886 243.804 Q913.011 241.952 913.011 237.091 L913.011 223.017 L909.886 223.017 L909.886 219.707 L913.011 219.707 L913.011 212.346 L917.294 212.346 Z" fill="#000000" fill-rule="nonzero" fill-opacity="1" /><polyline clip-path="url(#clip460)" style="stroke:#e26f46; stroke-linecap:round; stroke-linejoin:round; stroke-width:20; stroke-opacity:1; fill:none" points="312.577,280.193 510.729,280.193 "/>
<path clip-path="url(#clip460)" d="M543.754 262.913 L548.43 262.913 L548.43 293.538 L565.258 293.538 L565.258 297.473 L543.754 297.473 L543.754 262.913 Z" fill="#000000" fill-rule="nonzero" fill-opacity="1" /><path clip-path="url(#clip460)" d="M569.981 271.547 L574.24 271.547 L574.24 297.473 L569.981 297.473 L569.981 271.547 M569.981 261.454 L574.24 261.454 L574.24 266.848 L569.981 266.848 L569.981 261.454 Z" fill="#000000" fill-rule="nonzero" fill-opacity="1" /><path clip-path="url(#clip460)" d="M604.703 281.825 L604.703 297.473 L600.443 297.473 L600.443 281.964 Q600.443 278.283 599.008 276.454 Q597.573 274.626 594.703 274.626 Q591.254 274.626 589.263 276.825 Q587.272 279.024 587.272 282.82 L587.272 297.473 L582.99 297.473 L582.99 271.547 L587.272 271.547 L587.272 275.575 Q588.8 273.237 590.86 272.079 Q592.944 270.922 595.652 270.922 Q600.119 270.922 602.411 273.7 Q604.703 276.454 604.703 281.825 Z" fill="#000000" fill-rule="nonzero" fill-opacity="1" /><path clip-path="url(#clip460)" d="M635.374 283.445 L635.374 285.528 L615.791 285.528 Q616.068 289.926 618.429 292.241 Q620.814 294.533 625.05 294.533 Q627.504 294.533 629.795 293.931 Q632.11 293.329 634.378 292.126 L634.378 296.153 Q632.087 297.125 629.679 297.635 Q627.272 298.144 624.795 298.144 Q618.592 298.144 614.957 294.533 Q611.346 290.922 611.346 284.764 Q611.346 278.399 614.772 274.672 Q618.221 270.922 624.054 270.922 Q629.286 270.922 632.318 274.302 Q635.374 277.658 635.374 283.445 M631.115 282.195 Q631.068 278.7 629.147 276.616 Q627.249 274.533 624.101 274.533 Q620.536 274.533 618.383 276.547 Q616.254 278.561 615.929 282.218 L631.115 282.195 Z" fill="#000000" fill-rule="nonzero" fill-opacity="1" /><path clip-path="url(#clip460)" d="M654.147 284.44 Q648.985 284.44 646.994 285.621 Q645.003 286.801 645.003 289.649 Q645.003 291.917 646.485 293.26 Q647.99 294.579 650.559 294.579 Q654.101 294.579 656.23 292.079 Q658.383 289.556 658.383 285.389 L658.383 284.44 L654.147 284.44 M662.642 282.681 L662.642 297.473 L658.383 297.473 L658.383 293.538 Q656.925 295.899 654.749 297.033 Q652.573 298.144 649.425 298.144 Q645.443 298.144 643.082 295.922 Q640.744 293.676 640.744 289.926 Q640.744 285.551 643.661 283.329 Q646.601 281.107 652.411 281.107 L658.383 281.107 L658.383 280.69 Q658.383 277.751 656.439 276.153 Q654.517 274.533 651.022 274.533 Q648.8 274.533 646.693 275.065 Q644.587 275.598 642.642 276.663 L642.642 272.727 Q644.98 271.825 647.179 271.385 Q649.378 270.922 651.462 270.922 Q657.087 270.922 659.864 273.839 Q662.642 276.755 662.642 282.681 Z" fill="#000000" fill-rule="nonzero" fill-opacity="1" /><path clip-path="url(#clip460)" d="M686.438 275.528 Q685.721 275.112 684.864 274.927 Q684.031 274.718 683.012 274.718 Q679.401 274.718 677.457 277.079 Q675.536 279.417 675.536 283.815 L675.536 297.473 L671.253 297.473 L671.253 271.547 L675.536 271.547 L675.536 275.575 Q676.878 273.214 679.031 272.079 Q681.184 270.922 684.262 270.922 Q684.702 270.922 685.235 270.991 Q685.767 271.038 686.415 271.153 L686.438 275.528 Z" fill="#000000" fill-rule="nonzero" fill-opacity="1" /><path clip-path="url(#clip460)" d="M719.1 261.454 L719.1 264.996 L715.026 264.996 Q712.735 264.996 711.832 265.922 Q710.952 266.848 710.952 269.255 L710.952 271.547 L717.966 271.547 L717.966 274.857 L710.952 274.857 L710.952 297.473 L706.67 297.473 L706.67 274.857 L702.596 274.857 L702.596 271.547 L706.67 271.547 L706.67 269.741 Q706.67 265.413 708.684 263.445 Q710.698 261.454 715.072 261.454 L719.1 261.454 Z" fill="#000000" fill-rule="nonzero" fill-opacity="1" /><path clip-path="url(#clip460)" d="M722.665 271.547 L726.924 271.547 L726.924 297.473 L722.665 297.473 L722.665 271.547 M722.665 261.454 L726.924 261.454 L726.924 266.848 L722.665 266.848 L722.665 261.454 Z" fill="#000000" fill-rule="nonzero" fill-opacity="1" /><path clip-path="url(#clip460)" d="M740.049 264.186 L740.049 271.547 L748.822 271.547 L748.822 274.857 L740.049 274.857 L740.049 288.931 Q740.049 292.102 740.906 293.005 Q741.785 293.908 744.447 293.908 L748.822 293.908 L748.822 297.473 L744.447 297.473 Q739.517 297.473 737.642 295.644 Q735.767 293.792 735.767 288.931 L735.767 274.857 L732.642 274.857 L732.642 271.547 L735.767 271.547 L735.767 264.186 L740.049 264.186 Z" fill="#000000" fill-rule="nonzero" fill-opacity="1" /></svg>
