<?xml version="1.0" encoding="utf-8"?>
<svg xmlns="http://www.w3.org/2000/svg" xmlns:xlink="http://www.w3.org/1999/xlink" width="800" height="500" viewBox="0 0 3200 2000">
<defs>
  <clipPath id="clip990">
    <rect x="0" y="0" width="3200" height="2000"/>
  </clipPath>
</defs>
<path clip-path="url(#clip990)" d="M0 2000 L3200 2000 L3200 0 L0 0  Z" fill="#ffffff" fill-rule="evenodd" fill-opacity="1"/>
<defs>
  <clipPath id="clip991">
    <rect x="640" y="0" width="2241" height="2000"/>
  </clipPath>
</defs>
<path clip-path="url(#clip990)" d="M254.572 1824.31 L3152.76 1824.31 L3152.76 119.692 L254.572 119.692  Z" fill="#ffffff" fill-rule="evenodd" fill-opacity="1"/>
<defs>
  <clipPath id="clip992">
    <rect x="254" y="119" width="2899" height="1706"/>
  </clipPath>
</defs>
<polyline clip-path="url(#clip992)" style="stroke:#000000; stroke-linecap:round; stroke-linejoin:round; stroke-width:2; stroke-opacity:0.1; fill:none" points="254.572,1824.31 254.572,119.692 "/>
<polyline clip-path="url(#clip992)" style="stroke:#000000; stroke-linecap:round; stroke-linejoin:round; stroke-width:2; stroke-opacity:0.1; fill:none" points="1220.63,1824.31 1220.63,119.692 "/>
<polyline clip-path="url(#clip992)" style="stroke:#000000; stroke-linecap:round; stroke-linejoin:round; stroke-width:2; stroke-opacity:0.1; fill:none" points="2186.69,1824.31 2186.69,119.692 "/>
<polyline clip-path="url(#clip992)" style="stroke:#000000; stroke-linecap:round; stroke-linejoin:round; stroke-width:2; stroke-opacity:0.1; fill:none" points="3152.76,1824.31 3152.76,119.692 "/>
<polyline clip-path="url(#clip990)" style="stroke:#000000; stroke-linecap:round; stroke-linejoin:round; stroke-width:4; stroke-opacity:1; fill:none" points="254.572,1824.31 3152.76,1824.31 "/>
<polyline clip-path="url(#clip990)" style="stroke:#000000; stroke-linecap:round; stroke-linejoin:round; stroke-width:4; stroke-opacity:1; fill:none" points="254.572,1824.31 254.572,1805.41 "/>
<polyline clip-path="url(#clip990)" style="stroke:#000000; stroke-linecap:round; stroke-linejoin:round; stroke-width:4; stroke-opacity:1; fill:none" points="1220.63,1824.31 1220.63,1805.41 "/>
<polyline clip-path="url(#clip990)" style="stroke:#000000; stroke-linecap:round; stroke-linejoin:round; stroke-width:4; stroke-opacity:1; fill:none" points="2186.69,1824.31 2186.69,1805.41 "/>
<polyline clip-path="url(#clip990)" style="stroke:#000000; stroke-linecap:round; stroke-linejoin:round; stroke-width:4; stroke-opacity:1; fill:none" points="3152.76,1824.31 3152.76,1805.41 "/>
<path clip-path="url(#clip990)" d="M201.598 1876.28 L231.274 1876.28 L231.274 1880.22 L201.598 1880.22 L201.598 1876.28 Z" fill="#000000" fill-rule="nonzero" fill-opacity="1" /><path clip-path="url(#clip990)" d="M251.366 1861.63 Q247.755 1861.63 245.926 1865.19 Q244.121 1868.73 244.121 1875.86 Q244.121 1882.97 245.926 1886.54 Q247.755 1890.08 251.366 1890.08 Q255 1890.08 256.806 1886.54 Q258.635 1882.97 258.635 1875.86 Q258.635 1868.73 256.806 1865.19 Q255 1861.63 251.366 1861.63 M251.366 1857.92 Q257.176 1857.92 260.232 1862.53 Q263.31 1867.11 263.31 1875.86 Q263.31 1884.59 260.232 1889.2 Q257.176 1893.78 251.366 1893.78 Q245.556 1893.78 242.477 1889.2 Q239.422 1884.59 239.422 1875.86 Q239.422 1867.11 242.477 1862.53 Q245.556 1857.92 251.366 1857.92 Z" fill="#000000" fill-rule="nonzero" fill-opacity="1" /><path clip-path="url(#clip990)" d="M271.528 1887.23 L276.412 1887.23 L276.412 1893.11 L271.528 1893.11 L271.528 1887.23 Z" fill="#000000" fill-rule="nonzero" fill-opacity="1" /><path clip-path="url(#clip990)" d="M286.644 1858.55 L305 1858.55 L305 1862.49 L290.926 1862.49 L290.926 1870.96 Q291.945 1870.61 292.963 1870.45 Q293.982 1870.26 295 1870.26 Q300.787 1870.26 304.167 1873.43 Q307.546 1876.61 307.546 1882.02 Q307.546 1887.6 304.074 1890.7 Q300.602 1893.78 294.282 1893.78 Q292.107 1893.78 289.838 1893.41 Q287.593 1893.04 285.185 1892.3 L285.185 1887.6 Q287.269 1888.73 289.491 1889.29 Q291.713 1889.85 294.19 1889.85 Q298.194 1889.85 300.532 1887.74 Q302.87 1885.63 302.87 1882.02 Q302.87 1878.41 300.532 1876.3 Q298.194 1874.2 294.19 1874.2 Q292.315 1874.2 290.44 1874.61 Q288.588 1875.03 286.644 1875.91 L286.644 1858.55 Z" fill="#000000" fill-rule="nonzero" fill-opacity="1" /><path clip-path="url(#clip990)" d="M1198.02 1861.63 Q1194.41 1861.63 1192.58 1865.19 Q1190.77 1868.73 1190.77 1875.86 Q1190.77 1882.97 1192.58 1886.54 Q1194.41 1890.08 1198.02 1890.08 Q1201.65 1890.08 1203.46 1886.54 Q1205.29 1882.97 1205.29 1875.86 Q1205.29 1868.73 1203.46 1865.19 Q1201.65 1861.63 1198.02 1861.63 M1198.02 1857.92 Q1203.83 1857.92 1206.88 1862.53 Q1209.96 1867.11 1209.96 1875.86 Q1209.96 1884.59 1206.88 1889.2 Q1203.83 1893.78 1198.02 1893.78 Q1192.21 1893.78 1189.13 1889.2 Q1186.07 1884.59 1186.07 1875.86 Q1186.07 1867.11 1189.13 1862.53 Q1192.21 1857.92 1198.02 1857.92 Z" fill="#000000" fill-rule="nonzero" fill-opacity="1" /><path clip-path="url(#clip990)" d="M1218.18 1887.23 L1223.06 1887.23 L1223.06 1893.11 L1218.18 1893.11 L1218.18 1887.23 Z" fill="#000000" fill-rule="nonzero" fill-opacity="1" /><path clip-path="url(#clip990)" d="M1243.25 1861.63 Q1239.64 1861.63 1237.81 1865.19 Q1236 1868.73 1236 1875.86 Q1236 1882.97 1237.81 1886.54 Q1239.64 1890.08 1243.25 1890.08 Q1246.88 1890.08 1248.69 1886.54 Q1250.52 1882.97 1250.52 1875.86 Q1250.52 1868.73 1248.69 1865.19 Q1246.88 1861.63 1243.25 1861.63 M1243.25 1857.92 Q1249.06 1857.92 1252.11 1862.53 Q1255.19 1867.11 1255.19 1875.86 Q1255.19 1884.59 1252.11 1889.2 Q1249.06 1893.78 1243.25 1893.78 Q1237.44 1893.78 1234.36 1889.2 Q1231.3 1884.59 1231.3 1875.86 Q1231.3 1867.11 1234.36 1862.53 Q1237.44 1857.92 1243.25 1857.92 Z" fill="#000000" fill-rule="nonzero" fill-opacity="1" /><path clip-path="url(#clip990)" d="M2164.58 1861.63 Q2160.97 1861.63 2159.14 1865.19 Q2157.33 1868.73 2157.33 1875.86 Q2157.33 1882.97 2159.14 1886.54 Q2160.97 1890.08 2164.58 1890.08 Q2168.21 1890.08 2170.02 1886.54 Q2171.85 1882.97 2171.85 1875.86 Q2171.85 1868.73 2170.02 1865.19 Q2168.21 1861.63 2164.58 1861.63 M2164.58 1857.92 Q2170.39 1857.92 2173.44 1862.53 Q2176.52 1867.11 2176.52 1875.86 Q2176.52 1884.59 2173.44 1889.2 Q2170.39 1893.78 2164.58 1893.78 Q2158.77 1893.78 2155.69 1889.2 Q2152.63 1884.59 2152.63 1875.86 Q2152.63 1867.11 2155.69 1862.53 Q2158.77 1857.92 2164.58 1857.92 Z" fill="#000000" fill-rule="nonzero" fill-opacity="1" /><path clip-path="url(#clip990)" d="M2184.74 1887.23 L2189.62 1887.23 L2189.62 1893.11 L2184.74 1893.11 L2184.74 1887.23 Z" fill="#000000" fill-rule="nonzero" fill-opacity="1" /><path clip-path="url(#clip990)" d="M2199.85 1858.55 L2218.21 1858.55 L2218.21 1862.49 L2204.14 1862.49 L2204.14 1870.96 Q2205.16 1870.61 2206.17 1870.45 Q2207.19 1870.26 2208.21 1870.26 Q2214 1870.26 2217.38 1873.43 Q2220.76 1876.61 2220.76 1882.02 Q2220.76 1887.6 2217.28 1890.7 Q2213.81 1893.78 2207.49 1893.78 Q2205.32 1893.78 2203.05 1893.41 Q2200.8 1893.04 2198.4 1892.3 L2198.4 1887.6 Q2200.48 1888.73 2202.7 1889.29 Q2204.92 1889.85 2207.4 1889.85 Q2211.41 1889.85 2213.74 1887.74 Q2216.08 1885.63 2216.08 1882.02 Q2216.08 1878.41 2213.74 1876.3 Q2211.41 1874.2 2207.4 1874.2 Q2205.53 1874.2 2203.65 1874.61 Q2201.8 1875.03 2199.85 1875.91 L2199.85 1858.55 Z" fill="#000000" fill-rule="nonzero" fill-opacity="1" /><path clip-path="url(#clip990)" d="M3119.91 1889.17 L3127.55 1889.17 L3127.55 1862.81 L3119.24 1864.48 L3119.24 1860.22 L3127.5 1858.55 L3132.18 1858.55 L3132.18 1889.17 L3139.82 1889.17 L3139.82 1893.11 L3119.91 1893.11 L3119.91 1889.17 Z" fill="#000000" fill-rule="nonzero" fill-opacity="1" /><path clip-path="url(#clip990)" d="M3149.26 1887.23 L3154.14 1887.23 L3154.14 1893.11 L3149.26 1893.11 L3149.26 1887.23 Z" fill="#000000" fill-rule="nonzero" fill-opacity="1" /><path clip-path="url(#clip990)" d="M3174.33 1861.63 Q3170.72 1861.63 3168.89 1865.19 Q3167.08 1868.73 3167.08 1875.86 Q3167.08 1882.97 3168.89 1886.54 Q3170.72 1890.08 3174.33 1890.08 Q3177.96 1890.08 3179.77 1886.54 Q3181.6 1882.97 3181.6 1875.86 Q3181.6 1868.73 3179.77 1865.19 Q3177.96 1861.63 3174.33 1861.63 M3174.33 1857.92 Q3180.14 1857.92 3183.2 1862.53 Q3186.27 1867.11 3186.27 1875.86 Q3186.27 1884.59 3183.2 1889.2 Q3180.14 1893.78 3174.33 1893.78 Q3168.52 1893.78 3165.44 1889.2 Q3162.39 1884.59 3162.39 1875.86 Q3162.39 1867.11 3165.44 1862.53 Q3168.52 1857.92 3174.33 1857.92 Z" fill="#000000" fill-rule="nonzero" fill-opacity="1" /><path clip-path="url(#clip990)" d="M1573.84 1933.65 L1614.03 1933.65 L1614.03 1939.06 L1597.17 1939.06 L1597.17 1981.17 L1590.7 1981.17 L1590.7 1939.06 L1573.84 1939.06 L1573.84 1933.65 Z" fill="#000000" fill-rule="nonzero" fill-opacity="1" /><path clip-path="url(#clip990)" d="M1617.98 1945.53 L1623.84 1945.53 L1623.84 1981.17 L1617.98 1981.17 L1617.98 1945.53 M1617.98 1931.65 L1623.84 1931.65 L1623.84 1939.06 L1617.98 1939.06 L1617.98 1931.65 Z" fill="#000000" fill-rule="nonzero" fill-opacity="1" /><path clip-path="url(#clip990)" d="M1663.85 1952.37 Q1666.04 1948.42 1669.1 1946.54 Q1672.15 1944.67 1676.29 1944.67 Q1681.86 1944.67 1684.89 1948.58 Q1687.91 1952.46 1687.91 1959.66 L1687.91 1981.17 L1682.02 1981.17 L1682.02 1959.85 Q1682.02 1954.72 1680.21 1952.24 Q1678.39 1949.76 1674.67 1949.76 Q1670.12 1949.76 1667.47 1952.78 Q1664.83 1955.81 1664.83 1961.03 L1664.83 1981.17 L1658.94 1981.17 L1658.94 1959.85 Q1658.94 1954.69 1657.13 1952.24 Q1655.32 1949.76 1651.53 1949.76 Q1647.04 1949.76 1644.4 1952.81 Q1641.76 1955.84 1641.76 1961.03 L1641.76 1981.17 L1635.87 1981.17 L1635.87 1945.53 L1641.76 1945.53 L1641.76 1951.06 Q1643.76 1947.79 1646.56 1946.23 Q1649.36 1944.67 1653.22 1944.67 Q1657.1 1944.67 1659.8 1946.64 Q1662.54 1948.61 1663.85 1952.37 Z" fill="#000000" fill-rule="nonzero" fill-opacity="1" /><path clip-path="url(#clip990)" d="M1730.08 1961.89 L1730.08 1964.75 L1703.15 1964.75 Q1703.54 1970.8 1706.78 1973.98 Q1710.06 1977.13 1715.89 1977.13 Q1719.26 1977.13 1722.41 1976.3 Q1725.59 1975.48 1728.71 1973.82 L1728.71 1979.36 Q1725.56 1980.7 1722.25 1981.4 Q1718.94 1982.1 1715.54 1982.1 Q1707.01 1982.1 1702.01 1977.13 Q1697.04 1972.17 1697.04 1963.7 Q1697.04 1954.95 1701.75 1949.82 Q1706.5 1944.67 1714.52 1944.67 Q1721.71 1944.67 1725.88 1949.31 Q1730.08 1953.93 1730.08 1961.89 M1724.23 1960.17 Q1724.16 1955.36 1721.52 1952.5 Q1718.91 1949.63 1714.58 1949.63 Q1709.68 1949.63 1706.72 1952.4 Q1703.79 1955.17 1703.35 1960.2 L1724.23 1960.17 Z" fill="#000000" fill-rule="nonzero" fill-opacity="1" /><path clip-path="url(#clip990)" d="M1759.87 1931.65 L1773.37 1931.65 L1773.37 1936.2 L1765.73 1936.2 L1765.73 1985.22 L1773.37 1985.22 L1773.37 1989.77 L1759.87 1989.77 L1759.87 1931.65 Z" fill="#000000" fill-rule="nonzero" fill-opacity="1" /><path clip-path="url(#clip990)" d="M1808.57 1946.58 L1808.57 1952.11 Q1806.09 1950.84 1803.41 1950.2 Q1800.74 1949.57 1797.88 1949.57 Q1793.52 1949.57 1791.32 1950.9 Q1789.16 1952.24 1789.16 1954.92 Q1789.16 1956.95 1790.72 1958.13 Q1792.27 1959.28 1796.99 1960.33 L1798.99 1960.77 Q1805.23 1962.11 1807.84 1964.56 Q1810.48 1966.98 1810.48 1971.34 Q1810.48 1976.3 1806.53 1979.2 Q1802.62 1982.1 1795.74 1982.1 Q1792.88 1982.1 1789.76 1981.52 Q1786.67 1980.98 1783.24 1979.87 L1783.24 1973.82 Q1786.48 1975.51 1789.63 1976.37 Q1792.78 1977.2 1795.87 1977.2 Q1800.01 1977.2 1802.24 1975.79 Q1804.46 1974.36 1804.46 1971.78 Q1804.46 1969.4 1802.84 1968.12 Q1801.25 1966.85 1795.81 1965.67 L1793.77 1965.2 Q1788.33 1964.05 1785.91 1961.69 Q1783.49 1959.31 1783.49 1955.17 Q1783.49 1950.14 1787.05 1947.4 Q1790.62 1944.67 1797.18 1944.67 Q1800.42 1944.67 1803.29 1945.14 Q1806.15 1945.62 1808.57 1946.58 Z" fill="#000000" fill-rule="nonzero" fill-opacity="1" /><path clip-path="url(#clip990)" d="M1833.49 1931.65 L1833.49 1989.77 L1820 1989.77 L1820 1985.22 L1827.6 1985.22 L1827.6 1936.2 L1820 1936.2 L1820 1931.65 L1833.49 1931.65 Z" fill="#000000" fill-rule="nonzero" fill-opacity="1" /><polyline clip-path="url(#clip992)" style="stroke:#000000; stroke-linecap:round; stroke-linejoin:round; stroke-width:2; stroke-opacity:0.1; fill:none" points="254.572,1693.19 3152.76,1693.19 "/>
<polyline clip-path="url(#clip992)" style="stroke:#000000; stroke-linecap:round; stroke-linejoin:round; stroke-width:2; stroke-opacity:0.1; fill:none" points="254.572,1365.37 3152.76,1365.37 "/>
<polyline clip-path="url(#clip992)" style="stroke:#000000; stroke-linecap:round; stroke-linejoin:round; stroke-width:2; stroke-opacity:0.1; fill:none" points="254.572,1037.56 3152.76,1037.56 "/>
<polyline clip-path="url(#clip992)" style="stroke:#000000; stroke-linecap:round; stroke-linejoin:round; stroke-width:2; stroke-opacity:0.1; fill:none" points="254.572,709.752 3152.76,709.752 "/>
<polyline clip-path="url(#clip992)" style="stroke:#000000; stroke-linecap:round; stroke-linejoin:round; stroke-width:2; stroke-opacity:0.1; fill:none" points="254.572,381.941 3152.76,381.941 "/>
<polyline clip-path="url(#clip990)" style="stroke:#000000; stroke-linecap:round; stroke-linejoin:round; stroke-width:4; stroke-opacity:1; fill:none" points="254.572,1824.31 254.572,119.692 "/>
<polyline clip-path="url(#clip990)" style="stroke:#000000; stroke-linecap:round; stroke-linejoin:round; stroke-width:4; stroke-opacity:1; fill:none" points="254.572,1693.19 273.47,1693.19 "/>
<polyline clip-path="url(#clip990)" style="stroke:#000000; stroke-linecap:round; stroke-linejoin:round; stroke-width:4; stroke-opacity:1; fill:none" points="254.572,1365.37 273.47,1365.37 "/>
<polyline clip-path="url(#clip990)" style="stroke:#000000; stroke-linecap:round; stroke-linejoin:round; stroke-width:4; stroke-opacity:1; fill:none" points="254.572,1037.56 273.47,1037.56 "/>
<polyline clip-path="url(#clip990)" style="stroke:#000000; stroke-linecap:round; stroke-linejoin:round; stroke-width:4; stroke-opacity:1; fill:none" points="254.572,709.752 273.47,709.752 "/>
<polyline clip-path="url(#clip990)" style="stroke:#000000; stroke-linecap:round; stroke-linejoin:round; stroke-width:4; stroke-opacity:1; fill:none" points="254.572,381.941 273.47,381.941 "/>
<path clip-path="url(#clip990)" d="M119.235 1678.98 Q115.623 1678.98 113.795 1682.55 Q111.989 1686.09 111.989 1693.22 Q111.989 1700.33 113.795 1703.89 Q115.623 1707.43 119.235 1707.43 Q122.869 1707.43 124.674 1703.89 Q126.503 1700.33 126.503 1693.22 Q126.503 1686.09 124.674 1682.55 Q122.869 1678.98 119.235 1678.98 M119.235 1675.28 Q125.045 1675.28 128.1 1679.89 Q131.179 1684.47 131.179 1693.22 Q131.179 1701.95 128.1 1706.55 Q125.045 1711.14 119.235 1711.14 Q113.424 1711.14 110.346 1706.55 Q107.29 1701.95 107.29 1693.22 Q107.29 1684.47 110.346 1679.89 Q113.424 1675.28 119.235 1675.28 Z" fill="#000000" fill-rule="nonzero" fill-opacity="1" /><path clip-path="url(#clip990)" d="M139.396 1704.59 L144.281 1704.59 L144.281 1710.47 L139.396 1710.47 L139.396 1704.59 Z" fill="#000000" fill-rule="nonzero" fill-opacity="1" /><path clip-path="url(#clip990)" d="M164.466 1678.98 Q160.855 1678.98 159.026 1682.55 Q157.22 1686.09 157.22 1693.22 Q157.22 1700.33 159.026 1703.89 Q160.855 1707.43 164.466 1707.43 Q168.1 1707.43 169.906 1703.89 Q171.734 1700.33 171.734 1693.22 Q171.734 1686.09 169.906 1682.55 Q168.1 1678.98 164.466 1678.98 M164.466 1675.28 Q170.276 1675.28 173.331 1679.89 Q176.41 1684.47 176.41 1693.22 Q176.41 1701.95 173.331 1706.55 Q170.276 1711.14 164.466 1711.14 Q158.656 1711.14 155.577 1706.55 Q152.521 1701.95 152.521 1693.22 Q152.521 1684.47 155.577 1679.89 Q158.656 1675.28 164.466 1675.28 Z" fill="#000000" fill-rule="nonzero" fill-opacity="1" /><path clip-path="url(#clip990)" d="M194.628 1678.98 Q191.017 1678.98 189.188 1682.55 Q187.382 1686.09 187.382 1693.22 Q187.382 1700.33 189.188 1703.89 Q191.017 1707.43 194.628 1707.43 Q198.262 1707.43 200.067 1703.89 Q201.896 1700.33 201.896 1693.22 Q201.896 1686.09 200.067 1682.55 Q198.262 1678.98 194.628 1678.98 M194.628 1675.28 Q200.438 1675.28 203.493 1679.89 Q206.572 1684.47 206.572 1693.22 Q206.572 1701.95 203.493 1706.55 Q200.438 1711.14 194.628 1711.14 Q188.817 1711.14 185.739 1706.55 Q182.683 1701.95 182.683 1693.22 Q182.683 1684.47 185.739 1679.89 Q188.817 1675.28 194.628 1675.28 Z" fill="#000000" fill-rule="nonzero" fill-opacity="1" /><path clip-path="url(#clip990)" d="M120.23 1351.17 Q116.619 1351.17 114.79 1354.74 Q112.985 1358.28 112.985 1365.41 Q112.985 1372.52 114.79 1376.08 Q116.619 1379.62 120.23 1379.62 Q123.864 1379.62 125.67 1376.08 Q127.498 1372.52 127.498 1365.41 Q127.498 1358.28 125.67 1354.74 Q123.864 1351.17 120.23 1351.17 M120.23 1347.47 Q126.04 1347.47 129.096 1352.08 Q132.174 1356.66 132.174 1365.41 Q132.174 1374.14 129.096 1378.74 Q126.04 1383.33 120.23 1383.33 Q114.42 1383.33 111.341 1378.74 Q108.286 1374.14 108.286 1365.41 Q108.286 1356.66 111.341 1352.08 Q114.42 1347.47 120.23 1347.47 Z" fill="#000000" fill-rule="nonzero" fill-opacity="1" /><path clip-path="url(#clip990)" d="M140.392 1376.77 L145.276 1376.77 L145.276 1382.65 L140.392 1382.65 L140.392 1376.77 Z" fill="#000000" fill-rule="nonzero" fill-opacity="1" /><path clip-path="url(#clip990)" d="M159.489 1378.72 L175.808 1378.72 L175.808 1382.65 L153.864 1382.65 L153.864 1378.72 Q156.526 1375.96 161.109 1371.33 Q165.716 1366.68 166.896 1365.34 Q169.142 1362.82 170.021 1361.08 Q170.924 1359.32 170.924 1357.63 Q170.924 1354.88 168.98 1353.14 Q167.058 1351.4 163.957 1351.4 Q161.757 1351.4 159.304 1352.17 Q156.873 1352.93 154.095 1354.48 L154.095 1349.76 Q156.92 1348.63 159.373 1348.05 Q161.827 1347.47 163.864 1347.47 Q169.234 1347.47 172.429 1350.15 Q175.623 1352.84 175.623 1357.33 Q175.623 1359.46 174.813 1361.38 Q174.026 1363.28 171.919 1365.87 Q171.341 1366.54 168.239 1369.76 Q165.137 1372.96 159.489 1378.72 Z" fill="#000000" fill-rule="nonzero" fill-opacity="1" /><path clip-path="url(#clip990)" d="M185.669 1348.09 L204.026 1348.09 L204.026 1352.03 L189.952 1352.03 L189.952 1360.5 Q190.97 1360.15 191.989 1359.99 Q193.007 1359.81 194.026 1359.81 Q199.813 1359.81 203.192 1362.98 Q206.572 1366.15 206.572 1371.57 Q206.572 1377.15 203.1 1380.25 Q199.628 1383.33 193.308 1383.33 Q191.132 1383.33 188.864 1382.96 Q186.618 1382.58 184.211 1381.84 L184.211 1377.15 Q186.294 1378.28 188.517 1378.83 Q190.739 1379.39 193.216 1379.39 Q197.22 1379.39 199.558 1377.28 Q201.896 1375.18 201.896 1371.57 Q201.896 1367.96 199.558 1365.85 Q197.22 1363.74 193.216 1363.74 Q191.341 1363.74 189.466 1364.16 Q187.614 1364.58 185.669 1365.46 L185.669 1348.09 Z" fill="#000000" fill-rule="nonzero" fill-opacity="1" /><path clip-path="url(#clip990)" d="M119.235 1023.36 Q115.623 1023.36 113.795 1026.93 Q111.989 1030.47 111.989 1037.6 Q111.989 1044.7 113.795 1048.27 Q115.623 1051.81 119.235 1051.81 Q122.869 1051.81 124.674 1048.27 Q126.503 1044.7 126.503 1037.6 Q126.503 1030.47 124.674 1026.93 Q122.869 1023.36 119.235 1023.36 M119.235 1019.66 Q125.045 1019.66 128.1 1024.26 Q131.179 1028.85 131.179 1037.6 Q131.179 1046.32 128.1 1050.93 Q125.045 1055.51 119.235 1055.51 Q113.424 1055.51 110.346 1050.93 Q107.29 1046.32 107.29 1037.6 Q107.29 1028.85 110.346 1024.26 Q113.424 1019.66 119.235 1019.66 Z" fill="#000000" fill-rule="nonzero" fill-opacity="1" /><path clip-path="url(#clip990)" d="M139.396 1048.96 L144.281 1048.96 L144.281 1054.84 L139.396 1054.84 L139.396 1048.96 Z" fill="#000000" fill-rule="nonzero" fill-opacity="1" /><path clip-path="url(#clip990)" d="M154.512 1020.28 L172.869 1020.28 L172.869 1024.22 L158.795 1024.22 L158.795 1032.69 Q159.813 1032.34 160.832 1032.18 Q161.85 1032 162.869 1032 Q168.656 1032 172.035 1035.17 Q175.415 1038.34 175.415 1043.76 Q175.415 1049.33 171.943 1052.44 Q168.47 1055.51 162.151 1055.51 Q159.975 1055.51 157.707 1055.14 Q155.461 1054.77 153.054 1054.03 L153.054 1049.33 Q155.137 1050.47 157.359 1051.02 Q159.582 1051.58 162.058 1051.58 Q166.063 1051.58 168.401 1049.47 Q170.739 1047.37 170.739 1043.76 Q170.739 1040.14 168.401 1038.04 Q166.063 1035.93 162.058 1035.93 Q160.183 1035.93 158.308 1036.35 Q156.457 1036.76 154.512 1037.64 L154.512 1020.28 Z" fill="#000000" fill-rule="nonzero" fill-opacity="1" /><path clip-path="url(#clip990)" d="M194.628 1023.36 Q191.017 1023.36 189.188 1026.93 Q187.382 1030.47 187.382 1037.6 Q187.382 1044.7 189.188 1048.27 Q191.017 1051.81 194.628 1051.81 Q198.262 1051.81 200.067 1048.27 Q201.896 1044.7 201.896 1037.6 Q201.896 1030.47 200.067 1026.93 Q198.262 1023.36 194.628 1023.36 M194.628 1019.66 Q200.438 1019.66 203.493 1024.26 Q206.572 1028.85 206.572 1037.6 Q206.572 1046.32 203.493 1050.93 Q200.438 1055.51 194.628 1055.51 Q188.817 1055.51 185.739 1050.93 Q182.683 1046.32 182.683 1037.6 Q182.683 1028.85 185.739 1024.26 Q188.817 1019.66 194.628 1019.66 Z" fill="#000000" fill-rule="nonzero" fill-opacity="1" /><path clip-path="url(#clip990)" d="M120.23 695.551 Q116.619 695.551 114.79 699.116 Q112.985 702.657 112.985 709.787 Q112.985 716.893 114.79 720.458 Q116.619 724 120.23 724 Q123.864 724 125.67 720.458 Q127.498 716.893 127.498 709.787 Q127.498 702.657 125.67 699.116 Q123.864 695.551 120.23 695.551 M120.23 691.847 Q126.04 691.847 129.096 696.454 Q132.174 701.037 132.174 709.787 Q132.174 718.514 129.096 723.12 Q126.04 727.703 120.23 727.703 Q114.42 727.703 111.341 723.12 Q108.286 718.514 108.286 709.787 Q108.286 701.037 111.341 696.454 Q114.42 691.847 120.23 691.847 Z" fill="#000000" fill-rule="nonzero" fill-opacity="1" /><path clip-path="url(#clip990)" d="M140.392 721.153 L145.276 721.153 L145.276 727.032 L140.392 727.032 L140.392 721.153 Z" fill="#000000" fill-rule="nonzero" fill-opacity="1" /><path clip-path="url(#clip990)" d="M154.281 692.472 L176.503 692.472 L176.503 694.463 L163.957 727.032 L159.072 727.032 L170.878 696.407 L154.281 696.407 L154.281 692.472 Z" fill="#000000" fill-rule="nonzero" fill-opacity="1" /><path clip-path="url(#clip990)" d="M185.669 692.472 L204.026 692.472 L204.026 696.407 L189.952 696.407 L189.952 704.879 Q190.97 704.532 191.989 704.37 Q193.007 704.185 194.026 704.185 Q199.813 704.185 203.192 707.356 Q206.572 710.528 206.572 715.944 Q206.572 721.523 203.1 724.625 Q199.628 727.703 193.308 727.703 Q191.132 727.703 188.864 727.333 Q186.618 726.963 184.211 726.222 L184.211 721.523 Q186.294 722.657 188.517 723.213 Q190.739 723.768 193.216 723.768 Q197.22 723.768 199.558 721.662 Q201.896 719.555 201.896 715.944 Q201.896 712.333 199.558 710.227 Q197.22 708.12 193.216 708.12 Q191.341 708.12 189.466 708.537 Q187.614 708.953 185.669 709.833 L185.669 692.472 Z" fill="#000000" fill-rule="nonzero" fill-opacity="1" /><path clip-path="url(#clip990)" d="M110.045 395.286 L117.684 395.286 L117.684 368.92 L109.373 370.587 L109.373 366.328 L117.637 364.661 L122.313 364.661 L122.313 395.286 L129.952 395.286 L129.952 399.221 L110.045 399.221 L110.045 395.286 Z" fill="#000000" fill-rule="nonzero" fill-opacity="1" /><path clip-path="url(#clip990)" d="M139.396 393.341 L144.281 393.341 L144.281 399.221 L139.396 399.221 L139.396 393.341 Z" fill="#000000" fill-rule="nonzero" fill-opacity="1" /><path clip-path="url(#clip990)" d="M164.466 367.74 Q160.855 367.74 159.026 371.304 Q157.22 374.846 157.22 381.976 Q157.22 389.082 159.026 392.647 Q160.855 396.189 164.466 396.189 Q168.1 396.189 169.906 392.647 Q171.734 389.082 171.734 381.976 Q171.734 374.846 169.906 371.304 Q168.1 367.74 164.466 367.74 M164.466 364.036 Q170.276 364.036 173.331 368.642 Q176.41 373.226 176.41 381.976 Q176.41 390.703 173.331 395.309 Q170.276 399.892 164.466 399.892 Q158.656 399.892 155.577 395.309 Q152.521 390.703 152.521 381.976 Q152.521 373.226 155.577 368.642 Q158.656 364.036 164.466 364.036 Z" fill="#000000" fill-rule="nonzero" fill-opacity="1" /><path clip-path="url(#clip990)" d="M194.628 367.74 Q191.017 367.74 189.188 371.304 Q187.382 374.846 187.382 381.976 Q187.382 389.082 189.188 392.647 Q191.017 396.189 194.628 396.189 Q198.262 396.189 200.067 392.647 Q201.896 389.082 201.896 381.976 Q201.896 374.846 200.067 371.304 Q198.262 367.74 194.628 367.74 M194.628 364.036 Q200.438 364.036 203.493 368.642 Q206.572 373.226 206.572 381.976 Q206.572 390.703 203.493 395.309 Q200.438 399.892 194.628 399.892 Q188.817 399.892 185.739 395.309 Q182.683 390.703 182.683 381.976 Q182.683 373.226 185.739 368.642 Q188.817 364.036 194.628 364.036 Z" fill="#000000" fill-rule="nonzero" fill-opacity="1" /><path clip-path="url(#clip990)" d="M-2.48584 1305.99 L-2.48584 1297.34 L37.268 1276.27 L-2.48584 1276.27 L-2.48584 1270.03 L45.0342 1270.03 L45.0342 1278.68 L5.28032 1299.76 L45.0342 1299.76 L45.0342 1305.99 L-2.48584 1305.99 Z" fill="#000000" fill-rule="nonzero" fill-opacity="1" /><path clip-path="url(#clip990)" d="M13.4921 1243.67 Q13.4921 1248.38 17.1842 1251.12 Q20.8445 1253.86 27.242 1253.86 Q33.6395 1253.86 37.3317 1251.15 Q40.9919 1248.42 40.9919 1243.67 Q40.9919 1238.99 37.2998 1236.26 Q33.6077 1233.52 27.242 1233.52 Q20.9081 1233.52 17.216 1236.26 Q13.4921 1238.99 13.4921 1243.67 M8.52683 1243.67 Q8.52683 1236.03 13.4921 1231.67 Q18.4573 1227.31 27.242 1227.31 Q35.9949 1227.31 40.9919 1231.67 Q45.9572 1236.03 45.9572 1243.67 Q45.9572 1251.34 40.9919 1255.7 Q35.9949 1260.03 27.242 1260.03 Q18.4573 1260.03 13.4921 1255.7 Q8.52683 1251.34 8.52683 1243.67 Z" fill="#000000" fill-rule="nonzero" fill-opacity="1" /><path clip-path="url(#clip990)" d="M14.8607 1196.95 Q14.2878 1197.94 14.0332 1199.11 Q13.7467 1200.26 13.7467 1201.66 Q13.7467 1206.63 16.9932 1209.3 Q20.2079 1211.94 26.2553 1211.94 L45.0342 1211.94 L45.0342 1217.83 L9.3862 1217.83 L9.3862 1211.94 L14.9244 1211.94 Q11.6779 1210.09 10.1183 1207.13 Q8.52683 1204.17 8.52683 1199.94 Q8.52683 1199.34 8.62232 1198.6 Q8.68597 1197.87 8.84512 1196.98 L14.8607 1196.95 Z" fill="#000000" fill-rule="nonzero" fill-opacity="1" /><path clip-path="url(#clip990)" d="M16.2293 1164.2 Q12.2826 1162 10.4047 1158.95 Q8.52683 1155.89 8.52683 1151.75 Q8.52683 1146.18 12.4417 1143.16 Q16.3248 1140.14 23.5181 1140.14 L45.0342 1140.14 L45.0342 1146.02 L23.709 1146.02 Q18.5846 1146.02 16.102 1147.84 Q13.6194 1149.65 13.6194 1153.38 Q13.6194 1157.93 16.6431 1160.57 Q19.6668 1163.21 24.8867 1163.21 L45.0342 1163.21 L45.0342 1169.1 L23.709 1169.1 Q18.5528 1169.1 16.102 1170.91 Q13.6194 1172.73 13.6194 1176.52 Q13.6194 1181 16.6749 1183.64 Q19.6986 1186.29 24.8867 1186.29 L45.0342 1186.29 L45.0342 1192.17 L9.3862 1192.17 L9.3862 1186.29 L14.9244 1186.29 Q11.646 1184.28 10.0864 1181.48 Q8.52683 1178.68 8.52683 1174.83 Q8.52683 1170.95 10.5002 1168.24 Q12.4736 1165.5 16.2293 1164.2 Z" fill="#000000" fill-rule="nonzero" fill-opacity="1" /><path clip-path="url(#clip990)" d="M27.1147 1112.25 Q27.1147 1119.35 28.7379 1122.09 Q30.3612 1124.83 34.2761 1124.83 Q37.3953 1124.83 39.2414 1122.79 Q41.0556 1120.72 41.0556 1117.19 Q41.0556 1112.32 37.6181 1109.39 Q34.1488 1106.43 28.4197 1106.43 L27.1147 1106.43 L27.1147 1112.25 M24.6957 1100.57 L45.0342 1100.57 L45.0342 1106.43 L39.6233 1106.43 Q42.8698 1108.43 44.4294 1111.43 Q45.9572 1114.42 45.9572 1118.75 Q45.9572 1124.22 42.9016 1127.47 Q39.8143 1130.68 34.6581 1130.68 Q28.6425 1130.68 25.5869 1126.67 Q22.5314 1122.63 22.5314 1114.64 L22.5314 1106.43 L21.9585 1106.43 Q17.9162 1106.43 15.7201 1109.1 Q13.4921 1111.74 13.4921 1116.55 Q13.4921 1119.61 14.2241 1122.5 Q14.9562 1125.4 16.4203 1128.07 L11.0095 1128.07 Q9.76814 1124.86 9.1634 1121.83 Q8.52683 1118.81 8.52683 1115.95 Q8.52683 1108.21 12.5372 1104.39 Q16.5476 1100.57 24.6957 1100.57 Z" fill="#000000" fill-rule="nonzero" fill-opacity="1" /><path clip-path="url(#clip990)" d="M-4.49104 1088.51 L-4.49104 1082.65 L45.0342 1082.65 L45.0342 1088.51 L-4.49104 1088.51 Z" fill="#000000" fill-rule="nonzero" fill-opacity="1" /><path clip-path="url(#clip990)" d="M9.3862 1070.4 L9.3862 1064.54 L45.0342 1064.54 L45.0342 1070.4 L9.3862 1070.4 M-4.49104 1070.4 L-4.49104 1064.54 L2.92501 1064.54 L2.92501 1070.4 L-4.49104 1070.4 Z" fill="#000000" fill-rule="nonzero" fill-opacity="1" /><path clip-path="url(#clip990)" d="M9.3862 1054.83 L9.3862 1027.02 L14.7334 1027.02 L40.3554 1049.04 L40.3554 1027.02 L45.0342 1027.02 L45.0342 1055.63 L39.687 1055.63 L14.065 1033.61 L14.065 1054.83 L9.3862 1054.83 Z" fill="#000000" fill-rule="nonzero" fill-opacity="1" /><path clip-path="url(#clip990)" d="M25.7461 987.581 L28.6106 987.581 L28.6106 1014.51 Q34.6581 1014.13 37.8409 1010.88 Q40.9919 1007.6 40.9919 1001.78 Q40.9919 998.403 40.1644 995.252 Q39.3369 992.069 37.6818 988.95 L43.2199 988.95 Q44.5567 992.101 45.257 995.411 Q45.9572 998.721 45.9572 1002.13 Q45.9572 1010.66 40.9919 1015.65 Q36.0267 1020.62 27.5603 1020.62 Q18.8074 1020.62 13.6831 1015.91 Q8.52683 1011.17 8.52683 1003.15 Q8.52683 995.952 13.1738 991.782 Q17.7889 987.581 25.7461 987.581 M24.0273 993.438 Q19.2212 993.501 16.3566 996.143 Q13.4921 998.753 13.4921 1003.08 Q13.4921 1007.98 16.2612 1010.94 Q19.0302 1013.87 24.0592 1014.32 L24.0273 993.438 Z" fill="#000000" fill-rule="nonzero" fill-opacity="1" /><path clip-path="url(#clip990)" d="M14.7971 954.511 L-4.49104 954.511 L-4.49104 948.655 L45.0342 948.655 L45.0342 954.511 L39.687 954.511 Q42.8698 956.357 44.4294 959.19 Q45.9572 961.991 45.9572 965.938 Q45.9572 972.399 40.801 976.473 Q35.6447 980.515 27.242 980.515 Q18.8393 980.515 13.6831 976.473 Q8.52683 972.399 8.52683 965.938 Q8.52683 961.991 10.0864 959.19 Q11.6142 956.357 14.7971 954.511 M27.242 974.468 Q33.7032 974.468 37.3953 971.826 Q41.0556 969.152 41.0556 964.505 Q41.0556 959.858 37.3953 957.185 Q33.7032 954.511 27.242 954.511 Q20.7808 954.511 17.1205 957.185 Q13.4284 959.858 13.4284 964.505 Q13.4284 969.152 17.1205 971.826 Q20.7808 974.468 27.242 974.468 Z" fill="#000000" fill-rule="nonzero" fill-opacity="1" /><path clip-path="url(#clip990)" d="M-0.735273 910.079 L9.3862 910.079 L9.3862 898.016 L13.9377 898.016 L13.9377 910.079 L33.2894 910.079 Q37.6499 910.079 38.8913 908.901 Q40.1326 907.691 40.1326 904.031 L40.1326 898.016 L45.0342 898.016 L45.0342 904.031 Q45.0342 910.811 42.5197 913.389 Q39.9734 915.967 33.2894 915.967 L13.9377 915.967 L13.9377 920.264 L9.3862 920.264 L9.3862 915.967 L-0.735273 915.967 L-0.735273 910.079 Z" fill="#000000" fill-rule="nonzero" fill-opacity="1" /><path clip-path="url(#clip990)" d="M23.5181 860.681 L45.0342 860.681 L45.0342 866.537 L23.709 866.537 Q18.6483 866.537 16.1338 868.511 Q13.6194 870.484 13.6194 874.431 Q13.6194 879.173 16.6431 881.91 Q19.6668 884.648 24.8867 884.648 L45.0342 884.648 L45.0342 890.536 L-4.49104 890.536 L-4.49104 884.648 L14.9244 884.648 Q11.7097 882.547 10.1183 879.714 Q8.52683 876.85 8.52683 873.126 Q8.52683 866.983 12.3463 863.832 Q16.1338 860.681 23.5181 860.681 Z" fill="#000000" fill-rule="nonzero" fill-opacity="1" /><path clip-path="url(#clip990)" d="M14.8607 828.343 Q14.2878 829.33 14.0332 830.507 Q13.7467 831.653 13.7467 833.054 Q13.7467 838.019 16.9932 840.692 Q20.2079 843.334 26.2553 843.334 L45.0342 843.334 L45.0342 849.222 L9.3862 849.222 L9.3862 843.334 L14.9244 843.334 Q11.6779 841.488 10.1183 838.528 Q8.52683 835.568 8.52683 831.335 Q8.52683 830.73 8.62232 829.998 Q8.68597 829.266 8.84512 828.375 L14.8607 828.343 Z" fill="#000000" fill-rule="nonzero" fill-opacity="1" /><path clip-path="url(#clip990)" d="M30.9659 822.805 L9.3862 822.805 L9.3862 816.948 L30.7431 816.948 Q35.8039 816.948 38.3502 814.975 Q40.8646 813.002 40.8646 809.055 Q40.8646 804.312 37.8409 801.575 Q34.8172 798.806 29.5973 798.806 L9.3862 798.806 L9.3862 792.95 L45.0342 792.95 L45.0342 798.806 L39.5596 798.806 Q42.8062 800.939 44.3976 803.771 Q45.9572 806.572 45.9572 810.296 Q45.9572 816.439 42.1378 819.622 Q38.3183 822.805 30.9659 822.805 M8.52683 808.068 L8.52683 808.068 Z" fill="#000000" fill-rule="nonzero" fill-opacity="1" /><path clip-path="url(#clip990)" d="M10.4365 758.161 L15.9747 758.161 Q14.7016 760.644 14.065 763.317 Q13.4284 765.991 13.4284 768.855 Q13.4284 773.216 14.7652 775.412 Q16.102 777.576 18.7756 777.576 Q20.8126 777.576 21.9903 776.017 Q23.1361 774.457 24.1865 769.747 L24.6321 767.741 Q25.9689 761.503 28.4197 758.893 Q30.8386 756.251 35.1991 756.251 Q40.1644 756.251 43.0608 760.198 Q45.9572 764.113 45.9572 770.988 Q45.9572 773.852 45.3843 776.972 Q44.8432 780.059 43.7292 783.496 L37.6818 783.496 Q39.3687 780.25 40.228 777.099 Q41.0556 773.948 41.0556 770.861 Q41.0556 766.723 39.6551 764.495 Q38.2229 762.267 35.6447 762.267 Q33.2576 762.267 31.9845 763.89 Q30.7113 765.482 29.5337 770.924 L29.0562 772.961 Q27.9104 778.404 25.5551 780.823 Q23.168 783.242 19.0302 783.242 Q14.0013 783.242 11.2641 779.677 Q8.52683 776.112 8.52683 769.556 Q8.52683 766.309 9.00426 763.445 Q9.48169 760.58 10.4365 758.161 Z" fill="#000000" fill-rule="nonzero" fill-opacity="1" /><path clip-path="url(#clip990)" d="M-0.735273 741.133 L9.3862 741.133 L9.3862 729.07 L13.9377 729.07 L13.9377 741.133 L33.2894 741.133 Q37.6499 741.133 38.8913 739.955 Q40.1326 738.746 40.1326 735.085 L40.1326 729.07 L45.0342 729.07 L45.0342 735.085 Q45.0342 741.865 42.5197 744.443 Q39.9734 747.021 33.2894 747.021 L13.9377 747.021 L13.9377 751.318 L9.3862 751.318 L9.3862 747.021 L-0.735273 747.021 L-0.735273 741.133 Z" fill="#000000" fill-rule="nonzero" fill-opacity="1" /><path clip-path="url(#clip990)" d="M-4.49104 701.188 L-4.49104 687.693 L0.0604401 687.693 L0.0604401 695.331 L49.0764 695.331 L49.0764 687.693 L53.6279 687.693 L53.6279 701.188 L-4.49104 701.188 Z" fill="#000000" fill-rule="nonzero" fill-opacity="1" /><path clip-path="url(#clip990)" d="M24.5684 678.176 L24.5684 661.02 L29.7883 661.02 L29.7883 678.176 L24.5684 678.176 Z" fill="#000000" fill-rule="nonzero" fill-opacity="1" /><path clip-path="url(#clip990)" d="M-4.49104 638.008 L53.6279 638.008 L53.6279 651.504 L49.0764 651.504 L49.0764 643.897 L0.0604401 643.897 L0.0604401 651.504 L-4.49104 651.504 L-4.49104 638.008 Z" fill="#000000" fill-rule="nonzero" fill-opacity="1" /><path clip-path="url(#clip990)" d="M1463.51 14.324 L1463.51 27.2059 L1478.86 27.2059 L1478.86 32.9987 L1463.51 32.9987 L1463.51 57.6282 Q1463.51 63.1779 1465 64.7578 Q1466.54 66.3376 1471.2 66.3376 L1478.86 66.3376 L1478.86 72.576 L1471.2 72.576 Q1462.57 72.576 1459.29 69.3758 Q1456.01 66.1351 1456.01 57.6282 L1456.01 32.9987 L1450.54 32.9987 L1450.54 27.2059 L1456.01 27.2059 L1456.01 14.324 L1463.51 14.324 Z" fill="#000000" fill-rule="nonzero" fill-opacity="1" /><path clip-path="url(#clip990)" d="M1509.28 49.7694 Q1500.25 49.7694 1496.76 51.8354 Q1493.28 53.9013 1493.28 58.8839 Q1493.28 62.8538 1495.87 65.2034 Q1498.51 67.5124 1503 67.5124 Q1509.2 67.5124 1512.93 63.1374 Q1516.69 58.7219 1516.69 51.4303 L1516.69 49.7694 L1509.28 49.7694 M1524.15 46.6907 L1524.15 72.576 L1516.69 72.576 L1516.69 65.6895 Q1514.14 69.8214 1510.33 71.8063 Q1506.53 73.7508 1501.02 73.7508 Q1494.05 73.7508 1489.92 69.8619 Q1485.83 65.9325 1485.83 59.3701 Q1485.83 51.7138 1490.93 47.825 Q1496.08 43.9361 1506.24 43.9361 L1516.69 43.9361 L1516.69 43.2069 Q1516.69 38.0623 1513.29 35.2672 Q1509.93 32.4315 1503.81 32.4315 Q1499.92 32.4315 1496.24 33.3632 Q1492.55 34.295 1489.15 36.1584 L1489.15 29.2718 Q1493.24 27.692 1497.09 26.9223 Q1500.94 26.1121 1504.58 26.1121 Q1514.43 26.1121 1519.29 31.2163 Q1524.15 36.3204 1524.15 46.6907 Z" fill="#000000" fill-rule="nonzero" fill-opacity="1" /><path clip-path="url(#clip990)" d="M1538.73 54.671 L1538.73 27.2059 L1546.19 27.2059 L1546.19 54.3874 Q1546.19 60.8284 1548.7 64.0691 Q1551.21 67.2693 1556.23 67.2693 Q1562.27 67.2693 1565.75 63.421 Q1569.28 59.5726 1569.28 52.9291 L1569.28 27.2059 L1576.73 27.2059 L1576.73 72.576 L1569.28 72.576 L1569.28 65.6084 Q1566.56 69.7404 1562.96 71.7658 Q1559.39 73.7508 1554.65 73.7508 Q1546.83 73.7508 1542.78 68.8897 Q1538.73 64.0286 1538.73 54.671 M1557.49 26.1121 L1557.49 26.1121 Z" fill="#000000" fill-rule="nonzero" fill-opacity="1" /><path clip-path="url(#clip990)" d="M1619.43 34.9026 L1671.36 34.9026 L1671.36 41.7081 L1619.43 41.7081 L1619.43 34.9026 M1619.43 51.4303 L1671.36 51.4303 L1671.36 58.3168 L1619.43 58.3168 L1619.43 51.4303 Z" fill="#000000" fill-rule="nonzero" fill-opacity="1" /><path clip-path="url(#clip990)" d="M1732.89 17.4837 Q1726.57 17.4837 1723.37 23.7221 Q1720.21 29.92 1720.21 42.3968 Q1720.21 54.833 1723.37 61.0714 Q1726.57 67.2693 1732.89 67.2693 Q1739.25 67.2693 1742.41 61.0714 Q1745.61 54.833 1745.61 42.3968 Q1745.61 29.92 1742.41 23.7221 Q1739.25 17.4837 1732.89 17.4837 M1732.89 11.0023 Q1743.06 11.0023 1748.41 19.0636 Q1753.79 27.0843 1753.79 42.3968 Q1753.79 57.6687 1748.41 65.73 Q1743.06 73.7508 1732.89 73.7508 Q1722.72 73.7508 1717.34 65.73 Q1711.99 57.6687 1711.99 42.3968 Q1711.99 27.0843 1717.34 19.0636 Q1722.72 11.0023 1732.89 11.0023 Z" fill="#000000" fill-rule="nonzero" fill-opacity="1" /><path clip-path="url(#clip990)" d="M1768.17 62.2867 L1776.72 62.2867 L1776.72 72.576 L1768.17 72.576 L1768.17 62.2867 Z" fill="#000000" fill-rule="nonzero" fill-opacity="1" /><path clip-path="url(#clip990)" d="M1812.05 17.4837 Q1805.73 17.4837 1802.53 23.7221 Q1799.37 29.92 1799.37 42.3968 Q1799.37 54.833 1802.53 61.0714 Q1805.73 67.2693 1812.05 67.2693 Q1818.41 67.2693 1821.57 61.0714 Q1824.77 54.833 1824.77 42.3968 Q1824.77 29.92 1821.57 23.7221 Q1818.41 17.4837 1812.05 17.4837 M1812.05 11.0023 Q1822.21 11.0023 1827.56 19.0636 Q1832.95 27.0843 1832.95 42.3968 Q1832.95 57.6687 1827.56 65.73 Q1822.21 73.7508 1812.05 73.7508 Q1801.88 73.7508 1796.49 65.73 Q1791.14 57.6687 1791.14 42.3968 Q1791.14 27.0843 1796.49 19.0636 Q1801.88 11.0023 1812.05 11.0023 Z" fill="#000000" fill-rule="nonzero" fill-opacity="1" /><path clip-path="url(#clip990)" d="M1847.41 12.096 L1879.53 12.096 L1879.53 18.9825 L1854.9 18.9825 L1854.9 33.8088 Q1856.69 33.2012 1858.47 32.9176 Q1860.25 32.5936 1862.03 32.5936 Q1872.16 32.5936 1878.08 38.1433 Q1883.99 43.6931 1883.99 53.1722 Q1883.99 62.9348 1877.91 68.3631 Q1871.84 73.7508 1860.78 73.7508 Q1856.97 73.7508 1853 73.1026 Q1849.07 72.4545 1844.86 71.1582 L1844.86 62.9348 Q1848.5 64.9198 1852.39 65.892 Q1856.28 66.8642 1860.62 66.8642 Q1867.62 66.8642 1871.72 63.1779 Q1875.81 59.4916 1875.81 53.1722 Q1875.81 46.8528 1871.72 43.1664 Q1867.62 39.4801 1860.62 39.4801 Q1857.34 39.4801 1854.05 40.2093 Q1850.81 40.9384 1847.41 42.4778 L1847.41 12.096 Z" fill="#000000" fill-rule="nonzero" fill-opacity="1" /><path clip-path="url(#clip990)" d="M1954.35 28.5427 L1954.35 35.5912 Q1951.19 33.9709 1947.79 33.1607 Q1944.39 32.3505 1940.74 32.3505 Q1935.19 32.3505 1932.4 34.0519 Q1929.64 35.7533 1929.64 39.156 Q1929.64 41.7486 1931.63 43.2475 Q1933.61 44.7058 1939.61 46.0426 L1942.16 46.6097 Q1950.1 48.3111 1953.42 51.4303 Q1956.78 54.509 1956.78 60.0587 Q1956.78 66.3781 1951.76 70.0644 Q1946.78 73.7508 1938.03 73.7508 Q1934.38 73.7508 1930.41 73.0216 Q1926.48 72.3329 1922.11 70.9151 L1922.11 63.2184 Q1926.24 65.3654 1930.25 66.4591 Q1934.26 67.5124 1938.19 67.5124 Q1943.46 67.5124 1946.29 65.73 Q1949.13 63.9071 1949.13 60.6258 Q1949.13 57.5877 1947.06 55.9673 Q1945.04 54.3469 1938.11 52.8481 L1935.52 52.2405 Q1928.59 50.7821 1925.51 47.7845 Q1922.43 44.7463 1922.43 39.4801 Q1922.43 33.0797 1926.97 29.5959 Q1931.51 26.1121 1939.85 26.1121 Q1943.98 26.1121 1947.63 26.7198 Q1951.28 27.3274 1954.35 28.5427 Z" fill="#000000" fill-rule="nonzero" fill-opacity="1" /><polyline clip-path="url(#clip992)" style="stroke:#009af9; stroke-linecap:round; stroke-linejoin:round; stroke-width:4; stroke-opacity:1; fill:none" points="1220.63,1693.19 1239.95,1455.5 1259.28,1260.89 1278.6,1101.57 1297.92,971.121 1317.24,864.321 1336.56,776.88 1355.88,705.29 1375.2,646.677 1394.52,598.688 1413.85,559.399 1433.17,527.231 1452.49,500.894 1471.81,479.332 1491.13,461.678 1510.45,447.224 1529.77,435.39 1549.09,425.702 1568.42,417.769 1587.74,411.275 1607.06,405.957 1626.38,401.604 1645.7,398.04 1665.02,395.121 1684.34,392.732 1703.66,390.776 1722.99,389.175 1742.31,387.863 1761.63,386.79 1780.95,385.911 1800.27,385.191 1819.59,384.602 1838.91,384.12 1858.23,383.725 1877.56,383.401 1896.88,383.137 1916.2,382.92 1935.52,382.743 1954.84,382.597 1974.16,382.478 1993.48,382.381 2012.8,382.301 2032.12,382.236 2051.45,382.182 2070.77,382.139 2090.09,382.103 2109.41,382.073 2128.73,382.049 2148.05,382.03 2167.37,382.014 2186.69,382.001 2206.02,381.99 2225.34,381.981 2244.66,381.974 2263.98,381.968 2283.3,381.963 2302.62,381.959 2321.94,381.956 2341.26,381.953 2360.59,381.951 2379.91,381.949 2399.23,381.948 2418.55,381.946 2437.87,381.945 2457.19,381.945 2476.51,381.944 2495.83,381.943 2515.16,381.943 2534.48,381.943 2553.8,381.942 2573.12,381.942 2592.44,381.942 2611.76,381.942 2631.08,381.942 2650.4,381.941 2669.73,381.941 2689.05,381.941 2708.37,381.941 2727.69,381.941 2747.01,381.941 2766.33,381.941 2785.65,381.941 2804.97,381.941 2824.3,381.941 2843.62,381.941 2862.94,381.941 2882.26,381.941 2901.58,381.941 2920.9,381.941 2940.22,381.941 2959.54,381.941 2978.86,381.941 2998.19,381.941 3017.51,381.941 3036.83,381.941 3056.15,381.941 3075.47,381.941 3094.79,381.941 3114.11,381.941 3133.43,381.941 3152.76,381.941 3172.08,381.941 3191.4,381.941 3210.72,381.941 3230.04,381.941 3249.36,381.941 3268.68,381.941 3288,381.941 3307.33,381.941 3326.65,381.941 3345.97,381.941 3365.29,381.941 3384.61,381.941 3403.93,381.941 3423.25,381.941 3442.57,381.941 3461.9,381.941 3481.22,381.941 3500.54,381.941 3519.86,381.941 3539.18,381.941 3558.5,381.941 3577.82,381.941 3597.14,381.941 3616.47,381.941 3635.79,381.941 3655.11,381.941 3674.43,381.941 3693.75,381.941 3713.07,381.941 3732.39,381.941 3751.71,381.941 3771.04,381.941 3790.36,381.941 3809.68,381.941 3829,381.941 3848.32,381.941 3867.64,381.941 3886.96,381.941 3906.28,381.941 3925.6,381.941 3944.93,381.941 3964.25,381.941 3983.57,381.941 4002.89,381.941 4022.21,381.941 4041.53,381.941 4060.85,381.941 4080.17,381.941 4099.5,381.941 4118.82,381.941 4138.14,381.941 4157.46,381.941 4176.78,381.941 4196.1,381.941 4215.42,381.941 4234.74,381.941 4254.07,381.941 4273.39,381.941 4292.71,381.941 4312.03,381.941 4331.35,381.941 4350.67,381.941 4369.99,381.941 4389.31,381.941 4408.64,381.941 4427.96,381.941 4447.28,381.941 4466.6,381.941 4485.92,381.941 4505.24,381.941 4524.56,381.941 4543.88,381.941 4563.21,381.941 4582.53,381.941 4601.85,381.941 4621.17,381.941 4640.49,381.941 4659.81,381.941 4679.13,381.941 4698.45,381.941 4717.78,381.941 4737.1,381.941 4756.42,381.941 4775.74,381.941 4795.06,381.941 4814.38,381.941 4833.7,381.941 4853.02,381.941 4872.35,381.941 4891.67,381.941 4910.99,381.941 4930.31,381.941 4949.63,381.941 4968.95,381.941 4988.27,381.941 5007.59,381.941 5026.91,381.941 5046.24,381.941 5065.56,381.941 5084.88,381.941 "/>
<circle clip-path="url(#clip992)" cx="285.022" cy="1693.19" r="14.4" fill="#e26f46" fill-rule="evenodd" fill-opacity="1" stroke="#000000" stroke-opacity="1" stroke-width="4"/>
<circle clip-path="url(#clip992)" cx="323.664" cy="1693.19" r="14.4" fill="#e26f46" fill-rule="evenodd" fill-opacity="1" stroke="#000000" stroke-opacity="1" stroke-width="4"/>
<circle clip-path="url(#clip992)" cx="363.211" cy="1695.43" r="14.4" fill="#e26f46" fill-rule="evenodd" fill-opacity="1" stroke="#000000" stroke-opacity="1" stroke-width="4"/>
<circle clip-path="url(#clip992)" cx="401.853" cy="1695.43" r="14.4" fill="#e26f46" fill-rule="evenodd" fill-opacity="1" stroke="#000000" stroke-opacity="1" stroke-width="4"/>
<circle clip-path="url(#clip992)" cx="440.495" cy="1695.43" r="14.4" fill="#e26f46" fill-rule="evenodd" fill-opacity="1" stroke="#000000" stroke-opacity="1" stroke-width="4"/>
<circle clip-path="url(#clip992)" cx="477.809" cy="1695.43" r="14.4" fill="#e26f46" fill-rule="evenodd" fill-opacity="1" stroke="#000000" stroke-opacity="1" stroke-width="4"/>
<circle clip-path="url(#clip992)" cx="516.452" cy="1693.19" r="14.4" fill="#e26f46" fill-rule="evenodd" fill-opacity="1" stroke="#000000" stroke-opacity="1" stroke-width="4"/>
<circle clip-path="url(#clip992)" cx="555.094" cy="1695.43" r="14.4" fill="#e26f46" fill-rule="evenodd" fill-opacity="1" stroke="#000000" stroke-opacity="1" stroke-width="4"/>
<circle clip-path="url(#clip992)" cx="592.164" cy="1693.19" r="14.4" fill="#e26f46" fill-rule="evenodd" fill-opacity="1" stroke="#000000" stroke-opacity="1" stroke-width="4"/>
<circle clip-path="url(#clip992)" cx="630.806" cy="1693.19" r="14.4" fill="#e26f46" fill-rule="evenodd" fill-opacity="1" stroke="#000000" stroke-opacity="1" stroke-width="4"/>
<circle clip-path="url(#clip992)" cx="669.449" cy="1697.68" r="14.4" fill="#e26f46" fill-rule="evenodd" fill-opacity="1" stroke="#000000" stroke-opacity="1" stroke-width="4"/>
<circle clip-path="url(#clip992)" cx="708.864" cy="1693.19" r="14.4" fill="#e26f46" fill-rule="evenodd" fill-opacity="1" stroke="#000000" stroke-opacity="1" stroke-width="4"/>
<circle clip-path="url(#clip992)" cx="747.506" cy="1695.43" r="14.4" fill="#e26f46" fill-rule="evenodd" fill-opacity="1" stroke="#000000" stroke-opacity="1" stroke-width="4"/>
<circle clip-path="url(#clip992)" cx="786.149" cy="1695.43" r="14.4" fill="#e26f46" fill-rule="evenodd" fill-opacity="1" stroke="#000000" stroke-opacity="1" stroke-width="4"/>
<circle clip-path="url(#clip992)" cx="824.031" cy="1693.19" r="14.4" fill="#e26f46" fill-rule="evenodd" fill-opacity="1" stroke="#000000" stroke-opacity="1" stroke-width="4"/>
<circle clip-path="url(#clip992)" cx="862.673" cy="1693.19" r="14.4" fill="#e26f46" fill-rule="evenodd" fill-opacity="1" stroke="#000000" stroke-opacity="1" stroke-width="4"/>
<circle clip-path="url(#clip992)" cx="901.316" cy="1695.43" r="14.4" fill="#e26f46" fill-rule="evenodd" fill-opacity="1" stroke="#000000" stroke-opacity="1" stroke-width="4"/>
<circle clip-path="url(#clip992)" cx="938.992" cy="1693.19" r="14.4" fill="#e26f46" fill-rule="evenodd" fill-opacity="1" stroke="#000000" stroke-opacity="1" stroke-width="4"/>
<circle clip-path="url(#clip992)" cx="977.634" cy="1695.43" r="14.4" fill="#e26f46" fill-rule="evenodd" fill-opacity="1" stroke="#000000" stroke-opacity="1" stroke-width="4"/>
<circle clip-path="url(#clip992)" cx="1016.28" cy="1695.43" r="14.4" fill="#e26f46" fill-rule="evenodd" fill-opacity="1" stroke="#000000" stroke-opacity="1" stroke-width="4"/>
<circle clip-path="url(#clip992)" cx="1053.73" cy="1693.19" r="14.4" fill="#e26f46" fill-rule="evenodd" fill-opacity="1" stroke="#000000" stroke-opacity="1" stroke-width="4"/>
<circle clip-path="url(#clip992)" cx="1092.37" cy="1695.43" r="14.4" fill="#e26f46" fill-rule="evenodd" fill-opacity="1" stroke="#000000" stroke-opacity="1" stroke-width="4"/>
<circle clip-path="url(#clip992)" cx="1131.01" cy="1693.19" r="14.4" fill="#e26f46" fill-rule="evenodd" fill-opacity="1" stroke="#000000" stroke-opacity="1" stroke-width="4"/>
<circle clip-path="url(#clip992)" cx="1169.71" cy="1690.94" r="14.4" fill="#e26f46" fill-rule="evenodd" fill-opacity="1" stroke="#000000" stroke-opacity="1" stroke-width="4"/>
<circle clip-path="url(#clip992)" cx="1208.35" cy="1681.96" r="14.4" fill="#e26f46" fill-rule="evenodd" fill-opacity="1" stroke="#000000" stroke-opacity="1" stroke-width="4"/>
<circle clip-path="url(#clip992)" cx="1246.99" cy="1527.03" r="14.4" fill="#e26f46" fill-rule="evenodd" fill-opacity="1" stroke="#000000" stroke-opacity="1" stroke-width="4"/>
<circle clip-path="url(#clip992)" cx="1286.81" cy="1122.88" r="14.4" fill="#e26f46" fill-rule="evenodd" fill-opacity="1" stroke="#000000" stroke-opacity="1" stroke-width="4"/>
<circle clip-path="url(#clip992)" cx="1325.45" cy="738.941" r="14.4" fill="#e26f46" fill-rule="evenodd" fill-opacity="1" stroke="#000000" stroke-opacity="1" stroke-width="4"/>
<circle clip-path="url(#clip992)" cx="1364.1" cy="732.205" r="14.4" fill="#e26f46" fill-rule="evenodd" fill-opacity="1" stroke="#000000" stroke-opacity="1" stroke-width="4"/>
<circle clip-path="url(#clip992)" cx="1399.96" cy="431.337" r="14.4" fill="#e26f46" fill-rule="evenodd" fill-opacity="1" stroke="#000000" stroke-opacity="1" stroke-width="4"/>
<circle clip-path="url(#clip992)" cx="1438.6" cy="420.111" r="14.4" fill="#e26f46" fill-rule="evenodd" fill-opacity="1" stroke="#000000" stroke-opacity="1" stroke-width="4"/>
<circle clip-path="url(#clip992)" cx="1477.24" cy="402.149" r="14.4" fill="#e26f46" fill-rule="evenodd" fill-opacity="1" stroke="#000000" stroke-opacity="1" stroke-width="4"/>
<circle clip-path="url(#clip992)" cx="1517.07" cy="411.13" r="14.4" fill="#e26f46" fill-rule="evenodd" fill-opacity="1" stroke="#000000" stroke-opacity="1" stroke-width="4"/>
<circle clip-path="url(#clip992)" cx="1555.71" cy="377.45" r="14.4" fill="#e26f46" fill-rule="evenodd" fill-opacity="1" stroke="#000000" stroke-opacity="1" stroke-width="4"/>
<circle clip-path="url(#clip992)" cx="1594.36" cy="354.998" r="14.4" fill="#e26f46" fill-rule="evenodd" fill-opacity="1" stroke="#000000" stroke-opacity="1" stroke-width="4"/>
<circle clip-path="url(#clip992)" cx="1631.53" cy="341.526" r="14.4" fill="#e26f46" fill-rule="evenodd" fill-opacity="1" stroke="#000000" stroke-opacity="1" stroke-width="4"/>
<circle clip-path="url(#clip992)" cx="1670.17" cy="346.017" r="14.4" fill="#e26f46" fill-rule="evenodd" fill-opacity="1" stroke="#000000" stroke-opacity="1" stroke-width="4"/>
<circle clip-path="url(#clip992)" cx="1708.82" cy="370.715" r="14.4" fill="#e26f46" fill-rule="evenodd" fill-opacity="1" stroke="#000000" stroke-opacity="1" stroke-width="4"/>
<circle clip-path="url(#clip992)" cx="1748.59" cy="388.677" r="14.4" fill="#e26f46" fill-rule="evenodd" fill-opacity="1" stroke="#000000" stroke-opacity="1" stroke-width="4"/>
<circle clip-path="url(#clip992)" cx="1787.24" cy="395.413" r="14.4" fill="#e26f46" fill-rule="evenodd" fill-opacity="1" stroke="#000000" stroke-opacity="1" stroke-width="4"/>
<circle clip-path="url(#clip992)" cx="1825.88" cy="381.941" r="14.4" fill="#e26f46" fill-rule="evenodd" fill-opacity="1" stroke="#000000" stroke-opacity="1" stroke-width="4"/>
<circle clip-path="url(#clip992)" cx="1861.81" cy="377.45" r="14.4" fill="#e26f46" fill-rule="evenodd" fill-opacity="1" stroke="#000000" stroke-opacity="1" stroke-width="4"/>
<circle clip-path="url(#clip992)" cx="1900.45" cy="352.752" r="14.4" fill="#e26f46" fill-rule="evenodd" fill-opacity="1" stroke="#000000" stroke-opacity="1" stroke-width="4"/>
<circle clip-path="url(#clip992)" cx="1939.09" cy="352.752" r="14.4" fill="#e26f46" fill-rule="evenodd" fill-opacity="1" stroke="#000000" stroke-opacity="1" stroke-width="4"/>
<circle clip-path="url(#clip992)" cx="1977.68" cy="363.979" r="14.4" fill="#e26f46" fill-rule="evenodd" fill-opacity="1" stroke="#000000" stroke-opacity="1" stroke-width="4"/>
<circle clip-path="url(#clip992)" cx="2016.33" cy="372.96" r="14.4" fill="#e26f46" fill-rule="evenodd" fill-opacity="1" stroke="#000000" stroke-opacity="1" stroke-width="4"/>
<circle clip-path="url(#clip992)" cx="2054.97" cy="411.13" r="14.4" fill="#e26f46" fill-rule="evenodd" fill-opacity="1" stroke="#000000" stroke-opacity="1" stroke-width="4"/>
<circle clip-path="url(#clip992)" cx="2093.96" cy="424.601" r="14.4" fill="#e26f46" fill-rule="evenodd" fill-opacity="1" stroke="#000000" stroke-opacity="1" stroke-width="4"/>
<circle clip-path="url(#clip992)" cx="2132.6" cy="402.149" r="14.4" fill="#e26f46" fill-rule="evenodd" fill-opacity="1" stroke="#000000" stroke-opacity="1" stroke-width="4"/>
<circle clip-path="url(#clip992)" cx="2171.24" cy="381.941" r="14.4" fill="#e26f46" fill-rule="evenodd" fill-opacity="1" stroke="#000000" stroke-opacity="1" stroke-width="4"/>
<circle clip-path="url(#clip992)" cx="2207.45" cy="343.771" r="14.4" fill="#e26f46" fill-rule="evenodd" fill-opacity="1" stroke="#000000" stroke-opacity="1" stroke-width="4"/>
<circle clip-path="url(#clip992)" cx="2246.09" cy="343.771" r="14.4" fill="#e26f46" fill-rule="evenodd" fill-opacity="1" stroke="#000000" stroke-opacity="1" stroke-width="4"/>
<circle clip-path="url(#clip992)" cx="2284.73" cy="354.998" r="14.4" fill="#e26f46" fill-rule="evenodd" fill-opacity="1" stroke="#000000" stroke-opacity="1" stroke-width="4"/>
<circle clip-path="url(#clip992)" cx="2324.5" cy="386.432" r="14.4" fill="#e26f46" fill-rule="evenodd" fill-opacity="1" stroke="#000000" stroke-opacity="1" stroke-width="4"/>
<circle clip-path="url(#clip992)" cx="2363.14" cy="415.62" r="14.4" fill="#e26f46" fill-rule="evenodd" fill-opacity="1" stroke="#000000" stroke-opacity="1" stroke-width="4"/>
<circle clip-path="url(#clip992)" cx="2401.79" cy="431.337" r="14.4" fill="#e26f46" fill-rule="evenodd" fill-opacity="1" stroke="#000000" stroke-opacity="1" stroke-width="4"/>
<circle clip-path="url(#clip992)" cx="2439.39" cy="413.375" r="14.4" fill="#e26f46" fill-rule="evenodd" fill-opacity="1" stroke="#000000" stroke-opacity="1" stroke-width="4"/>
<circle clip-path="url(#clip992)" cx="2478.03" cy="375.205" r="14.4" fill="#e26f46" fill-rule="evenodd" fill-opacity="1" stroke="#000000" stroke-opacity="1" stroke-width="4"/>
<circle clip-path="url(#clip992)" cx="2516.67" cy="379.696" r="14.4" fill="#e26f46" fill-rule="evenodd" fill-opacity="1" stroke="#000000" stroke-opacity="1" stroke-width="4"/>
<circle clip-path="url(#clip992)" cx="2555.39" cy="359.488" r="14.4" fill="#e26f46" fill-rule="evenodd" fill-opacity="1" stroke="#000000" stroke-opacity="1" stroke-width="4"/>
<circle clip-path="url(#clip992)" cx="2594.03" cy="352.752" r="14.4" fill="#e26f46" fill-rule="evenodd" fill-opacity="1" stroke="#000000" stroke-opacity="1" stroke-width="4"/>
<circle clip-path="url(#clip992)" cx="2632.67" cy="377.45" r="14.4" fill="#e26f46" fill-rule="evenodd" fill-opacity="1" stroke="#000000" stroke-opacity="1" stroke-width="4"/>
<circle clip-path="url(#clip992)" cx="2670.22" cy="384.186" r="14.4" fill="#e26f46" fill-rule="evenodd" fill-opacity="1" stroke="#000000" stroke-opacity="1" stroke-width="4"/>
<circle clip-path="url(#clip992)" cx="2708.87" cy="393.167" r="14.4" fill="#e26f46" fill-rule="evenodd" fill-opacity="1" stroke="#000000" stroke-opacity="1" stroke-width="4"/>
<circle clip-path="url(#clip992)" cx="2747.51" cy="429.092" r="14.4" fill="#e26f46" fill-rule="evenodd" fill-opacity="1" stroke="#000000" stroke-opacity="1" stroke-width="4"/>
<circle clip-path="url(#clip992)" cx="2785.13" cy="411.13" r="14.4" fill="#e26f46" fill-rule="evenodd" fill-opacity="1" stroke="#000000" stroke-opacity="1" stroke-width="4"/>
<circle clip-path="url(#clip992)" cx="2823.78" cy="397.658" r="14.4" fill="#e26f46" fill-rule="evenodd" fill-opacity="1" stroke="#000000" stroke-opacity="1" stroke-width="4"/>
<circle clip-path="url(#clip992)" cx="2862.42" cy="381.941" r="14.4" fill="#e26f46" fill-rule="evenodd" fill-opacity="1" stroke="#000000" stroke-opacity="1" stroke-width="4"/>
<circle clip-path="url(#clip992)" cx="2902.04" cy="350.507" r="14.4" fill="#e26f46" fill-rule="evenodd" fill-opacity="1" stroke="#000000" stroke-opacity="1" stroke-width="4"/>
<circle clip-path="url(#clip992)" cx="2940.69" cy="357.243" r="14.4" fill="#e26f46" fill-rule="evenodd" fill-opacity="1" stroke="#000000" stroke-opacity="1" stroke-width="4"/>
<circle clip-path="url(#clip992)" cx="2979.33" cy="372.96" r="14.4" fill="#e26f46" fill-rule="evenodd" fill-opacity="1" stroke="#000000" stroke-opacity="1" stroke-width="4"/>
<circle clip-path="url(#clip992)" cx="3014.83" cy="377.45" r="14.4" fill="#e26f46" fill-rule="evenodd" fill-opacity="1" stroke="#000000" stroke-opacity="1" stroke-width="4"/>
<circle clip-path="url(#clip992)" cx="3053.48" cy="384.186" r="14.4" fill="#e26f46" fill-rule="evenodd" fill-opacity="1" stroke="#000000" stroke-opacity="1" stroke-width="4"/>
<circle clip-path="url(#clip992)" cx="3092.12" cy="413.375" r="14.4" fill="#e26f46" fill-rule="evenodd" fill-opacity="1" stroke="#000000" stroke-opacity="1" stroke-width="4"/>
<circle clip-path="url(#clip992)" cx="3132.3" cy="433.582" r="14.4" fill="#e26f46" fill-rule="evenodd" fill-opacity="1" stroke="#000000" stroke-opacity="1" stroke-width="4"/>
<circle clip-path="url(#clip992)" cx="257.345" cy="1696.38" r="14.4" fill="#3da44d" fill-rule="evenodd" fill-opacity="1" stroke="#000000" stroke-opacity="1" stroke-width="4"/>
<circle clip-path="url(#clip992)" cx="294.792" cy="1696.38" r="14.4" fill="#3da44d" fill-rule="evenodd" fill-opacity="1" stroke="#000000" stroke-opacity="1" stroke-width="4"/>
<circle clip-path="url(#clip992)" cx="333.434" cy="1702.78" r="14.4" fill="#3da44d" fill-rule="evenodd" fill-opacity="1" stroke="#000000" stroke-opacity="1" stroke-width="4"/>
<circle clip-path="url(#clip992)" cx="372.076" cy="1696.38" r="14.4" fill="#3da44d" fill-rule="evenodd" fill-opacity="1" stroke="#000000" stroke-opacity="1" stroke-width="4"/>
<circle clip-path="url(#clip992)" cx="409.625" cy="1696.38" r="14.4" fill="#3da44d" fill-rule="evenodd" fill-opacity="1" stroke="#000000" stroke-opacity="1" stroke-width="4"/>
<circle clip-path="url(#clip992)" cx="448.268" cy="1696.38" r="14.4" fill="#3da44d" fill-rule="evenodd" fill-opacity="1" stroke="#000000" stroke-opacity="1" stroke-width="4"/>
<circle clip-path="url(#clip992)" cx="486.91" cy="1699.58" r="14.4" fill="#3da44d" fill-rule="evenodd" fill-opacity="1" stroke="#000000" stroke-opacity="1" stroke-width="4"/>
<circle clip-path="url(#clip992)" cx="526.958" cy="1696.38" r="14.4" fill="#3da44d" fill-rule="evenodd" fill-opacity="1" stroke="#000000" stroke-opacity="1" stroke-width="4"/>
<circle clip-path="url(#clip992)" cx="565.601" cy="1699.58" r="14.4" fill="#3da44d" fill-rule="evenodd" fill-opacity="1" stroke="#000000" stroke-opacity="1" stroke-width="4"/>
<circle clip-path="url(#clip992)" cx="604.243" cy="1699.58" r="14.4" fill="#3da44d" fill-rule="evenodd" fill-opacity="1" stroke="#000000" stroke-opacity="1" stroke-width="4"/>
<circle clip-path="url(#clip992)" cx="641.846" cy="1696.38" r="14.4" fill="#3da44d" fill-rule="evenodd" fill-opacity="1" stroke="#000000" stroke-opacity="1" stroke-width="4"/>
<circle clip-path="url(#clip992)" cx="680.488" cy="1699.58" r="14.4" fill="#3da44d" fill-rule="evenodd" fill-opacity="1" stroke="#000000" stroke-opacity="1" stroke-width="4"/>
<circle clip-path="url(#clip992)" cx="719.131" cy="1696.38" r="14.4" fill="#3da44d" fill-rule="evenodd" fill-opacity="1" stroke="#000000" stroke-opacity="1" stroke-width="4"/>
<circle clip-path="url(#clip992)" cx="755.994" cy="1696.38" r="14.4" fill="#3da44d" fill-rule="evenodd" fill-opacity="1" stroke="#000000" stroke-opacity="1" stroke-width="4"/>
<circle clip-path="url(#clip992)" cx="794.636" cy="1696.38" r="14.4" fill="#3da44d" fill-rule="evenodd" fill-opacity="1" stroke="#000000" stroke-opacity="1" stroke-width="4"/>
<circle clip-path="url(#clip992)" cx="833.279" cy="1696.38" r="14.4" fill="#3da44d" fill-rule="evenodd" fill-opacity="1" stroke="#000000" stroke-opacity="1" stroke-width="4"/>
<circle clip-path="url(#clip992)" cx="872.268" cy="1699.58" r="14.4" fill="#3da44d" fill-rule="evenodd" fill-opacity="1" stroke="#000000" stroke-opacity="1" stroke-width="4"/>
<circle clip-path="url(#clip992)" cx="910.91" cy="1699.58" r="14.4" fill="#3da44d" fill-rule="evenodd" fill-opacity="1" stroke="#000000" stroke-opacity="1" stroke-width="4"/>
<circle clip-path="url(#clip992)" cx="949.553" cy="1693.19" r="14.4" fill="#3da44d" fill-rule="evenodd" fill-opacity="1" stroke="#000000" stroke-opacity="1" stroke-width="4"/>
<circle clip-path="url(#clip992)" cx="987.764" cy="1699.58" r="14.4" fill="#3da44d" fill-rule="evenodd" fill-opacity="1" stroke="#000000" stroke-opacity="1" stroke-width="4"/>
<circle clip-path="url(#clip992)" cx="1026.41" cy="1696.38" r="14.4" fill="#3da44d" fill-rule="evenodd" fill-opacity="1" stroke="#000000" stroke-opacity="1" stroke-width="4"/>
<circle clip-path="url(#clip992)" cx="1065.05" cy="1693.19" r="14.4" fill="#3da44d" fill-rule="evenodd" fill-opacity="1" stroke="#000000" stroke-opacity="1" stroke-width="4"/>
<circle clip-path="url(#clip992)" cx="1104.63" cy="1696.38" r="14.4" fill="#3da44d" fill-rule="evenodd" fill-opacity="1" stroke="#000000" stroke-opacity="1" stroke-width="4"/>
<circle clip-path="url(#clip992)" cx="1143.27" cy="1693.19" r="14.4" fill="#3da44d" fill-rule="evenodd" fill-opacity="1" stroke="#000000" stroke-opacity="1" stroke-width="4"/>
<circle clip-path="url(#clip992)" cx="1181.91" cy="1693.19" r="14.4" fill="#3da44d" fill-rule="evenodd" fill-opacity="1" stroke="#000000" stroke-opacity="1" stroke-width="4"/>
<circle clip-path="url(#clip992)" cx="1217.76" cy="1683.59" r="14.4" fill="#3da44d" fill-rule="evenodd" fill-opacity="1" stroke="#000000" stroke-opacity="1" stroke-width="4"/>
<circle clip-path="url(#clip992)" cx="1256.4" cy="1517.29" r="14.4" fill="#3da44d" fill-rule="evenodd" fill-opacity="1" stroke="#000000" stroke-opacity="1" stroke-width="4"/>
<circle clip-path="url(#clip992)" cx="1295.05" cy="1178.28" r="14.4" fill="#3da44d" fill-rule="evenodd" fill-opacity="1" stroke="#000000" stroke-opacity="1" stroke-width="4"/>
<circle clip-path="url(#clip992)" cx="1334.07" cy="845.674" r="14.4" fill="#3da44d" fill-rule="evenodd" fill-opacity="1" stroke="#000000" stroke-opacity="1" stroke-width="4"/>
<circle clip-path="url(#clip992)" cx="1372.71" cy="554.641" r="14.4" fill="#3da44d" fill-rule="evenodd" fill-opacity="1" stroke="#000000" stroke-opacity="1" stroke-width="4"/>
<circle clip-path="url(#clip992)" cx="1411.35" cy="401.13" r="14.4" fill="#3da44d" fill-rule="evenodd" fill-opacity="1" stroke="#000000" stroke-opacity="1" stroke-width="4"/>
<circle clip-path="url(#clip992)" cx="1449.02" cy="461.895" r="14.4" fill="#3da44d" fill-rule="evenodd" fill-opacity="1" stroke="#000000" stroke-opacity="1" stroke-width="4"/>
<circle clip-path="url(#clip992)" cx="1487.67" cy="442.706" r="14.4" fill="#3da44d" fill-rule="evenodd" fill-opacity="1" stroke="#000000" stroke-opacity="1" stroke-width="4"/>
<circle clip-path="url(#clip992)" cx="1526.31" cy="433.112" r="14.4" fill="#3da44d" fill-rule="evenodd" fill-opacity="1" stroke="#000000" stroke-opacity="1" stroke-width="4"/>
<circle clip-path="url(#clip992)" cx="1563.78" cy="298.789" r="14.4" fill="#3da44d" fill-rule="evenodd" fill-opacity="1" stroke="#000000" stroke-opacity="1" stroke-width="4"/>
<circle clip-path="url(#clip992)" cx="1602.43" cy="222.033" r="14.4" fill="#3da44d" fill-rule="evenodd" fill-opacity="1" stroke="#000000" stroke-opacity="1" stroke-width="4"/>
<circle clip-path="url(#clip992)" cx="1641.07" cy="365.95" r="14.4" fill="#3da44d" fill-rule="evenodd" fill-opacity="1" stroke="#000000" stroke-opacity="1" stroke-width="4"/>
<circle clip-path="url(#clip992)" cx="1680.23" cy="436.31" r="14.4" fill="#3da44d" fill-rule="evenodd" fill-opacity="1" stroke="#000000" stroke-opacity="1" stroke-width="4"/>
<circle clip-path="url(#clip992)" cx="1718.87" cy="385.139" r="14.4" fill="#3da44d" fill-rule="evenodd" fill-opacity="1" stroke="#000000" stroke-opacity="1" stroke-width="4"/>
<circle clip-path="url(#clip992)" cx="1757.51" cy="257.213" r="14.4" fill="#3da44d" fill-rule="evenodd" fill-opacity="1" stroke="#000000" stroke-opacity="1" stroke-width="4"/>
<circle clip-path="url(#clip992)" cx="1795.44" cy="292.393" r="14.4" fill="#3da44d" fill-rule="evenodd" fill-opacity="1" stroke="#000000" stroke-opacity="1" stroke-width="4"/>
<circle clip-path="url(#clip992)" cx="1834.08" cy="426.715" r="14.4" fill="#3da44d" fill-rule="evenodd" fill-opacity="1" stroke="#000000" stroke-opacity="1" stroke-width="4"/>
<circle clip-path="url(#clip992)" cx="1872.73" cy="445.904" r="14.4" fill="#3da44d" fill-rule="evenodd" fill-opacity="1" stroke="#000000" stroke-opacity="1" stroke-width="4"/>
<circle clip-path="url(#clip992)" cx="1911.83" cy="333.969" r="14.4" fill="#3da44d" fill-rule="evenodd" fill-opacity="1" stroke="#000000" stroke-opacity="1" stroke-width="4"/>
<circle clip-path="url(#clip992)" cx="1950.47" cy="270.006" r="14.4" fill="#3da44d" fill-rule="evenodd" fill-opacity="1" stroke="#000000" stroke-opacity="1" stroke-width="4"/>
<circle clip-path="url(#clip992)" cx="1989.12" cy="381.941" r="14.4" fill="#3da44d" fill-rule="evenodd" fill-opacity="1" stroke="#000000" stroke-opacity="1" stroke-width="4"/>
<circle clip-path="url(#clip992)" cx="2025.12" cy="471.489" r="14.4" fill="#3da44d" fill-rule="evenodd" fill-opacity="1" stroke="#000000" stroke-opacity="1" stroke-width="4"/>
<circle clip-path="url(#clip992)" cx="2063.76" cy="442.706" r="14.4" fill="#3da44d" fill-rule="evenodd" fill-opacity="1" stroke="#000000" stroke-opacity="1" stroke-width="4"/>
<circle clip-path="url(#clip992)" cx="2102.41" cy="276.402" r="14.4" fill="#3da44d" fill-rule="evenodd" fill-opacity="1" stroke="#000000" stroke-opacity="1" stroke-width="4"/>
<circle clip-path="url(#clip992)" cx="2141.34" cy="295.591" r="14.4" fill="#3da44d" fill-rule="evenodd" fill-opacity="1" stroke="#000000" stroke-opacity="1" stroke-width="4"/>
<circle clip-path="url(#clip992)" cx="2179.99" cy="439.508" r="14.4" fill="#3da44d" fill-rule="evenodd" fill-opacity="1" stroke="#000000" stroke-opacity="1" stroke-width="4"/>
<circle clip-path="url(#clip992)" cx="2218.63" cy="477.886" r="14.4" fill="#3da44d" fill-rule="evenodd" fill-opacity="1" stroke="#000000" stroke-opacity="1" stroke-width="4"/>
<circle clip-path="url(#clip992)" cx="2258.22" cy="369.148" r="14.4" fill="#3da44d" fill-rule="evenodd" fill-opacity="1" stroke="#000000" stroke-opacity="1" stroke-width="4"/>
<circle clip-path="url(#clip992)" cx="2296.86" cy="250.817" r="14.4" fill="#3da44d" fill-rule="evenodd" fill-opacity="1" stroke="#000000" stroke-opacity="1" stroke-width="4"/>
<circle clip-path="url(#clip992)" cx="2335.5" cy="369.148" r="14.4" fill="#3da44d" fill-rule="evenodd" fill-opacity="1" stroke="#000000" stroke-opacity="1" stroke-width="4"/>
<circle clip-path="url(#clip992)" cx="2371.03" cy="468.291" r="14.4" fill="#3da44d" fill-rule="evenodd" fill-opacity="1" stroke="#000000" stroke-opacity="1" stroke-width="4"/>
<circle clip-path="url(#clip992)" cx="2409.67" cy="449.102" r="14.4" fill="#3da44d" fill-rule="evenodd" fill-opacity="1" stroke="#000000" stroke-opacity="1" stroke-width="4"/>
<circle clip-path="url(#clip992)" cx="2448.31" cy="292.393" r="14.4" fill="#3da44d" fill-rule="evenodd" fill-opacity="1" stroke="#000000" stroke-opacity="1" stroke-width="4"/>
<circle clip-path="url(#clip992)" cx="2487.97" cy="295.591" r="14.4" fill="#3da44d" fill-rule="evenodd" fill-opacity="1" stroke="#000000" stroke-opacity="1" stroke-width="4"/>
<circle clip-path="url(#clip992)" cx="2526.61" cy="442.706" r="14.4" fill="#3da44d" fill-rule="evenodd" fill-opacity="1" stroke="#000000" stroke-opacity="1" stroke-width="4"/>
<circle clip-path="url(#clip992)" cx="2565.26" cy="468.291" r="14.4" fill="#3da44d" fill-rule="evenodd" fill-opacity="1" stroke="#000000" stroke-opacity="1" stroke-width="4"/>
<circle clip-path="url(#clip992)" cx="2603.17" cy="378.743" r="14.4" fill="#3da44d" fill-rule="evenodd" fill-opacity="1" stroke="#000000" stroke-opacity="1" stroke-width="4"/>
<circle clip-path="url(#clip992)" cx="2641.81" cy="276.402" r="14.4" fill="#3da44d" fill-rule="evenodd" fill-opacity="1" stroke="#000000" stroke-opacity="1" stroke-width="4"/>
<circle clip-path="url(#clip992)" cx="2680.45" cy="343.563" r="14.4" fill="#3da44d" fill-rule="evenodd" fill-opacity="1" stroke="#000000" stroke-opacity="1" stroke-width="4"/>
<circle clip-path="url(#clip992)" cx="2719.97" cy="445.904" r="14.4" fill="#3da44d" fill-rule="evenodd" fill-opacity="1" stroke="#000000" stroke-opacity="1" stroke-width="4"/>
<circle clip-path="url(#clip992)" cx="2758.61" cy="445.904" r="14.4" fill="#3da44d" fill-rule="evenodd" fill-opacity="1" stroke="#000000" stroke-opacity="1" stroke-width="4"/>
<circle clip-path="url(#clip992)" cx="2797.26" cy="340.365" r="14.4" fill="#3da44d" fill-rule="evenodd" fill-opacity="1" stroke="#000000" stroke-opacity="1" stroke-width="4"/>
<circle clip-path="url(#clip992)" cx="2833.08" cy="260.411" r="14.4" fill="#3da44d" fill-rule="evenodd" fill-opacity="1" stroke="#000000" stroke-opacity="1" stroke-width="4"/>
<circle clip-path="url(#clip992)" cx="2871.72" cy="369.148" r="14.4" fill="#3da44d" fill-rule="evenodd" fill-opacity="1" stroke="#000000" stroke-opacity="1" stroke-width="4"/>
<circle clip-path="url(#clip992)" cx="2910.36" cy="481.084" r="14.4" fill="#3da44d" fill-rule="evenodd" fill-opacity="1" stroke="#000000" stroke-opacity="1" stroke-width="4"/>
<circle clip-path="url(#clip992)" cx="2948.93" cy="439.508" r="14.4" fill="#3da44d" fill-rule="evenodd" fill-opacity="1" stroke="#000000" stroke-opacity="1" stroke-width="4"/>
<circle clip-path="url(#clip992)" cx="2987.58" cy="317.978" r="14.4" fill="#3da44d" fill-rule="evenodd" fill-opacity="1" stroke="#000000" stroke-opacity="1" stroke-width="4"/>
<circle clip-path="url(#clip992)" cx="3026.22" cy="276.402" r="14.4" fill="#3da44d" fill-rule="evenodd" fill-opacity="1" stroke="#000000" stroke-opacity="1" stroke-width="4"/>
<circle clip-path="url(#clip992)" cx="3065.68" cy="423.517" r="14.4" fill="#3da44d" fill-rule="evenodd" fill-opacity="1" stroke="#000000" stroke-opacity="1" stroke-width="4"/>
<circle clip-path="url(#clip992)" cx="3104.32" cy="465.093" r="14.4" fill="#3da44d" fill-rule="evenodd" fill-opacity="1" stroke="#000000" stroke-opacity="1" stroke-width="4"/>
<circle clip-path="url(#clip992)" cx="3142.96" cy="413.923" r="14.4" fill="#3da44d" fill-rule="evenodd" fill-opacity="1" stroke="#000000" stroke-opacity="1" stroke-width="4"/>
<circle clip-path="url(#clip992)" cx="292.056" cy="1707.28" r="14.4" fill="#c271d2" fill-rule="evenodd" fill-opacity="1" stroke="#000000" stroke-opacity="1" stroke-width="4"/>
<circle clip-path="url(#clip992)" cx="330.698" cy="1707.28" r="14.4" fill="#c271d2" fill-rule="evenodd" fill-opacity="1" stroke="#000000" stroke-opacity="1" stroke-width="4"/>
<circle clip-path="url(#clip992)" cx="369.34" cy="1707.28" r="14.4" fill="#c271d2" fill-rule="evenodd" fill-opacity="1" stroke="#000000" stroke-opacity="1" stroke-width="4"/>
<circle clip-path="url(#clip992)" cx="407.982" cy="1707.28" r="14.4" fill="#c271d2" fill-rule="evenodd" fill-opacity="1" stroke="#000000" stroke-opacity="1" stroke-width="4"/>
<circle clip-path="url(#clip992)" cx="446.625" cy="1693.19" r="14.4" fill="#c271d2" fill-rule="evenodd" fill-opacity="1" stroke="#000000" stroke-opacity="1" stroke-width="4"/>
<circle clip-path="url(#clip992)" cx="485.267" cy="1693.19" r="14.4" fill="#c271d2" fill-rule="evenodd" fill-opacity="1" stroke="#000000" stroke-opacity="1" stroke-width="4"/>
<circle clip-path="url(#clip992)" cx="524.729" cy="1707.28" r="14.4" fill="#c271d2" fill-rule="evenodd" fill-opacity="1" stroke="#000000" stroke-opacity="1" stroke-width="4"/>
<circle clip-path="url(#clip992)" cx="563.371" cy="1693.19" r="14.4" fill="#c271d2" fill-rule="evenodd" fill-opacity="1" stroke="#000000" stroke-opacity="1" stroke-width="4"/>
<circle clip-path="url(#clip992)" cx="602.014" cy="1693.19" r="14.4" fill="#c271d2" fill-rule="evenodd" fill-opacity="1" stroke="#000000" stroke-opacity="1" stroke-width="4"/>
<circle clip-path="url(#clip992)" cx="638.233" cy="1693.19" r="14.4" fill="#c271d2" fill-rule="evenodd" fill-opacity="1" stroke="#000000" stroke-opacity="1" stroke-width="4"/>
<circle clip-path="url(#clip992)" cx="676.876" cy="1693.19" r="14.4" fill="#c271d2" fill-rule="evenodd" fill-opacity="1" stroke="#000000" stroke-opacity="1" stroke-width="4"/>
<circle clip-path="url(#clip992)" cx="715.518" cy="1693.19" r="14.4" fill="#c271d2" fill-rule="evenodd" fill-opacity="1" stroke="#000000" stroke-opacity="1" stroke-width="4"/>
<circle clip-path="url(#clip992)" cx="754.937" cy="1693.19" r="14.4" fill="#c271d2" fill-rule="evenodd" fill-opacity="1" stroke="#000000" stroke-opacity="1" stroke-width="4"/>
<circle clip-path="url(#clip992)" cx="793.58" cy="1693.19" r="14.4" fill="#c271d2" fill-rule="evenodd" fill-opacity="1" stroke="#000000" stroke-opacity="1" stroke-width="4"/>
<circle clip-path="url(#clip992)" cx="832.222" cy="1693.19" r="14.4" fill="#c271d2" fill-rule="evenodd" fill-opacity="1" stroke="#000000" stroke-opacity="1" stroke-width="4"/>
<circle clip-path="url(#clip992)" cx="869.943" cy="1693.19" r="14.4" fill="#c271d2" fill-rule="evenodd" fill-opacity="1" stroke="#000000" stroke-opacity="1" stroke-width="4"/>
<circle clip-path="url(#clip992)" cx="908.585" cy="1693.19" r="14.4" fill="#c271d2" fill-rule="evenodd" fill-opacity="1" stroke="#000000" stroke-opacity="1" stroke-width="4"/>
<circle clip-path="url(#clip992)" cx="947.228" cy="1693.19" r="14.4" fill="#c271d2" fill-rule="evenodd" fill-opacity="1" stroke="#000000" stroke-opacity="1" stroke-width="4"/>
<circle clip-path="url(#clip992)" cx="984.165" cy="1693.19" r="14.4" fill="#c271d2" fill-rule="evenodd" fill-opacity="1" stroke="#000000" stroke-opacity="1" stroke-width="4"/>
<circle clip-path="url(#clip992)" cx="1022.81" cy="1693.19" r="14.4" fill="#c271d2" fill-rule="evenodd" fill-opacity="1" stroke="#000000" stroke-opacity="1" stroke-width="4"/>
<circle clip-path="url(#clip992)" cx="1061.45" cy="1693.19" r="14.4" fill="#c271d2" fill-rule="evenodd" fill-opacity="1" stroke="#000000" stroke-opacity="1" stroke-width="4"/>
<circle clip-path="url(#clip992)" cx="1100.49" cy="1693.19" r="14.4" fill="#c271d2" fill-rule="evenodd" fill-opacity="1" stroke="#000000" stroke-opacity="1" stroke-width="4"/>
<circle clip-path="url(#clip992)" cx="1139.14" cy="1693.19" r="14.4" fill="#c271d2" fill-rule="evenodd" fill-opacity="1" stroke="#000000" stroke-opacity="1" stroke-width="4"/>
<circle clip-path="url(#clip992)" cx="1177.78" cy="1693.19" r="14.4" fill="#c271d2" fill-rule="evenodd" fill-opacity="1" stroke="#000000" stroke-opacity="1" stroke-width="4"/>
<circle clip-path="url(#clip992)" cx="1215.69" cy="1679.09" r="14.4" fill="#c271d2" fill-rule="evenodd" fill-opacity="1" stroke="#000000" stroke-opacity="1" stroke-width="4"/>
<circle clip-path="url(#clip992)" cx="1254.33" cy="1523.99" r="14.4" fill="#c271d2" fill-rule="evenodd" fill-opacity="1" stroke="#000000" stroke-opacity="1" stroke-width="4"/>
<circle clip-path="url(#clip992)" cx="1292.97" cy="988.215" r="14.4" fill="#c271d2" fill-rule="evenodd" fill-opacity="1" stroke="#000000" stroke-opacity="1" stroke-width="4"/>
<circle clip-path="url(#clip992)" cx="1332.53" cy="889.519" r="14.4" fill="#c271d2" fill-rule="evenodd" fill-opacity="1" stroke="#000000" stroke-opacity="1" stroke-width="4"/>
<circle clip-path="url(#clip992)" cx="1371.17" cy="762.625" r="14.4" fill="#c271d2" fill-rule="evenodd" fill-opacity="1" stroke="#000000" stroke-opacity="1" stroke-width="4"/>
<circle clip-path="url(#clip992)" cx="1409.82" cy="551.134" r="14.4" fill="#c271d2" fill-rule="evenodd" fill-opacity="1" stroke="#000000" stroke-opacity="1" stroke-width="4"/>
<circle clip-path="url(#clip992)" cx="1445.82" cy="311.444" r="14.4" fill="#c271d2" fill-rule="evenodd" fill-opacity="1" stroke="#000000" stroke-opacity="1" stroke-width="4"/>
<circle clip-path="url(#clip992)" cx="1484.46" cy="706.227" r="14.4" fill="#c271d2" fill-rule="evenodd" fill-opacity="1" stroke="#000000" stroke-opacity="1" stroke-width="4"/>
<circle clip-path="url(#clip992)" cx="1523.1" cy="353.742" r="14.4" fill="#c271d2" fill-rule="evenodd" fill-opacity="1" stroke="#000000" stroke-opacity="1" stroke-width="4"/>
<circle clip-path="url(#clip992)" cx="1562.59" cy="494.736" r="14.4" fill="#c271d2" fill-rule="evenodd" fill-opacity="1" stroke="#000000" stroke-opacity="1" stroke-width="4"/>
<circle clip-path="url(#clip992)" cx="1601.23" cy="466.537" r="14.4" fill="#c271d2" fill-rule="evenodd" fill-opacity="1" stroke="#000000" stroke-opacity="1" stroke-width="4"/>
<circle clip-path="url(#clip992)" cx="1639.87" cy="353.742" r="14.4" fill="#c271d2" fill-rule="evenodd" fill-opacity="1" stroke="#000000" stroke-opacity="1" stroke-width="4"/>
<circle clip-path="url(#clip992)" cx="1677.63" cy="494.736" r="14.4" fill="#c271d2" fill-rule="evenodd" fill-opacity="1" stroke="#000000" stroke-opacity="1" stroke-width="4"/>
<circle clip-path="url(#clip992)" cx="1716.28" cy="325.543" r="14.4" fill="#c271d2" fill-rule="evenodd" fill-opacity="1" stroke="#000000" stroke-opacity="1" stroke-width="4"/>
<circle clip-path="url(#clip992)" cx="1754.92" cy="480.637" r="14.4" fill="#c271d2" fill-rule="evenodd" fill-opacity="1" stroke="#000000" stroke-opacity="1" stroke-width="4"/>
<circle clip-path="url(#clip992)" cx="1791.84" cy="339.643" r="14.4" fill="#c271d2" fill-rule="evenodd" fill-opacity="1" stroke="#000000" stroke-opacity="1" stroke-width="4"/>
<circle clip-path="url(#clip992)" cx="1830.48" cy="508.836" r="14.4" fill="#c271d2" fill-rule="evenodd" fill-opacity="1" stroke="#000000" stroke-opacity="1" stroke-width="4"/>
<circle clip-path="url(#clip992)" cx="1869.12" cy="283.245" r="14.4" fill="#c271d2" fill-rule="evenodd" fill-opacity="1" stroke="#000000" stroke-opacity="1" stroke-width="4"/>
<circle clip-path="url(#clip992)" cx="1908.17" cy="522.935" r="14.4" fill="#c271d2" fill-rule="evenodd" fill-opacity="1" stroke="#000000" stroke-opacity="1" stroke-width="4"/>
<circle clip-path="url(#clip992)" cx="1946.82" cy="269.146" r="14.4" fill="#c271d2" fill-rule="evenodd" fill-opacity="1" stroke="#000000" stroke-opacity="1" stroke-width="4"/>
<circle clip-path="url(#clip992)" cx="1985.46" cy="508.836" r="14.4" fill="#c271d2" fill-rule="evenodd" fill-opacity="1" stroke="#000000" stroke-opacity="1" stroke-width="4"/>
<circle clip-path="url(#clip992)" cx="2023.59" cy="255.046" r="14.4" fill="#c271d2" fill-rule="evenodd" fill-opacity="1" stroke="#000000" stroke-opacity="1" stroke-width="4"/>
<circle clip-path="url(#clip992)" cx="2062.23" cy="522.935" r="14.4" fill="#c271d2" fill-rule="evenodd" fill-opacity="1" stroke="#000000" stroke-opacity="1" stroke-width="4"/>
<circle clip-path="url(#clip992)" cx="2100.87" cy="240.947" r="14.4" fill="#c271d2" fill-rule="evenodd" fill-opacity="1" stroke="#000000" stroke-opacity="1" stroke-width="4"/>
<circle clip-path="url(#clip992)" cx="2140.19" cy="551.134" r="14.4" fill="#c271d2" fill-rule="evenodd" fill-opacity="1" stroke="#000000" stroke-opacity="1" stroke-width="4"/>
<circle clip-path="url(#clip992)" cx="2178.83" cy="255.046" r="14.4" fill="#c271d2" fill-rule="evenodd" fill-opacity="1" stroke="#000000" stroke-opacity="1" stroke-width="4"/>
<circle clip-path="url(#clip992)" cx="2217.48" cy="565.233" r="14.4" fill="#c271d2" fill-rule="evenodd" fill-opacity="1" stroke="#000000" stroke-opacity="1" stroke-width="4"/>
<circle clip-path="url(#clip992)" cx="2253.4" cy="226.848" r="14.4" fill="#c271d2" fill-rule="evenodd" fill-opacity="1" stroke="#000000" stroke-opacity="1" stroke-width="4"/>
<circle clip-path="url(#clip992)" cx="2292.04" cy="565.233" r="14.4" fill="#c271d2" fill-rule="evenodd" fill-opacity="1" stroke="#000000" stroke-opacity="1" stroke-width="4"/>
<circle clip-path="url(#clip992)" cx="2330.68" cy="255.046" r="14.4" fill="#c271d2" fill-rule="evenodd" fill-opacity="1" stroke="#000000" stroke-opacity="1" stroke-width="4"/>
<circle clip-path="url(#clip992)" cx="2369.17" cy="551.134" r="14.4" fill="#c271d2" fill-rule="evenodd" fill-opacity="1" stroke="#000000" stroke-opacity="1" stroke-width="4"/>
<circle clip-path="url(#clip992)" cx="2407.81" cy="240.947" r="14.4" fill="#c271d2" fill-rule="evenodd" fill-opacity="1" stroke="#000000" stroke-opacity="1" stroke-width="4"/>
<circle clip-path="url(#clip992)" cx="2446.46" cy="565.233" r="14.4" fill="#c271d2" fill-rule="evenodd" fill-opacity="1" stroke="#000000" stroke-opacity="1" stroke-width="4"/>
<circle clip-path="url(#clip992)" cx="2485.92" cy="240.947" r="14.4" fill="#c271d2" fill-rule="evenodd" fill-opacity="1" stroke="#000000" stroke-opacity="1" stroke-width="4"/>
<circle clip-path="url(#clip992)" cx="2524.57" cy="593.432" r="14.4" fill="#c271d2" fill-rule="evenodd" fill-opacity="1" stroke="#000000" stroke-opacity="1" stroke-width="4"/>
<circle clip-path="url(#clip992)" cx="2563.21" cy="240.947" r="14.4" fill="#c271d2" fill-rule="evenodd" fill-opacity="1" stroke="#000000" stroke-opacity="1" stroke-width="4"/>
<circle clip-path="url(#clip992)" cx="2601.1" cy="551.134" r="14.4" fill="#c271d2" fill-rule="evenodd" fill-opacity="1" stroke="#000000" stroke-opacity="1" stroke-width="4"/>
<circle clip-path="url(#clip992)" cx="2639.74" cy="240.947" r="14.4" fill="#c271d2" fill-rule="evenodd" fill-opacity="1" stroke="#000000" stroke-opacity="1" stroke-width="4"/>
<circle clip-path="url(#clip992)" cx="2678.39" cy="551.134" r="14.4" fill="#c271d2" fill-rule="evenodd" fill-opacity="1" stroke="#000000" stroke-opacity="1" stroke-width="4"/>
<circle clip-path="url(#clip992)" cx="2715.98" cy="269.146" r="14.4" fill="#c271d2" fill-rule="evenodd" fill-opacity="1" stroke="#000000" stroke-opacity="1" stroke-width="4"/>
<circle clip-path="url(#clip992)" cx="2754.63" cy="508.836" r="14.4" fill="#c271d2" fill-rule="evenodd" fill-opacity="1" stroke="#000000" stroke-opacity="1" stroke-width="4"/>
<circle clip-path="url(#clip992)" cx="2793.27" cy="269.146" r="14.4" fill="#c271d2" fill-rule="evenodd" fill-opacity="1" stroke="#000000" stroke-opacity="1" stroke-width="4"/>
<circle clip-path="url(#clip992)" cx="2830.91" cy="551.134" r="14.4" fill="#c271d2" fill-rule="evenodd" fill-opacity="1" stroke="#000000" stroke-opacity="1" stroke-width="4"/>
<circle clip-path="url(#clip992)" cx="2869.55" cy="297.345" r="14.4" fill="#c271d2" fill-rule="evenodd" fill-opacity="1" stroke="#000000" stroke-opacity="1" stroke-width="4"/>
<circle clip-path="url(#clip992)" cx="2908.19" cy="494.736" r="14.4" fill="#c271d2" fill-rule="evenodd" fill-opacity="1" stroke="#000000" stroke-opacity="1" stroke-width="4"/>
<circle clip-path="url(#clip992)" cx="2948.01" cy="283.245" r="14.4" fill="#c271d2" fill-rule="evenodd" fill-opacity="1" stroke="#000000" stroke-opacity="1" stroke-width="4"/>
<circle clip-path="url(#clip992)" cx="2986.65" cy="466.537" r="14.4" fill="#c271d2" fill-rule="evenodd" fill-opacity="1" stroke="#000000" stroke-opacity="1" stroke-width="4"/>
<circle clip-path="url(#clip992)" cx="3025.29" cy="311.444" r="14.4" fill="#c271d2" fill-rule="evenodd" fill-opacity="1" stroke="#000000" stroke-opacity="1" stroke-width="4"/>
<circle clip-path="url(#clip992)" cx="3061.26" cy="466.537" r="14.4" fill="#c271d2" fill-rule="evenodd" fill-opacity="1" stroke="#000000" stroke-opacity="1" stroke-width="4"/>
<circle clip-path="url(#clip992)" cx="3099.9" cy="311.444" r="14.4" fill="#c271d2" fill-rule="evenodd" fill-opacity="1" stroke="#000000" stroke-opacity="1" stroke-width="4"/>
<circle clip-path="url(#clip992)" cx="3138.54" cy="466.537" r="14.4" fill="#c271d2" fill-rule="evenodd" fill-opacity="1" stroke="#000000" stroke-opacity="1" stroke-width="4"/>
<path clip-path="url(#clip990)" d="M351.178 435.713 L755.371 435.713 L755.371 176.513 L351.178 176.513  Z" fill="#ffffff" fill-rule="evenodd" fill-opacity="1"/>
<polyline clip-path="url(#clip990)" style="stroke:#000000; stroke-linecap:round; stroke-linejoin:round; stroke-width:4; stroke-opacity:1; fill:none" points="351.178,435.713 755.371,435.713 755.371,176.513 351.178,176.513 351.178,435.713 "/>
<polyline clip-path="url(#clip990)" style="stroke:#009af9; stroke-linecap:round; stroke-linejoin:round; stroke-width:4; stroke-opacity:1; fill:none" points="383.38,228.353 576.592,228.353 "/>
<path clip-path="url(#clip990)" d="M622.637 248.04 Q620.831 252.67 619.119 254.082 Q617.406 255.494 614.535 255.494 L611.132 255.494 L611.132 251.929 L613.632 251.929 Q615.392 251.929 616.364 251.096 Q617.336 250.262 618.517 247.16 L619.281 245.216 L608.795 219.707 L613.308 219.707 L621.41 239.985 L629.512 219.707 L634.026 219.707 L622.637 248.04 Z" fill="#000000" fill-rule="nonzero" fill-opacity="1" /><path clip-path="url(#clip990)" d="M641.317 241.698 L648.956 241.698 L648.956 215.332 L640.646 216.999 L640.646 212.739 L648.91 211.073 L653.586 211.073 L653.586 241.698 L661.225 241.698 L661.225 245.633 L641.317 245.633 L641.317 241.698 Z" fill="#000000" fill-rule="nonzero" fill-opacity="1" /><circle clip-path="url(#clip990)" cx="479.986" cy="280.193" r="23.04" fill="#e26f46" fill-rule="evenodd" fill-opacity="1" stroke="#000000" stroke-opacity="1" stroke-width="6.4"/>
<path clip-path="url(#clip990)" d="M609.466 293.538 L617.105 293.538 L617.105 267.172 L608.795 268.839 L608.795 264.579 L617.058 262.913 L621.734 262.913 L621.734 293.538 L629.373 293.538 L629.373 297.473 L609.466 297.473 L609.466 293.538 Z" fill="#000000" fill-rule="nonzero" fill-opacity="1" /><path clip-path="url(#clip990)" d="M638.864 262.913 L657.22 262.913 L657.22 266.848 L643.146 266.848 L643.146 275.32 Q644.165 274.973 645.183 274.811 Q646.202 274.626 647.22 274.626 Q653.007 274.626 656.387 277.797 Q659.766 280.968 659.766 286.385 Q659.766 291.963 656.294 295.065 Q652.822 298.144 646.503 298.144 Q644.327 298.144 642.058 297.774 Q639.813 297.403 637.405 296.663 L637.405 291.963 Q639.489 293.098 641.711 293.653 Q643.933 294.209 646.41 294.209 Q650.415 294.209 652.753 292.102 Q655.091 289.996 655.091 286.385 Q655.091 282.774 652.753 280.667 Q650.415 278.561 646.41 278.561 Q644.535 278.561 642.66 278.977 Q640.808 279.394 638.864 280.274 L638.864 262.913 Z" fill="#000000" fill-rule="nonzero" fill-opacity="1" /><path clip-path="url(#clip990)" d="M678.979 265.991 Q675.368 265.991 673.54 269.556 Q671.734 273.098 671.734 280.227 Q671.734 287.334 673.54 290.899 Q675.368 294.44 678.979 294.44 Q682.614 294.44 684.419 290.899 Q686.248 287.334 686.248 280.227 Q686.248 273.098 684.419 269.556 Q682.614 265.991 678.979 265.991 M678.979 262.288 Q684.789 262.288 687.845 266.894 Q690.924 271.477 690.924 280.227 Q690.924 288.954 687.845 293.561 Q684.789 298.144 678.979 298.144 Q673.169 298.144 670.09 293.561 Q667.035 288.954 667.035 280.227 Q667.035 271.477 670.09 266.894 Q673.169 262.288 678.979 262.288 Z" fill="#000000" fill-rule="nonzero" fill-opacity="1" /><path clip-path="url(#clip990)" d="M709.141 265.991 Q705.53 265.991 703.701 269.556 Q701.896 273.098 701.896 280.227 Q701.896 287.334 703.701 290.899 Q705.53 294.44 709.141 294.44 Q712.775 294.44 714.581 290.899 Q716.41 287.334 716.41 280.227 Q716.41 273.098 714.581 269.556 Q712.775 265.991 709.141 265.991 M709.141 262.288 Q714.951 262.288 718.007 266.894 Q721.086 271.477 721.086 280.227 Q721.086 288.954 718.007 293.561 Q714.951 298.144 709.141 298.144 Q703.331 298.144 700.252 293.561 Q697.197 288.954 697.197 280.227 Q697.197 271.477 700.252 266.894 Q703.331 262.288 709.141 262.288 Z" fill="#000000" fill-rule="nonzero" fill-opacity="1" /><circle clip-path="url(#clip990)" cx="479.986" cy="332.033" r="23.04" fill="#3da44d" fill-rule="evenodd" fill-opacity="1" stroke="#000000" stroke-opacity="1" stroke-width="6.4"/>
<path clip-path="url(#clip990)" d="M609.466 345.378 L617.105 345.378 L617.105 319.012 L608.795 320.679 L608.795 316.419 L617.058 314.753 L621.734 314.753 L621.734 345.378 L629.373 345.378 L629.373 349.313 L609.466 349.313 L609.466 345.378 Z" fill="#000000" fill-rule="nonzero" fill-opacity="1" /><path clip-path="url(#clip990)" d="M642.845 345.378 L659.165 345.378 L659.165 349.313 L637.22 349.313 L637.22 345.378 Q639.882 342.623 644.466 337.993 Q649.072 333.341 650.253 331.998 Q652.498 329.475 653.378 327.739 Q654.28 325.98 654.28 324.29 Q654.28 321.535 652.336 319.799 Q650.415 318.063 647.313 318.063 Q645.114 318.063 642.66 318.827 Q640.23 319.591 637.452 321.142 L637.452 316.419 Q640.276 315.285 642.73 314.706 Q645.183 314.128 647.22 314.128 Q652.591 314.128 655.785 316.813 Q658.979 319.498 658.979 323.989 Q658.979 326.118 658.169 328.04 Q657.382 329.938 655.276 332.53 Q654.697 333.202 651.595 336.419 Q648.493 339.614 642.845 345.378 Z" fill="#000000" fill-rule="nonzero" fill-opacity="1" /><path clip-path="url(#clip990)" d="M678.979 317.831 Q675.368 317.831 673.54 321.396 Q671.734 324.938 671.734 332.067 Q671.734 339.174 673.54 342.739 Q675.368 346.28 678.979 346.28 Q682.614 346.28 684.419 342.739 Q686.248 339.174 686.248 332.067 Q686.248 324.938 684.419 321.396 Q682.614 317.831 678.979 317.831 M678.979 314.128 Q684.789 314.128 687.845 318.734 Q690.924 323.317 690.924 332.067 Q690.924 340.794 687.845 345.401 Q684.789 349.984 678.979 349.984 Q673.169 349.984 670.09 345.401 Q667.035 340.794 667.035 332.067 Q667.035 323.317 670.09 318.734 Q673.169 314.128 678.979 314.128 Z" fill="#000000" fill-rule="nonzero" fill-opacity="1" /><path clip-path="url(#clip990)" d="M709.141 317.831 Q705.53 317.831 703.701 321.396 Q701.896 324.938 701.896 332.067 Q701.896 339.174 703.701 342.739 Q705.53 346.28 709.141 346.28 Q712.775 346.28 714.581 342.739 Q716.41 339.174 716.41 332.067 Q716.41 324.938 714.581 321.396 Q712.775 317.831 709.141 317.831 M709.141 314.128 Q714.951 314.128 718.007 318.734 Q721.086 323.317 721.086 332.067 Q721.086 340.794 718.007 345.401 Q714.951 349.984 709.141 349.984 Q703.331 349.984 700.252 345.401 Q697.197 340.794 697.197 332.067 Q697.197 323.317 700.252 318.734 Q703.331 314.128 709.141 314.128 Z" fill="#000000" fill-rule="nonzero" fill-opacity="1" /><circle clip-path="url(#clip990)" cx="479.986" cy="383.873" r="23.04" fill="#c271d2" fill-rule="evenodd" fill-opacity="1" stroke="#000000" stroke-opacity="1" stroke-width="6.4"/>
<path clip-path="url(#clip990)" d="M620.739 369.671 Q617.128 369.671 615.299 373.236 Q613.494 376.778 613.494 383.907 Q613.494 391.014 615.299 394.579 Q617.128 398.12 620.739 398.12 Q624.373 398.12 626.179 394.579 Q628.007 391.014 628.007 383.907 Q628.007 376.778 626.179 373.236 Q624.373 369.671 620.739 369.671 M620.739 365.968 Q626.549 365.968 629.605 370.574 Q632.683 375.157 632.683 383.907 Q632.683 392.634 629.605 397.241 Q626.549 401.824 620.739 401.824 Q614.929 401.824 611.85 397.241 Q608.795 392.634 608.795 383.907 Q608.795 375.157 611.85 370.574 Q614.929 365.968 620.739 365.968 Z" fill="#000000" fill-rule="nonzero" fill-opacity="1" /><path clip-path="url(#clip990)" d="M640.947 366.593 L659.303 366.593 L659.303 370.528 L645.229 370.528 L645.229 379 Q646.248 378.653 647.267 378.491 Q648.285 378.306 649.304 378.306 Q655.091 378.306 658.47 381.477 Q661.85 384.648 661.85 390.065 Q661.85 395.643 658.378 398.745 Q654.905 401.824 648.586 401.824 Q646.41 401.824 644.142 401.454 Q641.896 401.083 639.489 400.343 L639.489 395.643 Q641.572 396.778 643.794 397.333 Q646.017 397.889 648.493 397.889 Q652.498 397.889 654.836 395.782 Q657.174 393.676 657.174 390.065 Q657.174 386.454 654.836 384.347 Q652.498 382.241 648.493 382.241 Q646.618 382.241 644.743 382.657 Q642.892 383.074 640.947 383.954 L640.947 366.593 Z" fill="#000000" fill-rule="nonzero" fill-opacity="1" /><path clip-path="url(#clip990)" d="M681.063 369.671 Q677.452 369.671 675.623 373.236 Q673.817 376.778 673.817 383.907 Q673.817 391.014 675.623 394.579 Q677.452 398.12 681.063 398.12 Q684.697 398.12 686.502 394.579 Q688.331 391.014 688.331 383.907 Q688.331 376.778 686.502 373.236 Q684.697 369.671 681.063 369.671 M681.063 365.968 Q686.873 365.968 689.928 370.574 Q693.007 375.157 693.007 383.907 Q693.007 392.634 689.928 397.241 Q686.873 401.824 681.063 401.824 Q675.252 401.824 672.174 397.241 Q669.118 392.634 669.118 383.907 Q669.118 375.157 672.174 370.574 Q675.252 365.968 681.063 365.968 Z" fill="#000000" fill-rule="nonzero" fill-opacity="1" /><path clip-path="url(#clip990)" d="M711.225 369.671 Q707.613 369.671 705.785 373.236 Q703.979 376.778 703.979 383.907 Q703.979 391.014 705.785 394.579 Q707.613 398.12 711.225 398.12 Q714.859 398.12 716.664 394.579 Q718.493 391.014 718.493 383.907 Q718.493 376.778 716.664 373.236 Q714.859 369.671 711.225 369.671 M711.225 365.968 Q717.035 365.968 720.09 370.574 Q723.169 375.157 723.169 383.907 Q723.169 392.634 720.09 397.241 Q717.035 401.824 711.225 401.824 Q705.414 401.824 702.336 397.241 Q699.28 392.634 699.28 383.907 Q699.28 375.157 702.336 370.574 Q705.414 365.968 711.225 365.968 Z" fill="#000000" fill-rule="nonzero" fill-opacity="1" /></svg>
