M48
; DRILL file {KiCad 6.0.4} date Sun 24 Apr 2022 08:12:00 PM CEST
; FORMAT={-:-/ absolute / inch / decimal}
; #@! TF.CreationDate,2022-04-24T20:12:00+02:00
; #@! TF.GenerationSoftware,Kicad,Pcbnew,6.0.4
; #@! TF.FileFunction,Plated,1,2,PTH
FMAT,2
INCH
; #@! TA.AperFunction,Plated,PTH,ViaDrill
T1C0.0157
; #@! TA.AperFunction,Plated,PTH,ComponentDrill
T2C0.0236
; #@! TA.AperFunction,Plated,PTH,ComponentDrill
T3C0.0394
; #@! TA.AperFunction,Plated,PTH,ComponentDrill
T4C0.1063
%
G90
G05
T1
X5.0327Y-4.1389
X5.0327Y-4.2257
X5.0407Y-3.9343
X5.125Y-4.3
X5.175Y-3.85
X5.175Y-3.8909
X5.25Y-3.35
X5.25Y-4.875
X5.275Y-4.3
X5.325Y-4.075
X5.364Y-3.761
X5.4Y-4.0
X5.425Y-3.375
X5.44Y-3.1725
X5.44Y-3.23
X5.45Y-3.6
X5.475Y-3.3
X5.5Y-2.925
X5.5Y-3.7177
X5.5067Y-3.55
X5.52Y-4.6
X5.5306Y-3.2694
X5.54Y-3.11
X5.55Y-3.9
X5.5525Y-4.0
X5.575Y-4.25
X5.59Y-4.15
X5.5933Y-3.6803
X5.6Y-3.575
X5.6028Y-4.2222
X5.625Y-3.7177
X5.675Y-3.675
X5.675Y-3.7512
X5.725Y-3.35
X5.725Y-3.4
X5.725Y-3.45
X5.725Y-3.5
X5.775Y-3.0
X5.8Y-4.075
X5.8Y-4.625
X5.81Y-4.15
X5.8213Y-3.525
X5.85Y-3.9
X5.8578Y-3.6523
X5.8606Y-3.525
X5.875Y-2.85
X5.8975Y-3.6511
X5.9Y-3.35
X5.9Y-3.525
X5.9449Y-3.525
X5.9449Y-3.6843
X5.9449Y-3.7512
X5.95Y-2.925
X5.975Y-3.9
X6.0Y-4.0
X6.025Y-3.9
X6.0713Y-4.4741
X6.075Y-3.5
X6.1Y-4.325
X6.1Y-4.625
X6.1Y-4.675
X6.125Y-4.15
X6.157Y-4.343
X6.175Y-3.275
X6.2Y-4.9
X6.225Y-3.6843
X6.225Y-3.7512
X6.225Y-4.125
X6.25Y-3.0
X6.25Y-4.4
X6.25Y-4.5
X6.2778Y-4.4722
X6.3Y-3.6843
X6.3Y-3.7512
X6.3Y-4.17
X6.3Y-4.23
X6.318Y-4.457
X6.35Y-5.0
X6.35Y-5.16
X6.375Y-4.4
X6.375Y-4.675
X6.393Y-4.532
X6.4Y-4.325
X6.4209Y-4.5598
X6.425Y-3.625
X6.425Y-4.0
X6.425Y-4.225
X6.4475Y-3.225
X6.4475Y-3.35
X6.47Y-3.55
X6.475Y-3.025
X6.475Y-4.0
X6.475Y-4.225
X6.475Y-4.625
X6.5Y-4.7
X6.51Y-4.37
X6.5183Y-3.225
X6.55Y-4.525
X6.56Y-3.89
X6.56Y-4.72
X6.575Y-3.375
X6.575Y-4.575
X6.59Y-4.35
X6.6Y-3.5
X6.62Y-4.66
X6.6275Y-3.575
X6.66Y-3.89
X6.68Y-3.4
X6.7Y-4.425
X6.7Y-4.875
X6.725Y-3.0
X6.74Y-4.07
X6.775Y-3.475
X6.775Y-3.675
X6.82Y-3.73
X6.825Y-3.675
X6.825Y-3.925
X6.825Y-3.975
X6.875Y-3.525
X6.875Y-3.575
X6.875Y-3.825
X6.875Y-3.9
X6.875Y-4.0
X6.875Y-4.075
X6.88Y-4.18
X6.9Y-4.65
X6.925Y-2.9
X6.925Y-3.525
X6.925Y-3.575
X6.9449Y-3.7301
X6.9767Y-3.4817
X6.98Y-3.67
X7.0Y-3.35
X7.0Y-3.45
X7.025Y-3.7
X7.075Y-3.55
X7.1Y-3.675
X7.1632Y-4.243
X7.175Y-3.55
T3
X5.175Y-3.075
X5.175Y-3.175
X5.175Y-3.275
X5.175Y-4.725
X5.175Y-4.825
X5.175Y-4.925
X5.75Y-4.775
X5.75Y-5.0
X5.75Y-5.1
X5.85Y-4.775
X5.85Y-5.0
X5.85Y-5.1
X5.95Y-4.775
X5.95Y-5.0
X5.95Y-5.1
X6.05Y-4.775
X6.05Y-5.0
X6.05Y-5.1
X6.15Y-4.775
X6.15Y-5.0
X6.15Y-5.1
X6.25Y-4.775
X6.25Y-5.0
X6.25Y-5.1
X6.45Y-4.875
X6.55Y-4.875
X6.6Y-2.975
X6.6Y-3.075
X6.6Y-3.175
X6.6Y-3.275
X6.8Y-3.075
X6.8Y-3.175
X6.8Y-3.275
X6.825Y-4.725
X6.825Y-4.825
X6.825Y-4.925
X6.88Y-4.33
X6.88Y-4.43
X6.98Y-4.33
X6.98Y-4.43
X7.08Y-4.33
X7.08Y-4.43
T4
X4.9Y-2.9
X4.9Y-5.1
X6.1Y-3.8
X7.1Y-2.9
X7.1Y-5.1
T2
G00X6.9311Y-3.7799
M15
G01X6.9744Y-3.7799
M16
G05
G00X6.9311Y-4.1201
M15
G01X6.9744Y-4.1201
M16
G05
G00X7.1055Y-3.7799
M15
G01X7.1291Y-3.7799
M16
G05
G00X7.1055Y-4.1201
M15
G01X7.1291Y-4.1201
M16
G05
T0
M30
