%TF.GenerationSoftware,KiCad,Pcbnew,6.0.4*%
%TF.CreationDate,2022-04-24T20:11:58+02:00*%
%TF.ProjectId,main_pcb,6d61696e-5f70-4636-922e-6b696361645f,rev?*%
%TF.SameCoordinates,Original*%
%TF.FileFunction,Legend,Top*%
%TF.FilePolarity,Positive*%
%FSLAX46Y46*%
G04 Gerber Fmt 4.6, Leading zero omitted, Abs format (unit mm)*
G04 Created by KiCad (PCBNEW 6.0.4) date 2022-04-24 20:11:58*
%MOMM*%
%LPD*%
G01*
G04 APERTURE LIST*
%ADD10C,0.150000*%
%ADD11C,0.400000*%
%ADD12C,0.120000*%
G04 APERTURE END LIST*
D10*
X178347857Y-116022380D02*
X178347857Y-115022380D01*
X178681190Y-115736666D01*
X179014523Y-115022380D01*
X179014523Y-116022380D01*
X180062142Y-115927142D02*
X180014523Y-115974761D01*
X179871666Y-116022380D01*
X179776428Y-116022380D01*
X179633571Y-115974761D01*
X179538333Y-115879523D01*
X179490714Y-115784285D01*
X179443095Y-115593809D01*
X179443095Y-115450952D01*
X179490714Y-115260476D01*
X179538333Y-115165238D01*
X179633571Y-115070000D01*
X179776428Y-115022380D01*
X179871666Y-115022380D01*
X180014523Y-115070000D01*
X180062142Y-115117619D01*
X180490714Y-115022380D02*
X180490714Y-115831904D01*
X180538333Y-115927142D01*
X180585952Y-115974761D01*
X180681190Y-116022380D01*
X180871666Y-116022380D01*
X180966904Y-115974761D01*
X181014523Y-115927142D01*
X181062142Y-115831904D01*
X181062142Y-115022380D01*
X174037714Y-115070000D02*
X173942476Y-115022380D01*
X173799619Y-115022380D01*
X173656761Y-115070000D01*
X173561523Y-115165238D01*
X173513904Y-115260476D01*
X173466285Y-115450952D01*
X173466285Y-115593809D01*
X173513904Y-115784285D01*
X173561523Y-115879523D01*
X173656761Y-115974761D01*
X173799619Y-116022380D01*
X173894857Y-116022380D01*
X174037714Y-115974761D01*
X174085333Y-115927142D01*
X174085333Y-115593809D01*
X173894857Y-115593809D01*
X174513904Y-116022380D02*
X174513904Y-115022380D01*
X174894857Y-115022380D01*
X174990095Y-115070000D01*
X175037714Y-115117619D01*
X175085333Y-115212857D01*
X175085333Y-115355714D01*
X175037714Y-115450952D01*
X174990095Y-115498571D01*
X174894857Y-115546190D01*
X174513904Y-115546190D01*
X175466285Y-115974761D02*
X175609142Y-116022380D01*
X175847238Y-116022380D01*
X175942476Y-115974761D01*
X175990095Y-115927142D01*
X176037714Y-115831904D01*
X176037714Y-115736666D01*
X175990095Y-115641428D01*
X175942476Y-115593809D01*
X175847238Y-115546190D01*
X175656761Y-115498571D01*
X175561523Y-115450952D01*
X175513904Y-115403333D01*
X175466285Y-115308095D01*
X175466285Y-115212857D01*
X175513904Y-115117619D01*
X175561523Y-115070000D01*
X175656761Y-115022380D01*
X175894857Y-115022380D01*
X176037714Y-115070000D01*
X148502857Y-96972380D02*
X148502857Y-95972380D01*
X148836190Y-96686666D01*
X149169523Y-95972380D01*
X149169523Y-96972380D01*
X149645714Y-96972380D02*
X149645714Y-95972380D01*
X150026666Y-95972380D01*
X150121904Y-96020000D01*
X150169523Y-96067619D01*
X150217142Y-96162857D01*
X150217142Y-96305714D01*
X150169523Y-96400952D01*
X150121904Y-96448571D01*
X150026666Y-96496190D01*
X149645714Y-96496190D01*
X150645714Y-95972380D02*
X150645714Y-96781904D01*
X150693333Y-96877142D01*
X150740952Y-96924761D01*
X150836190Y-96972380D01*
X151026666Y-96972380D01*
X151121904Y-96924761D01*
X151169523Y-96877142D01*
X151217142Y-96781904D01*
X151217142Y-95972380D01*
X144852380Y-71048571D02*
X145185714Y-71048571D01*
X145328571Y-71572380D02*
X144852380Y-71572380D01*
X144852380Y-70572380D01*
X145328571Y-70572380D01*
X145709523Y-71524761D02*
X145852380Y-71572380D01*
X146090476Y-71572380D01*
X146185714Y-71524761D01*
X146233333Y-71477142D01*
X146280952Y-71381904D01*
X146280952Y-71286666D01*
X146233333Y-71191428D01*
X146185714Y-71143809D01*
X146090476Y-71096190D01*
X145900000Y-71048571D01*
X145804761Y-71000952D01*
X145757142Y-70953333D01*
X145709523Y-70858095D01*
X145709523Y-70762857D01*
X145757142Y-70667619D01*
X145804761Y-70620000D01*
X145900000Y-70572380D01*
X146138095Y-70572380D01*
X146280952Y-70620000D01*
X146709523Y-71572380D02*
X146709523Y-70572380D01*
X147090476Y-70572380D01*
X147185714Y-70620000D01*
X147233333Y-70667619D01*
X147280952Y-70762857D01*
X147280952Y-70905714D01*
X147233333Y-71000952D01*
X147185714Y-71048571D01*
X147090476Y-71096190D01*
X146709523Y-71096190D01*
X147614285Y-70572380D02*
X148233333Y-70572380D01*
X147900000Y-70953333D01*
X148042857Y-70953333D01*
X148138095Y-71000952D01*
X148185714Y-71048571D01*
X148233333Y-71143809D01*
X148233333Y-71381904D01*
X148185714Y-71477142D01*
X148138095Y-71524761D01*
X148042857Y-71572380D01*
X147757142Y-71572380D01*
X147661904Y-71524761D01*
X147614285Y-71477142D01*
X148614285Y-70667619D02*
X148661904Y-70620000D01*
X148757142Y-70572380D01*
X148995238Y-70572380D01*
X149090476Y-70620000D01*
X149138095Y-70667619D01*
X149185714Y-70762857D01*
X149185714Y-70858095D01*
X149138095Y-71000952D01*
X148566666Y-71572380D01*
X149185714Y-71572380D01*
X149614285Y-71191428D02*
X150376190Y-71191428D01*
X150757142Y-70572380D02*
X150995238Y-71572380D01*
X151185714Y-70858095D01*
X151376190Y-71572380D01*
X151614285Y-70572380D01*
X152566666Y-71572380D02*
X152233333Y-71096190D01*
X151995238Y-71572380D02*
X151995238Y-70572380D01*
X152376190Y-70572380D01*
X152471428Y-70620000D01*
X152519047Y-70667619D01*
X152566666Y-70762857D01*
X152566666Y-70905714D01*
X152519047Y-71000952D01*
X152471428Y-71048571D01*
X152376190Y-71096190D01*
X151995238Y-71096190D01*
X153185714Y-70572380D02*
X153376190Y-70572380D01*
X153471428Y-70620000D01*
X153566666Y-70715238D01*
X153614285Y-70905714D01*
X153614285Y-71239047D01*
X153566666Y-71429523D01*
X153471428Y-71524761D01*
X153376190Y-71572380D01*
X153185714Y-71572380D01*
X153090476Y-71524761D01*
X152995238Y-71429523D01*
X152947619Y-71239047D01*
X152947619Y-70905714D01*
X152995238Y-70715238D01*
X153090476Y-70620000D01*
X153185714Y-70572380D01*
X154233333Y-70572380D02*
X154423809Y-70572380D01*
X154519047Y-70620000D01*
X154614285Y-70715238D01*
X154661904Y-70905714D01*
X154661904Y-71239047D01*
X154614285Y-71429523D01*
X154519047Y-71524761D01*
X154423809Y-71572380D01*
X154233333Y-71572380D01*
X154138095Y-71524761D01*
X154042857Y-71429523D01*
X153995238Y-71239047D01*
X153995238Y-70905714D01*
X154042857Y-70715238D01*
X154138095Y-70620000D01*
X154233333Y-70572380D01*
X155090476Y-71572380D02*
X155090476Y-70572380D01*
X155423809Y-71286666D01*
X155757142Y-70572380D01*
X155757142Y-71572380D01*
X156233333Y-71191428D02*
X156995238Y-71191428D01*
X157376190Y-70572380D02*
X157995238Y-70572380D01*
X157661904Y-70953333D01*
X157804761Y-70953333D01*
X157899999Y-71000952D01*
X157947619Y-71048571D01*
X157995238Y-71143809D01*
X157995238Y-71381904D01*
X157947619Y-71477142D01*
X157899999Y-71524761D01*
X157804761Y-71572380D01*
X157519047Y-71572380D01*
X157423809Y-71524761D01*
X157376190Y-71477142D01*
X158376190Y-70667619D02*
X158423809Y-70620000D01*
X158519047Y-70572380D01*
X158757142Y-70572380D01*
X158852380Y-70620000D01*
X158899999Y-70667619D01*
X158947619Y-70762857D01*
X158947619Y-70858095D01*
X158899999Y-71000952D01*
X158328571Y-71572380D01*
X158947619Y-71572380D01*
X159376190Y-70572380D02*
X159376190Y-71381904D01*
X159423809Y-71477142D01*
X159471428Y-71524761D01*
X159566666Y-71572380D01*
X159757142Y-71572380D01*
X159852380Y-71524761D01*
X159899999Y-71477142D01*
X159947619Y-71381904D01*
X159947619Y-70572380D01*
X164361904Y-126928571D02*
X164504761Y-126976190D01*
X164552380Y-127023809D01*
X164600000Y-127119047D01*
X164600000Y-127261904D01*
X164552380Y-127357142D01*
X164504761Y-127404761D01*
X164409523Y-127452380D01*
X164028571Y-127452380D01*
X164028571Y-126452380D01*
X164361904Y-126452380D01*
X164457142Y-126500000D01*
X164504761Y-126547619D01*
X164552380Y-126642857D01*
X164552380Y-126738095D01*
X164504761Y-126833333D01*
X164457142Y-126880952D01*
X164361904Y-126928571D01*
X164028571Y-126928571D01*
X164980952Y-127166666D02*
X165457142Y-127166666D01*
X164885714Y-127452380D02*
X165219047Y-126452380D01*
X165552380Y-127452380D01*
X165742857Y-126452380D02*
X166314285Y-126452380D01*
X166028571Y-127452380D02*
X166028571Y-126452380D01*
X141168571Y-127393571D02*
X141501904Y-127393571D01*
X141644761Y-127917380D02*
X141168571Y-127917380D01*
X141168571Y-126917380D01*
X141644761Y-126917380D01*
X141978095Y-126917380D02*
X142644761Y-127917380D01*
X142644761Y-126917380D02*
X141978095Y-127917380D01*
X142882857Y-126917380D02*
X143454285Y-126917380D01*
X143168571Y-127917380D02*
X143168571Y-126917380D01*
X141192380Y-129527380D02*
X141192380Y-128527380D01*
X142382857Y-128479761D02*
X141525714Y-129765476D01*
X142906666Y-128527380D02*
X143097142Y-128527380D01*
X143192380Y-128575000D01*
X143287619Y-128670238D01*
X143335238Y-128860714D01*
X143335238Y-129194047D01*
X143287619Y-129384523D01*
X143192380Y-129479761D01*
X143097142Y-129527380D01*
X142906666Y-129527380D01*
X142811428Y-129479761D01*
X142716190Y-129384523D01*
X142668571Y-129194047D01*
X142668571Y-128860714D01*
X142716190Y-128670238D01*
X142811428Y-128575000D01*
X142906666Y-128527380D01*
X158781904Y-131532380D02*
X159400952Y-131532380D01*
X159067619Y-131913333D01*
X159210476Y-131913333D01*
X159305714Y-131960952D01*
X159353333Y-132008571D01*
X159400952Y-132103809D01*
X159400952Y-132341904D01*
X159353333Y-132437142D01*
X159305714Y-132484761D01*
X159210476Y-132532380D01*
X158924761Y-132532380D01*
X158829523Y-132484761D01*
X158781904Y-132437142D01*
X159686666Y-131532380D02*
X160020000Y-132532380D01*
X160353333Y-131532380D01*
X160591428Y-131532380D02*
X161210476Y-131532380D01*
X160877142Y-131913333D01*
X161020000Y-131913333D01*
X161115238Y-131960952D01*
X161162857Y-132008571D01*
X161210476Y-132103809D01*
X161210476Y-132341904D01*
X161162857Y-132437142D01*
X161115238Y-132484761D01*
X161020000Y-132532380D01*
X160734285Y-132532380D01*
X160639047Y-132484761D01*
X160591428Y-132437142D01*
X145573809Y-132532380D02*
X145573809Y-131865714D01*
X145573809Y-131532380D02*
X145526190Y-131580000D01*
X145573809Y-131627619D01*
X145621428Y-131580000D01*
X145573809Y-131532380D01*
X145573809Y-131627619D01*
X146478571Y-131532380D02*
X146288095Y-131532380D01*
X146192857Y-131580000D01*
X146145238Y-131627619D01*
X146050000Y-131770476D01*
X146002380Y-131960952D01*
X146002380Y-132341904D01*
X146050000Y-132437142D01*
X146097619Y-132484761D01*
X146192857Y-132532380D01*
X146383333Y-132532380D01*
X146478571Y-132484761D01*
X146526190Y-132437142D01*
X146573809Y-132341904D01*
X146573809Y-132103809D01*
X146526190Y-132008571D01*
X146478571Y-131960952D01*
X146383333Y-131913333D01*
X146192857Y-131913333D01*
X146097619Y-131960952D01*
X146050000Y-132008571D01*
X146002380Y-132103809D01*
X148113809Y-132532380D02*
X148113809Y-131865714D01*
X148113809Y-131532380D02*
X148066190Y-131580000D01*
X148113809Y-131627619D01*
X148161428Y-131580000D01*
X148113809Y-131532380D01*
X148113809Y-131627619D01*
X148494761Y-131532380D02*
X149161428Y-131532380D01*
X148732857Y-132532380D01*
X150653809Y-132532380D02*
X150653809Y-131865714D01*
X150653809Y-131532380D02*
X150606190Y-131580000D01*
X150653809Y-131627619D01*
X150701428Y-131580000D01*
X150653809Y-131532380D01*
X150653809Y-131627619D01*
X151272857Y-131960952D02*
X151177619Y-131913333D01*
X151130000Y-131865714D01*
X151082380Y-131770476D01*
X151082380Y-131722857D01*
X151130000Y-131627619D01*
X151177619Y-131580000D01*
X151272857Y-131532380D01*
X151463333Y-131532380D01*
X151558571Y-131580000D01*
X151606190Y-131627619D01*
X151653809Y-131722857D01*
X151653809Y-131770476D01*
X151606190Y-131865714D01*
X151558571Y-131913333D01*
X151463333Y-131960952D01*
X151272857Y-131960952D01*
X151177619Y-132008571D01*
X151130000Y-132056190D01*
X151082380Y-132151428D01*
X151082380Y-132341904D01*
X151130000Y-132437142D01*
X151177619Y-132484761D01*
X151272857Y-132532380D01*
X151463333Y-132532380D01*
X151558571Y-132484761D01*
X151606190Y-132437142D01*
X151653809Y-132341904D01*
X151653809Y-132151428D01*
X151606190Y-132056190D01*
X151558571Y-132008571D01*
X151463333Y-131960952D01*
X153193809Y-132532380D02*
X153193809Y-131865714D01*
X153193809Y-131532380D02*
X153146190Y-131580000D01*
X153193809Y-131627619D01*
X153241428Y-131580000D01*
X153193809Y-131532380D01*
X153193809Y-131627619D01*
X153717619Y-132532380D02*
X153908095Y-132532380D01*
X154003333Y-132484761D01*
X154050952Y-132437142D01*
X154146190Y-132294285D01*
X154193809Y-132103809D01*
X154193809Y-131722857D01*
X154146190Y-131627619D01*
X154098571Y-131580000D01*
X154003333Y-131532380D01*
X153812857Y-131532380D01*
X153717619Y-131580000D01*
X153670000Y-131627619D01*
X153622380Y-131722857D01*
X153622380Y-131960952D01*
X153670000Y-132056190D01*
X153717619Y-132103809D01*
X153812857Y-132151428D01*
X154003333Y-132151428D01*
X154098571Y-132103809D01*
X154146190Y-132056190D01*
X154193809Y-131960952D01*
X155257619Y-132532380D02*
X155257619Y-131865714D01*
X155257619Y-131532380D02*
X155210000Y-131580000D01*
X155257619Y-131627619D01*
X155305238Y-131580000D01*
X155257619Y-131532380D01*
X155257619Y-131627619D01*
X156257619Y-132532380D02*
X155686190Y-132532380D01*
X155971904Y-132532380D02*
X155971904Y-131532380D01*
X155876666Y-131675238D01*
X155781428Y-131770476D01*
X155686190Y-131818095D01*
X156876666Y-131532380D02*
X156971904Y-131532380D01*
X157067142Y-131580000D01*
X157114761Y-131627619D01*
X157162380Y-131722857D01*
X157210000Y-131913333D01*
X157210000Y-132151428D01*
X157162380Y-132341904D01*
X157114761Y-132437142D01*
X157067142Y-132484761D01*
X156971904Y-132532380D01*
X156876666Y-132532380D01*
X156781428Y-132484761D01*
X156733809Y-132437142D01*
X156686190Y-132341904D01*
X156638571Y-132151428D01*
X156638571Y-131913333D01*
X156686190Y-131722857D01*
X156733809Y-131627619D01*
X156781428Y-131580000D01*
X156876666Y-131532380D01*
X145439198Y-124901258D02*
X145439198Y-124234592D01*
X145439198Y-123901258D02*
X145391579Y-123948878D01*
X145439198Y-123996497D01*
X145486817Y-123948878D01*
X145439198Y-123901258D01*
X145439198Y-123996497D01*
X146391579Y-123901258D02*
X145915389Y-123901258D01*
X145867769Y-124377449D01*
X145915389Y-124329830D01*
X146010627Y-124282211D01*
X146248722Y-124282211D01*
X146343960Y-124329830D01*
X146391579Y-124377449D01*
X146439198Y-124472687D01*
X146439198Y-124710782D01*
X146391579Y-124806020D01*
X146343960Y-124853639D01*
X146248722Y-124901258D01*
X146010627Y-124901258D01*
X145915389Y-124853639D01*
X145867769Y-124806020D01*
X148113809Y-124912380D02*
X148113809Y-124245714D01*
X148113809Y-123912380D02*
X148066190Y-123960000D01*
X148113809Y-124007619D01*
X148161428Y-123960000D01*
X148113809Y-123912380D01*
X148113809Y-124007619D01*
X149018571Y-124245714D02*
X149018571Y-124912380D01*
X148780476Y-123864761D02*
X148542380Y-124579047D01*
X149161428Y-124579047D01*
X150636258Y-124901258D02*
X150636258Y-124234592D01*
X150636258Y-123901258D02*
X150588639Y-123948878D01*
X150636258Y-123996497D01*
X150683877Y-123948878D01*
X150636258Y-123901258D01*
X150636258Y-123996497D01*
X151017210Y-123901258D02*
X151636258Y-123901258D01*
X151302925Y-124282211D01*
X151445782Y-124282211D01*
X151541020Y-124329830D01*
X151588639Y-124377449D01*
X151636258Y-124472687D01*
X151636258Y-124710782D01*
X151588639Y-124806020D01*
X151541020Y-124853639D01*
X151445782Y-124901258D01*
X151160068Y-124901258D01*
X151064829Y-124853639D01*
X151017210Y-124806020D01*
X153193809Y-124912380D02*
X153193809Y-124245714D01*
X153193809Y-123912380D02*
X153146190Y-123960000D01*
X153193809Y-124007619D01*
X153241428Y-123960000D01*
X153193809Y-123912380D01*
X153193809Y-124007619D01*
X153622380Y-124007619D02*
X153670000Y-123960000D01*
X153765238Y-123912380D01*
X154003333Y-123912380D01*
X154098571Y-123960000D01*
X154146190Y-124007619D01*
X154193809Y-124102857D01*
X154193809Y-124198095D01*
X154146190Y-124340952D01*
X153574761Y-124912380D01*
X154193809Y-124912380D01*
X155733809Y-124912380D02*
X155733809Y-124245714D01*
X155733809Y-123912380D02*
X155686190Y-123960000D01*
X155733809Y-124007619D01*
X155781428Y-123960000D01*
X155733809Y-123912380D01*
X155733809Y-124007619D01*
X156733809Y-124912380D02*
X156162380Y-124912380D01*
X156448095Y-124912380D02*
X156448095Y-123912380D01*
X156352857Y-124055238D01*
X156257619Y-124150476D01*
X156162380Y-124198095D01*
X159258095Y-123960000D02*
X159162857Y-123912380D01*
X159020000Y-123912380D01*
X158877142Y-123960000D01*
X158781904Y-124055238D01*
X158734285Y-124150476D01*
X158686666Y-124340952D01*
X158686666Y-124483809D01*
X158734285Y-124674285D01*
X158781904Y-124769523D01*
X158877142Y-124864761D01*
X159020000Y-124912380D01*
X159115238Y-124912380D01*
X159258095Y-124864761D01*
X159305714Y-124817142D01*
X159305714Y-124483809D01*
X159115238Y-124483809D01*
X159734285Y-124912380D02*
X159734285Y-123912380D01*
X160305714Y-124912380D01*
X160305714Y-123912380D01*
X160781904Y-124912380D02*
X160781904Y-123912380D01*
X161020000Y-123912380D01*
X161162857Y-123960000D01*
X161258095Y-124055238D01*
X161305714Y-124150476D01*
X161353333Y-124340952D01*
X161353333Y-124483809D01*
X161305714Y-124674285D01*
X161258095Y-124769523D01*
X161162857Y-124864761D01*
X161020000Y-124912380D01*
X160781904Y-124912380D01*
X139787380Y-78292380D02*
X139454047Y-77816190D01*
X139215952Y-78292380D02*
X139215952Y-77292380D01*
X139596904Y-77292380D01*
X139692142Y-77340000D01*
X139739761Y-77387619D01*
X139787380Y-77482857D01*
X139787380Y-77625714D01*
X139739761Y-77720952D01*
X139692142Y-77768571D01*
X139596904Y-77816190D01*
X139215952Y-77816190D01*
X140168333Y-78244761D02*
X140311190Y-78292380D01*
X140549285Y-78292380D01*
X140644523Y-78244761D01*
X140692142Y-78197142D01*
X140739761Y-78101904D01*
X140739761Y-78006666D01*
X140692142Y-77911428D01*
X140644523Y-77863809D01*
X140549285Y-77816190D01*
X140358809Y-77768571D01*
X140263571Y-77720952D01*
X140215952Y-77673333D01*
X140168333Y-77578095D01*
X140168333Y-77482857D01*
X140215952Y-77387619D01*
X140263571Y-77340000D01*
X140358809Y-77292380D01*
X140596904Y-77292380D01*
X140739761Y-77340000D01*
X141025476Y-77292380D02*
X141596904Y-77292380D01*
X141311190Y-78292380D02*
X141311190Y-77292380D01*
X127413095Y-85948571D02*
X127746428Y-85948571D01*
X127889285Y-86472380D02*
X127413095Y-86472380D01*
X127413095Y-85472380D01*
X127889285Y-85472380D01*
X128317857Y-85948571D02*
X128651190Y-85948571D01*
X128794047Y-86472380D02*
X128317857Y-86472380D01*
X128317857Y-85472380D01*
X128794047Y-85472380D01*
X129222619Y-86472380D02*
X129222619Y-85472380D01*
X129603571Y-85472380D01*
X129698809Y-85520000D01*
X129746428Y-85567619D01*
X129794047Y-85662857D01*
X129794047Y-85805714D01*
X129746428Y-85900952D01*
X129698809Y-85948571D01*
X129603571Y-85996190D01*
X129222619Y-85996190D01*
X130794047Y-86472380D02*
X130460714Y-85996190D01*
X130222619Y-86472380D02*
X130222619Y-85472380D01*
X130603571Y-85472380D01*
X130698809Y-85520000D01*
X130746428Y-85567619D01*
X130794047Y-85662857D01*
X130794047Y-85805714D01*
X130746428Y-85900952D01*
X130698809Y-85948571D01*
X130603571Y-85996190D01*
X130222619Y-85996190D01*
X131413095Y-85472380D02*
X131603571Y-85472380D01*
X131698809Y-85520000D01*
X131794047Y-85615238D01*
X131841666Y-85805714D01*
X131841666Y-86139047D01*
X131794047Y-86329523D01*
X131698809Y-86424761D01*
X131603571Y-86472380D01*
X131413095Y-86472380D01*
X131317857Y-86424761D01*
X131222619Y-86329523D01*
X131175000Y-86139047D01*
X131175000Y-85805714D01*
X131222619Y-85615238D01*
X131317857Y-85520000D01*
X131413095Y-85472380D01*
X132270238Y-86472380D02*
X132270238Y-85472380D01*
X132603571Y-86186666D01*
X132936904Y-85472380D01*
X132936904Y-86472380D01*
X136445714Y-109990000D02*
X136350476Y-109942380D01*
X136207619Y-109942380D01*
X136064761Y-109990000D01*
X135969523Y-110085238D01*
X135921904Y-110180476D01*
X135874285Y-110370952D01*
X135874285Y-110513809D01*
X135921904Y-110704285D01*
X135969523Y-110799523D01*
X136064761Y-110894761D01*
X136207619Y-110942380D01*
X136302857Y-110942380D01*
X136445714Y-110894761D01*
X136493333Y-110847142D01*
X136493333Y-110513809D01*
X136302857Y-110513809D01*
X136921904Y-110942380D02*
X136921904Y-109942380D01*
X137302857Y-109942380D01*
X137398095Y-109990000D01*
X137445714Y-110037619D01*
X137493333Y-110132857D01*
X137493333Y-110275714D01*
X137445714Y-110370952D01*
X137398095Y-110418571D01*
X137302857Y-110466190D01*
X136921904Y-110466190D01*
X137874285Y-110894761D02*
X138017142Y-110942380D01*
X138255238Y-110942380D01*
X138350476Y-110894761D01*
X138398095Y-110847142D01*
X138445714Y-110751904D01*
X138445714Y-110656666D01*
X138398095Y-110561428D01*
X138350476Y-110513809D01*
X138255238Y-110466190D01*
X138064761Y-110418571D01*
X137969523Y-110370952D01*
X137921904Y-110323333D01*
X137874285Y-110228095D01*
X137874285Y-110132857D01*
X137921904Y-110037619D01*
X137969523Y-109990000D01*
X138064761Y-109942380D01*
X138302857Y-109942380D01*
X138445714Y-109990000D01*
X158202380Y-118300476D02*
X158202380Y-118776666D01*
X158678571Y-118824285D01*
X158630952Y-118776666D01*
X158583333Y-118681428D01*
X158583333Y-118443333D01*
X158630952Y-118348095D01*
X158678571Y-118300476D01*
X158773809Y-118252857D01*
X159011904Y-118252857D01*
X159107142Y-118300476D01*
X159154761Y-118348095D01*
X159202380Y-118443333D01*
X159202380Y-118681428D01*
X159154761Y-118776666D01*
X159107142Y-118824285D01*
X158202380Y-117967142D02*
X159202380Y-117633809D01*
X158202380Y-117300476D01*
X155662380Y-119348095D02*
X155662380Y-118729047D01*
X156043333Y-119062380D01*
X156043333Y-118919523D01*
X156090952Y-118824285D01*
X156138571Y-118776666D01*
X156233809Y-118729047D01*
X156471904Y-118729047D01*
X156567142Y-118776666D01*
X156614761Y-118824285D01*
X156662380Y-118919523D01*
X156662380Y-119205238D01*
X156614761Y-119300476D01*
X156567142Y-119348095D01*
X155662380Y-118443333D02*
X156662380Y-118110000D01*
X155662380Y-117776666D01*
X155662380Y-117538571D02*
X155662380Y-116919523D01*
X156043333Y-117252857D01*
X156043333Y-117110000D01*
X156090952Y-117014761D01*
X156138571Y-116967142D01*
X156233809Y-116919523D01*
X156471904Y-116919523D01*
X156567142Y-116967142D01*
X156614761Y-117014761D01*
X156662380Y-117110000D01*
X156662380Y-117395714D01*
X156614761Y-117490952D01*
X156567142Y-117538571D01*
X151582380Y-118276666D02*
X151106190Y-118610000D01*
X151582380Y-118848095D02*
X150582380Y-118848095D01*
X150582380Y-118467142D01*
X150630000Y-118371904D01*
X150677619Y-118324285D01*
X150772857Y-118276666D01*
X150915714Y-118276666D01*
X151010952Y-118324285D01*
X151058571Y-118371904D01*
X151106190Y-118467142D01*
X151106190Y-118848095D01*
X150582380Y-117943333D02*
X151582380Y-117276666D01*
X150582380Y-117276666D02*
X151582380Y-117943333D01*
X153200000Y-118871904D02*
X153152380Y-118967142D01*
X153152380Y-119110000D01*
X153200000Y-119252857D01*
X153295238Y-119348095D01*
X153390476Y-119395714D01*
X153580952Y-119443333D01*
X153723809Y-119443333D01*
X153914285Y-119395714D01*
X154009523Y-119348095D01*
X154104761Y-119252857D01*
X154152380Y-119110000D01*
X154152380Y-119014761D01*
X154104761Y-118871904D01*
X154057142Y-118824285D01*
X153723809Y-118824285D01*
X153723809Y-119014761D01*
X154152380Y-118395714D02*
X153152380Y-118395714D01*
X154152380Y-117824285D01*
X153152380Y-117824285D01*
X154152380Y-117348095D02*
X153152380Y-117348095D01*
X153152380Y-117110000D01*
X153200000Y-116967142D01*
X153295238Y-116871904D01*
X153390476Y-116824285D01*
X153580952Y-116776666D01*
X153723809Y-116776666D01*
X153914285Y-116824285D01*
X154009523Y-116871904D01*
X154104761Y-116967142D01*
X154152380Y-117110000D01*
X154152380Y-117348095D01*
X146502380Y-118657619D02*
X146026190Y-118990952D01*
X146502380Y-119229047D02*
X145502380Y-119229047D01*
X145502380Y-118848095D01*
X145550000Y-118752857D01*
X145597619Y-118705238D01*
X145692857Y-118657619D01*
X145835714Y-118657619D01*
X145930952Y-118705238D01*
X145978571Y-118752857D01*
X146026190Y-118848095D01*
X146026190Y-119229047D01*
X146454761Y-118276666D02*
X146502380Y-118133809D01*
X146502380Y-117895714D01*
X146454761Y-117800476D01*
X146407142Y-117752857D01*
X146311904Y-117705238D01*
X146216666Y-117705238D01*
X146121428Y-117752857D01*
X146073809Y-117800476D01*
X146026190Y-117895714D01*
X145978571Y-118086190D01*
X145930952Y-118181428D01*
X145883333Y-118229047D01*
X145788095Y-118276666D01*
X145692857Y-118276666D01*
X145597619Y-118229047D01*
X145550000Y-118181428D01*
X145502380Y-118086190D01*
X145502380Y-117848095D01*
X145550000Y-117705238D01*
X145502380Y-117419523D02*
X145502380Y-116848095D01*
X146502380Y-117133809D02*
X145502380Y-117133809D01*
X148042380Y-118871904D02*
X148042380Y-118300476D01*
X149042380Y-118586190D02*
X148042380Y-118586190D01*
X148042380Y-118062380D02*
X149042380Y-117395714D01*
X148042380Y-117395714D02*
X149042380Y-118062380D01*
X127508095Y-124595000D02*
X127412857Y-124547380D01*
X127270000Y-124547380D01*
X127127142Y-124595000D01*
X127031904Y-124690238D01*
X126984285Y-124785476D01*
X126936666Y-124975952D01*
X126936666Y-125118809D01*
X126984285Y-125309285D01*
X127031904Y-125404523D01*
X127127142Y-125499761D01*
X127270000Y-125547380D01*
X127365238Y-125547380D01*
X127508095Y-125499761D01*
X127555714Y-125452142D01*
X127555714Y-125118809D01*
X127365238Y-125118809D01*
X127984285Y-125547380D02*
X127984285Y-124547380D01*
X128555714Y-125547380D01*
X128555714Y-124547380D01*
X129031904Y-125547380D02*
X129031904Y-124547380D01*
X129270000Y-124547380D01*
X129412857Y-124595000D01*
X129508095Y-124690238D01*
X129555714Y-124785476D01*
X129603333Y-124975952D01*
X129603333Y-125118809D01*
X129555714Y-125309285D01*
X129508095Y-125404523D01*
X129412857Y-125499761D01*
X129270000Y-125547380D01*
X129031904Y-125547380D01*
X127246190Y-120419761D02*
X127389047Y-120467380D01*
X127627142Y-120467380D01*
X127722380Y-120419761D01*
X127770000Y-120372142D01*
X127817619Y-120276904D01*
X127817619Y-120181666D01*
X127770000Y-120086428D01*
X127722380Y-120038809D01*
X127627142Y-119991190D01*
X127436666Y-119943571D01*
X127341428Y-119895952D01*
X127293809Y-119848333D01*
X127246190Y-119753095D01*
X127246190Y-119657857D01*
X127293809Y-119562619D01*
X127341428Y-119515000D01*
X127436666Y-119467380D01*
X127674761Y-119467380D01*
X127817619Y-119515000D01*
X128246190Y-120467380D02*
X128246190Y-119467380D01*
X129246190Y-119515000D02*
X129150952Y-119467380D01*
X129008095Y-119467380D01*
X128865238Y-119515000D01*
X128770000Y-119610238D01*
X128722380Y-119705476D01*
X128674761Y-119895952D01*
X128674761Y-120038809D01*
X128722380Y-120229285D01*
X128770000Y-120324523D01*
X128865238Y-120419761D01*
X129008095Y-120467380D01*
X129103333Y-120467380D01*
X129246190Y-120419761D01*
X129293809Y-120372142D01*
X129293809Y-120038809D01*
X129103333Y-120038809D01*
X127484285Y-123007380D02*
X127484285Y-122007380D01*
X128055714Y-123007380D01*
X128055714Y-122007380D01*
X129103333Y-122912142D02*
X129055714Y-122959761D01*
X128912857Y-123007380D01*
X128817619Y-123007380D01*
X128674761Y-122959761D01*
X128579523Y-122864523D01*
X128531904Y-122769285D01*
X128484285Y-122578809D01*
X128484285Y-122435952D01*
X128531904Y-122245476D01*
X128579523Y-122150238D01*
X128674761Y-122055000D01*
X128817619Y-122007380D01*
X128912857Y-122007380D01*
X129055714Y-122055000D01*
X129103333Y-122102619D01*
X127508095Y-82685000D02*
X127412857Y-82637380D01*
X127270000Y-82637380D01*
X127127142Y-82685000D01*
X127031904Y-82780238D01*
X126984285Y-82875476D01*
X126936666Y-83065952D01*
X126936666Y-83208809D01*
X126984285Y-83399285D01*
X127031904Y-83494523D01*
X127127142Y-83589761D01*
X127270000Y-83637380D01*
X127365238Y-83637380D01*
X127508095Y-83589761D01*
X127555714Y-83542142D01*
X127555714Y-83208809D01*
X127365238Y-83208809D01*
X127984285Y-83637380D02*
X127984285Y-82637380D01*
X128555714Y-83637380D01*
X128555714Y-82637380D01*
X129031904Y-83637380D02*
X129031904Y-82637380D01*
X129270000Y-82637380D01*
X129412857Y-82685000D01*
X129508095Y-82780238D01*
X129555714Y-82875476D01*
X129603333Y-83065952D01*
X129603333Y-83208809D01*
X129555714Y-83399285D01*
X129508095Y-83494523D01*
X129412857Y-83589761D01*
X129270000Y-83637380D01*
X129031904Y-83637380D01*
X127246190Y-78509761D02*
X127389047Y-78557380D01*
X127627142Y-78557380D01*
X127722380Y-78509761D01*
X127770000Y-78462142D01*
X127817619Y-78366904D01*
X127817619Y-78271666D01*
X127770000Y-78176428D01*
X127722380Y-78128809D01*
X127627142Y-78081190D01*
X127436666Y-78033571D01*
X127341428Y-77985952D01*
X127293809Y-77938333D01*
X127246190Y-77843095D01*
X127246190Y-77747857D01*
X127293809Y-77652619D01*
X127341428Y-77605000D01*
X127436666Y-77557380D01*
X127674761Y-77557380D01*
X127817619Y-77605000D01*
X128246190Y-78557380D02*
X128246190Y-77557380D01*
X129246190Y-77605000D02*
X129150952Y-77557380D01*
X129008095Y-77557380D01*
X128865238Y-77605000D01*
X128770000Y-77700238D01*
X128722380Y-77795476D01*
X128674761Y-77985952D01*
X128674761Y-78128809D01*
X128722380Y-78319285D01*
X128770000Y-78414523D01*
X128865238Y-78509761D01*
X129008095Y-78557380D01*
X129103333Y-78557380D01*
X129246190Y-78509761D01*
X129293809Y-78462142D01*
X129293809Y-78128809D01*
X129103333Y-78128809D01*
X127484285Y-81097380D02*
X127484285Y-80097380D01*
X128055714Y-81097380D01*
X128055714Y-80097380D01*
X129103333Y-81002142D02*
X129055714Y-81049761D01*
X128912857Y-81097380D01*
X128817619Y-81097380D01*
X128674761Y-81049761D01*
X128579523Y-80954523D01*
X128531904Y-80859285D01*
X128484285Y-80668809D01*
X128484285Y-80525952D01*
X128531904Y-80335476D01*
X128579523Y-80240238D01*
X128674761Y-80145000D01*
X128817619Y-80097380D01*
X128912857Y-80097380D01*
X129055714Y-80145000D01*
X129103333Y-80192619D01*
X175768095Y-119515000D02*
X175672857Y-119467380D01*
X175530000Y-119467380D01*
X175387142Y-119515000D01*
X175291904Y-119610238D01*
X175244285Y-119705476D01*
X175196666Y-119895952D01*
X175196666Y-120038809D01*
X175244285Y-120229285D01*
X175291904Y-120324523D01*
X175387142Y-120419761D01*
X175530000Y-120467380D01*
X175625238Y-120467380D01*
X175768095Y-120419761D01*
X175815714Y-120372142D01*
X175815714Y-120038809D01*
X175625238Y-120038809D01*
X176244285Y-120467380D02*
X176244285Y-119467380D01*
X176815714Y-120467380D01*
X176815714Y-119467380D01*
X177291904Y-120467380D02*
X177291904Y-119467380D01*
X177530000Y-119467380D01*
X177672857Y-119515000D01*
X177768095Y-119610238D01*
X177815714Y-119705476D01*
X177863333Y-119895952D01*
X177863333Y-120038809D01*
X177815714Y-120229285D01*
X177768095Y-120324523D01*
X177672857Y-120419761D01*
X177530000Y-120467380D01*
X177291904Y-120467380D01*
X175506190Y-125499761D02*
X175649047Y-125547380D01*
X175887142Y-125547380D01*
X175982380Y-125499761D01*
X176030000Y-125452142D01*
X176077619Y-125356904D01*
X176077619Y-125261666D01*
X176030000Y-125166428D01*
X175982380Y-125118809D01*
X175887142Y-125071190D01*
X175696666Y-125023571D01*
X175601428Y-124975952D01*
X175553809Y-124928333D01*
X175506190Y-124833095D01*
X175506190Y-124737857D01*
X175553809Y-124642619D01*
X175601428Y-124595000D01*
X175696666Y-124547380D01*
X175934761Y-124547380D01*
X176077619Y-124595000D01*
X176506190Y-125547380D02*
X176506190Y-124547380D01*
X177506190Y-124595000D02*
X177410952Y-124547380D01*
X177268095Y-124547380D01*
X177125238Y-124595000D01*
X177030000Y-124690238D01*
X176982380Y-124785476D01*
X176934761Y-124975952D01*
X176934761Y-125118809D01*
X176982380Y-125309285D01*
X177030000Y-125404523D01*
X177125238Y-125499761D01*
X177268095Y-125547380D01*
X177363333Y-125547380D01*
X177506190Y-125499761D01*
X177553809Y-125452142D01*
X177553809Y-125118809D01*
X177363333Y-125118809D01*
X175744285Y-123007380D02*
X175744285Y-122007380D01*
X176315714Y-123007380D01*
X176315714Y-122007380D01*
X177363333Y-122912142D02*
X177315714Y-122959761D01*
X177172857Y-123007380D01*
X177077619Y-123007380D01*
X176934761Y-122959761D01*
X176839523Y-122864523D01*
X176791904Y-122769285D01*
X176744285Y-122578809D01*
X176744285Y-122435952D01*
X176791904Y-122245476D01*
X176839523Y-122150238D01*
X176934761Y-122055000D01*
X177077619Y-122007380D01*
X177172857Y-122007380D01*
X177315714Y-122055000D01*
X177363333Y-122102619D01*
X175109285Y-81097380D02*
X175109285Y-80097380D01*
X175680714Y-81097380D01*
X175680714Y-80097380D01*
X176728333Y-81002142D02*
X176680714Y-81049761D01*
X176537857Y-81097380D01*
X176442619Y-81097380D01*
X176299761Y-81049761D01*
X176204523Y-80954523D01*
X176156904Y-80859285D01*
X176109285Y-80668809D01*
X176109285Y-80525952D01*
X176156904Y-80335476D01*
X176204523Y-80240238D01*
X176299761Y-80145000D01*
X176442619Y-80097380D01*
X176537857Y-80097380D01*
X176680714Y-80145000D01*
X176728333Y-80192619D01*
X174871190Y-83589761D02*
X175014047Y-83637380D01*
X175252142Y-83637380D01*
X175347380Y-83589761D01*
X175395000Y-83542142D01*
X175442619Y-83446904D01*
X175442619Y-83351666D01*
X175395000Y-83256428D01*
X175347380Y-83208809D01*
X175252142Y-83161190D01*
X175061666Y-83113571D01*
X174966428Y-83065952D01*
X174918809Y-83018333D01*
X174871190Y-82923095D01*
X174871190Y-82827857D01*
X174918809Y-82732619D01*
X174966428Y-82685000D01*
X175061666Y-82637380D01*
X175299761Y-82637380D01*
X175442619Y-82685000D01*
X175871190Y-83637380D02*
X175871190Y-82637380D01*
X176871190Y-82685000D02*
X176775952Y-82637380D01*
X176633095Y-82637380D01*
X176490238Y-82685000D01*
X176395000Y-82780238D01*
X176347380Y-82875476D01*
X176299761Y-83065952D01*
X176299761Y-83208809D01*
X176347380Y-83399285D01*
X176395000Y-83494523D01*
X176490238Y-83589761D01*
X176633095Y-83637380D01*
X176728333Y-83637380D01*
X176871190Y-83589761D01*
X176918809Y-83542142D01*
X176918809Y-83208809D01*
X176728333Y-83208809D01*
X175133095Y-77605000D02*
X175037857Y-77557380D01*
X174895000Y-77557380D01*
X174752142Y-77605000D01*
X174656904Y-77700238D01*
X174609285Y-77795476D01*
X174561666Y-77985952D01*
X174561666Y-78128809D01*
X174609285Y-78319285D01*
X174656904Y-78414523D01*
X174752142Y-78509761D01*
X174895000Y-78557380D01*
X174990238Y-78557380D01*
X175133095Y-78509761D01*
X175180714Y-78462142D01*
X175180714Y-78128809D01*
X174990238Y-78128809D01*
X175609285Y-78557380D02*
X175609285Y-77557380D01*
X176180714Y-78557380D01*
X176180714Y-77557380D01*
X176656904Y-78557380D02*
X176656904Y-77557380D01*
X176895000Y-77557380D01*
X177037857Y-77605000D01*
X177133095Y-77700238D01*
X177180714Y-77795476D01*
X177228333Y-77985952D01*
X177228333Y-78128809D01*
X177180714Y-78319285D01*
X177133095Y-78414523D01*
X177037857Y-78509761D01*
X176895000Y-78557380D01*
X176656904Y-78557380D01*
X163703095Y-82685000D02*
X163607857Y-82637380D01*
X163465000Y-82637380D01*
X163322142Y-82685000D01*
X163226904Y-82780238D01*
X163179285Y-82875476D01*
X163131666Y-83065952D01*
X163131666Y-83208809D01*
X163179285Y-83399285D01*
X163226904Y-83494523D01*
X163322142Y-83589761D01*
X163465000Y-83637380D01*
X163560238Y-83637380D01*
X163703095Y-83589761D01*
X163750714Y-83542142D01*
X163750714Y-83208809D01*
X163560238Y-83208809D01*
X164179285Y-83637380D02*
X164179285Y-82637380D01*
X164750714Y-83637380D01*
X164750714Y-82637380D01*
X165226904Y-83637380D02*
X165226904Y-82637380D01*
X165465000Y-82637380D01*
X165607857Y-82685000D01*
X165703095Y-82780238D01*
X165750714Y-82875476D01*
X165798333Y-83065952D01*
X165798333Y-83208809D01*
X165750714Y-83399285D01*
X165703095Y-83494523D01*
X165607857Y-83589761D01*
X165465000Y-83637380D01*
X165226904Y-83637380D01*
X163250714Y-81049761D02*
X163393571Y-81097380D01*
X163631666Y-81097380D01*
X163726904Y-81049761D01*
X163774523Y-81002142D01*
X163822142Y-80906904D01*
X163822142Y-80811666D01*
X163774523Y-80716428D01*
X163726904Y-80668809D01*
X163631666Y-80621190D01*
X163441190Y-80573571D01*
X163345952Y-80525952D01*
X163298333Y-80478333D01*
X163250714Y-80383095D01*
X163250714Y-80287857D01*
X163298333Y-80192619D01*
X163345952Y-80145000D01*
X163441190Y-80097380D01*
X163679285Y-80097380D01*
X163822142Y-80145000D01*
X164250714Y-81097380D02*
X164250714Y-80097380D01*
X164488809Y-80097380D01*
X164631666Y-80145000D01*
X164726904Y-80240238D01*
X164774523Y-80335476D01*
X164822142Y-80525952D01*
X164822142Y-80668809D01*
X164774523Y-80859285D01*
X164726904Y-80954523D01*
X164631666Y-81049761D01*
X164488809Y-81097380D01*
X164250714Y-81097380D01*
X165203095Y-80811666D02*
X165679285Y-80811666D01*
X165107857Y-81097380D02*
X165441190Y-80097380D01*
X165774523Y-81097380D01*
X163274523Y-78509761D02*
X163417380Y-78557380D01*
X163655476Y-78557380D01*
X163750714Y-78509761D01*
X163798333Y-78462142D01*
X163845952Y-78366904D01*
X163845952Y-78271666D01*
X163798333Y-78176428D01*
X163750714Y-78128809D01*
X163655476Y-78081190D01*
X163465000Y-78033571D01*
X163369761Y-77985952D01*
X163322142Y-77938333D01*
X163274523Y-77843095D01*
X163274523Y-77747857D01*
X163322142Y-77652619D01*
X163369761Y-77605000D01*
X163465000Y-77557380D01*
X163703095Y-77557380D01*
X163845952Y-77605000D01*
X164845952Y-78462142D02*
X164798333Y-78509761D01*
X164655476Y-78557380D01*
X164560238Y-78557380D01*
X164417380Y-78509761D01*
X164322142Y-78414523D01*
X164274523Y-78319285D01*
X164226904Y-78128809D01*
X164226904Y-77985952D01*
X164274523Y-77795476D01*
X164322142Y-77700238D01*
X164417380Y-77605000D01*
X164560238Y-77557380D01*
X164655476Y-77557380D01*
X164798333Y-77605000D01*
X164845952Y-77652619D01*
X165750714Y-78557380D02*
X165274523Y-78557380D01*
X165274523Y-77557380D01*
X163226904Y-75017380D02*
X163845952Y-75017380D01*
X163512619Y-75398333D01*
X163655476Y-75398333D01*
X163750714Y-75445952D01*
X163798333Y-75493571D01*
X163845952Y-75588809D01*
X163845952Y-75826904D01*
X163798333Y-75922142D01*
X163750714Y-75969761D01*
X163655476Y-76017380D01*
X163369761Y-76017380D01*
X163274523Y-75969761D01*
X163226904Y-75922142D01*
X164131666Y-75017380D02*
X164465000Y-76017380D01*
X164798333Y-75017380D01*
X165036428Y-75017380D02*
X165655476Y-75017380D01*
X165322142Y-75398333D01*
X165465000Y-75398333D01*
X165560238Y-75445952D01*
X165607857Y-75493571D01*
X165655476Y-75588809D01*
X165655476Y-75826904D01*
X165607857Y-75922142D01*
X165560238Y-75969761D01*
X165465000Y-76017380D01*
X165179285Y-76017380D01*
X165084047Y-75969761D01*
X165036428Y-75922142D01*
%TO.C,*%
%TO.C,C9*%
X171918333Y-88397142D02*
X171870714Y-88444761D01*
X171727857Y-88492380D01*
X171632619Y-88492380D01*
X171489761Y-88444761D01*
X171394523Y-88349523D01*
X171346904Y-88254285D01*
X171299285Y-88063809D01*
X171299285Y-87920952D01*
X171346904Y-87730476D01*
X171394523Y-87635238D01*
X171489761Y-87540000D01*
X171632619Y-87492380D01*
X171727857Y-87492380D01*
X171870714Y-87540000D01*
X171918333Y-87587619D01*
X172394523Y-88492380D02*
X172585000Y-88492380D01*
X172680238Y-88444761D01*
X172727857Y-88397142D01*
X172823095Y-88254285D01*
X172870714Y-88063809D01*
X172870714Y-87682857D01*
X172823095Y-87587619D01*
X172775476Y-87540000D01*
X172680238Y-87492380D01*
X172489761Y-87492380D01*
X172394523Y-87540000D01*
X172346904Y-87587619D01*
X172299285Y-87682857D01*
X172299285Y-87920952D01*
X172346904Y-88016190D01*
X172394523Y-88063809D01*
X172489761Y-88111428D01*
X172680238Y-88111428D01*
X172775476Y-88063809D01*
X172823095Y-88016190D01*
X172870714Y-87920952D01*
%TO.C,C8*%
X175723333Y-85037142D02*
X175675714Y-85084761D01*
X175532857Y-85132380D01*
X175437619Y-85132380D01*
X175294761Y-85084761D01*
X175199523Y-84989523D01*
X175151904Y-84894285D01*
X175104285Y-84703809D01*
X175104285Y-84560952D01*
X175151904Y-84370476D01*
X175199523Y-84275238D01*
X175294761Y-84180000D01*
X175437619Y-84132380D01*
X175532857Y-84132380D01*
X175675714Y-84180000D01*
X175723333Y-84227619D01*
X176294761Y-84560952D02*
X176199523Y-84513333D01*
X176151904Y-84465714D01*
X176104285Y-84370476D01*
X176104285Y-84322857D01*
X176151904Y-84227619D01*
X176199523Y-84180000D01*
X176294761Y-84132380D01*
X176485238Y-84132380D01*
X176580476Y-84180000D01*
X176628095Y-84227619D01*
X176675714Y-84322857D01*
X176675714Y-84370476D01*
X176628095Y-84465714D01*
X176580476Y-84513333D01*
X176485238Y-84560952D01*
X176294761Y-84560952D01*
X176199523Y-84608571D01*
X176151904Y-84656190D01*
X176104285Y-84751428D01*
X176104285Y-84941904D01*
X176151904Y-85037142D01*
X176199523Y-85084761D01*
X176294761Y-85132380D01*
X176485238Y-85132380D01*
X176580476Y-85084761D01*
X176628095Y-85037142D01*
X176675714Y-84941904D01*
X176675714Y-84751428D01*
X176628095Y-84656190D01*
X176580476Y-84608571D01*
X176485238Y-84560952D01*
%TO.C,C4*%
X179538333Y-82497142D02*
X179490714Y-82544761D01*
X179347857Y-82592380D01*
X179252619Y-82592380D01*
X179109761Y-82544761D01*
X179014523Y-82449523D01*
X178966904Y-82354285D01*
X178919285Y-82163809D01*
X178919285Y-82020952D01*
X178966904Y-81830476D01*
X179014523Y-81735238D01*
X179109761Y-81640000D01*
X179252619Y-81592380D01*
X179347857Y-81592380D01*
X179490714Y-81640000D01*
X179538333Y-81687619D01*
X180395476Y-81925714D02*
X180395476Y-82592380D01*
X180157380Y-81544761D02*
X179919285Y-82259047D01*
X180538333Y-82259047D01*
%TO.C,C3*%
X179538333Y-85037142D02*
X179490714Y-85084761D01*
X179347857Y-85132380D01*
X179252619Y-85132380D01*
X179109761Y-85084761D01*
X179014523Y-84989523D01*
X178966904Y-84894285D01*
X178919285Y-84703809D01*
X178919285Y-84560952D01*
X178966904Y-84370476D01*
X179014523Y-84275238D01*
X179109761Y-84180000D01*
X179252619Y-84132380D01*
X179347857Y-84132380D01*
X179490714Y-84180000D01*
X179538333Y-84227619D01*
X179871666Y-84132380D02*
X180490714Y-84132380D01*
X180157380Y-84513333D01*
X180300238Y-84513333D01*
X180395476Y-84560952D01*
X180443095Y-84608571D01*
X180490714Y-84703809D01*
X180490714Y-84941904D01*
X180443095Y-85037142D01*
X180395476Y-85084761D01*
X180300238Y-85132380D01*
X180014523Y-85132380D01*
X179919285Y-85084761D01*
X179871666Y-85037142D01*
%TO.C,U2*%
X149098095Y-108797380D02*
X149098095Y-109606904D01*
X149145714Y-109702142D01*
X149193333Y-109749761D01*
X149288571Y-109797380D01*
X149479047Y-109797380D01*
X149574285Y-109749761D01*
X149621904Y-109702142D01*
X149669523Y-109606904D01*
X149669523Y-108797380D01*
X150098095Y-108892619D02*
X150145714Y-108845000D01*
X150240952Y-108797380D01*
X150479047Y-108797380D01*
X150574285Y-108845000D01*
X150621904Y-108892619D01*
X150669523Y-108987857D01*
X150669523Y-109083095D01*
X150621904Y-109225952D01*
X150050476Y-109797380D01*
X150669523Y-109797380D01*
%TO.C,R7*%
X159218333Y-114752380D02*
X158885000Y-114276190D01*
X158646904Y-114752380D02*
X158646904Y-113752380D01*
X159027857Y-113752380D01*
X159123095Y-113800000D01*
X159170714Y-113847619D01*
X159218333Y-113942857D01*
X159218333Y-114085714D01*
X159170714Y-114180952D01*
X159123095Y-114228571D01*
X159027857Y-114276190D01*
X158646904Y-114276190D01*
X159551666Y-113752380D02*
X160218333Y-113752380D01*
X159789761Y-114752380D01*
%TO.C,R6*%
X156043333Y-110307380D02*
X155710000Y-109831190D01*
X155471904Y-110307380D02*
X155471904Y-109307380D01*
X155852857Y-109307380D01*
X155948095Y-109355000D01*
X155995714Y-109402619D01*
X156043333Y-109497857D01*
X156043333Y-109640714D01*
X155995714Y-109735952D01*
X155948095Y-109783571D01*
X155852857Y-109831190D01*
X155471904Y-109831190D01*
X156900476Y-109307380D02*
X156710000Y-109307380D01*
X156614761Y-109355000D01*
X156567142Y-109402619D01*
X156471904Y-109545476D01*
X156424285Y-109735952D01*
X156424285Y-110116904D01*
X156471904Y-110212142D01*
X156519523Y-110259761D01*
X156614761Y-110307380D01*
X156805238Y-110307380D01*
X156900476Y-110259761D01*
X156948095Y-110212142D01*
X156995714Y-110116904D01*
X156995714Y-109878809D01*
X156948095Y-109783571D01*
X156900476Y-109735952D01*
X156805238Y-109688333D01*
X156614761Y-109688333D01*
X156519523Y-109735952D01*
X156471904Y-109783571D01*
X156424285Y-109878809D01*
%TO.C,C11*%
X171442142Y-103114638D02*
X171394523Y-103162257D01*
X171251666Y-103209876D01*
X171156428Y-103209876D01*
X171013571Y-103162257D01*
X170918333Y-103067019D01*
X170870714Y-102971781D01*
X170823095Y-102781305D01*
X170823095Y-102638448D01*
X170870714Y-102447972D01*
X170918333Y-102352734D01*
X171013571Y-102257496D01*
X171156428Y-102209876D01*
X171251666Y-102209876D01*
X171394523Y-102257496D01*
X171442142Y-102305115D01*
X172394523Y-103209876D02*
X171823095Y-103209876D01*
X172108809Y-103209876D02*
X172108809Y-102209876D01*
X172013571Y-102352734D01*
X171918333Y-102447972D01*
X171823095Y-102495591D01*
X173346904Y-103209876D02*
X172775476Y-103209876D01*
X173061190Y-103209876D02*
X173061190Y-102209876D01*
X172965952Y-102352734D01*
X172870714Y-102447972D01*
X172775476Y-102495591D01*
D11*
%TO.C,M1*%
X128889428Y-75238942D02*
X128889428Y-72238942D01*
X129889428Y-74381800D01*
X130889428Y-72238942D01*
X130889428Y-75238942D01*
X133889428Y-75238942D02*
X132175142Y-75238942D01*
X133032285Y-75238942D02*
X133032285Y-72238942D01*
X132746571Y-72667514D01*
X132460857Y-72953228D01*
X132175142Y-73096085D01*
%TO.C,M4*%
X128889428Y-131093542D02*
X128889428Y-128093542D01*
X129889428Y-130236400D01*
X130889428Y-128093542D01*
X130889428Y-131093542D01*
X133603714Y-129093542D02*
X133603714Y-131093542D01*
X132889428Y-127950685D02*
X132175142Y-130093542D01*
X134032285Y-130093542D01*
D10*
%TO.C,R3*%
X137882333Y-84935316D02*
X137549000Y-84459126D01*
X137310904Y-84935316D02*
X137310904Y-83935316D01*
X137691857Y-83935316D01*
X137787095Y-83982936D01*
X137834714Y-84030555D01*
X137882333Y-84125793D01*
X137882333Y-84268650D01*
X137834714Y-84363888D01*
X137787095Y-84411507D01*
X137691857Y-84459126D01*
X137310904Y-84459126D01*
X138215666Y-83935316D02*
X138834714Y-83935316D01*
X138501380Y-84316269D01*
X138644238Y-84316269D01*
X138739476Y-84363888D01*
X138787095Y-84411507D01*
X138834714Y-84506745D01*
X138834714Y-84744840D01*
X138787095Y-84840078D01*
X138739476Y-84887697D01*
X138644238Y-84935316D01*
X138358523Y-84935316D01*
X138263285Y-84887697D01*
X138215666Y-84840078D01*
%TO.C,U1*%
X159593095Y-100742380D02*
X159593095Y-101551904D01*
X159640714Y-101647142D01*
X159688333Y-101694761D01*
X159783571Y-101742380D01*
X159974047Y-101742380D01*
X160069285Y-101694761D01*
X160116904Y-101647142D01*
X160164523Y-101551904D01*
X160164523Y-100742380D01*
X161164523Y-101742380D02*
X160593095Y-101742380D01*
X160878809Y-101742380D02*
X160878809Y-100742380D01*
X160783571Y-100885238D01*
X160688333Y-100980476D01*
X160593095Y-101028095D01*
%TO.C,C5*%
X140803333Y-71887142D02*
X140755714Y-71934761D01*
X140612857Y-71982380D01*
X140517619Y-71982380D01*
X140374761Y-71934761D01*
X140279523Y-71839523D01*
X140231904Y-71744285D01*
X140184285Y-71553809D01*
X140184285Y-71410952D01*
X140231904Y-71220476D01*
X140279523Y-71125238D01*
X140374761Y-71030000D01*
X140517619Y-70982380D01*
X140612857Y-70982380D01*
X140755714Y-71030000D01*
X140803333Y-71077619D01*
X141708095Y-70982380D02*
X141231904Y-70982380D01*
X141184285Y-71458571D01*
X141231904Y-71410952D01*
X141327142Y-71363333D01*
X141565238Y-71363333D01*
X141660476Y-71410952D01*
X141708095Y-71458571D01*
X141755714Y-71553809D01*
X141755714Y-71791904D01*
X141708095Y-71887142D01*
X141660476Y-71934761D01*
X141565238Y-71982380D01*
X141327142Y-71982380D01*
X141231904Y-71934761D01*
X141184285Y-71887142D01*
%TO.C,R2*%
X182332333Y-89353380D02*
X181999000Y-88877190D01*
X181760904Y-89353380D02*
X181760904Y-88353380D01*
X182141857Y-88353380D01*
X182237095Y-88401000D01*
X182284714Y-88448619D01*
X182332333Y-88543857D01*
X182332333Y-88686714D01*
X182284714Y-88781952D01*
X182237095Y-88829571D01*
X182141857Y-88877190D01*
X181760904Y-88877190D01*
X182713285Y-88448619D02*
X182760904Y-88401000D01*
X182856142Y-88353380D01*
X183094238Y-88353380D01*
X183189476Y-88401000D01*
X183237095Y-88448619D01*
X183284714Y-88543857D01*
X183284714Y-88639095D01*
X183237095Y-88781952D01*
X182665666Y-89353380D01*
X183284714Y-89353380D01*
%TO.C,C7*%
X138898333Y-89482142D02*
X138850714Y-89529761D01*
X138707857Y-89577380D01*
X138612619Y-89577380D01*
X138469761Y-89529761D01*
X138374523Y-89434523D01*
X138326904Y-89339285D01*
X138279285Y-89148809D01*
X138279285Y-89005952D01*
X138326904Y-88815476D01*
X138374523Y-88720238D01*
X138469761Y-88625000D01*
X138612619Y-88577380D01*
X138707857Y-88577380D01*
X138850714Y-88625000D01*
X138898333Y-88672619D01*
X139231666Y-88577380D02*
X139898333Y-88577380D01*
X139469761Y-89577380D01*
%TO.C,R5*%
X155403333Y-104847380D02*
X155070000Y-104371190D01*
X154831904Y-104847380D02*
X154831904Y-103847380D01*
X155212857Y-103847380D01*
X155308095Y-103895000D01*
X155355714Y-103942619D01*
X155403333Y-104037857D01*
X155403333Y-104180714D01*
X155355714Y-104275952D01*
X155308095Y-104323571D01*
X155212857Y-104371190D01*
X154831904Y-104371190D01*
X156308095Y-103847380D02*
X155831904Y-103847380D01*
X155784285Y-104323571D01*
X155831904Y-104275952D01*
X155927142Y-104228333D01*
X156165238Y-104228333D01*
X156260476Y-104275952D01*
X156308095Y-104323571D01*
X156355714Y-104418809D01*
X156355714Y-104656904D01*
X156308095Y-104752142D01*
X156260476Y-104799761D01*
X156165238Y-104847380D01*
X155927142Y-104847380D01*
X155831904Y-104799761D01*
X155784285Y-104752142D01*
D11*
%TO.C,M3*%
X170164428Y-75227142D02*
X170164428Y-72227142D01*
X171164428Y-74370000D01*
X172164428Y-72227142D01*
X172164428Y-75227142D01*
X173307285Y-72227142D02*
X175164428Y-72227142D01*
X174164428Y-73370000D01*
X174593000Y-73370000D01*
X174878714Y-73512857D01*
X175021571Y-73655714D01*
X175164428Y-73941428D01*
X175164428Y-74655714D01*
X175021571Y-74941428D01*
X174878714Y-75084285D01*
X174593000Y-75227142D01*
X173735857Y-75227142D01*
X173450142Y-75084285D01*
X173307285Y-74941428D01*
D10*
%TO.C,C2*%
X166838333Y-90637142D02*
X166790714Y-90684761D01*
X166647857Y-90732380D01*
X166552619Y-90732380D01*
X166409761Y-90684761D01*
X166314523Y-90589523D01*
X166266904Y-90494285D01*
X166219285Y-90303809D01*
X166219285Y-90160952D01*
X166266904Y-89970476D01*
X166314523Y-89875238D01*
X166409761Y-89780000D01*
X166552619Y-89732380D01*
X166647857Y-89732380D01*
X166790714Y-89780000D01*
X166838333Y-89827619D01*
X167219285Y-89827619D02*
X167266904Y-89780000D01*
X167362142Y-89732380D01*
X167600238Y-89732380D01*
X167695476Y-89780000D01*
X167743095Y-89827619D01*
X167790714Y-89922857D01*
X167790714Y-90018095D01*
X167743095Y-90160952D01*
X167171666Y-90732380D01*
X167790714Y-90732380D01*
%TO.C,*%
%TO.C,U9*%
X149098095Y-97582380D02*
X149098095Y-98391904D01*
X149145714Y-98487142D01*
X149193333Y-98534761D01*
X149288571Y-98582380D01*
X149479047Y-98582380D01*
X149574285Y-98534761D01*
X149621904Y-98487142D01*
X149669523Y-98391904D01*
X149669523Y-97582380D01*
X150193333Y-98582380D02*
X150383809Y-98582380D01*
X150479047Y-98534761D01*
X150526666Y-98487142D01*
X150621904Y-98344285D01*
X150669523Y-98153809D01*
X150669523Y-97772857D01*
X150621904Y-97677619D01*
X150574285Y-97630000D01*
X150479047Y-97582380D01*
X150288571Y-97582380D01*
X150193333Y-97630000D01*
X150145714Y-97677619D01*
X150098095Y-97772857D01*
X150098095Y-98010952D01*
X150145714Y-98106190D01*
X150193333Y-98153809D01*
X150288571Y-98201428D01*
X150479047Y-98201428D01*
X150574285Y-98153809D01*
X150621904Y-98106190D01*
X150669523Y-98010952D01*
%TO.C,U5*%
X159558095Y-106442380D02*
X159558095Y-107251904D01*
X159605714Y-107347142D01*
X159653333Y-107394761D01*
X159748571Y-107442380D01*
X159939047Y-107442380D01*
X160034285Y-107394761D01*
X160081904Y-107347142D01*
X160129523Y-107251904D01*
X160129523Y-106442380D01*
X161081904Y-106442380D02*
X160605714Y-106442380D01*
X160558095Y-106918571D01*
X160605714Y-106870952D01*
X160700952Y-106823333D01*
X160939047Y-106823333D01*
X161034285Y-106870952D01*
X161081904Y-106918571D01*
X161129523Y-107013809D01*
X161129523Y-107251904D01*
X161081904Y-107347142D01*
X161034285Y-107394761D01*
X160939047Y-107442380D01*
X160700952Y-107442380D01*
X160605714Y-107394761D01*
X160558095Y-107347142D01*
%TO.C,C12*%
X171442142Y-107262142D02*
X171394523Y-107309761D01*
X171251666Y-107357380D01*
X171156428Y-107357380D01*
X171013571Y-107309761D01*
X170918333Y-107214523D01*
X170870714Y-107119285D01*
X170823095Y-106928809D01*
X170823095Y-106785952D01*
X170870714Y-106595476D01*
X170918333Y-106500238D01*
X171013571Y-106405000D01*
X171156428Y-106357380D01*
X171251666Y-106357380D01*
X171394523Y-106405000D01*
X171442142Y-106452619D01*
X172394523Y-107357380D02*
X171823095Y-107357380D01*
X172108809Y-107357380D02*
X172108809Y-106357380D01*
X172013571Y-106500238D01*
X171918333Y-106595476D01*
X171823095Y-106643095D01*
X172775476Y-106452619D02*
X172823095Y-106405000D01*
X172918333Y-106357380D01*
X173156428Y-106357380D01*
X173251666Y-106405000D01*
X173299285Y-106452619D01*
X173346904Y-106547857D01*
X173346904Y-106643095D01*
X173299285Y-106785952D01*
X172727857Y-107357380D01*
X173346904Y-107357380D01*
D11*
%TO.C,M2*%
X170799428Y-131107142D02*
X170799428Y-128107142D01*
X171799428Y-130250000D01*
X172799428Y-128107142D01*
X172799428Y-131107142D01*
X174085142Y-128392857D02*
X174228000Y-128250000D01*
X174513714Y-128107142D01*
X175228000Y-128107142D01*
X175513714Y-128250000D01*
X175656571Y-128392857D01*
X175799428Y-128678571D01*
X175799428Y-128964285D01*
X175656571Y-129392857D01*
X173942285Y-131107142D01*
X175799428Y-131107142D01*
D10*
%TO.C,R1*%
X182332333Y-91891380D02*
X181999000Y-91415190D01*
X181760904Y-91891380D02*
X181760904Y-90891380D01*
X182141857Y-90891380D01*
X182237095Y-90939000D01*
X182284714Y-90986619D01*
X182332333Y-91081857D01*
X182332333Y-91224714D01*
X182284714Y-91319952D01*
X182237095Y-91367571D01*
X182141857Y-91415190D01*
X181760904Y-91415190D01*
X183284714Y-91891380D02*
X182713285Y-91891380D01*
X182999000Y-91891380D02*
X182999000Y-90891380D01*
X182903761Y-91034238D01*
X182808523Y-91129476D01*
X182713285Y-91177095D01*
%TO.C,C6*%
X137501333Y-75258142D02*
X137453714Y-75305761D01*
X137310857Y-75353380D01*
X137215619Y-75353380D01*
X137072761Y-75305761D01*
X136977523Y-75210523D01*
X136929904Y-75115285D01*
X136882285Y-74924809D01*
X136882285Y-74781952D01*
X136929904Y-74591476D01*
X136977523Y-74496238D01*
X137072761Y-74401000D01*
X137215619Y-74353380D01*
X137310857Y-74353380D01*
X137453714Y-74401000D01*
X137501333Y-74448619D01*
X138358476Y-74353380D02*
X138168000Y-74353380D01*
X138072761Y-74401000D01*
X138025142Y-74448619D01*
X137929904Y-74591476D01*
X137882285Y-74781952D01*
X137882285Y-75162904D01*
X137929904Y-75258142D01*
X137977523Y-75305761D01*
X138072761Y-75353380D01*
X138263238Y-75353380D01*
X138358476Y-75305761D01*
X138406095Y-75258142D01*
X138453714Y-75162904D01*
X138453714Y-74924809D01*
X138406095Y-74829571D01*
X138358476Y-74781952D01*
X138263238Y-74734333D01*
X138072761Y-74734333D01*
X137977523Y-74781952D01*
X137929904Y-74829571D01*
X137882285Y-74924809D01*
%TO.C,R4*%
X149053333Y-104847380D02*
X148720000Y-104371190D01*
X148481904Y-104847380D02*
X148481904Y-103847380D01*
X148862857Y-103847380D01*
X148958095Y-103895000D01*
X149005714Y-103942619D01*
X149053333Y-104037857D01*
X149053333Y-104180714D01*
X149005714Y-104275952D01*
X148958095Y-104323571D01*
X148862857Y-104371190D01*
X148481904Y-104371190D01*
X149910476Y-104180714D02*
X149910476Y-104847380D01*
X149672380Y-103799761D02*
X149434285Y-104514047D01*
X150053333Y-104514047D01*
%TO.C,U6*%
X174498095Y-92922380D02*
X174498095Y-93731904D01*
X174545714Y-93827142D01*
X174593333Y-93874761D01*
X174688571Y-93922380D01*
X174879047Y-93922380D01*
X174974285Y-93874761D01*
X175021904Y-93827142D01*
X175069523Y-93731904D01*
X175069523Y-92922380D01*
X175974285Y-92922380D02*
X175783809Y-92922380D01*
X175688571Y-92970000D01*
X175640952Y-93017619D01*
X175545714Y-93160476D01*
X175498095Y-93350952D01*
X175498095Y-93731904D01*
X175545714Y-93827142D01*
X175593333Y-93874761D01*
X175688571Y-93922380D01*
X175879047Y-93922380D01*
X175974285Y-93874761D01*
X176021904Y-93827142D01*
X176069523Y-93731904D01*
X176069523Y-93493809D01*
X176021904Y-93398571D01*
X175974285Y-93350952D01*
X175879047Y-93303333D01*
X175688571Y-93303333D01*
X175593333Y-93350952D01*
X175545714Y-93398571D01*
X175498095Y-93493809D01*
%TO.C,USB-C*%
X176943047Y-106132380D02*
X176943047Y-106941904D01*
X176990666Y-107037142D01*
X177038285Y-107084761D01*
X177133523Y-107132380D01*
X177324000Y-107132380D01*
X177419238Y-107084761D01*
X177466857Y-107037142D01*
X177514476Y-106941904D01*
X177514476Y-106132380D01*
X177943047Y-107084761D02*
X178085904Y-107132380D01*
X178324000Y-107132380D01*
X178419238Y-107084761D01*
X178466857Y-107037142D01*
X178514476Y-106941904D01*
X178514476Y-106846666D01*
X178466857Y-106751428D01*
X178419238Y-106703809D01*
X178324000Y-106656190D01*
X178133523Y-106608571D01*
X178038285Y-106560952D01*
X177990666Y-106513333D01*
X177943047Y-106418095D01*
X177943047Y-106322857D01*
X177990666Y-106227619D01*
X178038285Y-106180000D01*
X178133523Y-106132380D01*
X178371619Y-106132380D01*
X178514476Y-106180000D01*
X179276380Y-106608571D02*
X179419238Y-106656190D01*
X179466857Y-106703809D01*
X179514476Y-106799047D01*
X179514476Y-106941904D01*
X179466857Y-107037142D01*
X179419238Y-107084761D01*
X179324000Y-107132380D01*
X178943047Y-107132380D01*
X178943047Y-106132380D01*
X179276380Y-106132380D01*
X179371619Y-106180000D01*
X179419238Y-106227619D01*
X179466857Y-106322857D01*
X179466857Y-106418095D01*
X179419238Y-106513333D01*
X179371619Y-106560952D01*
X179276380Y-106608571D01*
X178943047Y-106608571D01*
X179943047Y-106751428D02*
X180704952Y-106751428D01*
X181752571Y-107037142D02*
X181704952Y-107084761D01*
X181562095Y-107132380D01*
X181466857Y-107132380D01*
X181324000Y-107084761D01*
X181228761Y-106989523D01*
X181181142Y-106894285D01*
X181133523Y-106703809D01*
X181133523Y-106560952D01*
X181181142Y-106370476D01*
X181228761Y-106275238D01*
X181324000Y-106180000D01*
X181466857Y-106132380D01*
X181562095Y-106132380D01*
X181704952Y-106180000D01*
X181752571Y-106227619D01*
%TO.C,*%
%TO.C,C1*%
X152233333Y-107262142D02*
X152185714Y-107309761D01*
X152042857Y-107357380D01*
X151947619Y-107357380D01*
X151804761Y-107309761D01*
X151709523Y-107214523D01*
X151661904Y-107119285D01*
X151614285Y-106928809D01*
X151614285Y-106785952D01*
X151661904Y-106595476D01*
X151709523Y-106500238D01*
X151804761Y-106405000D01*
X151947619Y-106357380D01*
X152042857Y-106357380D01*
X152185714Y-106405000D01*
X152233333Y-106452619D01*
X153185714Y-107357380D02*
X152614285Y-107357380D01*
X152900000Y-107357380D02*
X152900000Y-106357380D01*
X152804761Y-106500238D01*
X152709523Y-106595476D01*
X152614285Y-106643095D01*
%TO.C,Antenna*%
X129318095Y-115411666D02*
X129794285Y-115411666D01*
X129222857Y-115697380D02*
X129556190Y-114697380D01*
X129889523Y-115697380D01*
X130222857Y-115030714D02*
X130222857Y-115697380D01*
X130222857Y-115125952D02*
X130270476Y-115078333D01*
X130365714Y-115030714D01*
X130508571Y-115030714D01*
X130603809Y-115078333D01*
X130651428Y-115173571D01*
X130651428Y-115697380D01*
X130984761Y-115030714D02*
X131365714Y-115030714D01*
X131127619Y-114697380D02*
X131127619Y-115554523D01*
X131175238Y-115649761D01*
X131270476Y-115697380D01*
X131365714Y-115697380D01*
X132080000Y-115649761D02*
X131984761Y-115697380D01*
X131794285Y-115697380D01*
X131699047Y-115649761D01*
X131651428Y-115554523D01*
X131651428Y-115173571D01*
X131699047Y-115078333D01*
X131794285Y-115030714D01*
X131984761Y-115030714D01*
X132080000Y-115078333D01*
X132127619Y-115173571D01*
X132127619Y-115268809D01*
X131651428Y-115364047D01*
X132556190Y-115030714D02*
X132556190Y-115697380D01*
X132556190Y-115125952D02*
X132603809Y-115078333D01*
X132699047Y-115030714D01*
X132841904Y-115030714D01*
X132937142Y-115078333D01*
X132984761Y-115173571D01*
X132984761Y-115697380D01*
X133460952Y-115030714D02*
X133460952Y-115697380D01*
X133460952Y-115125952D02*
X133508571Y-115078333D01*
X133603809Y-115030714D01*
X133746666Y-115030714D01*
X133841904Y-115078333D01*
X133889523Y-115173571D01*
X133889523Y-115697380D01*
X134794285Y-115697380D02*
X134794285Y-115173571D01*
X134746666Y-115078333D01*
X134651428Y-115030714D01*
X134460952Y-115030714D01*
X134365714Y-115078333D01*
X134794285Y-115649761D02*
X134699047Y-115697380D01*
X134460952Y-115697380D01*
X134365714Y-115649761D01*
X134318095Y-115554523D01*
X134318095Y-115459285D01*
X134365714Y-115364047D01*
X134460952Y-115316428D01*
X134699047Y-115316428D01*
X134794285Y-115268809D01*
%TO.C,*%
D12*
%TO.C,J4*%
X176022000Y-111252000D02*
X173422000Y-111252000D01*
X181162000Y-113852000D02*
X181162000Y-108652000D01*
X173422000Y-108652000D02*
X181162000Y-108652000D01*
X173422000Y-113852000D02*
X173422000Y-112522000D01*
X176022000Y-113852000D02*
X181162000Y-113852000D01*
X176022000Y-113852000D02*
X176022000Y-111252000D01*
X174752000Y-113852000D02*
X173422000Y-113852000D01*
X173422000Y-111252000D02*
X173422000Y-108652000D01*
%TO.C,J3*%
X160080000Y-130870000D02*
X144720000Y-130870000D01*
X157480000Y-128270000D02*
X160080000Y-128270000D01*
X157480000Y-125670000D02*
X144720000Y-125670000D01*
X144720000Y-125670000D02*
X144720000Y-130870000D01*
X160080000Y-125670000D02*
X160080000Y-127000000D01*
X158750000Y-125670000D02*
X160080000Y-125670000D01*
X160080000Y-128270000D02*
X160080000Y-130870000D01*
X157480000Y-125670000D02*
X157480000Y-128270000D01*
%TO.C,J1*%
X147320000Y-122615000D02*
X160080000Y-122615000D01*
X146050000Y-122615000D02*
X144720000Y-122615000D01*
X144720000Y-122615000D02*
X144720000Y-121285000D01*
X147320000Y-122615000D02*
X147320000Y-119955000D01*
X160080000Y-122615000D02*
X160080000Y-119955000D01*
X147320000Y-119955000D02*
X160080000Y-119955000D01*
%TO.C,C9*%
X172346252Y-87095000D02*
X171823748Y-87095000D01*
X172346252Y-85625000D02*
X171823748Y-85625000D01*
%TO.C,C8*%
X175628748Y-87095000D02*
X176151252Y-87095000D01*
X175628748Y-85625000D02*
X176151252Y-85625000D01*
%TO.C,C4*%
X179443748Y-83085000D02*
X179966252Y-83085000D01*
X179443748Y-84555000D02*
X179966252Y-84555000D01*
%TO.C,C3*%
X179443748Y-87095000D02*
X179966252Y-87095000D01*
X179443748Y-85625000D02*
X179966252Y-85625000D01*
%TO.C,J2*%
X166310000Y-81915000D02*
X166310000Y-74235000D01*
X168970000Y-83185000D02*
X168970000Y-84515000D01*
X168970000Y-74235000D02*
X166310000Y-74235000D01*
X168970000Y-81915000D02*
X166310000Y-81915000D01*
X168970000Y-84515000D02*
X167640000Y-84515000D01*
X168970000Y-81915000D02*
X168970000Y-74235000D01*
D10*
%TO.C,U2*%
X151935000Y-115605000D02*
X147785000Y-115605000D01*
X151935000Y-115405000D02*
X153235000Y-115405000D01*
X147785000Y-110455000D02*
X147785000Y-110655000D01*
X151935000Y-115605000D02*
X151935000Y-115405000D01*
X151935000Y-110455000D02*
X147785000Y-110455000D01*
X147785000Y-115605000D02*
X147785000Y-115405000D01*
X151935000Y-110455000D02*
X151935000Y-110655000D01*
D12*
%TO.C,R7*%
X155982936Y-115035000D02*
X156437064Y-115035000D01*
X155982936Y-113565000D02*
X156437064Y-113565000D01*
%TO.C,R6*%
X156437064Y-112495000D02*
X155982936Y-112495000D01*
X156437064Y-111025000D02*
X155982936Y-111025000D01*
%TO.C,C11*%
X170280000Y-103131252D02*
X170280000Y-102608748D01*
X168810000Y-103131252D02*
X168810000Y-102608748D01*
%TO.C,M1*%
X132775000Y-76775000D02*
X130115000Y-76775000D01*
X132775000Y-84515000D02*
X131445000Y-84515000D01*
X132775000Y-83185000D02*
X132775000Y-84515000D01*
X132775000Y-81915000D02*
X132775000Y-76775000D01*
X130115000Y-81915000D02*
X130115000Y-76775000D01*
X132775000Y-81915000D02*
X130115000Y-81915000D01*
%TO.C,M4*%
X132775000Y-123825000D02*
X132775000Y-118685000D01*
X130115000Y-123825000D02*
X130115000Y-118685000D01*
X132775000Y-123825000D02*
X130115000Y-123825000D01*
X132775000Y-118685000D02*
X130115000Y-118685000D01*
X132775000Y-125095000D02*
X132775000Y-126425000D01*
X132775000Y-126425000D02*
X131445000Y-126425000D01*
%TO.C,R3*%
X136879000Y-83846936D02*
X136879000Y-84301064D01*
X135409000Y-83846936D02*
X135409000Y-84301064D01*
%TO.C,U1*%
X165525000Y-103960000D02*
X165525000Y-103730000D01*
X162805000Y-100550000D02*
X162805000Y-99240000D01*
X165525000Y-103960000D02*
X162805000Y-103960000D01*
X162805000Y-99240000D02*
X165525000Y-99240000D01*
X162805000Y-103960000D02*
X162805000Y-102650000D01*
X165525000Y-99240000D02*
X165525000Y-99470000D01*
X166665000Y-103730000D02*
X165525000Y-103730000D01*
%TO.C,ESP32-WROOM-32U1*%
X161520000Y-91015000D02*
X161520000Y-91635000D01*
X143280000Y-72195000D02*
X143280000Y-72615000D01*
X161520000Y-91635000D02*
X160520000Y-91635000D01*
X143280000Y-91635000D02*
X144280000Y-91635000D01*
X143280000Y-91015000D02*
X143280000Y-91635000D01*
X143280000Y-72615000D02*
X142900000Y-72615000D01*
X161520000Y-72195000D02*
X161520000Y-72615000D01*
X143280000Y-72195000D02*
X161520000Y-72195000D01*
%TO.C,C5*%
X141705000Y-74556252D02*
X141705000Y-74033748D01*
X140235000Y-74556252D02*
X140235000Y-74033748D01*
%TO.C,SW1*%
X137247000Y-79490000D02*
X137547000Y-79490000D01*
X137547000Y-76190000D02*
X137247000Y-76190000D01*
X134747000Y-79490000D02*
X134747000Y-76190000D01*
X134747000Y-76190000D02*
X135047000Y-76190000D01*
X135047000Y-79490000D02*
X134747000Y-79490000D01*
X137547000Y-79490000D02*
X137547000Y-76190000D01*
%TO.C,R2*%
X179477936Y-90705000D02*
X179932064Y-90705000D01*
X179477936Y-92175000D02*
X179932064Y-92175000D01*
%TO.C,C7*%
X137895000Y-88638748D02*
X137895000Y-89161252D01*
X136425000Y-88638748D02*
X136425000Y-89161252D01*
%TO.C,BAT1*%
X162500000Y-125155000D02*
X162500000Y-123825000D01*
X163830000Y-125155000D02*
X162500000Y-125155000D01*
X165100000Y-125155000D02*
X167700000Y-125155000D01*
X165100000Y-125155000D02*
X165100000Y-122495000D01*
X167700000Y-125155000D02*
X167700000Y-122495000D01*
X165100000Y-122495000D02*
X167700000Y-122495000D01*
%TO.C,R5*%
X156310000Y-101367936D02*
X156310000Y-101822064D01*
X154840000Y-101367936D02*
X154840000Y-101822064D01*
%TO.C,M3*%
X171390000Y-76775000D02*
X172720000Y-76775000D01*
X171390000Y-79375000D02*
X174050000Y-79375000D01*
X171390000Y-84515000D02*
X174050000Y-84515000D01*
X174050000Y-79375000D02*
X174050000Y-84515000D01*
X171390000Y-78105000D02*
X171390000Y-76775000D01*
X171390000Y-79375000D02*
X171390000Y-84515000D01*
%TO.C,C2*%
X164245000Y-95675563D02*
X164245000Y-95040000D01*
X164245000Y-92284437D02*
X164245000Y-92920000D01*
X163380000Y-92295000D02*
X164005000Y-92295000D01*
X164245000Y-95675563D02*
X165309437Y-96740000D01*
X169765000Y-96740000D02*
X169765000Y-95040000D01*
X165309437Y-96740000D02*
X169765000Y-96740000D01*
X165309437Y-91220000D02*
X169765000Y-91220000D01*
X163692500Y-91982500D02*
X163692500Y-92607500D01*
X164245000Y-92284437D02*
X165309437Y-91220000D01*
X169765000Y-91220000D02*
X169765000Y-92920000D01*
%TO.C,U9*%
X154010000Y-102960000D02*
X154010000Y-102810000D01*
X153360000Y-102960000D02*
X154010000Y-102960000D01*
X153360000Y-100240000D02*
X154010000Y-100240000D01*
X150790000Y-102960000D02*
X150790000Y-102810000D01*
X151440000Y-100240000D02*
X150790000Y-100240000D01*
X154010000Y-100240000D02*
X154010000Y-100390000D01*
X151440000Y-102960000D02*
X150790000Y-102960000D01*
%TO.C,U5*%
X165525000Y-109675000D02*
X165525000Y-109445000D01*
X166665000Y-109445000D02*
X165525000Y-109445000D01*
X165525000Y-104955000D02*
X165525000Y-105185000D01*
X162805000Y-106265000D02*
X162805000Y-104955000D01*
X165525000Y-109675000D02*
X162805000Y-109675000D01*
X162805000Y-109675000D02*
X162805000Y-108365000D01*
X162805000Y-104955000D02*
X165525000Y-104955000D01*
%TO.C,GPS1*%
X125870000Y-108440000D02*
X138290000Y-108440000D01*
X125870000Y-100590000D02*
X125870000Y-102270000D01*
X125870000Y-92220000D02*
X125870000Y-92670000D01*
X138290000Y-100590000D02*
X138290000Y-102270000D01*
X125870000Y-92220000D02*
X138290000Y-92220000D01*
X138290000Y-92220000D02*
X138290000Y-92670000D01*
X125180000Y-92670000D02*
X125870000Y-92670000D01*
X125870000Y-107990000D02*
X125870000Y-108440000D01*
X138290000Y-107990000D02*
X138290000Y-108430000D01*
%TO.C,C12*%
X170280000Y-106418748D02*
X170280000Y-106941252D01*
X168810000Y-106418748D02*
X168810000Y-106941252D01*
%TO.C,M2*%
X172025000Y-121285000D02*
X172025000Y-126425000D01*
X172025000Y-120015000D02*
X172025000Y-118685000D01*
X172025000Y-126425000D02*
X174685000Y-126425000D01*
X172025000Y-118685000D02*
X173355000Y-118685000D01*
X174685000Y-121285000D02*
X174685000Y-126425000D01*
X172025000Y-121285000D02*
X174685000Y-121285000D01*
%TO.C,EEPROM1*%
X130175000Y-87290000D02*
X126575000Y-87290000D01*
X130175000Y-90510000D02*
X132375000Y-90510000D01*
X130175000Y-90510000D02*
X127975000Y-90510000D01*
X130175000Y-87290000D02*
X132375000Y-87290000D01*
%TO.C,R1*%
X179932064Y-88165000D02*
X179477936Y-88165000D01*
X179932064Y-89635000D02*
X179477936Y-89635000D01*
%TO.C,C6*%
X135409000Y-72636748D02*
X135409000Y-73159252D01*
X136879000Y-72636748D02*
X136879000Y-73159252D01*
%TO.C,R4*%
X148490000Y-101367936D02*
X148490000Y-101822064D01*
X149960000Y-101367936D02*
X149960000Y-101822064D01*
%TO.C,U6*%
X177370000Y-88060000D02*
X176645000Y-88060000D01*
X177370000Y-91555000D02*
X177370000Y-92280000D01*
X173150000Y-91555000D02*
X173150000Y-92280000D01*
X173150000Y-88060000D02*
X173875000Y-88060000D01*
X177370000Y-92280000D02*
X176645000Y-92280000D01*
X173150000Y-88785000D02*
X173150000Y-88060000D01*
X177370000Y-88785000D02*
X177370000Y-88060000D01*
%TO.C,USB-C*%
X177855000Y-104910000D02*
X179775000Y-104910000D01*
X179775000Y-95750000D02*
X177855000Y-95750000D01*
X183490000Y-104910000D02*
X181785000Y-104910000D01*
X181785000Y-95750000D02*
X183490000Y-95750000D01*
X183490000Y-95750000D02*
X183490000Y-104910000D01*
%TO.C,C1*%
X152138748Y-104040000D02*
X152661252Y-104040000D01*
X152138748Y-105510000D02*
X152661252Y-105510000D01*
%TO.C,Antenna*%
X133580000Y-113060000D02*
X133580000Y-113260000D01*
X133380000Y-110260000D02*
X133580000Y-110460000D01*
X131380000Y-113260000D02*
X130580000Y-113260000D01*
X131380000Y-110260000D02*
X131380000Y-109760000D01*
X130580000Y-110260000D02*
X131380000Y-110260000D01*
X132780000Y-110260000D02*
X133380000Y-110260000D01*
X130580000Y-113260000D02*
X130580000Y-113060000D01*
X130580000Y-110460000D02*
X130580000Y-110260000D01*
X132780000Y-110260000D02*
X132780000Y-109760000D01*
X133580000Y-113260000D02*
X132780000Y-113260000D01*
%TD*%
M02*
