%FSLAX45Y45*%
G04 Gerber Fmt 4.5, Leading zero omitted, Abs format (unit mm)*
G04 Created by KiCad (PCBNEW 6.0.4) date 2022-04-24 19:18:42*
%MOMM*%
%LPD*%
G01*
G04 APERTURE LIST*
%TA.AperFunction,Profile*%
%ADD10C,0.100000*%
%TD*%
%ADD11C,0.200000*%
%ADD12C,0.040000*%
%ADD13C,0.060000*%
%ADD14C,0.100000*%
%ADD15C,0.270000*%
G04 APERTURE END LIST*
D10*
X12065000Y-12954000D02*
X12065000Y-7366000D01*
X18034000Y-13335000D02*
X12446000Y-13335000D01*
X18415000Y-7366000D02*
X18415000Y-12954000D01*
X12446000Y-6985000D02*
X18034000Y-6985000D01*
X12446000Y-6985000D02*
G75*
G03*
X12065000Y-7366000I0J-381000D01*
G01*
X12065000Y-12954000D02*
G75*
G03*
X12446000Y-13335000I381000J0D01*
G01*
X18034000Y-13335000D02*
G75*
G03*
X18415000Y-12954000I0J381000D01*
G01*
X18415000Y-7366000D02*
G75*
G03*
X18034000Y-6985000I-381000J0D01*
G01*
D11*
D12*
X12763089Y-10492878D02*
X12803089Y-10532878D01*
X12803089Y-10492878D02*
X12763089Y-10532878D01*
X12763089Y-10713378D02*
X12803089Y-10753378D01*
X12803089Y-10713378D02*
X12763089Y-10753378D01*
X12783500Y-9973000D02*
X12823500Y-10013000D01*
X12823500Y-9973000D02*
X12783500Y-10013000D01*
X12997500Y-10902000D02*
X13037500Y-10942000D01*
X13037500Y-10902000D02*
X12997500Y-10942000D01*
X13315000Y-8489000D02*
X13355000Y-8529000D01*
X13355000Y-8489000D02*
X13315000Y-8529000D01*
X13315000Y-12362500D02*
X13355000Y-12402500D01*
X13355000Y-12362500D02*
X13315000Y-12402500D01*
X13378500Y-10902000D02*
X13418500Y-10942000D01*
X13418500Y-10902000D02*
X13378500Y-10942000D01*
X13604500Y-9533000D02*
X13644500Y-9573000D01*
X13644500Y-9533000D02*
X13604500Y-9573000D01*
X13759500Y-8552500D02*
X13799500Y-8592500D01*
X13799500Y-8552500D02*
X13759500Y-8592500D01*
X13797600Y-8038050D02*
X13837600Y-8078050D01*
X13837600Y-8038050D02*
X13797600Y-8078050D01*
X13797600Y-8184200D02*
X13837600Y-8224200D01*
X13837600Y-8184200D02*
X13797600Y-8224200D01*
X13823000Y-9124000D02*
X13863000Y-9164000D01*
X13863000Y-9124000D02*
X13823000Y-9164000D01*
X13886500Y-8362000D02*
X13926500Y-8402000D01*
X13926500Y-8362000D02*
X13886500Y-8402000D01*
X13950000Y-7409500D02*
X13990000Y-7449500D01*
X13990000Y-7409500D02*
X13950000Y-7449500D01*
X13950000Y-9423000D02*
X13990000Y-9463000D01*
X13990000Y-9423000D02*
X13950000Y-9463000D01*
X13967098Y-8997000D02*
X14007098Y-9037000D01*
X14007098Y-8997000D02*
X13967098Y-9037000D01*
X14027600Y-8284400D02*
X14067600Y-8324400D01*
X14067600Y-8284400D02*
X14027600Y-8324400D01*
X14051600Y-7879400D02*
X14091600Y-7919400D01*
X14091600Y-7879400D02*
X14051600Y-7919400D01*
X14077000Y-9886000D02*
X14117000Y-9926000D01*
X14117000Y-9886000D02*
X14077000Y-9926000D01*
X14083450Y-10140000D02*
X14123450Y-10180000D01*
X14123450Y-10140000D02*
X14083450Y-10180000D01*
X14186902Y-9328086D02*
X14226902Y-9368086D01*
X14226902Y-9328086D02*
X14186902Y-9368086D01*
X14204000Y-9060500D02*
X14244000Y-9100500D01*
X14244000Y-9060500D02*
X14204000Y-9100500D01*
X14267500Y-9423000D02*
X14307500Y-9463000D01*
X14307500Y-9423000D02*
X14267500Y-9463000D01*
X14394500Y-9314500D02*
X14434500Y-9354500D01*
X14434500Y-9314500D02*
X14394500Y-9354500D01*
X14394500Y-9507950D02*
X14434500Y-9547950D01*
X14434500Y-9507950D02*
X14394500Y-9547950D01*
X14521500Y-8489000D02*
X14561500Y-8529000D01*
X14561500Y-8489000D02*
X14521500Y-8529000D01*
X14521500Y-8616000D02*
X14561500Y-8656000D01*
X14561500Y-8616000D02*
X14521500Y-8656000D01*
X14521500Y-8743000D02*
X14561500Y-8783000D01*
X14561500Y-8743000D02*
X14521500Y-8783000D01*
X14521500Y-8870000D02*
X14561500Y-8910000D01*
X14561500Y-8870000D02*
X14521500Y-8910000D01*
X14712000Y-10330500D02*
X14752000Y-10370500D01*
X14752000Y-10330500D02*
X14712000Y-10370500D01*
X14766099Y-8933500D02*
X14806099Y-8973500D01*
X14806099Y-8933500D02*
X14766099Y-8973500D01*
X14839000Y-9886000D02*
X14879000Y-9926000D01*
X14879000Y-9886000D02*
X14839000Y-9926000D01*
X14858730Y-9256950D02*
X14898730Y-9296950D01*
X14898730Y-9256950D02*
X14858730Y-9296950D01*
X14866050Y-8933500D02*
X14906050Y-8973500D01*
X14906050Y-8933500D02*
X14866050Y-8973500D01*
X14902500Y-10521000D02*
X14942500Y-10561000D01*
X14942500Y-10521000D02*
X14902500Y-10561000D01*
X14959550Y-9253714D02*
X14999550Y-9293714D01*
X14999550Y-9253714D02*
X14959550Y-9293714D01*
X14966000Y-8489000D02*
X15006000Y-8529000D01*
X15006000Y-8489000D02*
X14966000Y-8529000D01*
X14966000Y-8933500D02*
X15006000Y-8973500D01*
X15006000Y-8933500D02*
X14966000Y-8973500D01*
X15080100Y-8933500D02*
X15120100Y-8973500D01*
X15120100Y-8933500D02*
X15080100Y-8973500D01*
X15080100Y-9338050D02*
X15120100Y-9378050D01*
X15120100Y-9338050D02*
X15080100Y-9378050D01*
X15080100Y-9507950D02*
X15120100Y-9547950D01*
X15120100Y-9507950D02*
X15080100Y-9547950D01*
X15156500Y-9886000D02*
X15196500Y-9926000D01*
X15196500Y-9886000D02*
X15156500Y-9926000D01*
X15220000Y-10140000D02*
X15260000Y-10180000D01*
X15260000Y-10140000D02*
X15220000Y-10180000D01*
X15283500Y-9886000D02*
X15323500Y-9926000D01*
X15323500Y-9886000D02*
X15283500Y-9926000D01*
X15401153Y-11344131D02*
X15441153Y-11384131D01*
X15441153Y-11344131D02*
X15401153Y-11384131D01*
X15410500Y-8870000D02*
X15450500Y-8910000D01*
X15450500Y-8870000D02*
X15410500Y-8910000D01*
X15474000Y-11727500D02*
X15514000Y-11767500D01*
X15514000Y-11727500D02*
X15474000Y-11767500D01*
X15474000Y-11854500D02*
X15514000Y-11894500D01*
X15514000Y-11854500D02*
X15474000Y-11894500D01*
X15537500Y-10521000D02*
X15577500Y-10561000D01*
X15577500Y-10521000D02*
X15537500Y-10561000D01*
X15664500Y-8298500D02*
X15704500Y-8338500D01*
X15704500Y-8298500D02*
X15664500Y-8338500D01*
X15791500Y-9338050D02*
X15831500Y-9378050D01*
X15831500Y-9338050D02*
X15791500Y-9378050D01*
X15791500Y-9507950D02*
X15831500Y-9547950D01*
X15831500Y-9507950D02*
X15791500Y-9547950D01*
X15791500Y-10457500D02*
X15831500Y-10497500D01*
X15831500Y-10457500D02*
X15791500Y-10497500D01*
X15855000Y-7600000D02*
X15895000Y-7640000D01*
X15895000Y-7600000D02*
X15855000Y-7640000D01*
X15855000Y-11156000D02*
X15895000Y-11196000D01*
X15895000Y-11156000D02*
X15855000Y-11196000D01*
X15855000Y-12426000D02*
X15895000Y-12466000D01*
X15895000Y-12426000D02*
X15855000Y-12466000D01*
X15982000Y-9338050D02*
X16022000Y-9378050D01*
X16022000Y-9338050D02*
X15982000Y-9378050D01*
X15982000Y-9507950D02*
X16022000Y-9547950D01*
X16022000Y-9507950D02*
X15982000Y-9547950D01*
X15982000Y-10571800D02*
X16022000Y-10611800D01*
X16022000Y-10571800D02*
X15982000Y-10611800D01*
X15982000Y-10724200D02*
X16022000Y-10764200D01*
X16022000Y-10724200D02*
X15982000Y-10764200D01*
X16109000Y-10978200D02*
X16149000Y-11018200D01*
X16149000Y-10978200D02*
X16109000Y-11018200D01*
X16109000Y-12680000D02*
X16149000Y-12720000D01*
X16149000Y-12680000D02*
X16109000Y-12720000D01*
X16172500Y-11156000D02*
X16212500Y-11196000D01*
X16212500Y-11156000D02*
X16172500Y-11196000D01*
X16172500Y-11600500D02*
X16212500Y-11640500D01*
X16212500Y-11600500D02*
X16172500Y-11640500D01*
X16299500Y-9187500D02*
X16339500Y-9227500D01*
X16339500Y-9187500D02*
X16299500Y-9227500D01*
X16299500Y-10140000D02*
X16339500Y-10180000D01*
X16339500Y-10140000D02*
X16299500Y-10180000D01*
X16299500Y-10711500D02*
X16339500Y-10751500D01*
X16339500Y-10711500D02*
X16299500Y-10751500D01*
X16356550Y-8171500D02*
X16396550Y-8211500D01*
X16396550Y-8171500D02*
X16356550Y-8211500D01*
X16356550Y-8489000D02*
X16396550Y-8529000D01*
X16396550Y-8489000D02*
X16356550Y-8529000D01*
X16413800Y-8997000D02*
X16453800Y-9037000D01*
X16453800Y-8997000D02*
X16413800Y-9037000D01*
X16426500Y-7663500D02*
X16466500Y-7703500D01*
X16466500Y-7663500D02*
X16426500Y-7703500D01*
X16426500Y-10140000D02*
X16466500Y-10180000D01*
X16466500Y-10140000D02*
X16426500Y-10180000D01*
X16426500Y-10711500D02*
X16466500Y-10751500D01*
X16466500Y-10711500D02*
X16426500Y-10751500D01*
X16515400Y-11079800D02*
X16555400Y-11119800D01*
X16555400Y-11079800D02*
X16515400Y-11119800D01*
X16536402Y-8171500D02*
X16576402Y-8211500D01*
X16576402Y-8171500D02*
X16536402Y-8211500D01*
X16642400Y-9860600D02*
X16682400Y-9900600D01*
X16682400Y-9860600D02*
X16642400Y-9900600D01*
X16642400Y-11968800D02*
X16682400Y-12008800D01*
X16682400Y-11968800D02*
X16642400Y-12008800D01*
X16680500Y-8552500D02*
X16720500Y-8592500D01*
X16720500Y-8552500D02*
X16680500Y-8592500D01*
X16680500Y-11600500D02*
X16720500Y-11640500D01*
X16720500Y-11600500D02*
X16680500Y-11640500D01*
X16718600Y-11029000D02*
X16758600Y-11069000D01*
X16758600Y-11029000D02*
X16718600Y-11069000D01*
X16744000Y-8870000D02*
X16784000Y-8910000D01*
X16784000Y-8870000D02*
X16744000Y-8910000D01*
X16794800Y-11816400D02*
X16834800Y-11856400D01*
X16834800Y-11816400D02*
X16794800Y-11856400D01*
X16813950Y-9060500D02*
X16853950Y-9100500D01*
X16853950Y-9060500D02*
X16813950Y-9100500D01*
X16896400Y-9860600D02*
X16936400Y-9900600D01*
X16936400Y-9860600D02*
X16896400Y-9900600D01*
X16998000Y-11219500D02*
X17038000Y-11259500D01*
X17038000Y-11219500D02*
X16998000Y-11259500D01*
X16998000Y-12362500D02*
X17038000Y-12402500D01*
X17038000Y-12362500D02*
X16998000Y-12402500D01*
X17061500Y-7600000D02*
X17101500Y-7640000D01*
X17101500Y-7600000D02*
X17061500Y-7640000D01*
X17099600Y-10317800D02*
X17139600Y-10357800D01*
X17139600Y-10317800D02*
X17099600Y-10357800D01*
X17188500Y-8806500D02*
X17228500Y-8846500D01*
X17228500Y-8806500D02*
X17188500Y-8846500D01*
X17188500Y-9314500D02*
X17228500Y-9354500D01*
X17228500Y-9314500D02*
X17188500Y-9354500D01*
X17302800Y-9454200D02*
X17342800Y-9494200D01*
X17342800Y-9454200D02*
X17302800Y-9494200D01*
X17315500Y-9314500D02*
X17355500Y-9354500D01*
X17355500Y-9314500D02*
X17315500Y-9354500D01*
X17315500Y-9949500D02*
X17355500Y-9989500D01*
X17355500Y-9949500D02*
X17315500Y-9989500D01*
X17315500Y-10076500D02*
X17355500Y-10116500D01*
X17355500Y-10076500D02*
X17315500Y-10116500D01*
X17442500Y-8933500D02*
X17482500Y-8973500D01*
X17482500Y-8933500D02*
X17442500Y-8973500D01*
X17442500Y-9060500D02*
X17482500Y-9100500D01*
X17482500Y-9060500D02*
X17442500Y-9100500D01*
X17442500Y-9695500D02*
X17482500Y-9735500D01*
X17482500Y-9695500D02*
X17442500Y-9735500D01*
X17442500Y-9886000D02*
X17482500Y-9926000D01*
X17482500Y-9886000D02*
X17442500Y-9926000D01*
X17442500Y-10140000D02*
X17482500Y-10180000D01*
X17482500Y-10140000D02*
X17442500Y-10180000D01*
X17442500Y-10330500D02*
X17482500Y-10370500D01*
X17482500Y-10330500D02*
X17442500Y-10370500D01*
X17455200Y-10597200D02*
X17495200Y-10637200D01*
X17495200Y-10597200D02*
X17455200Y-10637200D01*
X17506000Y-11791000D02*
X17546000Y-11831000D01*
X17546000Y-11791000D02*
X17506000Y-11831000D01*
X17569500Y-8933500D02*
X17609500Y-8973500D01*
X17609500Y-8933500D02*
X17569500Y-8973500D01*
X17569500Y-9060500D02*
X17609500Y-9100500D01*
X17609500Y-9060500D02*
X17569500Y-9100500D01*
X17658400Y-11029000D02*
X17698400Y-11069000D01*
X17698400Y-11029000D02*
X17658400Y-11069000D01*
X17709200Y-9301800D02*
X17749200Y-9341800D01*
X17749200Y-9301800D02*
X17709200Y-9341800D01*
X17760000Y-8489000D02*
X17800000Y-8529000D01*
X17800000Y-8489000D02*
X17760000Y-8529000D01*
X17760000Y-8743000D02*
X17800000Y-8783000D01*
X17800000Y-8743000D02*
X17760000Y-8783000D01*
X17950500Y-8997000D02*
X17990500Y-9037000D01*
X17990500Y-8997000D02*
X17950500Y-9037000D01*
X18014000Y-9314500D02*
X18054000Y-9354500D01*
X18054000Y-9314500D02*
X18014000Y-9354500D01*
X18204500Y-8997000D02*
X18244500Y-9037000D01*
X18244500Y-8997000D02*
X18204500Y-9037000D01*
D13*
X17690000Y-9601000D02*
G75*
G03*
X17690000Y-9601000I-30000J0D01*
G01*
D11*
X17605000Y-9621000D02*
X17715000Y-9621000D01*
X17605000Y-9581000D02*
X17715000Y-9581000D01*
X17715000Y-9621000D02*
G75*
G03*
X17715000Y-9581000I0J20000D01*
G01*
X17605000Y-9581000D02*
G75*
G03*
X17605000Y-9621000I0J-20000D01*
G01*
D13*
X17690000Y-10465000D02*
G75*
G03*
X17690000Y-10465000I-30000J0D01*
G01*
D11*
X17605000Y-10485000D02*
X17715000Y-10485000D01*
X17605000Y-10445000D02*
X17715000Y-10445000D01*
X17715000Y-10485000D02*
G75*
G03*
X17715000Y-10445000I0J20000D01*
G01*
X17605000Y-10445000D02*
G75*
G03*
X17605000Y-10485000I0J-20000D01*
G01*
D13*
X18108000Y-9601000D02*
G75*
G03*
X18108000Y-9601000I-30000J0D01*
G01*
D11*
X18048000Y-9621000D02*
X18108000Y-9621000D01*
X18048000Y-9581000D02*
X18108000Y-9581000D01*
X18108000Y-9621000D02*
G75*
G03*
X18108000Y-9581000I0J20000D01*
G01*
X18048000Y-9581000D02*
G75*
G03*
X18048000Y-9621000I0J-20000D01*
G01*
D13*
X18108000Y-10465000D02*
G75*
G03*
X18108000Y-10465000I-30000J0D01*
G01*
D11*
X18048000Y-10485000D02*
X18108000Y-10485000D01*
X18048000Y-10445000D02*
X18108000Y-10445000D01*
X18108000Y-10485000D02*
G75*
G03*
X18108000Y-10445000I0J20000D01*
G01*
X18048000Y-10445000D02*
G75*
G03*
X18048000Y-10485000I0J-20000D01*
G01*
D14*
X13144500Y-7760500D02*
X13144500Y-7860500D01*
X13094500Y-7810500D02*
X13194500Y-7810500D01*
X13144500Y-8014500D02*
X13144500Y-8114500D01*
X13094500Y-8064500D02*
X13194500Y-8064500D01*
X13144500Y-8268500D02*
X13144500Y-8368500D01*
X13094500Y-8318500D02*
X13194500Y-8318500D01*
X13144500Y-11951500D02*
X13144500Y-12051500D01*
X13094500Y-12001500D02*
X13194500Y-12001500D01*
X13144500Y-12205500D02*
X13144500Y-12305500D01*
X13094500Y-12255500D02*
X13194500Y-12255500D01*
X13144500Y-12459500D02*
X13144500Y-12559500D01*
X13094500Y-12509500D02*
X13194500Y-12509500D01*
X14605000Y-12078500D02*
X14605000Y-12178500D01*
X14555000Y-12128500D02*
X14655000Y-12128500D01*
X14605000Y-12650000D02*
X14605000Y-12750000D01*
X14555000Y-12700000D02*
X14655000Y-12700000D01*
X14605000Y-12904000D02*
X14605000Y-13004000D01*
X14555000Y-12954000D02*
X14655000Y-12954000D01*
X14859000Y-12078500D02*
X14859000Y-12178500D01*
X14809000Y-12128500D02*
X14909000Y-12128500D01*
X14859000Y-12650000D02*
X14859000Y-12750000D01*
X14809000Y-12700000D02*
X14909000Y-12700000D01*
X14859000Y-12904000D02*
X14859000Y-13004000D01*
X14809000Y-12954000D02*
X14909000Y-12954000D01*
X15113000Y-12078500D02*
X15113000Y-12178500D01*
X15063000Y-12128500D02*
X15163000Y-12128500D01*
X15113000Y-12650000D02*
X15113000Y-12750000D01*
X15063000Y-12700000D02*
X15163000Y-12700000D01*
X15113000Y-12904000D02*
X15113000Y-13004000D01*
X15063000Y-12954000D02*
X15163000Y-12954000D01*
X15367000Y-12078500D02*
X15367000Y-12178500D01*
X15317000Y-12128500D02*
X15417000Y-12128500D01*
X15367000Y-12650000D02*
X15367000Y-12750000D01*
X15317000Y-12700000D02*
X15417000Y-12700000D01*
X15367000Y-12904000D02*
X15367000Y-13004000D01*
X15317000Y-12954000D02*
X15417000Y-12954000D01*
X15621000Y-12078500D02*
X15621000Y-12178500D01*
X15571000Y-12128500D02*
X15671000Y-12128500D01*
X15621000Y-12650000D02*
X15621000Y-12750000D01*
X15571000Y-12700000D02*
X15671000Y-12700000D01*
X15621000Y-12904000D02*
X15621000Y-13004000D01*
X15571000Y-12954000D02*
X15671000Y-12954000D01*
X15875000Y-12078500D02*
X15875000Y-12178500D01*
X15825000Y-12128500D02*
X15925000Y-12128500D01*
X15875000Y-12650000D02*
X15875000Y-12750000D01*
X15825000Y-12700000D02*
X15925000Y-12700000D01*
X15875000Y-12904000D02*
X15875000Y-13004000D01*
X15825000Y-12954000D02*
X15925000Y-12954000D01*
X16764000Y-7506500D02*
X16764000Y-7606500D01*
X16714000Y-7556500D02*
X16814000Y-7556500D01*
X16764000Y-7760500D02*
X16764000Y-7860500D01*
X16714000Y-7810500D02*
X16814000Y-7810500D01*
X16764000Y-8014500D02*
X16764000Y-8114500D01*
X16714000Y-8064500D02*
X16814000Y-8064500D01*
X16764000Y-8268500D02*
X16764000Y-8368500D01*
X16714000Y-8318500D02*
X16814000Y-8318500D01*
X17272000Y-7760500D02*
X17272000Y-7860500D01*
X17222000Y-7810500D02*
X17322000Y-7810500D01*
X17272000Y-8014500D02*
X17272000Y-8114500D01*
X17222000Y-8064500D02*
X17322000Y-8064500D01*
X17272000Y-8268500D02*
X17272000Y-8368500D01*
X17222000Y-8318500D02*
X17322000Y-8318500D01*
X17335500Y-11062500D02*
X17335500Y-11162500D01*
X17285500Y-11112500D02*
X17385500Y-11112500D01*
X17335500Y-11316500D02*
X17335500Y-11416500D01*
X17285500Y-11366500D02*
X17385500Y-11366500D01*
X17335500Y-11951500D02*
X17335500Y-12051500D01*
X17285500Y-12001500D02*
X17385500Y-12001500D01*
X17335500Y-12205500D02*
X17335500Y-12305500D01*
X17285500Y-12255500D02*
X17385500Y-12255500D01*
X17335500Y-12459500D02*
X17335500Y-12559500D01*
X17285500Y-12509500D02*
X17385500Y-12509500D01*
D15*
X12541460Y-7461460D02*
X12541460Y-7270540D01*
X12350540Y-7270540D01*
X12350540Y-7461460D01*
X12541460Y-7461460D01*
X12541460Y-13049460D02*
X12541460Y-12858540D01*
X12350540Y-12858540D01*
X12350540Y-13049460D01*
X12541460Y-13049460D01*
X18129460Y-7461460D02*
X18129460Y-7270540D01*
X17938540Y-7270540D01*
X17938540Y-7461460D01*
X18129460Y-7461460D01*
X18129460Y-13049460D02*
X18129460Y-12858540D01*
X17938540Y-12858540D01*
X17938540Y-13049460D01*
X18129460Y-13049460D01*
D11*
X12317619Y-13650476D02*
X12317619Y-13450476D01*
X12365238Y-13450476D01*
X12393809Y-13460000D01*
X12412857Y-13479048D01*
X12422381Y-13498095D01*
X12431905Y-13536190D01*
X12431905Y-13564762D01*
X12422381Y-13602857D01*
X12412857Y-13621905D01*
X12393809Y-13640952D01*
X12365238Y-13650476D01*
X12317619Y-13650476D01*
X12517619Y-13650476D02*
X12517619Y-13517143D01*
X12517619Y-13555238D02*
X12527143Y-13536190D01*
X12536667Y-13526667D01*
X12555714Y-13517143D01*
X12574762Y-13517143D01*
X12641428Y-13650476D02*
X12641428Y-13517143D01*
X12641428Y-13450476D02*
X12631905Y-13460000D01*
X12641428Y-13469524D01*
X12650952Y-13460000D01*
X12641428Y-13450476D01*
X12641428Y-13469524D01*
X12765238Y-13650476D02*
X12746190Y-13640952D01*
X12736667Y-13621905D01*
X12736667Y-13450476D01*
X12870000Y-13650476D02*
X12850952Y-13640952D01*
X12841428Y-13621905D01*
X12841428Y-13450476D01*
X13098571Y-13650476D02*
X13098571Y-13450476D01*
X13165238Y-13593333D01*
X13231905Y-13450476D01*
X13231905Y-13650476D01*
X13412857Y-13650476D02*
X13412857Y-13545714D01*
X13403333Y-13526667D01*
X13384286Y-13517143D01*
X13346190Y-13517143D01*
X13327143Y-13526667D01*
X13412857Y-13640952D02*
X13393809Y-13650476D01*
X13346190Y-13650476D01*
X13327143Y-13640952D01*
X13317619Y-13621905D01*
X13317619Y-13602857D01*
X13327143Y-13583809D01*
X13346190Y-13574286D01*
X13393809Y-13574286D01*
X13412857Y-13564762D01*
X13508095Y-13517143D02*
X13508095Y-13717143D01*
X13508095Y-13526667D02*
X13527143Y-13517143D01*
X13565238Y-13517143D01*
X13584286Y-13526667D01*
X13593809Y-13536190D01*
X13603333Y-13555238D01*
X13603333Y-13612381D01*
X13593809Y-13631428D01*
X13584286Y-13640952D01*
X13565238Y-13650476D01*
X13527143Y-13650476D01*
X13508095Y-13640952D01*
X13689048Y-13631428D02*
X13698571Y-13640952D01*
X13689048Y-13650476D01*
X13679524Y-13640952D01*
X13689048Y-13631428D01*
X13689048Y-13650476D01*
X13689048Y-13526667D02*
X13698571Y-13536190D01*
X13689048Y-13545714D01*
X13679524Y-13536190D01*
X13689048Y-13526667D01*
X13689048Y-13545714D01*
D12*
X12020000Y-13960000D02*
X12060000Y-14000000D01*
X12060000Y-13960000D02*
X12020000Y-14000000D01*
D11*
X12355714Y-13870476D02*
X12374762Y-13870476D01*
X12393809Y-13880000D01*
X12403333Y-13889524D01*
X12412857Y-13908571D01*
X12422381Y-13946667D01*
X12422381Y-13994286D01*
X12412857Y-14032381D01*
X12403333Y-14051428D01*
X12393809Y-14060952D01*
X12374762Y-14070476D01*
X12355714Y-14070476D01*
X12336667Y-14060952D01*
X12327143Y-14051428D01*
X12317619Y-14032381D01*
X12308095Y-13994286D01*
X12308095Y-13946667D01*
X12317619Y-13908571D01*
X12327143Y-13889524D01*
X12336667Y-13880000D01*
X12355714Y-13870476D01*
X12508095Y-14051428D02*
X12517619Y-14060952D01*
X12508095Y-14070476D01*
X12498571Y-14060952D01*
X12508095Y-14051428D01*
X12508095Y-14070476D01*
X12689048Y-13937143D02*
X12689048Y-14070476D01*
X12641428Y-13860952D02*
X12593809Y-14003809D01*
X12717619Y-14003809D01*
X12831905Y-13870476D02*
X12850952Y-13870476D01*
X12870000Y-13880000D01*
X12879524Y-13889524D01*
X12889048Y-13908571D01*
X12898571Y-13946667D01*
X12898571Y-13994286D01*
X12889048Y-14032381D01*
X12879524Y-14051428D01*
X12870000Y-14060952D01*
X12850952Y-14070476D01*
X12831905Y-14070476D01*
X12812857Y-14060952D01*
X12803333Y-14051428D01*
X12793809Y-14032381D01*
X12784286Y-13994286D01*
X12784286Y-13946667D01*
X12793809Y-13908571D01*
X12803333Y-13889524D01*
X12812857Y-13880000D01*
X12831905Y-13870476D01*
X13022381Y-13870476D02*
X13041428Y-13870476D01*
X13060476Y-13880000D01*
X13070000Y-13889524D01*
X13079524Y-13908571D01*
X13089048Y-13946667D01*
X13089048Y-13994286D01*
X13079524Y-14032381D01*
X13070000Y-14051428D01*
X13060476Y-14060952D01*
X13041428Y-14070476D01*
X13022381Y-14070476D01*
X13003333Y-14060952D01*
X12993809Y-14051428D01*
X12984286Y-14032381D01*
X12974762Y-13994286D01*
X12974762Y-13946667D01*
X12984286Y-13908571D01*
X12993809Y-13889524D01*
X13003333Y-13880000D01*
X13022381Y-13870476D01*
X13174762Y-14070476D02*
X13174762Y-13937143D01*
X13174762Y-13956190D02*
X13184286Y-13946667D01*
X13203333Y-13937143D01*
X13231905Y-13937143D01*
X13250952Y-13946667D01*
X13260476Y-13965714D01*
X13260476Y-14070476D01*
X13260476Y-13965714D02*
X13270000Y-13946667D01*
X13289048Y-13937143D01*
X13317619Y-13937143D01*
X13336667Y-13946667D01*
X13346190Y-13965714D01*
X13346190Y-14070476D01*
X13441428Y-14070476D02*
X13441428Y-13937143D01*
X13441428Y-13956190D02*
X13450952Y-13946667D01*
X13470000Y-13937143D01*
X13498571Y-13937143D01*
X13517619Y-13946667D01*
X13527143Y-13965714D01*
X13527143Y-14070476D01*
X13527143Y-13965714D02*
X13536667Y-13946667D01*
X13555714Y-13937143D01*
X13584286Y-13937143D01*
X13603333Y-13946667D01*
X13612857Y-13965714D01*
X13612857Y-14070476D01*
X14003333Y-13860952D02*
X13831905Y-14118095D01*
X14260476Y-13870476D02*
X14279524Y-13870476D01*
X14298571Y-13880000D01*
X14308095Y-13889524D01*
X14317619Y-13908571D01*
X14327143Y-13946667D01*
X14327143Y-13994286D01*
X14317619Y-14032381D01*
X14308095Y-14051428D01*
X14298571Y-14060952D01*
X14279524Y-14070476D01*
X14260476Y-14070476D01*
X14241428Y-14060952D01*
X14231905Y-14051428D01*
X14222381Y-14032381D01*
X14212857Y-13994286D01*
X14212857Y-13946667D01*
X14222381Y-13908571D01*
X14231905Y-13889524D01*
X14241428Y-13880000D01*
X14260476Y-13870476D01*
X14412857Y-14051428D02*
X14422381Y-14060952D01*
X14412857Y-14070476D01*
X14403333Y-14060952D01*
X14412857Y-14051428D01*
X14412857Y-14070476D01*
X14546190Y-13870476D02*
X14565238Y-13870476D01*
X14584286Y-13880000D01*
X14593809Y-13889524D01*
X14603333Y-13908571D01*
X14612857Y-13946667D01*
X14612857Y-13994286D01*
X14603333Y-14032381D01*
X14593809Y-14051428D01*
X14584286Y-14060952D01*
X14565238Y-14070476D01*
X14546190Y-14070476D01*
X14527143Y-14060952D01*
X14517619Y-14051428D01*
X14508095Y-14032381D01*
X14498571Y-13994286D01*
X14498571Y-13946667D01*
X14508095Y-13908571D01*
X14517619Y-13889524D01*
X14527143Y-13880000D01*
X14546190Y-13870476D01*
X14803333Y-14070476D02*
X14689048Y-14070476D01*
X14746190Y-14070476D02*
X14746190Y-13870476D01*
X14727143Y-13899048D01*
X14708095Y-13918095D01*
X14689048Y-13927619D01*
X14984286Y-13870476D02*
X14889048Y-13870476D01*
X14879524Y-13965714D01*
X14889048Y-13956190D01*
X14908095Y-13946667D01*
X14955714Y-13946667D01*
X14974762Y-13956190D01*
X14984286Y-13965714D01*
X14993809Y-13984762D01*
X14993809Y-14032381D01*
X14984286Y-14051428D01*
X14974762Y-14060952D01*
X14955714Y-14070476D01*
X14908095Y-14070476D01*
X14889048Y-14060952D01*
X14879524Y-14051428D01*
X15060476Y-13870476D02*
X15193809Y-13870476D01*
X15108095Y-14070476D01*
X15260476Y-13870476D02*
X15260476Y-13908571D01*
X15336667Y-13870476D02*
X15336667Y-13908571D01*
X15631905Y-14146667D02*
X15622381Y-14137143D01*
X15603333Y-14108571D01*
X15593809Y-14089524D01*
X15584286Y-14060952D01*
X15574762Y-14013333D01*
X15574762Y-13975238D01*
X15584286Y-13927619D01*
X15593809Y-13899048D01*
X15603333Y-13880000D01*
X15622381Y-13851428D01*
X15631905Y-13841905D01*
X15812857Y-14070476D02*
X15698571Y-14070476D01*
X15755714Y-14070476D02*
X15755714Y-13870476D01*
X15736667Y-13899048D01*
X15717619Y-13918095D01*
X15698571Y-13927619D01*
X16003333Y-14070476D02*
X15889048Y-14070476D01*
X15946190Y-14070476D02*
X15946190Y-13870476D01*
X15927143Y-13899048D01*
X15908095Y-13918095D01*
X15889048Y-13927619D01*
X16193809Y-14070476D02*
X16079524Y-14070476D01*
X16136667Y-14070476D02*
X16136667Y-13870476D01*
X16117619Y-13899048D01*
X16098571Y-13918095D01*
X16079524Y-13927619D01*
X16431905Y-14070476D02*
X16431905Y-13870476D01*
X16517619Y-14070476D02*
X16517619Y-13965714D01*
X16508095Y-13946667D01*
X16489048Y-13937143D01*
X16460476Y-13937143D01*
X16441428Y-13946667D01*
X16431905Y-13956190D01*
X16641428Y-14070476D02*
X16622381Y-14060952D01*
X16612857Y-14051428D01*
X16603333Y-14032381D01*
X16603333Y-13975238D01*
X16612857Y-13956190D01*
X16622381Y-13946667D01*
X16641428Y-13937143D01*
X16670000Y-13937143D01*
X16689048Y-13946667D01*
X16698571Y-13956190D01*
X16708095Y-13975238D01*
X16708095Y-14032381D01*
X16698571Y-14051428D01*
X16689048Y-14060952D01*
X16670000Y-14070476D01*
X16641428Y-14070476D01*
X16822381Y-14070476D02*
X16803333Y-14060952D01*
X16793810Y-14041905D01*
X16793810Y-13870476D01*
X16974762Y-14060952D02*
X16955714Y-14070476D01*
X16917619Y-14070476D01*
X16898571Y-14060952D01*
X16889048Y-14041905D01*
X16889048Y-13965714D01*
X16898571Y-13946667D01*
X16917619Y-13937143D01*
X16955714Y-13937143D01*
X16974762Y-13946667D01*
X16984286Y-13965714D01*
X16984286Y-13984762D01*
X16889048Y-14003809D01*
X17060476Y-14060952D02*
X17079524Y-14070476D01*
X17117619Y-14070476D01*
X17136667Y-14060952D01*
X17146190Y-14041905D01*
X17146190Y-14032381D01*
X17136667Y-14013333D01*
X17117619Y-14003809D01*
X17089048Y-14003809D01*
X17070000Y-13994286D01*
X17060476Y-13975238D01*
X17060476Y-13965714D01*
X17070000Y-13946667D01*
X17089048Y-13937143D01*
X17117619Y-13937143D01*
X17136667Y-13946667D01*
X17212857Y-14146667D02*
X17222381Y-14137143D01*
X17241429Y-14108571D01*
X17250952Y-14089524D01*
X17260476Y-14060952D01*
X17270000Y-14013333D01*
X17270000Y-13975238D01*
X17260476Y-13927619D01*
X17250952Y-13899048D01*
X17241429Y-13880000D01*
X17222381Y-13851428D01*
X17212857Y-13841905D01*
D13*
X12060000Y-14244000D02*
G75*
G03*
X12060000Y-14244000I-30000J0D01*
G01*
D11*
X12355714Y-14134476D02*
X12374762Y-14134476D01*
X12393809Y-14144000D01*
X12403333Y-14153524D01*
X12412857Y-14172571D01*
X12422381Y-14210667D01*
X12422381Y-14258286D01*
X12412857Y-14296381D01*
X12403333Y-14315428D01*
X12393809Y-14324952D01*
X12374762Y-14334476D01*
X12355714Y-14334476D01*
X12336667Y-14324952D01*
X12327143Y-14315428D01*
X12317619Y-14296381D01*
X12308095Y-14258286D01*
X12308095Y-14210667D01*
X12317619Y-14172571D01*
X12327143Y-14153524D01*
X12336667Y-14144000D01*
X12355714Y-14134476D01*
X12508095Y-14315428D02*
X12517619Y-14324952D01*
X12508095Y-14334476D01*
X12498571Y-14324952D01*
X12508095Y-14315428D01*
X12508095Y-14334476D01*
X12689048Y-14134476D02*
X12650952Y-14134476D01*
X12631905Y-14144000D01*
X12622381Y-14153524D01*
X12603333Y-14182095D01*
X12593809Y-14220190D01*
X12593809Y-14296381D01*
X12603333Y-14315428D01*
X12612857Y-14324952D01*
X12631905Y-14334476D01*
X12670000Y-14334476D01*
X12689048Y-14324952D01*
X12698571Y-14315428D01*
X12708095Y-14296381D01*
X12708095Y-14248762D01*
X12698571Y-14229714D01*
X12689048Y-14220190D01*
X12670000Y-14210667D01*
X12631905Y-14210667D01*
X12612857Y-14220190D01*
X12603333Y-14229714D01*
X12593809Y-14248762D01*
X12831905Y-14134476D02*
X12850952Y-14134476D01*
X12870000Y-14144000D01*
X12879524Y-14153524D01*
X12889048Y-14172571D01*
X12898571Y-14210667D01*
X12898571Y-14258286D01*
X12889048Y-14296381D01*
X12879524Y-14315428D01*
X12870000Y-14324952D01*
X12850952Y-14334476D01*
X12831905Y-14334476D01*
X12812857Y-14324952D01*
X12803333Y-14315428D01*
X12793809Y-14296381D01*
X12784286Y-14258286D01*
X12784286Y-14210667D01*
X12793809Y-14172571D01*
X12803333Y-14153524D01*
X12812857Y-14144000D01*
X12831905Y-14134476D01*
X13022381Y-14134476D02*
X13041428Y-14134476D01*
X13060476Y-14144000D01*
X13070000Y-14153524D01*
X13079524Y-14172571D01*
X13089048Y-14210667D01*
X13089048Y-14258286D01*
X13079524Y-14296381D01*
X13070000Y-14315428D01*
X13060476Y-14324952D01*
X13041428Y-14334476D01*
X13022381Y-14334476D01*
X13003333Y-14324952D01*
X12993809Y-14315428D01*
X12984286Y-14296381D01*
X12974762Y-14258286D01*
X12974762Y-14210667D01*
X12984286Y-14172571D01*
X12993809Y-14153524D01*
X13003333Y-14144000D01*
X13022381Y-14134476D01*
X13174762Y-14334476D02*
X13174762Y-14201143D01*
X13174762Y-14220190D02*
X13184286Y-14210667D01*
X13203333Y-14201143D01*
X13231905Y-14201143D01*
X13250952Y-14210667D01*
X13260476Y-14229714D01*
X13260476Y-14334476D01*
X13260476Y-14229714D02*
X13270000Y-14210667D01*
X13289048Y-14201143D01*
X13317619Y-14201143D01*
X13336667Y-14210667D01*
X13346190Y-14229714D01*
X13346190Y-14334476D01*
X13441428Y-14334476D02*
X13441428Y-14201143D01*
X13441428Y-14220190D02*
X13450952Y-14210667D01*
X13470000Y-14201143D01*
X13498571Y-14201143D01*
X13517619Y-14210667D01*
X13527143Y-14229714D01*
X13527143Y-14334476D01*
X13527143Y-14229714D02*
X13536667Y-14210667D01*
X13555714Y-14201143D01*
X13584286Y-14201143D01*
X13603333Y-14210667D01*
X13612857Y-14229714D01*
X13612857Y-14334476D01*
X14003333Y-14124952D02*
X13831905Y-14382095D01*
X14260476Y-14134476D02*
X14279524Y-14134476D01*
X14298571Y-14144000D01*
X14308095Y-14153524D01*
X14317619Y-14172571D01*
X14327143Y-14210667D01*
X14327143Y-14258286D01*
X14317619Y-14296381D01*
X14308095Y-14315428D01*
X14298571Y-14324952D01*
X14279524Y-14334476D01*
X14260476Y-14334476D01*
X14241428Y-14324952D01*
X14231905Y-14315428D01*
X14222381Y-14296381D01*
X14212857Y-14258286D01*
X14212857Y-14210667D01*
X14222381Y-14172571D01*
X14231905Y-14153524D01*
X14241428Y-14144000D01*
X14260476Y-14134476D01*
X14412857Y-14315428D02*
X14422381Y-14324952D01*
X14412857Y-14334476D01*
X14403333Y-14324952D01*
X14412857Y-14315428D01*
X14412857Y-14334476D01*
X14546190Y-14134476D02*
X14565238Y-14134476D01*
X14584286Y-14144000D01*
X14593809Y-14153524D01*
X14603333Y-14172571D01*
X14612857Y-14210667D01*
X14612857Y-14258286D01*
X14603333Y-14296381D01*
X14593809Y-14315428D01*
X14584286Y-14324952D01*
X14565238Y-14334476D01*
X14546190Y-14334476D01*
X14527143Y-14324952D01*
X14517619Y-14315428D01*
X14508095Y-14296381D01*
X14498571Y-14258286D01*
X14498571Y-14210667D01*
X14508095Y-14172571D01*
X14517619Y-14153524D01*
X14527143Y-14144000D01*
X14546190Y-14134476D01*
X14689048Y-14153524D02*
X14698571Y-14144000D01*
X14717619Y-14134476D01*
X14765238Y-14134476D01*
X14784286Y-14144000D01*
X14793809Y-14153524D01*
X14803333Y-14172571D01*
X14803333Y-14191619D01*
X14793809Y-14220190D01*
X14679524Y-14334476D01*
X14803333Y-14334476D01*
X14870000Y-14134476D02*
X14993809Y-14134476D01*
X14927143Y-14210667D01*
X14955714Y-14210667D01*
X14974762Y-14220190D01*
X14984286Y-14229714D01*
X14993809Y-14248762D01*
X14993809Y-14296381D01*
X14984286Y-14315428D01*
X14974762Y-14324952D01*
X14955714Y-14334476D01*
X14898571Y-14334476D01*
X14879524Y-14324952D01*
X14870000Y-14315428D01*
X15165238Y-14134476D02*
X15127143Y-14134476D01*
X15108095Y-14144000D01*
X15098571Y-14153524D01*
X15079524Y-14182095D01*
X15070000Y-14220190D01*
X15070000Y-14296381D01*
X15079524Y-14315428D01*
X15089048Y-14324952D01*
X15108095Y-14334476D01*
X15146190Y-14334476D01*
X15165238Y-14324952D01*
X15174762Y-14315428D01*
X15184286Y-14296381D01*
X15184286Y-14248762D01*
X15174762Y-14229714D01*
X15165238Y-14220190D01*
X15146190Y-14210667D01*
X15108095Y-14210667D01*
X15089048Y-14220190D01*
X15079524Y-14229714D01*
X15070000Y-14248762D01*
X15260476Y-14134476D02*
X15260476Y-14172571D01*
X15336667Y-14134476D02*
X15336667Y-14172571D01*
X15631905Y-14410667D02*
X15622381Y-14401143D01*
X15603333Y-14372571D01*
X15593809Y-14353524D01*
X15584286Y-14324952D01*
X15574762Y-14277333D01*
X15574762Y-14239238D01*
X15584286Y-14191619D01*
X15593809Y-14163048D01*
X15603333Y-14144000D01*
X15622381Y-14115428D01*
X15631905Y-14105905D01*
X15746190Y-14134476D02*
X15765238Y-14134476D01*
X15784286Y-14144000D01*
X15793809Y-14153524D01*
X15803333Y-14172571D01*
X15812857Y-14210667D01*
X15812857Y-14258286D01*
X15803333Y-14296381D01*
X15793809Y-14315428D01*
X15784286Y-14324952D01*
X15765238Y-14334476D01*
X15746190Y-14334476D01*
X15727143Y-14324952D01*
X15717619Y-14315428D01*
X15708095Y-14296381D01*
X15698571Y-14258286D01*
X15698571Y-14210667D01*
X15708095Y-14172571D01*
X15717619Y-14153524D01*
X15727143Y-14144000D01*
X15746190Y-14134476D01*
X16050952Y-14334476D02*
X16050952Y-14134476D01*
X16136667Y-14334476D02*
X16136667Y-14229714D01*
X16127143Y-14210667D01*
X16108095Y-14201143D01*
X16079524Y-14201143D01*
X16060476Y-14210667D01*
X16050952Y-14220190D01*
X16260476Y-14334476D02*
X16241428Y-14324952D01*
X16231905Y-14315428D01*
X16222381Y-14296381D01*
X16222381Y-14239238D01*
X16231905Y-14220190D01*
X16241428Y-14210667D01*
X16260476Y-14201143D01*
X16289048Y-14201143D01*
X16308095Y-14210667D01*
X16317619Y-14220190D01*
X16327143Y-14239238D01*
X16327143Y-14296381D01*
X16317619Y-14315428D01*
X16308095Y-14324952D01*
X16289048Y-14334476D01*
X16260476Y-14334476D01*
X16441428Y-14334476D02*
X16422381Y-14324952D01*
X16412857Y-14305905D01*
X16412857Y-14134476D01*
X16593809Y-14324952D02*
X16574762Y-14334476D01*
X16536667Y-14334476D01*
X16517619Y-14324952D01*
X16508095Y-14305905D01*
X16508095Y-14229714D01*
X16517619Y-14210667D01*
X16536667Y-14201143D01*
X16574762Y-14201143D01*
X16593809Y-14210667D01*
X16603333Y-14229714D01*
X16603333Y-14248762D01*
X16508095Y-14267809D01*
X16679524Y-14324952D02*
X16698571Y-14334476D01*
X16736667Y-14334476D01*
X16755714Y-14324952D01*
X16765238Y-14305905D01*
X16765238Y-14296381D01*
X16755714Y-14277333D01*
X16736667Y-14267809D01*
X16708095Y-14267809D01*
X16689048Y-14258286D01*
X16679524Y-14239238D01*
X16679524Y-14229714D01*
X16689048Y-14210667D01*
X16708095Y-14201143D01*
X16736667Y-14201143D01*
X16755714Y-14210667D01*
X17003333Y-14258286D02*
X17155714Y-14258286D01*
X17079524Y-14334476D02*
X17079524Y-14182095D01*
X17489048Y-14201143D02*
X17489048Y-14334476D01*
X17441429Y-14124952D02*
X17393810Y-14267809D01*
X17517619Y-14267809D01*
X17736667Y-14324952D02*
X17755714Y-14334476D01*
X17793810Y-14334476D01*
X17812857Y-14324952D01*
X17822381Y-14305905D01*
X17822381Y-14296381D01*
X17812857Y-14277333D01*
X17793810Y-14267809D01*
X17765238Y-14267809D01*
X17746190Y-14258286D01*
X17736667Y-14239238D01*
X17736667Y-14229714D01*
X17746190Y-14210667D01*
X17765238Y-14201143D01*
X17793810Y-14201143D01*
X17812857Y-14210667D01*
X17936667Y-14334476D02*
X17917619Y-14324952D01*
X17908095Y-14305905D01*
X17908095Y-14134476D01*
X18041429Y-14334476D02*
X18022381Y-14324952D01*
X18012857Y-14315428D01*
X18003333Y-14296381D01*
X18003333Y-14239238D01*
X18012857Y-14220190D01*
X18022381Y-14210667D01*
X18041429Y-14201143D01*
X18070000Y-14201143D01*
X18089048Y-14210667D01*
X18098571Y-14220190D01*
X18108095Y-14239238D01*
X18108095Y-14296381D01*
X18098571Y-14315428D01*
X18089048Y-14324952D01*
X18070000Y-14334476D01*
X18041429Y-14334476D01*
X18165238Y-14201143D02*
X18241429Y-14201143D01*
X18193810Y-14134476D02*
X18193810Y-14305905D01*
X18203333Y-14324952D01*
X18222381Y-14334476D01*
X18241429Y-14334476D01*
X18298571Y-14324952D02*
X18317619Y-14334476D01*
X18355714Y-14334476D01*
X18374762Y-14324952D01*
X18384286Y-14305905D01*
X18384286Y-14296381D01*
X18374762Y-14277333D01*
X18355714Y-14267809D01*
X18327143Y-14267809D01*
X18308095Y-14258286D01*
X18298571Y-14239238D01*
X18298571Y-14229714D01*
X18308095Y-14210667D01*
X18327143Y-14201143D01*
X18355714Y-14201143D01*
X18374762Y-14210667D01*
X18450952Y-14410667D02*
X18460476Y-14401143D01*
X18479524Y-14372571D01*
X18489048Y-14353524D01*
X18498571Y-14324952D01*
X18508095Y-14277333D01*
X18508095Y-14239238D01*
X18498571Y-14191619D01*
X18489048Y-14163048D01*
X18479524Y-14144000D01*
X18460476Y-14115428D01*
X18450952Y-14105905D01*
D14*
X12010000Y-14458000D02*
X12010000Y-14558000D01*
X11960000Y-14508000D02*
X12060000Y-14508000D01*
D11*
X12422381Y-14598476D02*
X12308095Y-14598476D01*
X12365238Y-14598476D02*
X12365238Y-14398476D01*
X12346190Y-14427048D01*
X12327143Y-14446095D01*
X12308095Y-14455619D01*
X12508095Y-14579428D02*
X12517619Y-14588952D01*
X12508095Y-14598476D01*
X12498571Y-14588952D01*
X12508095Y-14579428D01*
X12508095Y-14598476D01*
X12641428Y-14398476D02*
X12660476Y-14398476D01*
X12679524Y-14408000D01*
X12689048Y-14417524D01*
X12698571Y-14436571D01*
X12708095Y-14474667D01*
X12708095Y-14522286D01*
X12698571Y-14560381D01*
X12689048Y-14579428D01*
X12679524Y-14588952D01*
X12660476Y-14598476D01*
X12641428Y-14598476D01*
X12622381Y-14588952D01*
X12612857Y-14579428D01*
X12603333Y-14560381D01*
X12593809Y-14522286D01*
X12593809Y-14474667D01*
X12603333Y-14436571D01*
X12612857Y-14417524D01*
X12622381Y-14408000D01*
X12641428Y-14398476D01*
X12831905Y-14398476D02*
X12850952Y-14398476D01*
X12870000Y-14408000D01*
X12879524Y-14417524D01*
X12889048Y-14436571D01*
X12898571Y-14474667D01*
X12898571Y-14522286D01*
X12889048Y-14560381D01*
X12879524Y-14579428D01*
X12870000Y-14588952D01*
X12850952Y-14598476D01*
X12831905Y-14598476D01*
X12812857Y-14588952D01*
X12803333Y-14579428D01*
X12793809Y-14560381D01*
X12784286Y-14522286D01*
X12784286Y-14474667D01*
X12793809Y-14436571D01*
X12803333Y-14417524D01*
X12812857Y-14408000D01*
X12831905Y-14398476D01*
X13022381Y-14398476D02*
X13041428Y-14398476D01*
X13060476Y-14408000D01*
X13070000Y-14417524D01*
X13079524Y-14436571D01*
X13089048Y-14474667D01*
X13089048Y-14522286D01*
X13079524Y-14560381D01*
X13070000Y-14579428D01*
X13060476Y-14588952D01*
X13041428Y-14598476D01*
X13022381Y-14598476D01*
X13003333Y-14588952D01*
X12993809Y-14579428D01*
X12984286Y-14560381D01*
X12974762Y-14522286D01*
X12974762Y-14474667D01*
X12984286Y-14436571D01*
X12993809Y-14417524D01*
X13003333Y-14408000D01*
X13022381Y-14398476D01*
X13174762Y-14598476D02*
X13174762Y-14465143D01*
X13174762Y-14484190D02*
X13184286Y-14474667D01*
X13203333Y-14465143D01*
X13231905Y-14465143D01*
X13250952Y-14474667D01*
X13260476Y-14493714D01*
X13260476Y-14598476D01*
X13260476Y-14493714D02*
X13270000Y-14474667D01*
X13289048Y-14465143D01*
X13317619Y-14465143D01*
X13336667Y-14474667D01*
X13346190Y-14493714D01*
X13346190Y-14598476D01*
X13441428Y-14598476D02*
X13441428Y-14465143D01*
X13441428Y-14484190D02*
X13450952Y-14474667D01*
X13470000Y-14465143D01*
X13498571Y-14465143D01*
X13517619Y-14474667D01*
X13527143Y-14493714D01*
X13527143Y-14598476D01*
X13527143Y-14493714D02*
X13536667Y-14474667D01*
X13555714Y-14465143D01*
X13584286Y-14465143D01*
X13603333Y-14474667D01*
X13612857Y-14493714D01*
X13612857Y-14598476D01*
X14003333Y-14388952D02*
X13831905Y-14646095D01*
X14260476Y-14398476D02*
X14279524Y-14398476D01*
X14298571Y-14408000D01*
X14308095Y-14417524D01*
X14317619Y-14436571D01*
X14327143Y-14474667D01*
X14327143Y-14522286D01*
X14317619Y-14560381D01*
X14308095Y-14579428D01*
X14298571Y-14588952D01*
X14279524Y-14598476D01*
X14260476Y-14598476D01*
X14241428Y-14588952D01*
X14231905Y-14579428D01*
X14222381Y-14560381D01*
X14212857Y-14522286D01*
X14212857Y-14474667D01*
X14222381Y-14436571D01*
X14231905Y-14417524D01*
X14241428Y-14408000D01*
X14260476Y-14398476D01*
X14412857Y-14579428D02*
X14422381Y-14588952D01*
X14412857Y-14598476D01*
X14403333Y-14588952D01*
X14412857Y-14579428D01*
X14412857Y-14598476D01*
X14546190Y-14398476D02*
X14565238Y-14398476D01*
X14584286Y-14408000D01*
X14593809Y-14417524D01*
X14603333Y-14436571D01*
X14612857Y-14474667D01*
X14612857Y-14522286D01*
X14603333Y-14560381D01*
X14593809Y-14579428D01*
X14584286Y-14588952D01*
X14565238Y-14598476D01*
X14546190Y-14598476D01*
X14527143Y-14588952D01*
X14517619Y-14579428D01*
X14508095Y-14560381D01*
X14498571Y-14522286D01*
X14498571Y-14474667D01*
X14508095Y-14436571D01*
X14517619Y-14417524D01*
X14527143Y-14408000D01*
X14546190Y-14398476D01*
X14679524Y-14398476D02*
X14803333Y-14398476D01*
X14736667Y-14474667D01*
X14765238Y-14474667D01*
X14784286Y-14484190D01*
X14793809Y-14493714D01*
X14803333Y-14512762D01*
X14803333Y-14560381D01*
X14793809Y-14579428D01*
X14784286Y-14588952D01*
X14765238Y-14598476D01*
X14708095Y-14598476D01*
X14689048Y-14588952D01*
X14679524Y-14579428D01*
X14898571Y-14598476D02*
X14936667Y-14598476D01*
X14955714Y-14588952D01*
X14965238Y-14579428D01*
X14984286Y-14550857D01*
X14993809Y-14512762D01*
X14993809Y-14436571D01*
X14984286Y-14417524D01*
X14974762Y-14408000D01*
X14955714Y-14398476D01*
X14917619Y-14398476D01*
X14898571Y-14408000D01*
X14889048Y-14417524D01*
X14879524Y-14436571D01*
X14879524Y-14484190D01*
X14889048Y-14503238D01*
X14898571Y-14512762D01*
X14917619Y-14522286D01*
X14955714Y-14522286D01*
X14974762Y-14512762D01*
X14984286Y-14503238D01*
X14993809Y-14484190D01*
X15165238Y-14465143D02*
X15165238Y-14598476D01*
X15117619Y-14388952D02*
X15070000Y-14531809D01*
X15193809Y-14531809D01*
X15260476Y-14398476D02*
X15260476Y-14436571D01*
X15336667Y-14398476D02*
X15336667Y-14436571D01*
X15631905Y-14674667D02*
X15622381Y-14665143D01*
X15603333Y-14636571D01*
X15593809Y-14617524D01*
X15584286Y-14588952D01*
X15574762Y-14541333D01*
X15574762Y-14503238D01*
X15584286Y-14455619D01*
X15593809Y-14427048D01*
X15603333Y-14408000D01*
X15622381Y-14379428D01*
X15631905Y-14369905D01*
X15689048Y-14398476D02*
X15812857Y-14398476D01*
X15746190Y-14474667D01*
X15774762Y-14474667D01*
X15793809Y-14484190D01*
X15803333Y-14493714D01*
X15812857Y-14512762D01*
X15812857Y-14560381D01*
X15803333Y-14579428D01*
X15793809Y-14588952D01*
X15774762Y-14598476D01*
X15717619Y-14598476D01*
X15698571Y-14588952D01*
X15689048Y-14579428D01*
X15984286Y-14398476D02*
X15946190Y-14398476D01*
X15927143Y-14408000D01*
X15917619Y-14417524D01*
X15898571Y-14446095D01*
X15889048Y-14484190D01*
X15889048Y-14560381D01*
X15898571Y-14579428D01*
X15908095Y-14588952D01*
X15927143Y-14598476D01*
X15965238Y-14598476D01*
X15984286Y-14588952D01*
X15993809Y-14579428D01*
X16003333Y-14560381D01*
X16003333Y-14512762D01*
X15993809Y-14493714D01*
X15984286Y-14484190D01*
X15965238Y-14474667D01*
X15927143Y-14474667D01*
X15908095Y-14484190D01*
X15898571Y-14493714D01*
X15889048Y-14512762D01*
X16241428Y-14598476D02*
X16241428Y-14398476D01*
X16327143Y-14598476D02*
X16327143Y-14493714D01*
X16317619Y-14474667D01*
X16298571Y-14465143D01*
X16270000Y-14465143D01*
X16250952Y-14474667D01*
X16241428Y-14484190D01*
X16450952Y-14598476D02*
X16431905Y-14588952D01*
X16422381Y-14579428D01*
X16412857Y-14560381D01*
X16412857Y-14503238D01*
X16422381Y-14484190D01*
X16431905Y-14474667D01*
X16450952Y-14465143D01*
X16479524Y-14465143D01*
X16498571Y-14474667D01*
X16508095Y-14484190D01*
X16517619Y-14503238D01*
X16517619Y-14560381D01*
X16508095Y-14579428D01*
X16498571Y-14588952D01*
X16479524Y-14598476D01*
X16450952Y-14598476D01*
X16631905Y-14598476D02*
X16612857Y-14588952D01*
X16603333Y-14569905D01*
X16603333Y-14398476D01*
X16784286Y-14588952D02*
X16765238Y-14598476D01*
X16727143Y-14598476D01*
X16708095Y-14588952D01*
X16698571Y-14569905D01*
X16698571Y-14493714D01*
X16708095Y-14474667D01*
X16727143Y-14465143D01*
X16765238Y-14465143D01*
X16784286Y-14474667D01*
X16793810Y-14493714D01*
X16793810Y-14512762D01*
X16698571Y-14531809D01*
X16870000Y-14588952D02*
X16889048Y-14598476D01*
X16927143Y-14598476D01*
X16946190Y-14588952D01*
X16955714Y-14569905D01*
X16955714Y-14560381D01*
X16946190Y-14541333D01*
X16927143Y-14531809D01*
X16898571Y-14531809D01*
X16879524Y-14522286D01*
X16870000Y-14503238D01*
X16870000Y-14493714D01*
X16879524Y-14474667D01*
X16898571Y-14465143D01*
X16927143Y-14465143D01*
X16946190Y-14474667D01*
X17022381Y-14674667D02*
X17031905Y-14665143D01*
X17050952Y-14636571D01*
X17060476Y-14617524D01*
X17070000Y-14588952D01*
X17079524Y-14541333D01*
X17079524Y-14503238D01*
X17070000Y-14455619D01*
X17060476Y-14427048D01*
X17050952Y-14408000D01*
X17031905Y-14379428D01*
X17022381Y-14369905D01*
X12030711Y-14842711D02*
X12030711Y-14701289D01*
X11889289Y-14701289D01*
X11889289Y-14842711D01*
X12030711Y-14842711D01*
X12308095Y-14681524D02*
X12317619Y-14672000D01*
X12336667Y-14662476D01*
X12384286Y-14662476D01*
X12403333Y-14672000D01*
X12412857Y-14681524D01*
X12422381Y-14700571D01*
X12422381Y-14719619D01*
X12412857Y-14748190D01*
X12298571Y-14862476D01*
X12422381Y-14862476D01*
X12508095Y-14843428D02*
X12517619Y-14852952D01*
X12508095Y-14862476D01*
X12498571Y-14852952D01*
X12508095Y-14843428D01*
X12508095Y-14862476D01*
X12584286Y-14662476D02*
X12717619Y-14662476D01*
X12631905Y-14862476D01*
X12831905Y-14662476D02*
X12850952Y-14662476D01*
X12870000Y-14672000D01*
X12879524Y-14681524D01*
X12889048Y-14700571D01*
X12898571Y-14738667D01*
X12898571Y-14786286D01*
X12889048Y-14824381D01*
X12879524Y-14843428D01*
X12870000Y-14852952D01*
X12850952Y-14862476D01*
X12831905Y-14862476D01*
X12812857Y-14852952D01*
X12803333Y-14843428D01*
X12793809Y-14824381D01*
X12784286Y-14786286D01*
X12784286Y-14738667D01*
X12793809Y-14700571D01*
X12803333Y-14681524D01*
X12812857Y-14672000D01*
X12831905Y-14662476D01*
X13022381Y-14662476D02*
X13041428Y-14662476D01*
X13060476Y-14672000D01*
X13070000Y-14681524D01*
X13079524Y-14700571D01*
X13089048Y-14738667D01*
X13089048Y-14786286D01*
X13079524Y-14824381D01*
X13070000Y-14843428D01*
X13060476Y-14852952D01*
X13041428Y-14862476D01*
X13022381Y-14862476D01*
X13003333Y-14852952D01*
X12993809Y-14843428D01*
X12984286Y-14824381D01*
X12974762Y-14786286D01*
X12974762Y-14738667D01*
X12984286Y-14700571D01*
X12993809Y-14681524D01*
X13003333Y-14672000D01*
X13022381Y-14662476D01*
X13174762Y-14862476D02*
X13174762Y-14729143D01*
X13174762Y-14748190D02*
X13184286Y-14738667D01*
X13203333Y-14729143D01*
X13231905Y-14729143D01*
X13250952Y-14738667D01*
X13260476Y-14757714D01*
X13260476Y-14862476D01*
X13260476Y-14757714D02*
X13270000Y-14738667D01*
X13289048Y-14729143D01*
X13317619Y-14729143D01*
X13336667Y-14738667D01*
X13346190Y-14757714D01*
X13346190Y-14862476D01*
X13441428Y-14862476D02*
X13441428Y-14729143D01*
X13441428Y-14748190D02*
X13450952Y-14738667D01*
X13470000Y-14729143D01*
X13498571Y-14729143D01*
X13517619Y-14738667D01*
X13527143Y-14757714D01*
X13527143Y-14862476D01*
X13527143Y-14757714D02*
X13536667Y-14738667D01*
X13555714Y-14729143D01*
X13584286Y-14729143D01*
X13603333Y-14738667D01*
X13612857Y-14757714D01*
X13612857Y-14862476D01*
X14003333Y-14652952D02*
X13831905Y-14910095D01*
X14260476Y-14662476D02*
X14279524Y-14662476D01*
X14298571Y-14672000D01*
X14308095Y-14681524D01*
X14317619Y-14700571D01*
X14327143Y-14738667D01*
X14327143Y-14786286D01*
X14317619Y-14824381D01*
X14308095Y-14843428D01*
X14298571Y-14852952D01*
X14279524Y-14862476D01*
X14260476Y-14862476D01*
X14241428Y-14852952D01*
X14231905Y-14843428D01*
X14222381Y-14824381D01*
X14212857Y-14786286D01*
X14212857Y-14738667D01*
X14222381Y-14700571D01*
X14231905Y-14681524D01*
X14241428Y-14672000D01*
X14260476Y-14662476D01*
X14412857Y-14843428D02*
X14422381Y-14852952D01*
X14412857Y-14862476D01*
X14403333Y-14852952D01*
X14412857Y-14843428D01*
X14412857Y-14862476D01*
X14612857Y-14862476D02*
X14498571Y-14862476D01*
X14555714Y-14862476D02*
X14555714Y-14662476D01*
X14536667Y-14691048D01*
X14517619Y-14710095D01*
X14498571Y-14719619D01*
X14736667Y-14662476D02*
X14755714Y-14662476D01*
X14774762Y-14672000D01*
X14784286Y-14681524D01*
X14793809Y-14700571D01*
X14803333Y-14738667D01*
X14803333Y-14786286D01*
X14793809Y-14824381D01*
X14784286Y-14843428D01*
X14774762Y-14852952D01*
X14755714Y-14862476D01*
X14736667Y-14862476D01*
X14717619Y-14852952D01*
X14708095Y-14843428D01*
X14698571Y-14824381D01*
X14689048Y-14786286D01*
X14689048Y-14738667D01*
X14698571Y-14700571D01*
X14708095Y-14681524D01*
X14717619Y-14672000D01*
X14736667Y-14662476D01*
X14974762Y-14662476D02*
X14936667Y-14662476D01*
X14917619Y-14672000D01*
X14908095Y-14681524D01*
X14889048Y-14710095D01*
X14879524Y-14748190D01*
X14879524Y-14824381D01*
X14889048Y-14843428D01*
X14898571Y-14852952D01*
X14917619Y-14862476D01*
X14955714Y-14862476D01*
X14974762Y-14852952D01*
X14984286Y-14843428D01*
X14993809Y-14824381D01*
X14993809Y-14776762D01*
X14984286Y-14757714D01*
X14974762Y-14748190D01*
X14955714Y-14738667D01*
X14917619Y-14738667D01*
X14898571Y-14748190D01*
X14889048Y-14757714D01*
X14879524Y-14776762D01*
X15060476Y-14662476D02*
X15184286Y-14662476D01*
X15117619Y-14738667D01*
X15146190Y-14738667D01*
X15165238Y-14748190D01*
X15174762Y-14757714D01*
X15184286Y-14776762D01*
X15184286Y-14824381D01*
X15174762Y-14843428D01*
X15165238Y-14852952D01*
X15146190Y-14862476D01*
X15089048Y-14862476D01*
X15070000Y-14852952D01*
X15060476Y-14843428D01*
X15260476Y-14662476D02*
X15260476Y-14700571D01*
X15336667Y-14662476D02*
X15336667Y-14700571D01*
X15631905Y-14938667D02*
X15622381Y-14929143D01*
X15603333Y-14900571D01*
X15593809Y-14881524D01*
X15584286Y-14852952D01*
X15574762Y-14805333D01*
X15574762Y-14767238D01*
X15584286Y-14719619D01*
X15593809Y-14691048D01*
X15603333Y-14672000D01*
X15622381Y-14643428D01*
X15631905Y-14633905D01*
X15793809Y-14729143D02*
X15793809Y-14862476D01*
X15746190Y-14652952D02*
X15698571Y-14795809D01*
X15822381Y-14795809D01*
X16050952Y-14862476D02*
X16050952Y-14662476D01*
X16136667Y-14862476D02*
X16136667Y-14757714D01*
X16127143Y-14738667D01*
X16108095Y-14729143D01*
X16079524Y-14729143D01*
X16060476Y-14738667D01*
X16050952Y-14748190D01*
X16260476Y-14862476D02*
X16241428Y-14852952D01*
X16231905Y-14843428D01*
X16222381Y-14824381D01*
X16222381Y-14767238D01*
X16231905Y-14748190D01*
X16241428Y-14738667D01*
X16260476Y-14729143D01*
X16289048Y-14729143D01*
X16308095Y-14738667D01*
X16317619Y-14748190D01*
X16327143Y-14767238D01*
X16327143Y-14824381D01*
X16317619Y-14843428D01*
X16308095Y-14852952D01*
X16289048Y-14862476D01*
X16260476Y-14862476D01*
X16441428Y-14862476D02*
X16422381Y-14852952D01*
X16412857Y-14833905D01*
X16412857Y-14662476D01*
X16593809Y-14852952D02*
X16574762Y-14862476D01*
X16536667Y-14862476D01*
X16517619Y-14852952D01*
X16508095Y-14833905D01*
X16508095Y-14757714D01*
X16517619Y-14738667D01*
X16536667Y-14729143D01*
X16574762Y-14729143D01*
X16593809Y-14738667D01*
X16603333Y-14757714D01*
X16603333Y-14776762D01*
X16508095Y-14795809D01*
X16679524Y-14852952D02*
X16698571Y-14862476D01*
X16736667Y-14862476D01*
X16755714Y-14852952D01*
X16765238Y-14833905D01*
X16765238Y-14824381D01*
X16755714Y-14805333D01*
X16736667Y-14795809D01*
X16708095Y-14795809D01*
X16689048Y-14786286D01*
X16679524Y-14767238D01*
X16679524Y-14757714D01*
X16689048Y-14738667D01*
X16708095Y-14729143D01*
X16736667Y-14729143D01*
X16755714Y-14738667D01*
X16831905Y-14938667D02*
X16841429Y-14929143D01*
X16860476Y-14900571D01*
X16870000Y-14881524D01*
X16879524Y-14852952D01*
X16889048Y-14805333D01*
X16889048Y-14767238D01*
X16879524Y-14719619D01*
X16870000Y-14691048D01*
X16860476Y-14672000D01*
X16841429Y-14643428D01*
X16831905Y-14633905D01*
M02*
