%TF.GenerationSoftware,KiCad,Pcbnew,6.0.4*%
%TF.CreationDate,2022-04-24T20:11:58+02:00*%
%TF.ProjectId,main_pcb,6d61696e-5f70-4636-922e-6b696361645f,rev?*%
%TF.SameCoordinates,Original*%
%TF.FileFunction,Soldermask,Bot*%
%TF.FilePolarity,Negative*%
%FSLAX46Y46*%
G04 Gerber Fmt 4.6, Leading zero omitted, Abs format (unit mm)*
G04 Created by KiCad (PCBNEW 6.0.4) date 2022-04-24 20:11:58*
%MOMM*%
%LPD*%
G01*
G04 APERTURE LIST*
%ADD10R,1.700000X1.700000*%
%ADD11O,1.700000X1.700000*%
%ADD12C,4.500000*%
%ADD13C,0.800000*%
%ADD14C,0.650000*%
%ADD15O,1.600000X1.000000*%
%ADD16O,2.100000X1.000000*%
G04 APERTURE END LIST*
D10*
%TO.C,J4*%
X174752000Y-112522000D03*
D11*
X174752000Y-109982000D03*
X177292000Y-112522000D03*
X177292000Y-109982000D03*
X179832000Y-112522000D03*
X179832000Y-109982000D03*
%TD*%
D12*
%TO.C,*%
X154940000Y-96520000D03*
%TD*%
D10*
%TO.C,J3*%
X158750000Y-127000000D03*
D11*
X158750000Y-129540000D03*
X156210000Y-127000000D03*
X156210000Y-129540000D03*
X153670000Y-127000000D03*
X153670000Y-129540000D03*
X151130000Y-127000000D03*
X151130000Y-129540000D03*
X148590000Y-127000000D03*
X148590000Y-129540000D03*
X146050000Y-127000000D03*
X146050000Y-129540000D03*
%TD*%
D10*
%TO.C,J1*%
X146050000Y-121285000D03*
D11*
X148590000Y-121285000D03*
X151130000Y-121285000D03*
X153670000Y-121285000D03*
X156210000Y-121285000D03*
X158750000Y-121285000D03*
%TD*%
D10*
%TO.C,J2*%
X167640000Y-83185000D03*
D11*
X167640000Y-80645000D03*
X167640000Y-78105000D03*
X167640000Y-75565000D03*
%TD*%
D10*
%TO.C,M1*%
X131445000Y-83185000D03*
D11*
X131445000Y-80645000D03*
X131445000Y-78105000D03*
%TD*%
D10*
%TO.C,M4*%
X131445000Y-125095000D03*
D11*
X131445000Y-122555000D03*
X131445000Y-120015000D03*
%TD*%
D13*
%TO.C,SW1*%
X136147000Y-77840000D03*
%TD*%
D12*
%TO.C,REF\u002A\u002A*%
X124460000Y-73660000D03*
%TD*%
D10*
%TO.C,BAT1*%
X163830000Y-123825000D03*
D11*
X166370000Y-123825000D03*
%TD*%
D10*
%TO.C,M3*%
X172720000Y-78105000D03*
D11*
X172720000Y-80645000D03*
X172720000Y-83185000D03*
%TD*%
D12*
%TO.C,*%
X180340000Y-73660000D03*
%TD*%
D10*
%TO.C,M2*%
X173355000Y-120015000D03*
D11*
X173355000Y-122555000D03*
X173355000Y-125095000D03*
%TD*%
D14*
%TO.C,USB-C*%
X177100000Y-103220000D03*
X177100000Y-97440000D03*
D15*
X180780000Y-96010000D03*
X180780000Y-104650000D03*
D16*
X176600000Y-96010000D03*
X176600000Y-104650000D03*
%TD*%
D12*
%TO.C,*%
X124460000Y-129540000D03*
%TD*%
%TO.C,*%
X180340000Y-129540000D03*
%TD*%
D13*
X175895000Y-73660000D03*
X149225000Y-72390000D03*
X151130000Y-74295000D03*
X146685000Y-76200000D03*
X177207178Y-88434716D03*
X181945020Y-107772878D03*
X176400378Y-94744622D03*
X178435000Y-93980000D03*
X135255000Y-103505000D03*
X137160000Y-101600000D03*
X162382878Y-115112122D03*
X142311755Y-107243245D03*
X156387122Y-110312878D03*
X160477878Y-113207122D03*
X131445000Y-97790000D03*
X131445000Y-98830000D03*
X154940000Y-109855000D03*
X141605000Y-107950000D03*
X159456755Y-113593234D03*
X163089633Y-115818876D03*
X164465000Y-117475000D03*
X158750000Y-114300000D03*
X161925000Y-118745000D03*
X166370000Y-114935000D03*
X167005000Y-116205000D03*
X169672000Y-86360000D03*
X161290000Y-131064000D03*
X140208000Y-116840000D03*
X147320000Y-117475000D03*
X147574000Y-105410000D03*
X141986000Y-105410000D03*
X133350000Y-85090000D03*
X133350000Y-123825000D03*
X170815000Y-76200000D03*
X175260000Y-118110000D03*
X161290000Y-127000000D03*
X157480000Y-124460000D03*
X127830888Y-107333784D03*
X127830888Y-105128777D03*
X130175000Y-109220000D03*
X133985000Y-109220000D03*
X170180000Y-123825000D03*
X170180000Y-112395000D03*
X147860994Y-89535000D03*
X148860497Y-89535000D03*
X149860000Y-89535000D03*
X151001000Y-89535000D03*
X148787301Y-92769502D03*
X149795500Y-92737142D03*
X145415000Y-85090000D03*
X145415000Y-86360000D03*
X145415000Y-87630000D03*
X145415000Y-88900000D03*
X155575000Y-105410000D03*
X151001000Y-93580500D03*
X151001000Y-95279500D03*
X148590000Y-99060000D03*
X149860000Y-85090000D03*
X154305000Y-88900000D03*
X171196000Y-103378000D03*
X174752000Y-106172000D03*
X168148000Y-118364000D03*
X166624000Y-119888000D03*
X165354000Y-110998000D03*
X162560000Y-109855000D03*
X167386000Y-110490000D03*
X164338000Y-90170000D03*
X166624000Y-98806000D03*
X169164000Y-98806000D03*
X168339500Y-90805000D03*
X154940000Y-118745000D03*
X154940000Y-117475000D03*
X167640000Y-88900000D03*
X177800000Y-85090000D03*
X179705000Y-90170000D03*
X177800000Y-87630000D03*
X172085000Y-88265000D03*
X182245000Y-90170000D03*
X180340000Y-93345000D03*
X165100000Y-119380000D03*
X164465000Y-76835000D03*
X163195000Y-92075000D03*
X163765500Y-85090000D03*
X167005000Y-85725000D03*
X165564020Y-81915000D03*
X163765500Y-81915000D03*
X158115000Y-95279500D03*
X158115000Y-93580500D03*
X158115000Y-104775000D03*
X154211531Y-113641313D03*
X158750000Y-111760000D03*
X161925000Y-111760000D03*
X137795000Y-85725000D03*
X142240000Y-90805000D03*
X139065000Y-83820000D03*
X139870980Y-90170000D03*
X141034500Y-101600000D03*
X142069019Y-93480856D03*
X140970000Y-99060000D03*
X172085000Y-93345000D03*
X173355000Y-93345000D03*
X174625000Y-90805000D03*
X175895000Y-90805000D03*
X175895000Y-89535000D03*
X174625000Y-89535000D03*
X140716000Y-78994000D03*
X138176000Y-82042000D03*
X138176000Y-80580500D03*
X160020000Y-95279500D03*
X160020000Y-107442000D03*
X160020000Y-105918000D03*
X160020000Y-93580500D03*
X173228000Y-94742000D03*
X177292000Y-93218000D03*
X144145000Y-93345000D03*
X144145000Y-95279500D03*
X147320000Y-103505000D03*
X128035000Y-99930000D03*
X136245000Y-95530000D03*
X140476000Y-83044000D03*
X139700000Y-94430000D03*
X139700000Y-74295000D03*
X142875000Y-94430000D03*
X163195000Y-101600000D03*
X164465000Y-107315000D03*
X152400000Y-101600000D03*
X163195000Y-107315000D03*
X174625000Y-103505000D03*
X138430000Y-91440000D03*
X174625000Y-97155000D03*
X164465000Y-101600000D03*
X158750000Y-76200000D03*
X153035000Y-99060000D03*
X151765000Y-99060000D03*
X156845000Y-83185000D03*
X174625000Y-99060000D03*
X173355000Y-100965000D03*
X173355000Y-99695000D03*
X174625000Y-101600000D03*
M02*
