%TF.GenerationSoftware,KiCad,Pcbnew,6.0.4*%
%TF.CreationDate,2022-04-24T20:11:58+02:00*%
%TF.ProjectId,main_pcb,6d61696e-5f70-4636-922e-6b696361645f,rev?*%
%TF.SameCoordinates,Original*%
%TF.FileFunction,Paste,Top*%
%TF.FilePolarity,Positive*%
%FSLAX46Y46*%
G04 Gerber Fmt 4.6, Leading zero omitted, Abs format (unit mm)*
G04 Created by KiCad (PCBNEW 6.0.4) date 2022-04-24 20:11:58*
%MOMM*%
%LPD*%
G01*
G04 APERTURE LIST*
G04 Aperture macros list*
%AMRoundRect*
0 Rectangle with rounded corners*
0 $1 Rounding radius*
0 $2 $3 $4 $5 $6 $7 $8 $9 X,Y pos of 4 corners*
0 Add a 4 corners polygon primitive as box body*
4,1,4,$2,$3,$4,$5,$6,$7,$8,$9,$2,$3,0*
0 Add four circle primitives for the rounded corners*
1,1,$1+$1,$2,$3*
1,1,$1+$1,$4,$5*
1,1,$1+$1,$6,$7*
1,1,$1+$1,$8,$9*
0 Add four rect primitives between the rounded corners*
20,1,$1+$1,$2,$3,$4,$5,0*
20,1,$1+$1,$4,$5,$6,$7,0*
20,1,$1+$1,$6,$7,$8,$9,0*
20,1,$1+$1,$8,$9,$2,$3,0*%
%AMFreePoly0*
4,1,9,3.862500,-0.866500,0.737500,-0.866500,0.737500,-0.450000,-0.737500,-0.450000,-0.737500,0.450000,0.737500,0.450000,0.737500,0.866500,3.862500,0.866500,3.862500,-0.866500,3.862500,-0.866500,$1*%
%AMFreePoly1*
4,1,48,0.036020,0.199191,0.037970,0.199714,0.040958,0.198321,0.057086,0.195477,0.069630,0.184951,0.084467,0.178033,0.290533,-0.028033,0.293203,-0.031847,0.294953,-0.032857,0.296081,-0.035957,0.305473,-0.049370,0.306900,-0.065680,0.312500,-0.081066,0.312500,-0.125000,0.310782,-0.134742,0.311361,-0.138024,0.309695,-0.140910,0.307977,-0.150652,0.295451,-0.165579,0.285709,-0.182453,
0.279350,-0.184767,0.275000,-0.189952,0.255809,-0.193336,0.237500,-0.200000,-0.237500,-0.200000,-0.247242,-0.198282,-0.250524,-0.198861,-0.253410,-0.197195,-0.263152,-0.195477,-0.278079,-0.182951,-0.294953,-0.173209,-0.297267,-0.166850,-0.302452,-0.162500,-0.305836,-0.143309,-0.312500,-0.125000,-0.312500,0.125000,-0.310782,0.134742,-0.311361,0.138024,-0.309695,0.140910,-0.307977,0.150652,
-0.295451,0.165579,-0.285709,0.182453,-0.279350,0.184767,-0.275000,0.189952,-0.255809,0.193336,-0.237500,0.200000,0.031434,0.200000,0.036020,0.199191,0.036020,0.199191,$1*%
%AMFreePoly2*
4,1,48,0.247242,0.198282,0.250524,0.198861,0.253410,0.197195,0.263152,0.195477,0.278079,0.182951,0.294953,0.173209,0.297267,0.166850,0.302452,0.162500,0.305836,0.143309,0.312500,0.125000,0.312500,0.081066,0.311691,0.076480,0.312214,0.074529,0.310820,0.071540,0.307977,0.055414,0.297452,0.042871,0.290533,0.028033,0.084467,-0.178033,0.080653,-0.180703,0.079643,-0.182453,
0.076543,-0.183581,0.063130,-0.192973,0.046819,-0.194400,0.031434,-0.200000,-0.237500,-0.200000,-0.247242,-0.198282,-0.250524,-0.198861,-0.253410,-0.197195,-0.263152,-0.195477,-0.278079,-0.182951,-0.294953,-0.173209,-0.297267,-0.166850,-0.302452,-0.162500,-0.305836,-0.143309,-0.312500,-0.125000,-0.312500,0.125000,-0.310782,0.134742,-0.311361,0.138024,-0.309695,0.140910,-0.307977,0.150652,
-0.295451,0.165579,-0.285709,0.182453,-0.279350,0.184767,-0.275000,0.189952,-0.255809,0.193336,-0.237500,0.200000,0.237500,0.200000,0.247242,0.198282,0.247242,0.198282,$1*%
%AMFreePoly3*
4,1,48,0.134742,0.310782,0.138024,0.311361,0.140910,0.309695,0.150652,0.307977,0.165579,0.295451,0.182453,0.285709,0.184767,0.279350,0.189952,0.275000,0.193336,0.255809,0.200000,0.237500,0.200000,-0.237500,0.198282,-0.247242,0.198861,-0.250524,0.197195,-0.253410,0.195477,-0.263152,0.182951,-0.278079,0.173209,-0.294953,0.166850,-0.297267,0.162500,-0.302452,0.143309,-0.305836,
0.125000,-0.312500,-0.125000,-0.312500,-0.134742,-0.310782,-0.138024,-0.311361,-0.140910,-0.309695,-0.150652,-0.307977,-0.165579,-0.295451,-0.182453,-0.285709,-0.184767,-0.279350,-0.189952,-0.275000,-0.193336,-0.255809,-0.200000,-0.237500,-0.200000,0.031434,-0.199191,0.036020,-0.199714,0.037970,-0.198321,0.040958,-0.195477,0.057086,-0.184951,0.069630,-0.178033,0.084467,0.028033,0.290533,
0.031847,0.293203,0.032857,0.294953,0.035957,0.296081,0.049370,0.305473,0.065680,0.306900,0.081066,0.312500,0.125000,0.312500,0.134742,0.310782,0.134742,0.310782,$1*%
%AMFreePoly4*
4,1,48,-0.076480,0.311691,-0.074530,0.312214,-0.071542,0.310821,-0.055414,0.307977,-0.042870,0.297451,-0.028033,0.290533,0.178033,0.084467,0.180703,0.080653,0.182453,0.079643,0.183581,0.076543,0.192973,0.063130,0.194400,0.046820,0.200000,0.031434,0.200000,-0.237500,0.198282,-0.247242,0.198861,-0.250524,0.197195,-0.253410,0.195477,-0.263152,0.182951,-0.278079,0.173209,-0.294953,
0.166850,-0.297267,0.162500,-0.302452,0.143309,-0.305836,0.125000,-0.312500,-0.125000,-0.312500,-0.134742,-0.310782,-0.138024,-0.311361,-0.140910,-0.309695,-0.150652,-0.307977,-0.165579,-0.295451,-0.182453,-0.285709,-0.184767,-0.279350,-0.189952,-0.275000,-0.193336,-0.255809,-0.200000,-0.237500,-0.200000,0.237500,-0.198282,0.247242,-0.198861,0.250524,-0.197195,0.253410,-0.195477,0.263152,
-0.182951,0.278079,-0.173209,0.294953,-0.166850,0.297267,-0.162500,0.302452,-0.143309,0.305836,-0.125000,0.312500,-0.081066,0.312500,-0.076480,0.311691,-0.076480,0.311691,$1*%
%AMFreePoly5*
4,1,48,0.247242,0.198282,0.250524,0.198861,0.253410,0.197195,0.263152,0.195477,0.278079,0.182951,0.294953,0.173209,0.297267,0.166850,0.302452,0.162500,0.305836,0.143309,0.312500,0.125000,0.312500,-0.125000,0.310782,-0.134742,0.311361,-0.138024,0.309695,-0.140910,0.307977,-0.150652,0.295451,-0.165579,0.285709,-0.182453,0.279350,-0.184767,0.275000,-0.189952,0.255809,-0.193336,
0.237500,-0.200000,-0.031434,-0.200000,-0.036020,-0.199191,-0.037971,-0.199714,-0.040960,-0.198320,-0.057086,-0.195477,-0.069629,-0.184952,-0.084467,-0.178033,-0.290533,0.028033,-0.293203,0.031847,-0.294953,0.032857,-0.296081,0.035957,-0.305473,0.049370,-0.306900,0.065681,-0.312500,0.081066,-0.312500,0.125000,-0.310782,0.134742,-0.311361,0.138024,-0.309695,0.140910,-0.307977,0.150652,
-0.295451,0.165579,-0.285709,0.182453,-0.279350,0.184767,-0.275000,0.189952,-0.255809,0.193336,-0.237500,0.200000,0.237500,0.200000,0.247242,0.198282,0.247242,0.198282,$1*%
%AMFreePoly6*
4,1,48,0.247242,0.198282,0.250524,0.198861,0.253410,0.197195,0.263152,0.195477,0.278079,0.182951,0.294953,0.173209,0.297267,0.166850,0.302452,0.162500,0.305836,0.143309,0.312500,0.125000,0.312500,-0.125000,0.310782,-0.134742,0.311361,-0.138024,0.309695,-0.140910,0.307977,-0.150652,0.295451,-0.165579,0.285709,-0.182453,0.279350,-0.184767,0.275000,-0.189952,0.255809,-0.193336,
0.237500,-0.200000,-0.237500,-0.200000,-0.247242,-0.198282,-0.250524,-0.198861,-0.253410,-0.197195,-0.263152,-0.195477,-0.278079,-0.182951,-0.294953,-0.173209,-0.297267,-0.166850,-0.302452,-0.162500,-0.305836,-0.143309,-0.312500,-0.125000,-0.312500,-0.081066,-0.311691,-0.076480,-0.312214,-0.074530,-0.310821,-0.071542,-0.307977,-0.055414,-0.297451,-0.042870,-0.290533,-0.028033,-0.084467,0.178033,
-0.080653,0.180703,-0.079643,0.182453,-0.076543,0.183581,-0.063130,0.192973,-0.046820,0.194400,-0.031434,0.200000,0.237500,0.200000,0.247242,0.198282,0.247242,0.198282,$1*%
%AMFreePoly7*
4,1,48,0.134742,0.310782,0.138024,0.311361,0.140910,0.309695,0.150652,0.307977,0.165579,0.295451,0.182453,0.285709,0.184767,0.279350,0.189952,0.275000,0.193336,0.255809,0.200000,0.237500,0.200000,-0.031434,0.199191,-0.036020,0.199714,-0.037971,0.198320,-0.040960,0.195477,-0.057086,0.184952,-0.069629,0.178033,-0.084467,-0.028033,-0.290533,-0.031847,-0.293203,-0.032857,-0.294953,
-0.035957,-0.296081,-0.049370,-0.305473,-0.065681,-0.306900,-0.081066,-0.312500,-0.125000,-0.312500,-0.134742,-0.310782,-0.138024,-0.311361,-0.140910,-0.309695,-0.150652,-0.307977,-0.165579,-0.295451,-0.182453,-0.285709,-0.184767,-0.279350,-0.189952,-0.275000,-0.193336,-0.255809,-0.200000,-0.237500,-0.200000,0.237500,-0.198282,0.247242,-0.198861,0.250524,-0.197195,0.253410,-0.195477,0.263152,
-0.182951,0.278079,-0.173209,0.294953,-0.166850,0.297267,-0.162500,0.302452,-0.143309,0.305836,-0.125000,0.312500,0.125000,0.312500,0.134742,0.310782,0.134742,0.310782,$1*%
%AMFreePoly8*
4,1,48,0.134742,0.310782,0.138024,0.311361,0.140910,0.309695,0.150652,0.307977,0.165579,0.295451,0.182453,0.285709,0.184767,0.279350,0.189952,0.275000,0.193336,0.255809,0.200000,0.237500,0.200000,-0.237500,0.198282,-0.247242,0.198861,-0.250524,0.197195,-0.253410,0.195477,-0.263152,0.182951,-0.278079,0.173209,-0.294953,0.166850,-0.297267,0.162500,-0.302452,0.143309,-0.305836,
0.125000,-0.312500,0.081066,-0.312500,0.076480,-0.311691,0.074529,-0.312214,0.071540,-0.310820,0.055414,-0.307977,0.042871,-0.297452,0.028033,-0.290533,-0.178033,-0.084467,-0.180703,-0.080653,-0.182453,-0.079643,-0.183581,-0.076543,-0.192973,-0.063130,-0.194400,-0.046819,-0.200000,-0.031434,-0.200000,0.237500,-0.198282,0.247242,-0.198861,0.250524,-0.197195,0.253410,-0.195477,0.263152,
-0.182951,0.278079,-0.173209,0.294953,-0.166850,0.297267,-0.162500,0.302452,-0.143309,0.305836,-0.125000,0.312500,0.125000,0.312500,0.134742,0.310782,0.134742,0.310782,$1*%
G04 Aperture macros list end*
%ADD10RoundRect,0.250000X0.250000X0.475000X-0.250000X0.475000X-0.250000X-0.475000X0.250000X-0.475000X0*%
%ADD11RoundRect,0.250000X-0.250000X-0.475000X0.250000X-0.475000X0.250000X0.475000X-0.250000X0.475000X0*%
%ADD12R,1.500000X0.650000*%
%ADD13R,0.810000X1.080000*%
%ADD14RoundRect,0.250000X-0.262500X-0.450000X0.262500X-0.450000X0.262500X0.450000X-0.262500X0.450000X0*%
%ADD15RoundRect,0.250000X0.262500X0.450000X-0.262500X0.450000X-0.262500X-0.450000X0.262500X-0.450000X0*%
%ADD16RoundRect,0.250000X0.475000X-0.250000X0.475000X0.250000X-0.475000X0.250000X-0.475000X-0.250000X0*%
%ADD17RoundRect,0.250000X-0.450000X0.262500X-0.450000X-0.262500X0.450000X-0.262500X0.450000X0.262500X0*%
%ADD18R,1.300000X0.900000*%
%ADD19FreePoly0,180.000000*%
%ADD20R,2.000000X0.900000*%
%ADD21R,0.900000X2.000000*%
%ADD22R,5.000000X5.000000*%
%ADD23R,1.700000X0.900000*%
%ADD24RoundRect,0.250000X-0.475000X0.250000X-0.475000X-0.250000X0.475000X-0.250000X0.475000X0.250000X0*%
%ADD25RoundRect,0.250000X-1.250000X-0.550000X1.250000X-0.550000X1.250000X0.550000X-1.250000X0.550000X0*%
%ADD26FreePoly1,0.000000*%
%ADD27RoundRect,0.100000X-0.212500X-0.100000X0.212500X-0.100000X0.212500X0.100000X-0.212500X0.100000X0*%
%ADD28FreePoly2,0.000000*%
%ADD29FreePoly3,0.000000*%
%ADD30RoundRect,0.100000X-0.100000X-0.212500X0.100000X-0.212500X0.100000X0.212500X-0.100000X0.212500X0*%
%ADD31FreePoly4,0.000000*%
%ADD32FreePoly5,0.000000*%
%ADD33FreePoly6,0.000000*%
%ADD34FreePoly7,0.000000*%
%ADD35FreePoly8,0.000000*%
%ADD36RoundRect,0.200000X-0.700000X-0.200000X0.700000X-0.200000X0.700000X0.200000X-0.700000X0.200000X0*%
%ADD37RoundRect,0.100000X-0.637500X-0.100000X0.637500X-0.100000X0.637500X0.100000X-0.637500X0.100000X0*%
%ADD38RoundRect,0.250000X0.275000X-0.275000X0.275000X0.275000X-0.275000X0.275000X-0.275000X-0.275000X0*%
%ADD39RoundRect,0.062500X0.062500X-0.362500X0.062500X0.362500X-0.062500X0.362500X-0.062500X-0.362500X0*%
%ADD40RoundRect,0.062500X0.362500X-0.062500X0.362500X0.062500X-0.362500X0.062500X-0.362500X-0.062500X0*%
%ADD41R,1.150000X0.300000*%
%ADD42R,1.000000X1.000000*%
%ADD43R,1.050000X2.200000*%
G04 APERTURE END LIST*
D10*
%TO.C,C9*%
X171135000Y-86360000D03*
X173035000Y-86360000D03*
%TD*%
D11*
%TO.C,C8*%
X174940000Y-86360000D03*
X176840000Y-86360000D03*
%TD*%
%TO.C,C4*%
X180655000Y-83820000D03*
X178755000Y-83820000D03*
%TD*%
%TO.C,C3*%
X178755000Y-86360000D03*
X180655000Y-86360000D03*
%TD*%
D12*
%TO.C,U2*%
X152560000Y-114935000D03*
X152560000Y-113665000D03*
X152560000Y-112395000D03*
X152560000Y-111125000D03*
X147160000Y-111125000D03*
X147160000Y-112395000D03*
X147160000Y-113665000D03*
X147160000Y-114935000D03*
D13*
X149185000Y-113930000D03*
X149185000Y-112130000D03*
X150535000Y-113930000D03*
X150535000Y-112130000D03*
%TD*%
D14*
%TO.C,R7*%
X157122500Y-114300000D03*
X155297500Y-114300000D03*
%TD*%
D15*
%TO.C,R6*%
X157122500Y-111760000D03*
X155297500Y-111760000D03*
%TD*%
D16*
%TO.C,C11*%
X169545000Y-103820000D03*
X169545000Y-101920000D03*
%TD*%
D17*
%TO.C,R3*%
X136144000Y-83161500D03*
X136144000Y-84986500D03*
%TD*%
D18*
%TO.C,U1*%
X166115000Y-103100000D03*
D19*
X166027500Y-101600000D03*
D18*
X166115000Y-100100000D03*
%TD*%
D20*
%TO.C,ESP32-WROOM-32U1*%
X143900000Y-73660000D03*
X143900000Y-74930000D03*
X143900000Y-76200000D03*
X143900000Y-77470000D03*
X143900000Y-78740000D03*
X143900000Y-80010000D03*
X143900000Y-81280000D03*
X143900000Y-82550000D03*
X143900000Y-83820000D03*
X143900000Y-85090000D03*
X143900000Y-86360000D03*
X143900000Y-87630000D03*
X143900000Y-88900000D03*
X143900000Y-90170000D03*
D21*
X146685000Y-91170000D03*
X147955000Y-91170000D03*
X149225000Y-91170000D03*
X150495000Y-91170000D03*
X151765000Y-91170000D03*
X153035000Y-91170000D03*
X154305000Y-91170000D03*
X155575000Y-91170000D03*
X156845000Y-91170000D03*
X158115000Y-91170000D03*
D20*
X160900000Y-90170000D03*
X160900000Y-88900000D03*
X160900000Y-87630000D03*
X160900000Y-86360000D03*
X160900000Y-85090000D03*
X160900000Y-83820000D03*
X160900000Y-82550000D03*
X160900000Y-81280000D03*
X160900000Y-80010000D03*
X160900000Y-78740000D03*
X160900000Y-77470000D03*
X160900000Y-76200000D03*
X160900000Y-74930000D03*
X160900000Y-73660000D03*
D22*
X151400000Y-81160000D03*
%TD*%
D16*
%TO.C,C5*%
X140970000Y-75245000D03*
X140970000Y-73345000D03*
%TD*%
D23*
%TO.C,SW1*%
X136147000Y-79540000D03*
X136147000Y-76140000D03*
%TD*%
D14*
%TO.C,R2*%
X178792500Y-91440000D03*
X180617500Y-91440000D03*
%TD*%
D24*
%TO.C,C7*%
X137160000Y-87950000D03*
X137160000Y-89850000D03*
%TD*%
D17*
%TO.C,R5*%
X155575000Y-100682500D03*
X155575000Y-102507500D03*
%TD*%
D25*
%TO.C,C2*%
X164805000Y-93980000D03*
X169205000Y-93980000D03*
%TD*%
D26*
%TO.C,U9*%
X151237500Y-100850000D03*
D27*
X151237500Y-101350000D03*
X151237500Y-101850000D03*
D28*
X151237500Y-102350000D03*
D29*
X151900000Y-102512500D03*
D30*
X152400000Y-102512500D03*
D31*
X152900000Y-102512500D03*
D32*
X153562500Y-102350000D03*
D27*
X153562500Y-101850000D03*
X153562500Y-101350000D03*
D33*
X153562500Y-100850000D03*
D34*
X152900000Y-100687500D03*
D30*
X152400000Y-100687500D03*
D35*
X151900000Y-100687500D03*
%TD*%
D18*
%TO.C,U5*%
X166115000Y-108815000D03*
D19*
X166027500Y-107315000D03*
D18*
X166115000Y-105815000D03*
%TD*%
D36*
%TO.C,GPS1*%
X138080000Y-93330000D03*
X138080000Y-94430000D03*
X138080000Y-95530000D03*
X138080000Y-96630000D03*
X138080000Y-97730000D03*
X138080000Y-98830000D03*
X138080000Y-99930000D03*
X138080000Y-102930000D03*
X138080000Y-104030000D03*
X138080000Y-105130000D03*
X138080000Y-106230000D03*
X138080000Y-107330000D03*
X126080000Y-107330000D03*
X126080000Y-106230000D03*
X126080000Y-105130000D03*
X126080000Y-104030000D03*
X126080000Y-102930000D03*
X126080000Y-99930000D03*
X126080000Y-98830000D03*
X126080000Y-97730000D03*
X126080000Y-96630000D03*
X126080000Y-95530000D03*
X126080000Y-94430000D03*
X126080000Y-93330000D03*
%TD*%
D24*
%TO.C,C12*%
X169545000Y-105730000D03*
X169545000Y-107630000D03*
%TD*%
D37*
%TO.C,EEPROM1*%
X127312500Y-87925000D03*
X127312500Y-88575000D03*
X127312500Y-89225000D03*
X127312500Y-89875000D03*
X133037500Y-89875000D03*
X133037500Y-89225000D03*
X133037500Y-88575000D03*
X133037500Y-87925000D03*
%TD*%
D15*
%TO.C,R1*%
X180617500Y-88900000D03*
X178792500Y-88900000D03*
%TD*%
D24*
%TO.C,C6*%
X136144000Y-71948000D03*
X136144000Y-73848000D03*
%TD*%
D17*
%TO.C,R4*%
X149225000Y-100682500D03*
X149225000Y-102507500D03*
%TD*%
D38*
%TO.C,U6*%
X175910000Y-89520000D03*
X174610000Y-90820000D03*
X174610000Y-89520000D03*
X175910000Y-90820000D03*
D39*
X174260000Y-92095000D03*
X174760000Y-92095000D03*
X175260000Y-92095000D03*
X175760000Y-92095000D03*
X176260000Y-92095000D03*
D40*
X177185000Y-91170000D03*
X177185000Y-90670000D03*
X177185000Y-90170000D03*
X177185000Y-89670000D03*
X177185000Y-89170000D03*
D39*
X176260000Y-88245000D03*
X175760000Y-88245000D03*
X175260000Y-88245000D03*
X174760000Y-88245000D03*
X174260000Y-88245000D03*
D40*
X173335000Y-89170000D03*
X173335000Y-89670000D03*
X173335000Y-90170000D03*
X173335000Y-90670000D03*
X173335000Y-91170000D03*
%TD*%
D41*
%TO.C,USB-C*%
X176035000Y-103680000D03*
X176035000Y-102880000D03*
X176035000Y-101580000D03*
X176035000Y-100580000D03*
X176035000Y-100080000D03*
X176035000Y-99080000D03*
X176035000Y-97780000D03*
X176035000Y-96980000D03*
X176035000Y-97280000D03*
X176035000Y-98080000D03*
X176035000Y-98580000D03*
X176035000Y-99580000D03*
X176035000Y-101080000D03*
X176035000Y-102080000D03*
X176035000Y-102580000D03*
X176035000Y-103380000D03*
%TD*%
D11*
%TO.C,C1*%
X151450000Y-104775000D03*
X153350000Y-104775000D03*
%TD*%
D42*
%TO.C,Antenna*%
X132080000Y-113260000D03*
D43*
X133555000Y-111760000D03*
X130605000Y-111760000D03*
D42*
X132080000Y-110260000D03*
%TD*%
M02*
